%TF.GenerationSoftware,KiCad,Pcbnew,(6.0.6)*%
%TF.CreationDate,2022-12-26T19:12:46+01:00*%
%TF.ProjectId,ESPkamstrup,4553506b-616d-4737-9472-75702e6b6963,rev?*%
%TF.SameCoordinates,Original*%
%TF.FileFunction,Legend,Bot*%
%TF.FilePolarity,Positive*%
%FSLAX46Y46*%
G04 Gerber Fmt 4.6, Leading zero omitted, Abs format (unit mm)*
G04 Created by KiCad (PCBNEW (6.0.6)) date 2022-12-26 19:12:46*
%MOMM*%
%LPD*%
G01*
G04 APERTURE LIST*
%ADD10C,0.001000*%
%ADD11C,0.250000*%
%ADD12C,0.150000*%
%ADD13C,0.120000*%
G04 APERTURE END LIST*
D10*
G36*
X130104260Y-94990749D02*
G01*
X130077505Y-95001150D01*
X130050172Y-95012457D01*
X130022184Y-95024708D01*
X129993459Y-95037940D01*
X129963919Y-95052190D01*
X129933485Y-95067495D01*
X129902076Y-95083894D01*
X129869614Y-95101423D01*
X129849360Y-95112487D01*
X129830733Y-95122582D01*
X129815797Y-95130595D01*
X129806621Y-95135409D01*
X129793456Y-95142970D01*
X129774421Y-95155058D01*
X129751268Y-95170458D01*
X129725745Y-95187954D01*
X129699604Y-95206331D01*
X129674594Y-95224375D01*
X129652465Y-95240869D01*
X129634968Y-95254600D01*
X129612213Y-95274292D01*
X129584630Y-95299858D01*
X129553970Y-95329519D01*
X129521986Y-95361498D01*
X129490428Y-95394016D01*
X129461048Y-95425295D01*
X129435599Y-95453558D01*
X129415831Y-95477027D01*
X129404555Y-95491946D01*
X129392109Y-95509872D01*
X129378635Y-95530570D01*
X129364275Y-95553806D01*
X129349170Y-95579343D01*
X129333464Y-95606948D01*
X129317297Y-95636385D01*
X129300812Y-95667419D01*
X129285611Y-95697914D01*
X129278705Y-95712923D01*
X129272240Y-95727843D01*
X129266200Y-95742730D01*
X129260569Y-95757636D01*
X129255328Y-95772616D01*
X129250463Y-95787722D01*
X129245956Y-95803008D01*
X129241792Y-95818528D01*
X129237952Y-95834335D01*
X129234422Y-95850484D01*
X129231184Y-95867027D01*
X129228222Y-95884019D01*
X129223060Y-95919561D01*
X129221557Y-95936966D01*
X129220324Y-95962409D01*
X129218761Y-96029912D01*
X129218554Y-96107076D01*
X129219017Y-96144595D01*
X129219887Y-96178906D01*
X129220530Y-96198405D01*
X129220951Y-96213447D01*
X129221068Y-96219587D01*
X129221118Y-96224963D01*
X129221095Y-96229690D01*
X129220998Y-96233885D01*
X129220821Y-96237665D01*
X129220560Y-96241145D01*
X129220211Y-96244443D01*
X129219771Y-96247674D01*
X129219236Y-96250956D01*
X129218600Y-96254405D01*
X129217015Y-96262267D01*
X129215389Y-96270030D01*
X129213867Y-96277000D01*
X129212417Y-96283249D01*
X129211005Y-96288848D01*
X129209600Y-96293865D01*
X129208167Y-96298373D01*
X129207430Y-96300458D01*
X129206675Y-96302442D01*
X129205896Y-96304334D01*
X129205090Y-96306143D01*
X129204253Y-96307877D01*
X129203380Y-96309546D01*
X129202468Y-96311158D01*
X129201512Y-96312722D01*
X129200508Y-96314246D01*
X129199453Y-96315741D01*
X129198342Y-96317214D01*
X129197171Y-96318674D01*
X129194633Y-96321592D01*
X129191805Y-96324566D01*
X129188656Y-96327665D01*
X129185153Y-96330961D01*
X129181082Y-96334612D01*
X129176941Y-96338094D01*
X129172725Y-96341407D01*
X129168428Y-96344556D01*
X129164046Y-96347542D01*
X129159574Y-96350367D01*
X129155008Y-96353035D01*
X129150341Y-96355548D01*
X129145570Y-96357908D01*
X129140690Y-96360118D01*
X129135696Y-96362181D01*
X129130582Y-96364098D01*
X129125345Y-96365873D01*
X129119979Y-96367507D01*
X129114479Y-96369004D01*
X129108840Y-96370366D01*
X129108836Y-96370365D01*
X129103953Y-96371259D01*
X129098503Y-96371874D01*
X129092578Y-96372222D01*
X129086265Y-96372315D01*
X129079653Y-96372165D01*
X129072833Y-96371783D01*
X129065893Y-96371180D01*
X129058922Y-96370370D01*
X129052009Y-96369362D01*
X129045245Y-96368169D01*
X129038717Y-96366803D01*
X129032515Y-96365275D01*
X129026728Y-96363598D01*
X129021446Y-96361781D01*
X129016758Y-96359838D01*
X129012752Y-96357780D01*
X129010246Y-96356197D01*
X129007456Y-96354205D01*
X129004430Y-96351853D01*
X129001218Y-96349193D01*
X128997869Y-96346273D01*
X128994434Y-96343142D01*
X128990960Y-96339850D01*
X128987498Y-96336447D01*
X128984098Y-96332982D01*
X128980808Y-96329505D01*
X128977678Y-96326065D01*
X128974757Y-96322711D01*
X128972096Y-96319493D01*
X128969743Y-96316461D01*
X128967748Y-96313664D01*
X128966160Y-96311152D01*
X128964790Y-96308698D01*
X128963516Y-96306213D01*
X128962334Y-96303673D01*
X128961236Y-96301053D01*
X128960219Y-96298331D01*
X128959275Y-96295483D01*
X128958400Y-96292487D01*
X128957588Y-96289317D01*
X128956833Y-96285952D01*
X128956130Y-96282366D01*
X128954856Y-96274444D01*
X128953721Y-96265362D01*
X128952680Y-96254933D01*
X128953217Y-95955066D01*
X128960386Y-95223856D01*
X129224462Y-95223856D01*
X129231089Y-95237235D01*
X129231895Y-95238822D01*
X129232714Y-95240357D01*
X129233543Y-95241837D01*
X129234383Y-95243260D01*
X129235231Y-95244625D01*
X129236086Y-95245929D01*
X129236947Y-95247171D01*
X129237811Y-95248350D01*
X129238679Y-95249462D01*
X129239548Y-95250506D01*
X129240417Y-95251481D01*
X129241284Y-95252385D01*
X129242149Y-95253215D01*
X129243009Y-95253969D01*
X129243863Y-95254647D01*
X129244710Y-95255245D01*
X129244711Y-95255246D01*
X129246271Y-95256188D01*
X129247932Y-95257022D01*
X129249681Y-95257747D01*
X129251502Y-95258361D01*
X129253382Y-95258866D01*
X129255306Y-95259258D01*
X129257260Y-95259538D01*
X129259229Y-95259705D01*
X129261199Y-95259759D01*
X129263155Y-95259697D01*
X129265084Y-95259520D01*
X129266971Y-95259226D01*
X129268801Y-95258816D01*
X129270561Y-95258287D01*
X129272235Y-95257640D01*
X129273809Y-95256873D01*
X129274469Y-95256442D01*
X129275360Y-95255744D01*
X129277779Y-95253611D01*
X129280943Y-95250598D01*
X129284729Y-95246829D01*
X129289016Y-95242428D01*
X129293681Y-95237518D01*
X129298601Y-95232224D01*
X129303655Y-95226670D01*
X129330672Y-95196935D01*
X129354575Y-95171458D01*
X129377154Y-95148591D01*
X129400195Y-95126690D01*
X129425488Y-95104108D01*
X129454821Y-95079199D01*
X129489982Y-95050318D01*
X129532759Y-95015819D01*
X129591007Y-94969011D01*
X129593582Y-94966884D01*
X129595903Y-94964868D01*
X129597973Y-94962956D01*
X129599797Y-94961137D01*
X129600618Y-94960261D01*
X129601379Y-94959405D01*
X129602081Y-94958569D01*
X129602724Y-94957751D01*
X129603309Y-94956950D01*
X129603836Y-94956165D01*
X129604306Y-94955396D01*
X129604719Y-94954640D01*
X129605076Y-94953898D01*
X129605378Y-94953168D01*
X129605625Y-94952448D01*
X129605817Y-94951739D01*
X129605955Y-94951038D01*
X129606040Y-94950345D01*
X129606072Y-94949659D01*
X129606052Y-94948978D01*
X129605980Y-94948302D01*
X129605857Y-94947630D01*
X129605683Y-94946960D01*
X129605459Y-94946291D01*
X129605186Y-94945623D01*
X129604864Y-94944954D01*
X129604493Y-94944283D01*
X129604074Y-94943609D01*
X129603231Y-94942456D01*
X129602155Y-94941198D01*
X129600879Y-94939861D01*
X129599437Y-94938467D01*
X129597861Y-94937044D01*
X129596184Y-94935614D01*
X129594439Y-94934203D01*
X129592660Y-94932836D01*
X129590879Y-94931537D01*
X129589129Y-94930331D01*
X129587444Y-94929243D01*
X129585856Y-94928297D01*
X129584398Y-94927518D01*
X129583104Y-94926931D01*
X129582006Y-94926561D01*
X129581541Y-94926465D01*
X129581137Y-94926432D01*
X129579811Y-94926121D01*
X129577092Y-94925230D01*
X129568137Y-94921959D01*
X129555597Y-94917116D01*
X129540794Y-94911203D01*
X129524450Y-94904694D01*
X129507967Y-94898371D01*
X129491169Y-94892172D01*
X129473877Y-94886037D01*
X129455913Y-94879902D01*
X129437098Y-94873706D01*
X129396205Y-94860881D01*
X129359743Y-94850028D01*
X129319852Y-94838534D01*
X129285205Y-94828862D01*
X129272558Y-94825478D01*
X129264474Y-94823473D01*
X129262207Y-94823036D01*
X129259867Y-94822715D01*
X129257475Y-94822507D01*
X129255054Y-94822408D01*
X129252625Y-94822416D01*
X129250209Y-94822526D01*
X129247827Y-94822736D01*
X129245500Y-94823042D01*
X129243251Y-94823441D01*
X129241100Y-94823929D01*
X129239069Y-94824504D01*
X129237179Y-94825162D01*
X129235452Y-94825900D01*
X129233908Y-94826714D01*
X129233212Y-94827149D01*
X129232570Y-94827602D01*
X129231985Y-94828072D01*
X129231458Y-94828559D01*
X129227057Y-94832961D01*
X129225759Y-95028409D01*
X129224462Y-95223856D01*
X128960386Y-95223856D01*
X128963006Y-94956615D01*
X128963705Y-94879185D01*
X128964073Y-94814179D01*
X128964087Y-94768419D01*
X128963954Y-94754889D01*
X128963723Y-94748727D01*
X128963402Y-94746540D01*
X128963003Y-94744367D01*
X128962530Y-94742217D01*
X128961986Y-94740097D01*
X128961375Y-94738018D01*
X128960700Y-94735987D01*
X128959966Y-94734013D01*
X128959176Y-94732104D01*
X128958334Y-94730269D01*
X128957444Y-94728517D01*
X128956508Y-94726856D01*
X128955532Y-94725295D01*
X128954519Y-94723841D01*
X128953472Y-94722505D01*
X128952396Y-94721293D01*
X128951293Y-94720216D01*
X128945105Y-94717690D01*
X128930512Y-94713107D01*
X128881774Y-94699315D01*
X128816417Y-94681936D01*
X128745779Y-94664069D01*
X128650149Y-94641520D01*
X128519521Y-94611636D01*
X128403579Y-94585671D01*
X128352007Y-94574879D01*
X128351626Y-94575023D01*
X128351177Y-94575319D01*
X128350665Y-94575758D01*
X128350095Y-94576332D01*
X128349473Y-94577032D01*
X128348806Y-94577851D01*
X128348099Y-94578781D01*
X128347356Y-94579813D01*
X128345792Y-94582151D01*
X128344157Y-94584800D01*
X128342499Y-94587696D01*
X128340863Y-94590773D01*
X128333057Y-94606024D01*
X128336137Y-94651478D01*
X128345465Y-94791613D01*
X128353941Y-94912999D01*
X128362556Y-95016426D01*
X128372347Y-95108671D01*
X128384352Y-95196515D01*
X128399610Y-95286734D01*
X128419157Y-95386108D01*
X128444032Y-95501415D01*
X128475272Y-95639433D01*
X128541775Y-95923108D01*
X128596516Y-96150089D01*
X128600816Y-96167089D01*
X128602548Y-96174143D01*
X128604017Y-96180357D01*
X128605232Y-96185825D01*
X128606204Y-96190641D01*
X128606945Y-96194898D01*
X128607465Y-96198690D01*
X128607774Y-96202111D01*
X128607854Y-96203711D01*
X128607884Y-96205254D01*
X128607868Y-96206750D01*
X128607806Y-96208212D01*
X128607549Y-96211080D01*
X128607125Y-96213952D01*
X128606545Y-96216920D01*
X128605819Y-96220078D01*
X128604958Y-96223520D01*
X128603009Y-96230722D01*
X128600941Y-96237539D01*
X128598741Y-96243992D01*
X128596396Y-96250099D01*
X128593893Y-96255879D01*
X128591221Y-96261352D01*
X128588366Y-96266537D01*
X128585316Y-96271452D01*
X128582059Y-96276117D01*
X128578581Y-96280552D01*
X128574870Y-96284774D01*
X128570914Y-96288804D01*
X128566699Y-96292660D01*
X128562214Y-96296362D01*
X128557445Y-96299929D01*
X128552381Y-96303379D01*
X128549507Y-96305198D01*
X128546635Y-96306903D01*
X128543750Y-96308500D01*
X128540835Y-96309996D01*
X128537874Y-96311394D01*
X128534850Y-96312702D01*
X128531747Y-96313924D01*
X128528548Y-96315066D01*
X128525239Y-96316133D01*
X128521801Y-96317131D01*
X128518219Y-96318066D01*
X128514476Y-96318944D01*
X128510557Y-96319768D01*
X128506444Y-96320546D01*
X128497574Y-96321984D01*
X128479899Y-96324579D01*
X128456408Y-96316752D01*
X128446005Y-96313229D01*
X128437128Y-96310050D01*
X128429144Y-96306924D01*
X128421419Y-96303559D01*
X128413320Y-96299666D01*
X128404211Y-96294953D01*
X128393460Y-96289130D01*
X128380432Y-96281905D01*
X128368199Y-96275160D01*
X128356148Y-96268684D01*
X128344096Y-96262386D01*
X128331864Y-96256176D01*
X128319271Y-96249962D01*
X128306136Y-96243656D01*
X128277517Y-96230403D01*
X128248181Y-96219096D01*
X128193769Y-96199992D01*
X128030446Y-96145226D01*
X127829004Y-96079768D01*
X127630903Y-96017283D01*
X127448760Y-95962352D01*
X127370296Y-95940208D01*
X127293644Y-95919927D01*
X127213859Y-95900246D01*
X127125997Y-95879903D01*
X126906259Y-95832174D01*
X126866630Y-95823708D01*
X126835275Y-95816830D01*
X126822280Y-95813872D01*
X126810849Y-95811173D01*
X126800813Y-95808687D01*
X126792004Y-95806369D01*
X126784255Y-95804173D01*
X126777397Y-95802053D01*
X126771262Y-95799963D01*
X126765682Y-95797856D01*
X126760488Y-95795689D01*
X126755512Y-95793413D01*
X126750586Y-95790985D01*
X126745542Y-95788357D01*
X126742795Y-95786788D01*
X126739984Y-95784979D01*
X126737132Y-95782950D01*
X126734257Y-95780721D01*
X126731379Y-95778313D01*
X126728518Y-95775748D01*
X126725693Y-95773045D01*
X126722925Y-95770226D01*
X126720232Y-95767310D01*
X126717636Y-95764320D01*
X126715154Y-95761275D01*
X126712808Y-95758197D01*
X126710617Y-95755106D01*
X126708601Y-95752022D01*
X126706778Y-95748967D01*
X126705170Y-95745961D01*
X126703867Y-95743278D01*
X126702661Y-95740602D01*
X126701547Y-95737914D01*
X126700521Y-95735192D01*
X126699578Y-95732417D01*
X126698715Y-95729568D01*
X126697926Y-95726625D01*
X126697208Y-95723568D01*
X126696556Y-95720376D01*
X126695964Y-95717029D01*
X126695430Y-95713507D01*
X126694948Y-95709789D01*
X126694123Y-95701686D01*
X126693455Y-95692556D01*
X126693080Y-95686077D01*
X126692961Y-95683347D01*
X126692899Y-95680887D01*
X126692902Y-95678646D01*
X126692977Y-95676572D01*
X126693133Y-95674615D01*
X126693378Y-95672722D01*
X126693719Y-95670842D01*
X126694164Y-95668924D01*
X126694722Y-95666916D01*
X126695401Y-95664766D01*
X126696208Y-95662424D01*
X126697152Y-95659837D01*
X126699481Y-95653724D01*
X126701996Y-95647341D01*
X126704433Y-95641454D01*
X126706817Y-95636028D01*
X126709176Y-95631025D01*
X126711536Y-95626409D01*
X126713922Y-95622145D01*
X126716361Y-95618196D01*
X126718879Y-95614526D01*
X126721503Y-95611098D01*
X126724259Y-95607877D01*
X126727172Y-95604826D01*
X126730270Y-95601909D01*
X126733578Y-95599089D01*
X126737123Y-95596331D01*
X126740931Y-95593598D01*
X126745029Y-95590854D01*
X126749016Y-95588338D01*
X126752870Y-95586072D01*
X126756649Y-95584044D01*
X126760409Y-95582241D01*
X126764204Y-95580652D01*
X126768092Y-95579266D01*
X126772127Y-95578069D01*
X126776367Y-95577050D01*
X126780867Y-95576197D01*
X126785684Y-95575497D01*
X126790872Y-95574940D01*
X126796489Y-95574512D01*
X126802590Y-95574203D01*
X126809231Y-95573999D01*
X126824359Y-95573861D01*
X126836389Y-95573903D01*
X126846052Y-95574042D01*
X126850190Y-95574168D01*
X126853970Y-95574342D01*
X126857470Y-95574572D01*
X126860767Y-95574866D01*
X126863939Y-95575232D01*
X126867065Y-95575678D01*
X126870221Y-95576212D01*
X126873487Y-95576842D01*
X126880656Y-95578420D01*
X126889195Y-95580477D01*
X126937417Y-95591528D01*
X127015780Y-95608866D01*
X127141947Y-95636930D01*
X127243871Y-95660807D01*
X127288151Y-95671761D01*
X127329262Y-95682368D01*
X127368166Y-95692864D01*
X127405828Y-95703482D01*
X127449181Y-95716134D01*
X127497123Y-95730636D01*
X127666202Y-95783437D01*
X128007409Y-95887623D01*
X128182014Y-95940057D01*
X128261342Y-95963143D01*
X128262356Y-95963261D01*
X128263390Y-95963331D01*
X128264440Y-95963355D01*
X128265506Y-95963333D01*
X128266583Y-95963268D01*
X128267671Y-95963159D01*
X128268765Y-95963009D01*
X128269863Y-95962819D01*
X128272064Y-95962321D01*
X128274252Y-95961676D01*
X128276407Y-95960892D01*
X128278510Y-95959980D01*
X128280540Y-95958948D01*
X128282476Y-95957807D01*
X128284299Y-95956566D01*
X128285162Y-95955911D01*
X128285989Y-95955235D01*
X128286777Y-95954538D01*
X128287524Y-95953822D01*
X128288228Y-95953088D01*
X128288886Y-95952337D01*
X128289495Y-95951571D01*
X128290053Y-95950791D01*
X128290558Y-95949997D01*
X128291006Y-95949192D01*
X128291987Y-95947244D01*
X128292876Y-95945366D01*
X128293676Y-95943557D01*
X128294385Y-95941818D01*
X128295005Y-95940147D01*
X128295534Y-95938544D01*
X128295974Y-95937008D01*
X128296324Y-95935539D01*
X128296585Y-95934136D01*
X128296756Y-95932798D01*
X128296837Y-95931525D01*
X128296830Y-95930317D01*
X128296733Y-95929172D01*
X128296548Y-95928091D01*
X128296422Y-95927574D01*
X128296274Y-95927072D01*
X128296103Y-95926586D01*
X128295911Y-95926116D01*
X128266499Y-95799421D01*
X128200168Y-95504813D01*
X128196568Y-95488831D01*
X128193307Y-95474692D01*
X128190327Y-95462277D01*
X128187570Y-95451469D01*
X128186257Y-95446631D01*
X128184978Y-95442149D01*
X128183726Y-95438011D01*
X128182494Y-95434200D01*
X128181274Y-95430702D01*
X128180059Y-95427503D01*
X128178842Y-95424587D01*
X128177616Y-95421939D01*
X128176373Y-95419546D01*
X128175107Y-95417392D01*
X128173809Y-95415462D01*
X128172473Y-95413741D01*
X128171092Y-95412216D01*
X128169657Y-95410871D01*
X128168163Y-95409691D01*
X128166602Y-95408661D01*
X128164966Y-95407767D01*
X128163248Y-95406995D01*
X128161442Y-95406328D01*
X128159539Y-95405753D01*
X128157533Y-95405254D01*
X128155417Y-95404818D01*
X128150823Y-95404071D01*
X128132592Y-95400573D01*
X128079707Y-95388908D01*
X127765001Y-95317531D01*
X127505655Y-95258653D01*
X127445567Y-95245046D01*
X127424806Y-95240268D01*
X127408869Y-95236512D01*
X127396733Y-95233533D01*
X127387372Y-95231086D01*
X127379765Y-95228924D01*
X127372887Y-95226802D01*
X127367379Y-95224945D01*
X127362149Y-95222968D01*
X127357186Y-95220861D01*
X127352480Y-95218619D01*
X127348023Y-95216232D01*
X127343804Y-95213694D01*
X127339813Y-95210995D01*
X127336041Y-95208129D01*
X127332478Y-95205088D01*
X127329115Y-95201863D01*
X127325941Y-95198448D01*
X127322947Y-95194833D01*
X127320124Y-95191012D01*
X127317461Y-95186977D01*
X127314949Y-95182719D01*
X127312579Y-95178231D01*
X127308563Y-95169939D01*
X127306898Y-95166222D01*
X127305446Y-95162709D01*
X127304194Y-95159336D01*
X127303130Y-95156042D01*
X127302244Y-95152765D01*
X127301522Y-95149441D01*
X127300954Y-95146008D01*
X127300526Y-95142405D01*
X127300228Y-95138569D01*
X127300047Y-95134437D01*
X127299972Y-95129947D01*
X127299990Y-95125037D01*
X127300258Y-95113708D01*
X127300590Y-95104173D01*
X127300761Y-95100183D01*
X127300948Y-95096641D01*
X127301158Y-95093495D01*
X127301401Y-95090691D01*
X127301685Y-95088177D01*
X127302019Y-95085900D01*
X127302413Y-95083809D01*
X127302874Y-95081849D01*
X127303412Y-95079968D01*
X127304035Y-95078115D01*
X127304752Y-95076235D01*
X127305572Y-95074276D01*
X127306504Y-95072186D01*
X127307556Y-95069913D01*
X127309080Y-95066800D01*
X127310696Y-95063777D01*
X127312409Y-95060841D01*
X127314220Y-95057988D01*
X127316133Y-95055215D01*
X127318150Y-95052519D01*
X127320274Y-95049897D01*
X127322508Y-95047346D01*
X127324856Y-95044863D01*
X127327319Y-95042444D01*
X127329900Y-95040087D01*
X127332604Y-95037789D01*
X127335431Y-95035545D01*
X127338385Y-95033354D01*
X127341470Y-95031212D01*
X127344687Y-95029116D01*
X127353829Y-95023588D01*
X127362703Y-95018802D01*
X127371499Y-95014759D01*
X127380407Y-95011460D01*
X127389614Y-95008905D01*
X127399311Y-95007096D01*
X127409687Y-95006033D01*
X127420931Y-95005718D01*
X127433232Y-95006151D01*
X127446780Y-95007333D01*
X127461764Y-95009266D01*
X127478373Y-95011950D01*
X127496797Y-95015386D01*
X127517224Y-95019575D01*
X127564847Y-95030217D01*
X127660339Y-95052002D01*
X127770677Y-95076784D01*
X127884486Y-95102457D01*
X127988326Y-95126382D01*
X128028067Y-95135516D01*
X128045523Y-95139390D01*
X128060948Y-95142714D01*
X128074028Y-95145420D01*
X128084447Y-95147442D01*
X128091890Y-95148714D01*
X128094397Y-95149047D01*
X128096042Y-95149168D01*
X128097415Y-95149162D01*
X128098779Y-95149119D01*
X128100136Y-95149037D01*
X128101486Y-95148918D01*
X128102828Y-95148761D01*
X128104163Y-95148566D01*
X128105491Y-95148333D01*
X128106812Y-95148062D01*
X128108127Y-95147753D01*
X128109435Y-95147406D01*
X128110737Y-95147021D01*
X128112034Y-95146597D01*
X128113325Y-95146135D01*
X128114610Y-95145635D01*
X128115891Y-95145096D01*
X128117166Y-95144519D01*
X128118670Y-95143797D01*
X128120051Y-95143093D01*
X128121321Y-95142397D01*
X128122489Y-95141698D01*
X128123567Y-95140985D01*
X128124565Y-95140248D01*
X128125493Y-95139477D01*
X128126363Y-95138660D01*
X128127184Y-95137787D01*
X128127968Y-95136847D01*
X128128725Y-95135830D01*
X128129465Y-95134726D01*
X128130200Y-95133523D01*
X128130939Y-95132211D01*
X128131694Y-95130779D01*
X128132475Y-95129218D01*
X128137637Y-95118670D01*
X128109791Y-94832673D01*
X128089454Y-94627362D01*
X128082746Y-94562318D01*
X128079663Y-94535355D01*
X128079196Y-94533248D01*
X128078634Y-94531068D01*
X128077982Y-94528830D01*
X128077249Y-94526550D01*
X128076440Y-94524243D01*
X128075564Y-94521925D01*
X128074626Y-94519613D01*
X128073634Y-94517320D01*
X128072595Y-94515064D01*
X128071516Y-94512859D01*
X128070404Y-94510722D01*
X128069266Y-94508668D01*
X128068108Y-94506712D01*
X128066939Y-94504871D01*
X128065764Y-94503160D01*
X128064591Y-94501594D01*
X128063918Y-94500992D01*
X128062771Y-94500325D01*
X128058865Y-94498748D01*
X128052492Y-94496765D01*
X128043275Y-94494278D01*
X128014788Y-94487406D01*
X127970374Y-94477349D01*
X127718689Y-94421222D01*
X127165082Y-94297745D01*
X126999989Y-94260802D01*
X126892181Y-94236478D01*
X126855730Y-94228132D01*
X126828767Y-94221841D01*
X126809681Y-94217238D01*
X126796858Y-94213957D01*
X126788689Y-94211631D01*
X126783562Y-94209893D01*
X126775989Y-94206715D01*
X126768951Y-94203785D01*
X126762464Y-94201018D01*
X126756490Y-94198390D01*
X126750990Y-94195880D01*
X126745927Y-94193466D01*
X126741264Y-94191125D01*
X126736963Y-94188836D01*
X126732986Y-94186576D01*
X126729295Y-94184322D01*
X126725852Y-94182053D01*
X126722621Y-94179746D01*
X126719562Y-94177380D01*
X126716639Y-94174932D01*
X126713814Y-94172379D01*
X126711049Y-94169700D01*
X126708305Y-94166872D01*
X126703710Y-94161818D01*
X126699560Y-94156848D01*
X126695841Y-94151911D01*
X126692539Y-94146958D01*
X126689640Y-94141941D01*
X126687130Y-94136809D01*
X126684995Y-94131514D01*
X126683221Y-94126006D01*
X126681794Y-94120235D01*
X126680699Y-94114153D01*
X126679924Y-94107710D01*
X126679454Y-94100856D01*
X126679274Y-94093542D01*
X126679372Y-94085719D01*
X126679732Y-94077337D01*
X126680341Y-94068348D01*
X126681161Y-94058150D01*
X126681531Y-94053929D01*
X126681891Y-94050216D01*
X126682255Y-94046952D01*
X126682635Y-94044080D01*
X126683044Y-94041541D01*
X126683496Y-94039276D01*
X126684002Y-94037229D01*
X126684577Y-94035340D01*
X126685232Y-94033551D01*
X126685982Y-94031805D01*
X126686838Y-94030042D01*
X126687814Y-94028206D01*
X126688923Y-94026237D01*
X126690177Y-94024078D01*
X126692187Y-94020779D01*
X126694304Y-94017571D01*
X126696527Y-94014452D01*
X126698854Y-94011424D01*
X126701287Y-94008488D01*
X126703824Y-94005642D01*
X126706465Y-94002889D01*
X126709209Y-94000228D01*
X126712056Y-93997660D01*
X126715005Y-93995186D01*
X126718057Y-93992805D01*
X126721209Y-93990519D01*
X126724463Y-93988328D01*
X126727816Y-93986231D01*
X126731270Y-93984231D01*
X126734823Y-93982326D01*
X126738794Y-93980319D01*
X126742601Y-93978477D01*
X126746263Y-93976795D01*
X126749797Y-93975269D01*
X126753219Y-93973892D01*
X126756548Y-93972660D01*
X126759801Y-93971570D01*
X126762996Y-93970614D01*
X126766149Y-93969790D01*
X126769278Y-93969091D01*
X126772401Y-93968513D01*
X126775534Y-93968051D01*
X126778696Y-93967700D01*
X126781904Y-93967455D01*
X126785175Y-93967312D01*
X126788527Y-93967266D01*
X126800832Y-93967468D01*
X126815906Y-93968987D01*
X126840013Y-93973196D01*
X126879416Y-93981464D01*
X127029165Y-94015663D01*
X127315263Y-94082552D01*
X127794846Y-94194716D01*
X128532746Y-94367523D01*
X128915024Y-94456906D01*
X128917258Y-94457339D01*
X128919454Y-94457703D01*
X128921611Y-94457998D01*
X128923730Y-94458224D01*
X128925811Y-94458381D01*
X128927855Y-94458469D01*
X128929862Y-94458488D01*
X128931833Y-94458438D01*
X128933766Y-94458318D01*
X128935664Y-94458129D01*
X128937526Y-94457870D01*
X128939352Y-94457541D01*
X128941144Y-94457142D01*
X128942900Y-94456673D01*
X128944622Y-94456134D01*
X128946309Y-94455525D01*
X128947963Y-94454845D01*
X128949583Y-94454095D01*
X128951169Y-94453274D01*
X128952723Y-94452383D01*
X128954244Y-94451420D01*
X128955732Y-94450387D01*
X128957189Y-94449282D01*
X128958613Y-94448106D01*
X128960007Y-94446859D01*
X128961369Y-94445540D01*
X128962700Y-94444150D01*
X128964000Y-94442688D01*
X128965271Y-94441154D01*
X128966511Y-94439548D01*
X128967722Y-94437871D01*
X128968904Y-94436121D01*
X128977338Y-94423213D01*
X128977358Y-94300727D01*
X128977379Y-94178241D01*
X128982433Y-94155961D01*
X128983525Y-94151251D01*
X128984574Y-94146986D01*
X128985607Y-94143119D01*
X128986653Y-94139599D01*
X128987739Y-94136377D01*
X128988893Y-94133404D01*
X128990143Y-94130630D01*
X128991517Y-94128005D01*
X128993042Y-94125480D01*
X128994748Y-94123006D01*
X128996661Y-94120533D01*
X128998809Y-94118011D01*
X129001220Y-94115392D01*
X129003922Y-94112625D01*
X129006944Y-94109662D01*
X129010312Y-94106452D01*
X129014525Y-94102572D01*
X129018592Y-94099047D01*
X129022572Y-94095850D01*
X129026528Y-94092958D01*
X129030519Y-94090347D01*
X129034608Y-94087993D01*
X129038855Y-94085871D01*
X129043323Y-94083957D01*
X129048071Y-94082227D01*
X129053161Y-94080657D01*
X129058655Y-94079222D01*
X129064613Y-94077899D01*
X129071097Y-94076663D01*
X129078168Y-94075489D01*
X129094315Y-94073235D01*
X129120841Y-94069859D01*
X129139142Y-94076294D01*
X129145838Y-94078690D01*
X129152045Y-94081004D01*
X129157805Y-94083259D01*
X129163159Y-94085482D01*
X129168150Y-94087695D01*
X129172818Y-94089923D01*
X129177206Y-94092192D01*
X129181355Y-94094525D01*
X129185307Y-94096947D01*
X129189104Y-94099482D01*
X129192787Y-94102155D01*
X129196398Y-94104990D01*
X129199979Y-94108013D01*
X129203572Y-94111246D01*
X129207218Y-94114716D01*
X129210959Y-94118445D01*
X129214827Y-94122479D01*
X129218720Y-94126722D01*
X129222532Y-94131047D01*
X129226158Y-94135327D01*
X129229492Y-94139434D01*
X129232428Y-94143242D01*
X129234862Y-94146624D01*
X129235857Y-94148115D01*
X129236687Y-94149451D01*
X129243891Y-94161612D01*
X129244920Y-94353115D01*
X129245281Y-94424049D01*
X129245452Y-94452260D01*
X129245660Y-94476135D01*
X129245938Y-94496053D01*
X129246113Y-94504645D01*
X129246318Y-94512389D01*
X129246556Y-94519331D01*
X129246831Y-94525520D01*
X129247148Y-94531001D01*
X129247511Y-94535823D01*
X129247924Y-94540031D01*
X129248390Y-94543674D01*
X129248915Y-94546798D01*
X129249200Y-94548181D01*
X129249501Y-94549451D01*
X129249818Y-94550615D01*
X129250153Y-94551679D01*
X129250505Y-94552648D01*
X129250874Y-94553530D01*
X129251263Y-94554328D01*
X129251670Y-94555050D01*
X129252097Y-94555701D01*
X129252544Y-94556287D01*
X129253012Y-94556814D01*
X129253500Y-94557288D01*
X129254010Y-94557715D01*
X129254542Y-94558100D01*
X129255097Y-94558450D01*
X129255675Y-94558770D01*
X129256901Y-94559345D01*
X129262830Y-94561639D01*
X129264982Y-94562519D01*
X129267315Y-94563395D01*
X129269754Y-94564245D01*
X129272224Y-94565046D01*
X129274653Y-94565774D01*
X129276964Y-94566406D01*
X129279085Y-94566919D01*
X129280941Y-94567289D01*
X129288462Y-94568914D01*
X129300791Y-94571959D01*
X129335733Y-94581193D01*
X129377498Y-94592750D01*
X129417817Y-94604390D01*
X129443667Y-94612346D01*
X129481337Y-94624303D01*
X129571912Y-94653737D01*
X129604690Y-94664576D01*
X129630619Y-94673243D01*
X129650660Y-94680094D01*
X129658774Y-94682948D01*
X129665776Y-94685481D01*
X129671786Y-94687737D01*
X129676926Y-94689759D01*
X129681315Y-94691592D01*
X129685073Y-94693281D01*
X129688321Y-94694869D01*
X129691178Y-94696401D01*
X129693766Y-94697920D01*
X129696203Y-94699472D01*
X129699709Y-94701830D01*
X129702997Y-94704144D01*
X129706082Y-94706431D01*
X129708981Y-94708709D01*
X129711707Y-94710992D01*
X129714277Y-94713299D01*
X129716705Y-94715645D01*
X129719008Y-94718047D01*
X129721199Y-94720522D01*
X129723295Y-94723086D01*
X129725310Y-94725756D01*
X129727260Y-94728548D01*
X129729160Y-94731478D01*
X129731026Y-94734565D01*
X129732872Y-94737823D01*
X129734714Y-94741269D01*
X129736501Y-94744891D01*
X129738165Y-94748649D01*
X129739706Y-94752544D01*
X129741125Y-94756577D01*
X129742421Y-94760751D01*
X129743594Y-94765067D01*
X129744646Y-94769525D01*
X129745576Y-94774128D01*
X129746385Y-94778877D01*
X129747073Y-94783772D01*
X129747639Y-94788817D01*
X129748086Y-94794011D01*
X129748411Y-94799356D01*
X129748617Y-94804854D01*
X129748702Y-94810506D01*
X129748668Y-94816313D01*
X129748655Y-94820766D01*
X129748757Y-94825096D01*
X129748971Y-94829292D01*
X129749297Y-94833345D01*
X129749730Y-94837244D01*
X129750268Y-94840979D01*
X129750910Y-94844541D01*
X129751652Y-94847919D01*
X129752493Y-94851103D01*
X129753429Y-94854083D01*
X129754459Y-94856849D01*
X129755579Y-94859391D01*
X129756788Y-94861698D01*
X129758083Y-94863762D01*
X129758763Y-94864699D01*
X129759462Y-94865571D01*
X129760182Y-94866376D01*
X129760922Y-94867115D01*
X129762709Y-94868683D01*
X129764535Y-94869958D01*
X129766533Y-94870898D01*
X129768836Y-94871464D01*
X129771577Y-94871616D01*
X129774888Y-94871312D01*
X129778903Y-94870513D01*
X129783753Y-94869178D01*
X129789572Y-94867266D01*
X129796493Y-94864738D01*
X129814170Y-94857669D01*
X129837846Y-94847649D01*
X129868585Y-94834353D01*
X129961614Y-94794376D01*
X130041525Y-94761213D01*
X130112283Y-94733508D01*
X130177852Y-94709905D01*
X130242199Y-94689045D01*
X130309287Y-94669571D01*
X130383082Y-94650128D01*
X130467549Y-94629357D01*
X130588057Y-94601089D01*
X130694770Y-94577992D01*
X130809569Y-94555570D01*
X130954336Y-94529326D01*
X131031552Y-94515579D01*
X131056240Y-94511117D01*
X131065778Y-94509361D01*
X131073701Y-94507872D01*
X131080202Y-94506615D01*
X131085473Y-94505551D01*
X131089707Y-94504646D01*
X131093096Y-94503861D01*
X131095833Y-94503161D01*
X131098110Y-94502509D01*
X131100119Y-94501867D01*
X131102052Y-94501201D01*
X131105205Y-94499984D01*
X131106676Y-94499335D01*
X131108075Y-94498659D01*
X131109404Y-94497956D01*
X131110663Y-94497227D01*
X131111850Y-94496470D01*
X131112967Y-94495687D01*
X131114013Y-94494877D01*
X131114988Y-94494041D01*
X131115892Y-94493178D01*
X131116725Y-94492289D01*
X131117487Y-94491373D01*
X131118179Y-94490431D01*
X131118799Y-94489463D01*
X131119347Y-94488469D01*
X131119825Y-94487449D01*
X131120232Y-94486403D01*
X131120567Y-94485331D01*
X131120831Y-94484233D01*
X131121023Y-94483110D01*
X131121145Y-94481961D01*
X131121194Y-94480786D01*
X131121173Y-94479586D01*
X131121080Y-94478361D01*
X131120915Y-94477110D01*
X131120679Y-94475834D01*
X131120372Y-94474532D01*
X131119992Y-94473206D01*
X131119541Y-94471855D01*
X131119019Y-94470478D01*
X131118424Y-94469077D01*
X131117356Y-94466815D01*
X131116159Y-94464543D01*
X131114819Y-94462243D01*
X131113319Y-94459898D01*
X131111643Y-94457489D01*
X131109776Y-94454997D01*
X131107701Y-94452405D01*
X131105402Y-94449694D01*
X131102865Y-94446846D01*
X131100073Y-94443843D01*
X131093659Y-94437298D01*
X131086035Y-94429913D01*
X131077073Y-94421542D01*
X131070482Y-94415551D01*
X131064726Y-94410545D01*
X131062054Y-94408337D01*
X131059461Y-94406286D01*
X131056905Y-94404362D01*
X131054342Y-94402535D01*
X131051730Y-94400775D01*
X131049025Y-94399052D01*
X131046184Y-94397337D01*
X131043164Y-94395600D01*
X131036416Y-94391939D01*
X131028435Y-94387831D01*
X130946756Y-94345207D01*
X130787614Y-94260537D01*
X130557852Y-94139003D01*
X130357527Y-94035883D01*
X130179603Y-93948005D01*
X130017044Y-93872202D01*
X129862814Y-93805302D01*
X129709877Y-93744138D01*
X129551198Y-93685539D01*
X129379739Y-93626336D01*
X129159969Y-93554998D01*
X128925371Y-93483951D01*
X128668131Y-93410906D01*
X128380436Y-93333574D01*
X128097887Y-93262284D01*
X127773362Y-93186691D01*
X127371332Y-93098799D01*
X126856267Y-92990614D01*
X126698875Y-92957946D01*
X126579240Y-92932986D01*
X126531802Y-92922995D01*
X126491667Y-92914450D01*
X126458123Y-92907189D01*
X126430458Y-92901053D01*
X126407960Y-92895881D01*
X126389916Y-92891512D01*
X126375615Y-92887786D01*
X126364345Y-92884543D01*
X126359623Y-92883051D01*
X126355393Y-92881621D01*
X126348047Y-92878860D01*
X126341595Y-92876100D01*
X126335326Y-92873180D01*
X126332124Y-92871541D01*
X126328871Y-92869651D01*
X126325575Y-92867518D01*
X126322248Y-92865153D01*
X126318900Y-92862567D01*
X126315541Y-92859770D01*
X126312181Y-92856771D01*
X126308831Y-92853581D01*
X126305502Y-92850210D01*
X126302203Y-92846669D01*
X126298944Y-92842966D01*
X126295737Y-92839114D01*
X126292591Y-92835120D01*
X126289518Y-92830997D01*
X126286526Y-92826753D01*
X126283627Y-92822400D01*
X126280843Y-92818029D01*
X126278363Y-92813967D01*
X126276173Y-92810152D01*
X126274257Y-92806524D01*
X126272600Y-92803022D01*
X126271188Y-92799584D01*
X126270005Y-92796149D01*
X126269037Y-92792656D01*
X126268268Y-92789044D01*
X126267684Y-92785251D01*
X126267269Y-92781218D01*
X126267009Y-92776881D01*
X126266889Y-92772181D01*
X126266893Y-92767056D01*
X126267217Y-92755287D01*
X126268367Y-92725800D01*
X126277606Y-92706808D01*
X126279003Y-92703974D01*
X126280338Y-92701347D01*
X126281629Y-92698905D01*
X126282894Y-92696623D01*
X126284150Y-92694477D01*
X126285415Y-92692444D01*
X126286705Y-92690499D01*
X126288040Y-92688619D01*
X126289435Y-92686781D01*
X126290909Y-92684959D01*
X126292479Y-92683131D01*
X126294162Y-92681273D01*
X126295976Y-92679360D01*
X126297939Y-92677370D01*
X126300068Y-92675277D01*
X126302381Y-92673058D01*
X126307749Y-92668062D01*
X126312867Y-92663524D01*
X126317778Y-92659425D01*
X126322522Y-92655747D01*
X126327143Y-92652470D01*
X126331681Y-92649577D01*
X126336178Y-92647048D01*
X126340677Y-92644865D01*
X126345219Y-92643010D01*
X126349847Y-92641463D01*
X126354602Y-92640205D01*
X126359525Y-92639219D01*
X126364660Y-92638486D01*
X126370047Y-92637986D01*
X126375729Y-92637701D01*
X126381747Y-92637613D01*
X126395180Y-92637835D01*
X126408569Y-92638569D01*
X126422683Y-92639930D01*
X126438292Y-92642035D01*
X126456164Y-92645001D01*
X126477069Y-92648945D01*
X126501777Y-92653982D01*
X126531056Y-92660230D01*
X126816130Y-92720736D01*
X127396330Y-92844486D01*
X127832036Y-92941820D01*
X128010767Y-92984068D01*
X128171449Y-93023895D01*
X128320108Y-93062698D01*
X128462768Y-93101868D01*
X128591411Y-93137946D01*
X128738407Y-93181034D01*
X128904273Y-93230710D01*
X129120102Y-93298466D01*
X129326756Y-93366117D01*
X129523222Y-93433291D01*
X129708487Y-93499616D01*
X129881539Y-93564722D01*
X130041366Y-93628237D01*
X130186955Y-93689790D01*
X130317293Y-93749009D01*
X130394566Y-93786173D01*
X130472863Y-93825069D01*
X130553977Y-93866652D01*
X130639696Y-93911881D01*
X130832119Y-94017102D01*
X131064455Y-94148391D01*
X131140171Y-94191574D01*
X131197087Y-94223839D01*
X131239659Y-94247699D01*
X131272343Y-94265670D01*
X131282196Y-94271155D01*
X131291331Y-94276609D01*
X131300427Y-94282531D01*
X131310163Y-94289416D01*
X131321218Y-94297763D01*
X131334270Y-94308069D01*
X131349999Y-94320832D01*
X131369083Y-94336547D01*
X131384686Y-94349622D01*
X131391387Y-94355415D01*
X131397462Y-94360838D01*
X131402992Y-94365981D01*
X131408058Y-94370940D01*
X131412741Y-94375806D01*
X131417121Y-94380672D01*
X131421280Y-94385633D01*
X131425298Y-94390780D01*
X131429257Y-94396208D01*
X131433237Y-94402009D01*
X131437319Y-94408276D01*
X131441584Y-94415102D01*
X131450987Y-94430804D01*
X131454055Y-94436142D01*
X131455380Y-94438562D01*
X131456582Y-94440860D01*
X131457672Y-94443070D01*
X131458664Y-94445224D01*
X131459569Y-94447355D01*
X131460399Y-94449496D01*
X131461166Y-94451680D01*
X131461884Y-94453940D01*
X131462563Y-94456309D01*
X131463217Y-94458820D01*
X131464495Y-94464399D01*
X131465815Y-94470941D01*
X131467419Y-94479640D01*
X131468770Y-94487862D01*
X131469869Y-94495640D01*
X131470712Y-94503006D01*
X131471297Y-94509994D01*
X131471624Y-94516637D01*
X131471690Y-94522967D01*
X131471493Y-94529017D01*
X131471032Y-94534820D01*
X131470304Y-94540408D01*
X131469308Y-94545816D01*
X131468042Y-94551075D01*
X131466505Y-94556218D01*
X131464694Y-94561279D01*
X131462607Y-94566290D01*
X131460243Y-94571283D01*
X131456051Y-94579233D01*
X131451260Y-94587578D01*
X131445939Y-94596233D01*
X131440157Y-94605111D01*
X131433984Y-94614123D01*
X131427489Y-94623183D01*
X131420742Y-94632204D01*
X131413811Y-94641098D01*
X131406766Y-94649778D01*
X131399677Y-94658157D01*
X131392612Y-94666148D01*
X131385642Y-94673663D01*
X131378835Y-94680615D01*
X131372261Y-94686917D01*
X131365990Y-94692482D01*
X131360090Y-94697223D01*
X131356703Y-94699691D01*
X131353091Y-94702150D01*
X131349264Y-94704595D01*
X131345232Y-94707021D01*
X131336598Y-94711795D01*
X131327271Y-94716435D01*
X131317333Y-94720900D01*
X131306869Y-94725151D01*
X131295961Y-94729149D01*
X131284693Y-94732855D01*
X131276340Y-94735349D01*
X131268145Y-94737497D01*
X131259089Y-94739465D01*
X131248157Y-94741421D01*
X131234330Y-94743530D01*
X131216592Y-94745962D01*
X131165312Y-94752456D01*
X131040284Y-94768337D01*
X130939665Y-94782023D01*
X130857445Y-94794369D01*
X130787614Y-94806231D01*
X130709410Y-94821728D01*
X130622060Y-94841300D01*
X130529106Y-94863991D01*
X130434091Y-94888844D01*
X130340557Y-94914902D01*
X130252045Y-94941210D01*
X130225662Y-94949659D01*
X130172099Y-94966811D01*
X130104260Y-94990749D01*
G37*
X130104260Y-94990749D02*
X130077505Y-95001150D01*
X130050172Y-95012457D01*
X130022184Y-95024708D01*
X129993459Y-95037940D01*
X129963919Y-95052190D01*
X129933485Y-95067495D01*
X129902076Y-95083894D01*
X129869614Y-95101423D01*
X129849360Y-95112487D01*
X129830733Y-95122582D01*
X129815797Y-95130595D01*
X129806621Y-95135409D01*
X129793456Y-95142970D01*
X129774421Y-95155058D01*
X129751268Y-95170458D01*
X129725745Y-95187954D01*
X129699604Y-95206331D01*
X129674594Y-95224375D01*
X129652465Y-95240869D01*
X129634968Y-95254600D01*
X129612213Y-95274292D01*
X129584630Y-95299858D01*
X129553970Y-95329519D01*
X129521986Y-95361498D01*
X129490428Y-95394016D01*
X129461048Y-95425295D01*
X129435599Y-95453558D01*
X129415831Y-95477027D01*
X129404555Y-95491946D01*
X129392109Y-95509872D01*
X129378635Y-95530570D01*
X129364275Y-95553806D01*
X129349170Y-95579343D01*
X129333464Y-95606948D01*
X129317297Y-95636385D01*
X129300812Y-95667419D01*
X129285611Y-95697914D01*
X129278705Y-95712923D01*
X129272240Y-95727843D01*
X129266200Y-95742730D01*
X129260569Y-95757636D01*
X129255328Y-95772616D01*
X129250463Y-95787722D01*
X129245956Y-95803008D01*
X129241792Y-95818528D01*
X129237952Y-95834335D01*
X129234422Y-95850484D01*
X129231184Y-95867027D01*
X129228222Y-95884019D01*
X129223060Y-95919561D01*
X129221557Y-95936966D01*
X129220324Y-95962409D01*
X129218761Y-96029912D01*
X129218554Y-96107076D01*
X129219017Y-96144595D01*
X129219887Y-96178906D01*
X129220530Y-96198405D01*
X129220951Y-96213447D01*
X129221068Y-96219587D01*
X129221118Y-96224963D01*
X129221095Y-96229690D01*
X129220998Y-96233885D01*
X129220821Y-96237665D01*
X129220560Y-96241145D01*
X129220211Y-96244443D01*
X129219771Y-96247674D01*
X129219236Y-96250956D01*
X129218600Y-96254405D01*
X129217015Y-96262267D01*
X129215389Y-96270030D01*
X129213867Y-96277000D01*
X129212417Y-96283249D01*
X129211005Y-96288848D01*
X129209600Y-96293865D01*
X129208167Y-96298373D01*
X129207430Y-96300458D01*
X129206675Y-96302442D01*
X129205896Y-96304334D01*
X129205090Y-96306143D01*
X129204253Y-96307877D01*
X129203380Y-96309546D01*
X129202468Y-96311158D01*
X129201512Y-96312722D01*
X129200508Y-96314246D01*
X129199453Y-96315741D01*
X129198342Y-96317214D01*
X129197171Y-96318674D01*
X129194633Y-96321592D01*
X129191805Y-96324566D01*
X129188656Y-96327665D01*
X129185153Y-96330961D01*
X129181082Y-96334612D01*
X129176941Y-96338094D01*
X129172725Y-96341407D01*
X129168428Y-96344556D01*
X129164046Y-96347542D01*
X129159574Y-96350367D01*
X129155008Y-96353035D01*
X129150341Y-96355548D01*
X129145570Y-96357908D01*
X129140690Y-96360118D01*
X129135696Y-96362181D01*
X129130582Y-96364098D01*
X129125345Y-96365873D01*
X129119979Y-96367507D01*
X129114479Y-96369004D01*
X129108840Y-96370366D01*
X129108836Y-96370365D01*
X129103953Y-96371259D01*
X129098503Y-96371874D01*
X129092578Y-96372222D01*
X129086265Y-96372315D01*
X129079653Y-96372165D01*
X129072833Y-96371783D01*
X129065893Y-96371180D01*
X129058922Y-96370370D01*
X129052009Y-96369362D01*
X129045245Y-96368169D01*
X129038717Y-96366803D01*
X129032515Y-96365275D01*
X129026728Y-96363598D01*
X129021446Y-96361781D01*
X129016758Y-96359838D01*
X129012752Y-96357780D01*
X129010246Y-96356197D01*
X129007456Y-96354205D01*
X129004430Y-96351853D01*
X129001218Y-96349193D01*
X128997869Y-96346273D01*
X128994434Y-96343142D01*
X128990960Y-96339850D01*
X128987498Y-96336447D01*
X128984098Y-96332982D01*
X128980808Y-96329505D01*
X128977678Y-96326065D01*
X128974757Y-96322711D01*
X128972096Y-96319493D01*
X128969743Y-96316461D01*
X128967748Y-96313664D01*
X128966160Y-96311152D01*
X128964790Y-96308698D01*
X128963516Y-96306213D01*
X128962334Y-96303673D01*
X128961236Y-96301053D01*
X128960219Y-96298331D01*
X128959275Y-96295483D01*
X128958400Y-96292487D01*
X128957588Y-96289317D01*
X128956833Y-96285952D01*
X128956130Y-96282366D01*
X128954856Y-96274444D01*
X128953721Y-96265362D01*
X128952680Y-96254933D01*
X128953217Y-95955066D01*
X128960386Y-95223856D01*
X129224462Y-95223856D01*
X129231089Y-95237235D01*
X129231895Y-95238822D01*
X129232714Y-95240357D01*
X129233543Y-95241837D01*
X129234383Y-95243260D01*
X129235231Y-95244625D01*
X129236086Y-95245929D01*
X129236947Y-95247171D01*
X129237811Y-95248350D01*
X129238679Y-95249462D01*
X129239548Y-95250506D01*
X129240417Y-95251481D01*
X129241284Y-95252385D01*
X129242149Y-95253215D01*
X129243009Y-95253969D01*
X129243863Y-95254647D01*
X129244710Y-95255245D01*
X129244711Y-95255246D01*
X129246271Y-95256188D01*
X129247932Y-95257022D01*
X129249681Y-95257747D01*
X129251502Y-95258361D01*
X129253382Y-95258866D01*
X129255306Y-95259258D01*
X129257260Y-95259538D01*
X129259229Y-95259705D01*
X129261199Y-95259759D01*
X129263155Y-95259697D01*
X129265084Y-95259520D01*
X129266971Y-95259226D01*
X129268801Y-95258816D01*
X129270561Y-95258287D01*
X129272235Y-95257640D01*
X129273809Y-95256873D01*
X129274469Y-95256442D01*
X129275360Y-95255744D01*
X129277779Y-95253611D01*
X129280943Y-95250598D01*
X129284729Y-95246829D01*
X129289016Y-95242428D01*
X129293681Y-95237518D01*
X129298601Y-95232224D01*
X129303655Y-95226670D01*
X129330672Y-95196935D01*
X129354575Y-95171458D01*
X129377154Y-95148591D01*
X129400195Y-95126690D01*
X129425488Y-95104108D01*
X129454821Y-95079199D01*
X129489982Y-95050318D01*
X129532759Y-95015819D01*
X129591007Y-94969011D01*
X129593582Y-94966884D01*
X129595903Y-94964868D01*
X129597973Y-94962956D01*
X129599797Y-94961137D01*
X129600618Y-94960261D01*
X129601379Y-94959405D01*
X129602081Y-94958569D01*
X129602724Y-94957751D01*
X129603309Y-94956950D01*
X129603836Y-94956165D01*
X129604306Y-94955396D01*
X129604719Y-94954640D01*
X129605076Y-94953898D01*
X129605378Y-94953168D01*
X129605625Y-94952448D01*
X129605817Y-94951739D01*
X129605955Y-94951038D01*
X129606040Y-94950345D01*
X129606072Y-94949659D01*
X129606052Y-94948978D01*
X129605980Y-94948302D01*
X129605857Y-94947630D01*
X129605683Y-94946960D01*
X129605459Y-94946291D01*
X129605186Y-94945623D01*
X129604864Y-94944954D01*
X129604493Y-94944283D01*
X129604074Y-94943609D01*
X129603231Y-94942456D01*
X129602155Y-94941198D01*
X129600879Y-94939861D01*
X129599437Y-94938467D01*
X129597861Y-94937044D01*
X129596184Y-94935614D01*
X129594439Y-94934203D01*
X129592660Y-94932836D01*
X129590879Y-94931537D01*
X129589129Y-94930331D01*
X129587444Y-94929243D01*
X129585856Y-94928297D01*
X129584398Y-94927518D01*
X129583104Y-94926931D01*
X129582006Y-94926561D01*
X129581541Y-94926465D01*
X129581137Y-94926432D01*
X129579811Y-94926121D01*
X129577092Y-94925230D01*
X129568137Y-94921959D01*
X129555597Y-94917116D01*
X129540794Y-94911203D01*
X129524450Y-94904694D01*
X129507967Y-94898371D01*
X129491169Y-94892172D01*
X129473877Y-94886037D01*
X129455913Y-94879902D01*
X129437098Y-94873706D01*
X129396205Y-94860881D01*
X129359743Y-94850028D01*
X129319852Y-94838534D01*
X129285205Y-94828862D01*
X129272558Y-94825478D01*
X129264474Y-94823473D01*
X129262207Y-94823036D01*
X129259867Y-94822715D01*
X129257475Y-94822507D01*
X129255054Y-94822408D01*
X129252625Y-94822416D01*
X129250209Y-94822526D01*
X129247827Y-94822736D01*
X129245500Y-94823042D01*
X129243251Y-94823441D01*
X129241100Y-94823929D01*
X129239069Y-94824504D01*
X129237179Y-94825162D01*
X129235452Y-94825900D01*
X129233908Y-94826714D01*
X129233212Y-94827149D01*
X129232570Y-94827602D01*
X129231985Y-94828072D01*
X129231458Y-94828559D01*
X129227057Y-94832961D01*
X129225759Y-95028409D01*
X129224462Y-95223856D01*
X128960386Y-95223856D01*
X128963006Y-94956615D01*
X128963705Y-94879185D01*
X128964073Y-94814179D01*
X128964087Y-94768419D01*
X128963954Y-94754889D01*
X128963723Y-94748727D01*
X128963402Y-94746540D01*
X128963003Y-94744367D01*
X128962530Y-94742217D01*
X128961986Y-94740097D01*
X128961375Y-94738018D01*
X128960700Y-94735987D01*
X128959966Y-94734013D01*
X128959176Y-94732104D01*
X128958334Y-94730269D01*
X128957444Y-94728517D01*
X128956508Y-94726856D01*
X128955532Y-94725295D01*
X128954519Y-94723841D01*
X128953472Y-94722505D01*
X128952396Y-94721293D01*
X128951293Y-94720216D01*
X128945105Y-94717690D01*
X128930512Y-94713107D01*
X128881774Y-94699315D01*
X128816417Y-94681936D01*
X128745779Y-94664069D01*
X128650149Y-94641520D01*
X128519521Y-94611636D01*
X128403579Y-94585671D01*
X128352007Y-94574879D01*
X128351626Y-94575023D01*
X128351177Y-94575319D01*
X128350665Y-94575758D01*
X128350095Y-94576332D01*
X128349473Y-94577032D01*
X128348806Y-94577851D01*
X128348099Y-94578781D01*
X128347356Y-94579813D01*
X128345792Y-94582151D01*
X128344157Y-94584800D01*
X128342499Y-94587696D01*
X128340863Y-94590773D01*
X128333057Y-94606024D01*
X128336137Y-94651478D01*
X128345465Y-94791613D01*
X128353941Y-94912999D01*
X128362556Y-95016426D01*
X128372347Y-95108671D01*
X128384352Y-95196515D01*
X128399610Y-95286734D01*
X128419157Y-95386108D01*
X128444032Y-95501415D01*
X128475272Y-95639433D01*
X128541775Y-95923108D01*
X128596516Y-96150089D01*
X128600816Y-96167089D01*
X128602548Y-96174143D01*
X128604017Y-96180357D01*
X128605232Y-96185825D01*
X128606204Y-96190641D01*
X128606945Y-96194898D01*
X128607465Y-96198690D01*
X128607774Y-96202111D01*
X128607854Y-96203711D01*
X128607884Y-96205254D01*
X128607868Y-96206750D01*
X128607806Y-96208212D01*
X128607549Y-96211080D01*
X128607125Y-96213952D01*
X128606545Y-96216920D01*
X128605819Y-96220078D01*
X128604958Y-96223520D01*
X128603009Y-96230722D01*
X128600941Y-96237539D01*
X128598741Y-96243992D01*
X128596396Y-96250099D01*
X128593893Y-96255879D01*
X128591221Y-96261352D01*
X128588366Y-96266537D01*
X128585316Y-96271452D01*
X128582059Y-96276117D01*
X128578581Y-96280552D01*
X128574870Y-96284774D01*
X128570914Y-96288804D01*
X128566699Y-96292660D01*
X128562214Y-96296362D01*
X128557445Y-96299929D01*
X128552381Y-96303379D01*
X128549507Y-96305198D01*
X128546635Y-96306903D01*
X128543750Y-96308500D01*
X128540835Y-96309996D01*
X128537874Y-96311394D01*
X128534850Y-96312702D01*
X128531747Y-96313924D01*
X128528548Y-96315066D01*
X128525239Y-96316133D01*
X128521801Y-96317131D01*
X128518219Y-96318066D01*
X128514476Y-96318944D01*
X128510557Y-96319768D01*
X128506444Y-96320546D01*
X128497574Y-96321984D01*
X128479899Y-96324579D01*
X128456408Y-96316752D01*
X128446005Y-96313229D01*
X128437128Y-96310050D01*
X128429144Y-96306924D01*
X128421419Y-96303559D01*
X128413320Y-96299666D01*
X128404211Y-96294953D01*
X128393460Y-96289130D01*
X128380432Y-96281905D01*
X128368199Y-96275160D01*
X128356148Y-96268684D01*
X128344096Y-96262386D01*
X128331864Y-96256176D01*
X128319271Y-96249962D01*
X128306136Y-96243656D01*
X128277517Y-96230403D01*
X128248181Y-96219096D01*
X128193769Y-96199992D01*
X128030446Y-96145226D01*
X127829004Y-96079768D01*
X127630903Y-96017283D01*
X127448760Y-95962352D01*
X127370296Y-95940208D01*
X127293644Y-95919927D01*
X127213859Y-95900246D01*
X127125997Y-95879903D01*
X126906259Y-95832174D01*
X126866630Y-95823708D01*
X126835275Y-95816830D01*
X126822280Y-95813872D01*
X126810849Y-95811173D01*
X126800813Y-95808687D01*
X126792004Y-95806369D01*
X126784255Y-95804173D01*
X126777397Y-95802053D01*
X126771262Y-95799963D01*
X126765682Y-95797856D01*
X126760488Y-95795689D01*
X126755512Y-95793413D01*
X126750586Y-95790985D01*
X126745542Y-95788357D01*
X126742795Y-95786788D01*
X126739984Y-95784979D01*
X126737132Y-95782950D01*
X126734257Y-95780721D01*
X126731379Y-95778313D01*
X126728518Y-95775748D01*
X126725693Y-95773045D01*
X126722925Y-95770226D01*
X126720232Y-95767310D01*
X126717636Y-95764320D01*
X126715154Y-95761275D01*
X126712808Y-95758197D01*
X126710617Y-95755106D01*
X126708601Y-95752022D01*
X126706778Y-95748967D01*
X126705170Y-95745961D01*
X126703867Y-95743278D01*
X126702661Y-95740602D01*
X126701547Y-95737914D01*
X126700521Y-95735192D01*
X126699578Y-95732417D01*
X126698715Y-95729568D01*
X126697926Y-95726625D01*
X126697208Y-95723568D01*
X126696556Y-95720376D01*
X126695964Y-95717029D01*
X126695430Y-95713507D01*
X126694948Y-95709789D01*
X126694123Y-95701686D01*
X126693455Y-95692556D01*
X126693080Y-95686077D01*
X126692961Y-95683347D01*
X126692899Y-95680887D01*
X126692902Y-95678646D01*
X126692977Y-95676572D01*
X126693133Y-95674615D01*
X126693378Y-95672722D01*
X126693719Y-95670842D01*
X126694164Y-95668924D01*
X126694722Y-95666916D01*
X126695401Y-95664766D01*
X126696208Y-95662424D01*
X126697152Y-95659837D01*
X126699481Y-95653724D01*
X126701996Y-95647341D01*
X126704433Y-95641454D01*
X126706817Y-95636028D01*
X126709176Y-95631025D01*
X126711536Y-95626409D01*
X126713922Y-95622145D01*
X126716361Y-95618196D01*
X126718879Y-95614526D01*
X126721503Y-95611098D01*
X126724259Y-95607877D01*
X126727172Y-95604826D01*
X126730270Y-95601909D01*
X126733578Y-95599089D01*
X126737123Y-95596331D01*
X126740931Y-95593598D01*
X126745029Y-95590854D01*
X126749016Y-95588338D01*
X126752870Y-95586072D01*
X126756649Y-95584044D01*
X126760409Y-95582241D01*
X126764204Y-95580652D01*
X126768092Y-95579266D01*
X126772127Y-95578069D01*
X126776367Y-95577050D01*
X126780867Y-95576197D01*
X126785684Y-95575497D01*
X126790872Y-95574940D01*
X126796489Y-95574512D01*
X126802590Y-95574203D01*
X126809231Y-95573999D01*
X126824359Y-95573861D01*
X126836389Y-95573903D01*
X126846052Y-95574042D01*
X126850190Y-95574168D01*
X126853970Y-95574342D01*
X126857470Y-95574572D01*
X126860767Y-95574866D01*
X126863939Y-95575232D01*
X126867065Y-95575678D01*
X126870221Y-95576212D01*
X126873487Y-95576842D01*
X126880656Y-95578420D01*
X126889195Y-95580477D01*
X126937417Y-95591528D01*
X127015780Y-95608866D01*
X127141947Y-95636930D01*
X127243871Y-95660807D01*
X127288151Y-95671761D01*
X127329262Y-95682368D01*
X127368166Y-95692864D01*
X127405828Y-95703482D01*
X127449181Y-95716134D01*
X127497123Y-95730636D01*
X127666202Y-95783437D01*
X128007409Y-95887623D01*
X128182014Y-95940057D01*
X128261342Y-95963143D01*
X128262356Y-95963261D01*
X128263390Y-95963331D01*
X128264440Y-95963355D01*
X128265506Y-95963333D01*
X128266583Y-95963268D01*
X128267671Y-95963159D01*
X128268765Y-95963009D01*
X128269863Y-95962819D01*
X128272064Y-95962321D01*
X128274252Y-95961676D01*
X128276407Y-95960892D01*
X128278510Y-95959980D01*
X128280540Y-95958948D01*
X128282476Y-95957807D01*
X128284299Y-95956566D01*
X128285162Y-95955911D01*
X128285989Y-95955235D01*
X128286777Y-95954538D01*
X128287524Y-95953822D01*
X128288228Y-95953088D01*
X128288886Y-95952337D01*
X128289495Y-95951571D01*
X128290053Y-95950791D01*
X128290558Y-95949997D01*
X128291006Y-95949192D01*
X128291987Y-95947244D01*
X128292876Y-95945366D01*
X128293676Y-95943557D01*
X128294385Y-95941818D01*
X128295005Y-95940147D01*
X128295534Y-95938544D01*
X128295974Y-95937008D01*
X128296324Y-95935539D01*
X128296585Y-95934136D01*
X128296756Y-95932798D01*
X128296837Y-95931525D01*
X128296830Y-95930317D01*
X128296733Y-95929172D01*
X128296548Y-95928091D01*
X128296422Y-95927574D01*
X128296274Y-95927072D01*
X128296103Y-95926586D01*
X128295911Y-95926116D01*
X128266499Y-95799421D01*
X128200168Y-95504813D01*
X128196568Y-95488831D01*
X128193307Y-95474692D01*
X128190327Y-95462277D01*
X128187570Y-95451469D01*
X128186257Y-95446631D01*
X128184978Y-95442149D01*
X128183726Y-95438011D01*
X128182494Y-95434200D01*
X128181274Y-95430702D01*
X128180059Y-95427503D01*
X128178842Y-95424587D01*
X128177616Y-95421939D01*
X128176373Y-95419546D01*
X128175107Y-95417392D01*
X128173809Y-95415462D01*
X128172473Y-95413741D01*
X128171092Y-95412216D01*
X128169657Y-95410871D01*
X128168163Y-95409691D01*
X128166602Y-95408661D01*
X128164966Y-95407767D01*
X128163248Y-95406995D01*
X128161442Y-95406328D01*
X128159539Y-95405753D01*
X128157533Y-95405254D01*
X128155417Y-95404818D01*
X128150823Y-95404071D01*
X128132592Y-95400573D01*
X128079707Y-95388908D01*
X127765001Y-95317531D01*
X127505655Y-95258653D01*
X127445567Y-95245046D01*
X127424806Y-95240268D01*
X127408869Y-95236512D01*
X127396733Y-95233533D01*
X127387372Y-95231086D01*
X127379765Y-95228924D01*
X127372887Y-95226802D01*
X127367379Y-95224945D01*
X127362149Y-95222968D01*
X127357186Y-95220861D01*
X127352480Y-95218619D01*
X127348023Y-95216232D01*
X127343804Y-95213694D01*
X127339813Y-95210995D01*
X127336041Y-95208129D01*
X127332478Y-95205088D01*
X127329115Y-95201863D01*
X127325941Y-95198448D01*
X127322947Y-95194833D01*
X127320124Y-95191012D01*
X127317461Y-95186977D01*
X127314949Y-95182719D01*
X127312579Y-95178231D01*
X127308563Y-95169939D01*
X127306898Y-95166222D01*
X127305446Y-95162709D01*
X127304194Y-95159336D01*
X127303130Y-95156042D01*
X127302244Y-95152765D01*
X127301522Y-95149441D01*
X127300954Y-95146008D01*
X127300526Y-95142405D01*
X127300228Y-95138569D01*
X127300047Y-95134437D01*
X127299972Y-95129947D01*
X127299990Y-95125037D01*
X127300258Y-95113708D01*
X127300590Y-95104173D01*
X127300761Y-95100183D01*
X127300948Y-95096641D01*
X127301158Y-95093495D01*
X127301401Y-95090691D01*
X127301685Y-95088177D01*
X127302019Y-95085900D01*
X127302413Y-95083809D01*
X127302874Y-95081849D01*
X127303412Y-95079968D01*
X127304035Y-95078115D01*
X127304752Y-95076235D01*
X127305572Y-95074276D01*
X127306504Y-95072186D01*
X127307556Y-95069913D01*
X127309080Y-95066800D01*
X127310696Y-95063777D01*
X127312409Y-95060841D01*
X127314220Y-95057988D01*
X127316133Y-95055215D01*
X127318150Y-95052519D01*
X127320274Y-95049897D01*
X127322508Y-95047346D01*
X127324856Y-95044863D01*
X127327319Y-95042444D01*
X127329900Y-95040087D01*
X127332604Y-95037789D01*
X127335431Y-95035545D01*
X127338385Y-95033354D01*
X127341470Y-95031212D01*
X127344687Y-95029116D01*
X127353829Y-95023588D01*
X127362703Y-95018802D01*
X127371499Y-95014759D01*
X127380407Y-95011460D01*
X127389614Y-95008905D01*
X127399311Y-95007096D01*
X127409687Y-95006033D01*
X127420931Y-95005718D01*
X127433232Y-95006151D01*
X127446780Y-95007333D01*
X127461764Y-95009266D01*
X127478373Y-95011950D01*
X127496797Y-95015386D01*
X127517224Y-95019575D01*
X127564847Y-95030217D01*
X127660339Y-95052002D01*
X127770677Y-95076784D01*
X127884486Y-95102457D01*
X127988326Y-95126382D01*
X128028067Y-95135516D01*
X128045523Y-95139390D01*
X128060948Y-95142714D01*
X128074028Y-95145420D01*
X128084447Y-95147442D01*
X128091890Y-95148714D01*
X128094397Y-95149047D01*
X128096042Y-95149168D01*
X128097415Y-95149162D01*
X128098779Y-95149119D01*
X128100136Y-95149037D01*
X128101486Y-95148918D01*
X128102828Y-95148761D01*
X128104163Y-95148566D01*
X128105491Y-95148333D01*
X128106812Y-95148062D01*
X128108127Y-95147753D01*
X128109435Y-95147406D01*
X128110737Y-95147021D01*
X128112034Y-95146597D01*
X128113325Y-95146135D01*
X128114610Y-95145635D01*
X128115891Y-95145096D01*
X128117166Y-95144519D01*
X128118670Y-95143797D01*
X128120051Y-95143093D01*
X128121321Y-95142397D01*
X128122489Y-95141698D01*
X128123567Y-95140985D01*
X128124565Y-95140248D01*
X128125493Y-95139477D01*
X128126363Y-95138660D01*
X128127184Y-95137787D01*
X128127968Y-95136847D01*
X128128725Y-95135830D01*
X128129465Y-95134726D01*
X128130200Y-95133523D01*
X128130939Y-95132211D01*
X128131694Y-95130779D01*
X128132475Y-95129218D01*
X128137637Y-95118670D01*
X128109791Y-94832673D01*
X128089454Y-94627362D01*
X128082746Y-94562318D01*
X128079663Y-94535355D01*
X128079196Y-94533248D01*
X128078634Y-94531068D01*
X128077982Y-94528830D01*
X128077249Y-94526550D01*
X128076440Y-94524243D01*
X128075564Y-94521925D01*
X128074626Y-94519613D01*
X128073634Y-94517320D01*
X128072595Y-94515064D01*
X128071516Y-94512859D01*
X128070404Y-94510722D01*
X128069266Y-94508668D01*
X128068108Y-94506712D01*
X128066939Y-94504871D01*
X128065764Y-94503160D01*
X128064591Y-94501594D01*
X128063918Y-94500992D01*
X128062771Y-94500325D01*
X128058865Y-94498748D01*
X128052492Y-94496765D01*
X128043275Y-94494278D01*
X128014788Y-94487406D01*
X127970374Y-94477349D01*
X127718689Y-94421222D01*
X127165082Y-94297745D01*
X126999989Y-94260802D01*
X126892181Y-94236478D01*
X126855730Y-94228132D01*
X126828767Y-94221841D01*
X126809681Y-94217238D01*
X126796858Y-94213957D01*
X126788689Y-94211631D01*
X126783562Y-94209893D01*
X126775989Y-94206715D01*
X126768951Y-94203785D01*
X126762464Y-94201018D01*
X126756490Y-94198390D01*
X126750990Y-94195880D01*
X126745927Y-94193466D01*
X126741264Y-94191125D01*
X126736963Y-94188836D01*
X126732986Y-94186576D01*
X126729295Y-94184322D01*
X126725852Y-94182053D01*
X126722621Y-94179746D01*
X126719562Y-94177380D01*
X126716639Y-94174932D01*
X126713814Y-94172379D01*
X126711049Y-94169700D01*
X126708305Y-94166872D01*
X126703710Y-94161818D01*
X126699560Y-94156848D01*
X126695841Y-94151911D01*
X126692539Y-94146958D01*
X126689640Y-94141941D01*
X126687130Y-94136809D01*
X126684995Y-94131514D01*
X126683221Y-94126006D01*
X126681794Y-94120235D01*
X126680699Y-94114153D01*
X126679924Y-94107710D01*
X126679454Y-94100856D01*
X126679274Y-94093542D01*
X126679372Y-94085719D01*
X126679732Y-94077337D01*
X126680341Y-94068348D01*
X126681161Y-94058150D01*
X126681531Y-94053929D01*
X126681891Y-94050216D01*
X126682255Y-94046952D01*
X126682635Y-94044080D01*
X126683044Y-94041541D01*
X126683496Y-94039276D01*
X126684002Y-94037229D01*
X126684577Y-94035340D01*
X126685232Y-94033551D01*
X126685982Y-94031805D01*
X126686838Y-94030042D01*
X126687814Y-94028206D01*
X126688923Y-94026237D01*
X126690177Y-94024078D01*
X126692187Y-94020779D01*
X126694304Y-94017571D01*
X126696527Y-94014452D01*
X126698854Y-94011424D01*
X126701287Y-94008488D01*
X126703824Y-94005642D01*
X126706465Y-94002889D01*
X126709209Y-94000228D01*
X126712056Y-93997660D01*
X126715005Y-93995186D01*
X126718057Y-93992805D01*
X126721209Y-93990519D01*
X126724463Y-93988328D01*
X126727816Y-93986231D01*
X126731270Y-93984231D01*
X126734823Y-93982326D01*
X126738794Y-93980319D01*
X126742601Y-93978477D01*
X126746263Y-93976795D01*
X126749797Y-93975269D01*
X126753219Y-93973892D01*
X126756548Y-93972660D01*
X126759801Y-93971570D01*
X126762996Y-93970614D01*
X126766149Y-93969790D01*
X126769278Y-93969091D01*
X126772401Y-93968513D01*
X126775534Y-93968051D01*
X126778696Y-93967700D01*
X126781904Y-93967455D01*
X126785175Y-93967312D01*
X126788527Y-93967266D01*
X126800832Y-93967468D01*
X126815906Y-93968987D01*
X126840013Y-93973196D01*
X126879416Y-93981464D01*
X127029165Y-94015663D01*
X127315263Y-94082552D01*
X127794846Y-94194716D01*
X128532746Y-94367523D01*
X128915024Y-94456906D01*
X128917258Y-94457339D01*
X128919454Y-94457703D01*
X128921611Y-94457998D01*
X128923730Y-94458224D01*
X128925811Y-94458381D01*
X128927855Y-94458469D01*
X128929862Y-94458488D01*
X128931833Y-94458438D01*
X128933766Y-94458318D01*
X128935664Y-94458129D01*
X128937526Y-94457870D01*
X128939352Y-94457541D01*
X128941144Y-94457142D01*
X128942900Y-94456673D01*
X128944622Y-94456134D01*
X128946309Y-94455525D01*
X128947963Y-94454845D01*
X128949583Y-94454095D01*
X128951169Y-94453274D01*
X128952723Y-94452383D01*
X128954244Y-94451420D01*
X128955732Y-94450387D01*
X128957189Y-94449282D01*
X128958613Y-94448106D01*
X128960007Y-94446859D01*
X128961369Y-94445540D01*
X128962700Y-94444150D01*
X128964000Y-94442688D01*
X128965271Y-94441154D01*
X128966511Y-94439548D01*
X128967722Y-94437871D01*
X128968904Y-94436121D01*
X128977338Y-94423213D01*
X128977358Y-94300727D01*
X128977379Y-94178241D01*
X128982433Y-94155961D01*
X128983525Y-94151251D01*
X128984574Y-94146986D01*
X128985607Y-94143119D01*
X128986653Y-94139599D01*
X128987739Y-94136377D01*
X128988893Y-94133404D01*
X128990143Y-94130630D01*
X128991517Y-94128005D01*
X128993042Y-94125480D01*
X128994748Y-94123006D01*
X128996661Y-94120533D01*
X128998809Y-94118011D01*
X129001220Y-94115392D01*
X129003922Y-94112625D01*
X129006944Y-94109662D01*
X129010312Y-94106452D01*
X129014525Y-94102572D01*
X129018592Y-94099047D01*
X129022572Y-94095850D01*
X129026528Y-94092958D01*
X129030519Y-94090347D01*
X129034608Y-94087993D01*
X129038855Y-94085871D01*
X129043323Y-94083957D01*
X129048071Y-94082227D01*
X129053161Y-94080657D01*
X129058655Y-94079222D01*
X129064613Y-94077899D01*
X129071097Y-94076663D01*
X129078168Y-94075489D01*
X129094315Y-94073235D01*
X129120841Y-94069859D01*
X129139142Y-94076294D01*
X129145838Y-94078690D01*
X129152045Y-94081004D01*
X129157805Y-94083259D01*
X129163159Y-94085482D01*
X129168150Y-94087695D01*
X129172818Y-94089923D01*
X129177206Y-94092192D01*
X129181355Y-94094525D01*
X129185307Y-94096947D01*
X129189104Y-94099482D01*
X129192787Y-94102155D01*
X129196398Y-94104990D01*
X129199979Y-94108013D01*
X129203572Y-94111246D01*
X129207218Y-94114716D01*
X129210959Y-94118445D01*
X129214827Y-94122479D01*
X129218720Y-94126722D01*
X129222532Y-94131047D01*
X129226158Y-94135327D01*
X129229492Y-94139434D01*
X129232428Y-94143242D01*
X129234862Y-94146624D01*
X129235857Y-94148115D01*
X129236687Y-94149451D01*
X129243891Y-94161612D01*
X129244920Y-94353115D01*
X129245281Y-94424049D01*
X129245452Y-94452260D01*
X129245660Y-94476135D01*
X129245938Y-94496053D01*
X129246113Y-94504645D01*
X129246318Y-94512389D01*
X129246556Y-94519331D01*
X129246831Y-94525520D01*
X129247148Y-94531001D01*
X129247511Y-94535823D01*
X129247924Y-94540031D01*
X129248390Y-94543674D01*
X129248915Y-94546798D01*
X129249200Y-94548181D01*
X129249501Y-94549451D01*
X129249818Y-94550615D01*
X129250153Y-94551679D01*
X129250505Y-94552648D01*
X129250874Y-94553530D01*
X129251263Y-94554328D01*
X129251670Y-94555050D01*
X129252097Y-94555701D01*
X129252544Y-94556287D01*
X129253012Y-94556814D01*
X129253500Y-94557288D01*
X129254010Y-94557715D01*
X129254542Y-94558100D01*
X129255097Y-94558450D01*
X129255675Y-94558770D01*
X129256901Y-94559345D01*
X129262830Y-94561639D01*
X129264982Y-94562519D01*
X129267315Y-94563395D01*
X129269754Y-94564245D01*
X129272224Y-94565046D01*
X129274653Y-94565774D01*
X129276964Y-94566406D01*
X129279085Y-94566919D01*
X129280941Y-94567289D01*
X129288462Y-94568914D01*
X129300791Y-94571959D01*
X129335733Y-94581193D01*
X129377498Y-94592750D01*
X129417817Y-94604390D01*
X129443667Y-94612346D01*
X129481337Y-94624303D01*
X129571912Y-94653737D01*
X129604690Y-94664576D01*
X129630619Y-94673243D01*
X129650660Y-94680094D01*
X129658774Y-94682948D01*
X129665776Y-94685481D01*
X129671786Y-94687737D01*
X129676926Y-94689759D01*
X129681315Y-94691592D01*
X129685073Y-94693281D01*
X129688321Y-94694869D01*
X129691178Y-94696401D01*
X129693766Y-94697920D01*
X129696203Y-94699472D01*
X129699709Y-94701830D01*
X129702997Y-94704144D01*
X129706082Y-94706431D01*
X129708981Y-94708709D01*
X129711707Y-94710992D01*
X129714277Y-94713299D01*
X129716705Y-94715645D01*
X129719008Y-94718047D01*
X129721199Y-94720522D01*
X129723295Y-94723086D01*
X129725310Y-94725756D01*
X129727260Y-94728548D01*
X129729160Y-94731478D01*
X129731026Y-94734565D01*
X129732872Y-94737823D01*
X129734714Y-94741269D01*
X129736501Y-94744891D01*
X129738165Y-94748649D01*
X129739706Y-94752544D01*
X129741125Y-94756577D01*
X129742421Y-94760751D01*
X129743594Y-94765067D01*
X129744646Y-94769525D01*
X129745576Y-94774128D01*
X129746385Y-94778877D01*
X129747073Y-94783772D01*
X129747639Y-94788817D01*
X129748086Y-94794011D01*
X129748411Y-94799356D01*
X129748617Y-94804854D01*
X129748702Y-94810506D01*
X129748668Y-94816313D01*
X129748655Y-94820766D01*
X129748757Y-94825096D01*
X129748971Y-94829292D01*
X129749297Y-94833345D01*
X129749730Y-94837244D01*
X129750268Y-94840979D01*
X129750910Y-94844541D01*
X129751652Y-94847919D01*
X129752493Y-94851103D01*
X129753429Y-94854083D01*
X129754459Y-94856849D01*
X129755579Y-94859391D01*
X129756788Y-94861698D01*
X129758083Y-94863762D01*
X129758763Y-94864699D01*
X129759462Y-94865571D01*
X129760182Y-94866376D01*
X129760922Y-94867115D01*
X129762709Y-94868683D01*
X129764535Y-94869958D01*
X129766533Y-94870898D01*
X129768836Y-94871464D01*
X129771577Y-94871616D01*
X129774888Y-94871312D01*
X129778903Y-94870513D01*
X129783753Y-94869178D01*
X129789572Y-94867266D01*
X129796493Y-94864738D01*
X129814170Y-94857669D01*
X129837846Y-94847649D01*
X129868585Y-94834353D01*
X129961614Y-94794376D01*
X130041525Y-94761213D01*
X130112283Y-94733508D01*
X130177852Y-94709905D01*
X130242199Y-94689045D01*
X130309287Y-94669571D01*
X130383082Y-94650128D01*
X130467549Y-94629357D01*
X130588057Y-94601089D01*
X130694770Y-94577992D01*
X130809569Y-94555570D01*
X130954336Y-94529326D01*
X131031552Y-94515579D01*
X131056240Y-94511117D01*
X131065778Y-94509361D01*
X131073701Y-94507872D01*
X131080202Y-94506615D01*
X131085473Y-94505551D01*
X131089707Y-94504646D01*
X131093096Y-94503861D01*
X131095833Y-94503161D01*
X131098110Y-94502509D01*
X131100119Y-94501867D01*
X131102052Y-94501201D01*
X131105205Y-94499984D01*
X131106676Y-94499335D01*
X131108075Y-94498659D01*
X131109404Y-94497956D01*
X131110663Y-94497227D01*
X131111850Y-94496470D01*
X131112967Y-94495687D01*
X131114013Y-94494877D01*
X131114988Y-94494041D01*
X131115892Y-94493178D01*
X131116725Y-94492289D01*
X131117487Y-94491373D01*
X131118179Y-94490431D01*
X131118799Y-94489463D01*
X131119347Y-94488469D01*
X131119825Y-94487449D01*
X131120232Y-94486403D01*
X131120567Y-94485331D01*
X131120831Y-94484233D01*
X131121023Y-94483110D01*
X131121145Y-94481961D01*
X131121194Y-94480786D01*
X131121173Y-94479586D01*
X131121080Y-94478361D01*
X131120915Y-94477110D01*
X131120679Y-94475834D01*
X131120372Y-94474532D01*
X131119992Y-94473206D01*
X131119541Y-94471855D01*
X131119019Y-94470478D01*
X131118424Y-94469077D01*
X131117356Y-94466815D01*
X131116159Y-94464543D01*
X131114819Y-94462243D01*
X131113319Y-94459898D01*
X131111643Y-94457489D01*
X131109776Y-94454997D01*
X131107701Y-94452405D01*
X131105402Y-94449694D01*
X131102865Y-94446846D01*
X131100073Y-94443843D01*
X131093659Y-94437298D01*
X131086035Y-94429913D01*
X131077073Y-94421542D01*
X131070482Y-94415551D01*
X131064726Y-94410545D01*
X131062054Y-94408337D01*
X131059461Y-94406286D01*
X131056905Y-94404362D01*
X131054342Y-94402535D01*
X131051730Y-94400775D01*
X131049025Y-94399052D01*
X131046184Y-94397337D01*
X131043164Y-94395600D01*
X131036416Y-94391939D01*
X131028435Y-94387831D01*
X130946756Y-94345207D01*
X130787614Y-94260537D01*
X130557852Y-94139003D01*
X130357527Y-94035883D01*
X130179603Y-93948005D01*
X130017044Y-93872202D01*
X129862814Y-93805302D01*
X129709877Y-93744138D01*
X129551198Y-93685539D01*
X129379739Y-93626336D01*
X129159969Y-93554998D01*
X128925371Y-93483951D01*
X128668131Y-93410906D01*
X128380436Y-93333574D01*
X128097887Y-93262284D01*
X127773362Y-93186691D01*
X127371332Y-93098799D01*
X126856267Y-92990614D01*
X126698875Y-92957946D01*
X126579240Y-92932986D01*
X126531802Y-92922995D01*
X126491667Y-92914450D01*
X126458123Y-92907189D01*
X126430458Y-92901053D01*
X126407960Y-92895881D01*
X126389916Y-92891512D01*
X126375615Y-92887786D01*
X126364345Y-92884543D01*
X126359623Y-92883051D01*
X126355393Y-92881621D01*
X126348047Y-92878860D01*
X126341595Y-92876100D01*
X126335326Y-92873180D01*
X126332124Y-92871541D01*
X126328871Y-92869651D01*
X126325575Y-92867518D01*
X126322248Y-92865153D01*
X126318900Y-92862567D01*
X126315541Y-92859770D01*
X126312181Y-92856771D01*
X126308831Y-92853581D01*
X126305502Y-92850210D01*
X126302203Y-92846669D01*
X126298944Y-92842966D01*
X126295737Y-92839114D01*
X126292591Y-92835120D01*
X126289518Y-92830997D01*
X126286526Y-92826753D01*
X126283627Y-92822400D01*
X126280843Y-92818029D01*
X126278363Y-92813967D01*
X126276173Y-92810152D01*
X126274257Y-92806524D01*
X126272600Y-92803022D01*
X126271188Y-92799584D01*
X126270005Y-92796149D01*
X126269037Y-92792656D01*
X126268268Y-92789044D01*
X126267684Y-92785251D01*
X126267269Y-92781218D01*
X126267009Y-92776881D01*
X126266889Y-92772181D01*
X126266893Y-92767056D01*
X126267217Y-92755287D01*
X126268367Y-92725800D01*
X126277606Y-92706808D01*
X126279003Y-92703974D01*
X126280338Y-92701347D01*
X126281629Y-92698905D01*
X126282894Y-92696623D01*
X126284150Y-92694477D01*
X126285415Y-92692444D01*
X126286705Y-92690499D01*
X126288040Y-92688619D01*
X126289435Y-92686781D01*
X126290909Y-92684959D01*
X126292479Y-92683131D01*
X126294162Y-92681273D01*
X126295976Y-92679360D01*
X126297939Y-92677370D01*
X126300068Y-92675277D01*
X126302381Y-92673058D01*
X126307749Y-92668062D01*
X126312867Y-92663524D01*
X126317778Y-92659425D01*
X126322522Y-92655747D01*
X126327143Y-92652470D01*
X126331681Y-92649577D01*
X126336178Y-92647048D01*
X126340677Y-92644865D01*
X126345219Y-92643010D01*
X126349847Y-92641463D01*
X126354602Y-92640205D01*
X126359525Y-92639219D01*
X126364660Y-92638486D01*
X126370047Y-92637986D01*
X126375729Y-92637701D01*
X126381747Y-92637613D01*
X126395180Y-92637835D01*
X126408569Y-92638569D01*
X126422683Y-92639930D01*
X126438292Y-92642035D01*
X126456164Y-92645001D01*
X126477069Y-92648945D01*
X126501777Y-92653982D01*
X126531056Y-92660230D01*
X126816130Y-92720736D01*
X127396330Y-92844486D01*
X127832036Y-92941820D01*
X128010767Y-92984068D01*
X128171449Y-93023895D01*
X128320108Y-93062698D01*
X128462768Y-93101868D01*
X128591411Y-93137946D01*
X128738407Y-93181034D01*
X128904273Y-93230710D01*
X129120102Y-93298466D01*
X129326756Y-93366117D01*
X129523222Y-93433291D01*
X129708487Y-93499616D01*
X129881539Y-93564722D01*
X130041366Y-93628237D01*
X130186955Y-93689790D01*
X130317293Y-93749009D01*
X130394566Y-93786173D01*
X130472863Y-93825069D01*
X130553977Y-93866652D01*
X130639696Y-93911881D01*
X130832119Y-94017102D01*
X131064455Y-94148391D01*
X131140171Y-94191574D01*
X131197087Y-94223839D01*
X131239659Y-94247699D01*
X131272343Y-94265670D01*
X131282196Y-94271155D01*
X131291331Y-94276609D01*
X131300427Y-94282531D01*
X131310163Y-94289416D01*
X131321218Y-94297763D01*
X131334270Y-94308069D01*
X131349999Y-94320832D01*
X131369083Y-94336547D01*
X131384686Y-94349622D01*
X131391387Y-94355415D01*
X131397462Y-94360838D01*
X131402992Y-94365981D01*
X131408058Y-94370940D01*
X131412741Y-94375806D01*
X131417121Y-94380672D01*
X131421280Y-94385633D01*
X131425298Y-94390780D01*
X131429257Y-94396208D01*
X131433237Y-94402009D01*
X131437319Y-94408276D01*
X131441584Y-94415102D01*
X131450987Y-94430804D01*
X131454055Y-94436142D01*
X131455380Y-94438562D01*
X131456582Y-94440860D01*
X131457672Y-94443070D01*
X131458664Y-94445224D01*
X131459569Y-94447355D01*
X131460399Y-94449496D01*
X131461166Y-94451680D01*
X131461884Y-94453940D01*
X131462563Y-94456309D01*
X131463217Y-94458820D01*
X131464495Y-94464399D01*
X131465815Y-94470941D01*
X131467419Y-94479640D01*
X131468770Y-94487862D01*
X131469869Y-94495640D01*
X131470712Y-94503006D01*
X131471297Y-94509994D01*
X131471624Y-94516637D01*
X131471690Y-94522967D01*
X131471493Y-94529017D01*
X131471032Y-94534820D01*
X131470304Y-94540408D01*
X131469308Y-94545816D01*
X131468042Y-94551075D01*
X131466505Y-94556218D01*
X131464694Y-94561279D01*
X131462607Y-94566290D01*
X131460243Y-94571283D01*
X131456051Y-94579233D01*
X131451260Y-94587578D01*
X131445939Y-94596233D01*
X131440157Y-94605111D01*
X131433984Y-94614123D01*
X131427489Y-94623183D01*
X131420742Y-94632204D01*
X131413811Y-94641098D01*
X131406766Y-94649778D01*
X131399677Y-94658157D01*
X131392612Y-94666148D01*
X131385642Y-94673663D01*
X131378835Y-94680615D01*
X131372261Y-94686917D01*
X131365990Y-94692482D01*
X131360090Y-94697223D01*
X131356703Y-94699691D01*
X131353091Y-94702150D01*
X131349264Y-94704595D01*
X131345232Y-94707021D01*
X131336598Y-94711795D01*
X131327271Y-94716435D01*
X131317333Y-94720900D01*
X131306869Y-94725151D01*
X131295961Y-94729149D01*
X131284693Y-94732855D01*
X131276340Y-94735349D01*
X131268145Y-94737497D01*
X131259089Y-94739465D01*
X131248157Y-94741421D01*
X131234330Y-94743530D01*
X131216592Y-94745962D01*
X131165312Y-94752456D01*
X131040284Y-94768337D01*
X130939665Y-94782023D01*
X130857445Y-94794369D01*
X130787614Y-94806231D01*
X130709410Y-94821728D01*
X130622060Y-94841300D01*
X130529106Y-94863991D01*
X130434091Y-94888844D01*
X130340557Y-94914902D01*
X130252045Y-94941210D01*
X130225662Y-94949659D01*
X130172099Y-94966811D01*
X130104260Y-94990749D01*
D11*
X150697857Y-65686857D02*
X150469285Y-65686857D01*
X150355000Y-65744000D01*
X150240714Y-65858285D01*
X150183571Y-66086857D01*
X150183571Y-66486857D01*
X150240714Y-66715428D01*
X150355000Y-66829714D01*
X150469285Y-66886857D01*
X150697857Y-66886857D01*
X150812142Y-66829714D01*
X150926428Y-66715428D01*
X150983571Y-66486857D01*
X150983571Y-66086857D01*
X150926428Y-65858285D01*
X150812142Y-65744000D01*
X150697857Y-65686857D01*
X149669285Y-66086857D02*
X149669285Y-67286857D01*
X149669285Y-66144000D02*
X149555000Y-66086857D01*
X149326428Y-66086857D01*
X149212142Y-66144000D01*
X149155000Y-66201142D01*
X149097857Y-66315428D01*
X149097857Y-66658285D01*
X149155000Y-66772571D01*
X149212142Y-66829714D01*
X149326428Y-66886857D01*
X149555000Y-66886857D01*
X149669285Y-66829714D01*
X148755000Y-66086857D02*
X148297857Y-66086857D01*
X148583571Y-65686857D02*
X148583571Y-66715428D01*
X148526428Y-66829714D01*
X148412142Y-66886857D01*
X148297857Y-66886857D01*
X147897857Y-66886857D02*
X147897857Y-66086857D01*
X147897857Y-65686857D02*
X147955000Y-65744000D01*
X147897857Y-65801142D01*
X147840714Y-65744000D01*
X147897857Y-65686857D01*
X147897857Y-65801142D01*
X146812142Y-66829714D02*
X146926428Y-66886857D01*
X147155000Y-66886857D01*
X147269285Y-66829714D01*
X147326428Y-66772571D01*
X147383571Y-66658285D01*
X147383571Y-66315428D01*
X147326428Y-66201142D01*
X147269285Y-66144000D01*
X147155000Y-66086857D01*
X146926428Y-66086857D01*
X146812142Y-66144000D01*
X145783571Y-66886857D02*
X145783571Y-66258285D01*
X145840714Y-66144000D01*
X145955000Y-66086857D01*
X146183571Y-66086857D01*
X146297857Y-66144000D01*
X145783571Y-66829714D02*
X145897857Y-66886857D01*
X146183571Y-66886857D01*
X146297857Y-66829714D01*
X146355000Y-66715428D01*
X146355000Y-66601142D01*
X146297857Y-66486857D01*
X146183571Y-66429714D01*
X145897857Y-66429714D01*
X145783571Y-66372571D01*
X145040714Y-66886857D02*
X145155000Y-66829714D01*
X145212142Y-66715428D01*
X145212142Y-65686857D01*
X143726428Y-66829714D02*
X143555000Y-66886857D01*
X143269285Y-66886857D01*
X143155000Y-66829714D01*
X143097857Y-66772571D01*
X143040714Y-66658285D01*
X143040714Y-66544000D01*
X143097857Y-66429714D01*
X143155000Y-66372571D01*
X143269285Y-66315428D01*
X143497857Y-66258285D01*
X143612142Y-66201142D01*
X143669285Y-66144000D01*
X143726428Y-66029714D01*
X143726428Y-65915428D01*
X143669285Y-65801142D01*
X143612142Y-65744000D01*
X143497857Y-65686857D01*
X143212142Y-65686857D01*
X143040714Y-65744000D01*
X142069285Y-66829714D02*
X142183571Y-66886857D01*
X142412142Y-66886857D01*
X142526428Y-66829714D01*
X142583571Y-66715428D01*
X142583571Y-66258285D01*
X142526428Y-66144000D01*
X142412142Y-66086857D01*
X142183571Y-66086857D01*
X142069285Y-66144000D01*
X142012142Y-66258285D01*
X142012142Y-66372571D01*
X142583571Y-66486857D01*
X141497857Y-66886857D02*
X141497857Y-66086857D01*
X141497857Y-66315428D02*
X141440714Y-66201142D01*
X141383571Y-66144000D01*
X141269285Y-66086857D01*
X141155000Y-66086857D01*
X140755000Y-66886857D02*
X140755000Y-66086857D01*
X140755000Y-65686857D02*
X140812142Y-65744000D01*
X140755000Y-65801142D01*
X140697857Y-65744000D01*
X140755000Y-65686857D01*
X140755000Y-65801142D01*
X139669285Y-66886857D02*
X139669285Y-66258285D01*
X139726428Y-66144000D01*
X139840714Y-66086857D01*
X140069285Y-66086857D01*
X140183571Y-66144000D01*
X139669285Y-66829714D02*
X139783571Y-66886857D01*
X140069285Y-66886857D01*
X140183571Y-66829714D01*
X140240714Y-66715428D01*
X140240714Y-66601142D01*
X140183571Y-66486857D01*
X140069285Y-66429714D01*
X139783571Y-66429714D01*
X139669285Y-66372571D01*
X138926428Y-66886857D02*
X139040714Y-66829714D01*
X139097857Y-66715428D01*
X139097857Y-65686857D01*
X137555000Y-66886857D02*
X137555000Y-65686857D01*
X136983571Y-66086857D02*
X136983571Y-66886857D01*
X136983571Y-66201142D02*
X136926428Y-66144000D01*
X136812142Y-66086857D01*
X136640714Y-66086857D01*
X136526428Y-66144000D01*
X136469285Y-66258285D01*
X136469285Y-66886857D01*
X136069285Y-66086857D02*
X135612142Y-66086857D01*
X135897857Y-65686857D02*
X135897857Y-66715428D01*
X135840714Y-66829714D01*
X135726428Y-66886857D01*
X135612142Y-66886857D01*
X134755000Y-66829714D02*
X134869285Y-66886857D01*
X135097857Y-66886857D01*
X135212142Y-66829714D01*
X135269285Y-66715428D01*
X135269285Y-66258285D01*
X135212142Y-66144000D01*
X135097857Y-66086857D01*
X134869285Y-66086857D01*
X134755000Y-66144000D01*
X134697857Y-66258285D01*
X134697857Y-66372571D01*
X135269285Y-66486857D01*
X134183571Y-66886857D02*
X134183571Y-66086857D01*
X134183571Y-66315428D02*
X134126428Y-66201142D01*
X134069285Y-66144000D01*
X133954999Y-66086857D01*
X133840714Y-66086857D01*
X133612142Y-66086857D02*
X133154999Y-66086857D01*
X133440714Y-66886857D02*
X133440714Y-65858285D01*
X133383571Y-65744000D01*
X133269285Y-65686857D01*
X133154999Y-65686857D01*
X132240714Y-66886857D02*
X132240714Y-66258285D01*
X132297857Y-66144000D01*
X132412142Y-66086857D01*
X132640714Y-66086857D01*
X132754999Y-66144000D01*
X132240714Y-66829714D02*
X132354999Y-66886857D01*
X132640714Y-66886857D01*
X132754999Y-66829714D01*
X132812142Y-66715428D01*
X132812142Y-66601142D01*
X132754999Y-66486857D01*
X132640714Y-66429714D01*
X132354999Y-66429714D01*
X132240714Y-66372571D01*
X131154999Y-66829714D02*
X131269285Y-66886857D01*
X131497857Y-66886857D01*
X131612142Y-66829714D01*
X131669285Y-66772571D01*
X131726428Y-66658285D01*
X131726428Y-66315428D01*
X131669285Y-66201142D01*
X131612142Y-66144000D01*
X131497857Y-66086857D01*
X131269285Y-66086857D01*
X131154999Y-66144000D01*
X130183571Y-66829714D02*
X130297857Y-66886857D01*
X130526428Y-66886857D01*
X130640714Y-66829714D01*
X130697857Y-66715428D01*
X130697857Y-66258285D01*
X130640714Y-66144000D01*
X130526428Y-66086857D01*
X130297857Y-66086857D01*
X130183571Y-66144000D01*
X130126428Y-66258285D01*
X130126428Y-66372571D01*
X130697857Y-66486857D01*
X148869285Y-68018857D02*
X148640714Y-68818857D01*
X148412142Y-68247428D01*
X148183571Y-68818857D01*
X147955000Y-68018857D01*
X147497857Y-68818857D02*
X147497857Y-68018857D01*
X147497857Y-67618857D02*
X147555000Y-67676000D01*
X147497857Y-67733142D01*
X147440714Y-67676000D01*
X147497857Y-67618857D01*
X147497857Y-67733142D01*
X147097857Y-68018857D02*
X146640714Y-68018857D01*
X146926428Y-67618857D02*
X146926428Y-68647428D01*
X146869285Y-68761714D01*
X146755000Y-68818857D01*
X146640714Y-68818857D01*
X146240714Y-68818857D02*
X146240714Y-67618857D01*
X145726428Y-68818857D02*
X145726428Y-68190285D01*
X145783571Y-68076000D01*
X145897857Y-68018857D01*
X146069285Y-68018857D01*
X146183571Y-68076000D01*
X146240714Y-68133142D01*
X144240714Y-68018857D02*
X144240714Y-69218857D01*
X144240714Y-68076000D02*
X144126428Y-68018857D01*
X143897857Y-68018857D01*
X143783571Y-68076000D01*
X143726428Y-68133142D01*
X143669285Y-68247428D01*
X143669285Y-68590285D01*
X143726428Y-68704571D01*
X143783571Y-68761714D01*
X143897857Y-68818857D01*
X144126428Y-68818857D01*
X144240714Y-68761714D01*
X142640714Y-68018857D02*
X142640714Y-68818857D01*
X143155000Y-68018857D02*
X143155000Y-68647428D01*
X143097857Y-68761714D01*
X142983571Y-68818857D01*
X142812142Y-68818857D01*
X142697857Y-68761714D01*
X142640714Y-68704571D01*
X141897857Y-68818857D02*
X142012142Y-68761714D01*
X142069285Y-68647428D01*
X142069285Y-67618857D01*
X141497857Y-68761714D02*
X141383571Y-68818857D01*
X141155000Y-68818857D01*
X141040714Y-68761714D01*
X140983571Y-68647428D01*
X140983571Y-68590285D01*
X141040714Y-68476000D01*
X141155000Y-68418857D01*
X141326428Y-68418857D01*
X141440714Y-68361714D01*
X141497857Y-68247428D01*
X141497857Y-68190285D01*
X141440714Y-68076000D01*
X141326428Y-68018857D01*
X141155000Y-68018857D01*
X141040714Y-68076000D01*
X140012142Y-68761714D02*
X140126428Y-68818857D01*
X140355000Y-68818857D01*
X140469285Y-68761714D01*
X140526428Y-68647428D01*
X140526428Y-68190285D01*
X140469285Y-68076000D01*
X140355000Y-68018857D01*
X140126428Y-68018857D01*
X140012142Y-68076000D01*
X139955000Y-68190285D01*
X139955000Y-68304571D01*
X140526428Y-68418857D01*
X138012142Y-68761714D02*
X138126428Y-68818857D01*
X138355000Y-68818857D01*
X138469285Y-68761714D01*
X138526428Y-68704571D01*
X138583571Y-68590285D01*
X138583571Y-68247428D01*
X138526428Y-68133142D01*
X138469285Y-68076000D01*
X138355000Y-68018857D01*
X138126428Y-68018857D01*
X138012142Y-68076000D01*
X137326428Y-68818857D02*
X137440714Y-68761714D01*
X137497857Y-68704571D01*
X137555000Y-68590285D01*
X137555000Y-68247428D01*
X137497857Y-68133142D01*
X137440714Y-68076000D01*
X137326428Y-68018857D01*
X137155000Y-68018857D01*
X137040714Y-68076000D01*
X136983571Y-68133142D01*
X136926428Y-68247428D01*
X136926428Y-68590285D01*
X136983571Y-68704571D01*
X137040714Y-68761714D01*
X137155000Y-68818857D01*
X137326428Y-68818857D01*
X135897857Y-68018857D02*
X135897857Y-68818857D01*
X136412142Y-68018857D02*
X136412142Y-68647428D01*
X136355000Y-68761714D01*
X136240714Y-68818857D01*
X136069285Y-68818857D01*
X135955000Y-68761714D01*
X135897857Y-68704571D01*
X135326428Y-68018857D02*
X135326428Y-68818857D01*
X135326428Y-68133142D02*
X135269285Y-68076000D01*
X135155000Y-68018857D01*
X134983571Y-68018857D01*
X134869285Y-68076000D01*
X134812142Y-68190285D01*
X134812142Y-68818857D01*
X134412142Y-68018857D02*
X133955000Y-68018857D01*
X134240714Y-67618857D02*
X134240714Y-68647428D01*
X134183571Y-68761714D01*
X134069285Y-68818857D01*
X133955000Y-68818857D01*
X133097857Y-68761714D02*
X133212142Y-68818857D01*
X133440714Y-68818857D01*
X133555000Y-68761714D01*
X133612142Y-68647428D01*
X133612142Y-68190285D01*
X133555000Y-68076000D01*
X133440714Y-68018857D01*
X133212142Y-68018857D01*
X133097857Y-68076000D01*
X133040714Y-68190285D01*
X133040714Y-68304571D01*
X133612142Y-68418857D01*
X132526428Y-68818857D02*
X132526428Y-68018857D01*
X132526428Y-68247428D02*
X132469285Y-68133142D01*
X132412142Y-68076000D01*
X132297857Y-68018857D01*
X132183571Y-68018857D01*
D12*
X145232380Y-84121904D02*
X144232380Y-84121904D01*
X145232380Y-85169523D02*
X144756190Y-84836190D01*
X145232380Y-84598095D02*
X144232380Y-84598095D01*
X144232380Y-84979047D01*
X144280000Y-85074285D01*
X144327619Y-85121904D01*
X144422857Y-85169523D01*
X144565714Y-85169523D01*
X144660952Y-85121904D01*
X144708571Y-85074285D01*
X144756190Y-84979047D01*
X144756190Y-84598095D01*
X145232380Y-86836190D02*
X145232380Y-86360000D01*
X144232380Y-86360000D01*
X144708571Y-87169523D02*
X144708571Y-87502857D01*
X145232380Y-87645714D02*
X145232380Y-87169523D01*
X144232380Y-87169523D01*
X144232380Y-87645714D01*
X145232380Y-88074285D02*
X144232380Y-88074285D01*
X144232380Y-88312380D01*
X144280000Y-88455238D01*
X144375238Y-88550476D01*
X144470476Y-88598095D01*
X144660952Y-88645714D01*
X144803809Y-88645714D01*
X144994285Y-88598095D01*
X145089523Y-88550476D01*
X145184761Y-88455238D01*
X145232380Y-88312380D01*
X145232380Y-88074285D01*
X153382023Y-91577619D02*
X153334404Y-91530000D01*
X153239166Y-91482380D01*
X153001071Y-91482380D01*
X152905833Y-91530000D01*
X152858214Y-91577619D01*
X152810595Y-91672857D01*
X152810595Y-91768095D01*
X152858214Y-91910952D01*
X153429642Y-92482380D01*
X152810595Y-92482380D01*
X151620119Y-92482380D02*
X151620119Y-91815714D01*
X151620119Y-91482380D02*
X151667738Y-91530000D01*
X151620119Y-91577619D01*
X151572500Y-91530000D01*
X151620119Y-91482380D01*
X151620119Y-91577619D01*
X151143928Y-91815714D02*
X151143928Y-92482380D01*
X151143928Y-91910952D02*
X151096309Y-91863333D01*
X151001071Y-91815714D01*
X150858214Y-91815714D01*
X150762976Y-91863333D01*
X150715357Y-91958571D01*
X150715357Y-92482380D01*
X150334404Y-91815714D02*
X150096309Y-92482380D01*
X149858214Y-91815714D01*
X149096309Y-92434761D02*
X149191547Y-92482380D01*
X149382023Y-92482380D01*
X149477261Y-92434761D01*
X149524880Y-92339523D01*
X149524880Y-91958571D01*
X149477261Y-91863333D01*
X149382023Y-91815714D01*
X149191547Y-91815714D01*
X149096309Y-91863333D01*
X149048690Y-91958571D01*
X149048690Y-92053809D01*
X149524880Y-92149047D01*
X148620119Y-92482380D02*
X148620119Y-91815714D01*
X148620119Y-92006190D02*
X148572500Y-91910952D01*
X148524880Y-91863333D01*
X148429642Y-91815714D01*
X148334404Y-91815714D01*
X148143928Y-91815714D02*
X147762976Y-91815714D01*
X148001071Y-91482380D02*
X148001071Y-92339523D01*
X147953452Y-92434761D01*
X147858214Y-92482380D01*
X147762976Y-92482380D01*
X147048690Y-92434761D02*
X147143928Y-92482380D01*
X147334404Y-92482380D01*
X147429642Y-92434761D01*
X147477261Y-92339523D01*
X147477261Y-91958571D01*
X147429642Y-91863333D01*
X147334404Y-91815714D01*
X147143928Y-91815714D01*
X147048690Y-91863333D01*
X147001071Y-91958571D01*
X147001071Y-92053809D01*
X147477261Y-92149047D01*
X146143928Y-92482380D02*
X146143928Y-91482380D01*
X146143928Y-92434761D02*
X146239166Y-92482380D01*
X146429642Y-92482380D01*
X146524880Y-92434761D01*
X146572500Y-92387142D01*
X146620119Y-92291904D01*
X146620119Y-92006190D01*
X146572500Y-91910952D01*
X146524880Y-91863333D01*
X146429642Y-91815714D01*
X146239166Y-91815714D01*
X146143928Y-91863333D01*
X144905833Y-92482380D02*
X144905833Y-91815714D01*
X144905833Y-91482380D02*
X144953452Y-91530000D01*
X144905833Y-91577619D01*
X144858214Y-91530000D01*
X144905833Y-91482380D01*
X144905833Y-91577619D01*
X144429642Y-91815714D02*
X144429642Y-92482380D01*
X144429642Y-91910952D02*
X144382023Y-91863333D01*
X144286785Y-91815714D01*
X144143928Y-91815714D01*
X144048690Y-91863333D01*
X144001071Y-91958571D01*
X144001071Y-92482380D01*
X143524880Y-91815714D02*
X143524880Y-92815714D01*
X143524880Y-91863333D02*
X143429642Y-91815714D01*
X143239166Y-91815714D01*
X143143928Y-91863333D01*
X143096309Y-91910952D01*
X143048690Y-92006190D01*
X143048690Y-92291904D01*
X143096309Y-92387142D01*
X143143928Y-92434761D01*
X143239166Y-92482380D01*
X143429642Y-92482380D01*
X143524880Y-92434761D01*
X142191547Y-91815714D02*
X142191547Y-92482380D01*
X142620119Y-91815714D02*
X142620119Y-92339523D01*
X142572500Y-92434761D01*
X142477261Y-92482380D01*
X142334404Y-92482380D01*
X142239166Y-92434761D01*
X142191547Y-92387142D01*
X141858214Y-91815714D02*
X141477261Y-91815714D01*
X141715357Y-91482380D02*
X141715357Y-92339523D01*
X141667738Y-92434761D01*
X141572500Y-92482380D01*
X141477261Y-92482380D01*
X141191547Y-92434761D02*
X141096309Y-92482380D01*
X140905833Y-92482380D01*
X140810595Y-92434761D01*
X140762976Y-92339523D01*
X140762976Y-92291904D01*
X140810595Y-92196666D01*
X140905833Y-92149047D01*
X141048690Y-92149047D01*
X141143928Y-92101428D01*
X141191547Y-92006190D01*
X141191547Y-91958571D01*
X141143928Y-91863333D01*
X141048690Y-91815714D01*
X140905833Y-91815714D01*
X140810595Y-91863333D01*
X139286785Y-92863333D02*
X139334404Y-92815714D01*
X139429642Y-92672857D01*
X139477261Y-92577619D01*
X139524880Y-92434761D01*
X139572500Y-92196666D01*
X139572500Y-92006190D01*
X139524880Y-91768095D01*
X139477261Y-91625238D01*
X139429642Y-91530000D01*
X139334404Y-91387142D01*
X139286785Y-91339523D01*
X138905833Y-92482380D02*
X138905833Y-91815714D01*
X138905833Y-91910952D02*
X138858214Y-91863333D01*
X138762976Y-91815714D01*
X138620119Y-91815714D01*
X138524880Y-91863333D01*
X138477261Y-91958571D01*
X138477261Y-92482380D01*
X138477261Y-91958571D02*
X138429642Y-91863333D01*
X138334404Y-91815714D01*
X138191547Y-91815714D01*
X138096309Y-91863333D01*
X138048690Y-91958571D01*
X138048690Y-92482380D01*
X137143928Y-92482380D02*
X137143928Y-91958571D01*
X137191547Y-91863333D01*
X137286785Y-91815714D01*
X137477261Y-91815714D01*
X137572500Y-91863333D01*
X137143928Y-92434761D02*
X137239166Y-92482380D01*
X137477261Y-92482380D01*
X137572500Y-92434761D01*
X137620119Y-92339523D01*
X137620119Y-92244285D01*
X137572500Y-92149047D01*
X137477261Y-92101428D01*
X137239166Y-92101428D01*
X137143928Y-92053809D01*
X136762976Y-92482380D02*
X136239166Y-91815714D01*
X136762976Y-91815714D02*
X136239166Y-92482380D01*
X135191547Y-91482380D02*
X134572500Y-91482380D01*
X134905833Y-91863333D01*
X134762976Y-91863333D01*
X134667738Y-91910952D01*
X134620119Y-91958571D01*
X134572500Y-92053809D01*
X134572500Y-92291904D01*
X134620119Y-92387142D01*
X134667738Y-92434761D01*
X134762976Y-92482380D01*
X135048690Y-92482380D01*
X135143928Y-92434761D01*
X135191547Y-92387142D01*
X133953452Y-91482380D02*
X133858214Y-91482380D01*
X133762976Y-91530000D01*
X133715357Y-91577619D01*
X133667738Y-91672857D01*
X133620119Y-91863333D01*
X133620119Y-92101428D01*
X133667738Y-92291904D01*
X133715357Y-92387142D01*
X133762976Y-92434761D01*
X133858214Y-92482380D01*
X133953452Y-92482380D01*
X134048690Y-92434761D01*
X134096309Y-92387142D01*
X134143928Y-92291904D01*
X134191547Y-92101428D01*
X134191547Y-91863333D01*
X134143928Y-91672857D01*
X134096309Y-91577619D01*
X134048690Y-91530000D01*
X133953452Y-91482380D01*
X133334404Y-91482380D02*
X133001071Y-92482380D01*
X132667738Y-91482380D01*
X132429642Y-92863333D02*
X132382023Y-92815714D01*
X132286785Y-92672857D01*
X132239166Y-92577619D01*
X132191547Y-92434761D01*
X132143928Y-92196666D01*
X132143928Y-92006190D01*
X132191547Y-91768095D01*
X132239166Y-91625238D01*
X132286785Y-91530000D01*
X132382023Y-91387142D01*
X132429642Y-91339523D01*
X153382023Y-94797619D02*
X153334404Y-94750000D01*
X153239166Y-94702380D01*
X153001071Y-94702380D01*
X152905833Y-94750000D01*
X152858214Y-94797619D01*
X152810595Y-94892857D01*
X152810595Y-94988095D01*
X152858214Y-95130952D01*
X153429642Y-95702380D01*
X152810595Y-95702380D01*
X151477261Y-95702380D02*
X151572500Y-95654761D01*
X151620119Y-95607142D01*
X151667738Y-95511904D01*
X151667738Y-95226190D01*
X151620119Y-95130952D01*
X151572500Y-95083333D01*
X151477261Y-95035714D01*
X151334404Y-95035714D01*
X151239166Y-95083333D01*
X151191547Y-95130952D01*
X151143928Y-95226190D01*
X151143928Y-95511904D01*
X151191547Y-95607142D01*
X151239166Y-95654761D01*
X151334404Y-95702380D01*
X151477261Y-95702380D01*
X150715357Y-95035714D02*
X150715357Y-96035714D01*
X150715357Y-95083333D02*
X150620119Y-95035714D01*
X150429642Y-95035714D01*
X150334404Y-95083333D01*
X150286785Y-95130952D01*
X150239166Y-95226190D01*
X150239166Y-95511904D01*
X150286785Y-95607142D01*
X150334404Y-95654761D01*
X150429642Y-95702380D01*
X150620119Y-95702380D01*
X150715357Y-95654761D01*
X149429642Y-95654761D02*
X149524880Y-95702380D01*
X149715357Y-95702380D01*
X149810595Y-95654761D01*
X149858214Y-95559523D01*
X149858214Y-95178571D01*
X149810595Y-95083333D01*
X149715357Y-95035714D01*
X149524880Y-95035714D01*
X149429642Y-95083333D01*
X149382023Y-95178571D01*
X149382023Y-95273809D01*
X149858214Y-95369047D01*
X148953452Y-95035714D02*
X148953452Y-95702380D01*
X148953452Y-95130952D02*
X148905833Y-95083333D01*
X148810595Y-95035714D01*
X148667738Y-95035714D01*
X148572500Y-95083333D01*
X148524880Y-95178571D01*
X148524880Y-95702380D01*
X146858214Y-95654761D02*
X146953452Y-95702380D01*
X147143928Y-95702380D01*
X147239166Y-95654761D01*
X147286785Y-95607142D01*
X147334404Y-95511904D01*
X147334404Y-95226190D01*
X147286785Y-95130952D01*
X147239166Y-95083333D01*
X147143928Y-95035714D01*
X146953452Y-95035714D01*
X146858214Y-95083333D01*
X146286785Y-95702380D02*
X146382023Y-95654761D01*
X146429642Y-95607142D01*
X146477261Y-95511904D01*
X146477261Y-95226190D01*
X146429642Y-95130952D01*
X146382023Y-95083333D01*
X146286785Y-95035714D01*
X146143928Y-95035714D01*
X146048690Y-95083333D01*
X146001071Y-95130952D01*
X145953452Y-95226190D01*
X145953452Y-95511904D01*
X146001071Y-95607142D01*
X146048690Y-95654761D01*
X146143928Y-95702380D01*
X146286785Y-95702380D01*
X145382023Y-95702380D02*
X145477261Y-95654761D01*
X145524880Y-95559523D01*
X145524880Y-94702380D01*
X144858214Y-95702380D02*
X144953452Y-95654761D01*
X145001071Y-95559523D01*
X145001071Y-94702380D01*
X144096309Y-95654761D02*
X144191547Y-95702380D01*
X144382023Y-95702380D01*
X144477261Y-95654761D01*
X144524880Y-95559523D01*
X144524880Y-95178571D01*
X144477261Y-95083333D01*
X144382023Y-95035714D01*
X144191547Y-95035714D01*
X144096309Y-95083333D01*
X144048690Y-95178571D01*
X144048690Y-95273809D01*
X144524880Y-95369047D01*
X143191547Y-95654761D02*
X143286785Y-95702380D01*
X143477261Y-95702380D01*
X143572500Y-95654761D01*
X143620119Y-95607142D01*
X143667738Y-95511904D01*
X143667738Y-95226190D01*
X143620119Y-95130952D01*
X143572500Y-95083333D01*
X143477261Y-95035714D01*
X143286785Y-95035714D01*
X143191547Y-95083333D01*
X142905833Y-95035714D02*
X142524880Y-95035714D01*
X142762976Y-94702380D02*
X142762976Y-95559523D01*
X142715357Y-95654761D01*
X142620119Y-95702380D01*
X142524880Y-95702380D01*
X142048690Y-95702380D02*
X142143928Y-95654761D01*
X142191547Y-95607142D01*
X142239166Y-95511904D01*
X142239166Y-95226190D01*
X142191547Y-95130952D01*
X142143928Y-95083333D01*
X142048690Y-95035714D01*
X141905833Y-95035714D01*
X141810595Y-95083333D01*
X141762976Y-95130952D01*
X141715357Y-95226190D01*
X141715357Y-95511904D01*
X141762976Y-95607142D01*
X141810595Y-95654761D01*
X141905833Y-95702380D01*
X142048690Y-95702380D01*
X141286785Y-95702380D02*
X141286785Y-95035714D01*
X141286785Y-95226190D02*
X141239166Y-95130952D01*
X141191547Y-95083333D01*
X141096309Y-95035714D01*
X141001071Y-95035714D01*
X139762976Y-95702380D02*
X139858214Y-95654761D01*
X139905833Y-95607142D01*
X139953452Y-95511904D01*
X139953452Y-95226190D01*
X139905833Y-95130952D01*
X139858214Y-95083333D01*
X139762976Y-95035714D01*
X139620119Y-95035714D01*
X139524880Y-95083333D01*
X139477261Y-95130952D01*
X139429642Y-95226190D01*
X139429642Y-95511904D01*
X139477261Y-95607142D01*
X139524880Y-95654761D01*
X139620119Y-95702380D01*
X139762976Y-95702380D01*
X138572500Y-95035714D02*
X138572500Y-95702380D01*
X139001071Y-95035714D02*
X139001071Y-95559523D01*
X138953452Y-95654761D01*
X138858214Y-95702380D01*
X138715357Y-95702380D01*
X138620119Y-95654761D01*
X138572500Y-95607142D01*
X138239166Y-95035714D02*
X137858214Y-95035714D01*
X138096309Y-94702380D02*
X138096309Y-95559523D01*
X138048690Y-95654761D01*
X137953452Y-95702380D01*
X137858214Y-95702380D01*
X137524880Y-95035714D02*
X137524880Y-96035714D01*
X137524880Y-95083333D02*
X137429642Y-95035714D01*
X137239166Y-95035714D01*
X137143928Y-95083333D01*
X137096309Y-95130952D01*
X137048690Y-95226190D01*
X137048690Y-95511904D01*
X137096309Y-95607142D01*
X137143928Y-95654761D01*
X137239166Y-95702380D01*
X137429642Y-95702380D01*
X137524880Y-95654761D01*
X136191547Y-95035714D02*
X136191547Y-95702380D01*
X136620119Y-95035714D02*
X136620119Y-95559523D01*
X136572500Y-95654761D01*
X136477261Y-95702380D01*
X136334404Y-95702380D01*
X136239166Y-95654761D01*
X136191547Y-95607142D01*
X135858214Y-95035714D02*
X135477261Y-95035714D01*
X135715357Y-94702380D02*
X135715357Y-95559523D01*
X135667738Y-95654761D01*
X135572500Y-95702380D01*
X135477261Y-95702380D01*
X135191547Y-95654761D02*
X135096309Y-95702380D01*
X134905833Y-95702380D01*
X134810595Y-95654761D01*
X134762976Y-95559523D01*
X134762976Y-95511904D01*
X134810595Y-95416666D01*
X134905833Y-95369047D01*
X135048690Y-95369047D01*
X135143928Y-95321428D01*
X135191547Y-95226190D01*
X135191547Y-95178571D01*
X135143928Y-95083333D01*
X135048690Y-95035714D01*
X134905833Y-95035714D01*
X134810595Y-95083333D01*
X153334404Y-97922380D02*
X153334404Y-98731904D01*
X153286785Y-98827142D01*
X153239166Y-98874761D01*
X153143928Y-98922380D01*
X152953452Y-98922380D01*
X152858214Y-98874761D01*
X152810595Y-98827142D01*
X152762976Y-98731904D01*
X152762976Y-97922380D01*
X152334404Y-98636666D02*
X151858214Y-98636666D01*
X152429642Y-98922380D02*
X152096309Y-97922380D01*
X151762976Y-98922380D01*
X150858214Y-98922380D02*
X151191547Y-98446190D01*
X151429642Y-98922380D02*
X151429642Y-97922380D01*
X151048690Y-97922380D01*
X150953452Y-97970000D01*
X150905833Y-98017619D01*
X150858214Y-98112857D01*
X150858214Y-98255714D01*
X150905833Y-98350952D01*
X150953452Y-98398571D01*
X151048690Y-98446190D01*
X151429642Y-98446190D01*
X150572500Y-97922380D02*
X150001071Y-97922380D01*
X150286785Y-98922380D02*
X150286785Y-97922380D01*
X149477261Y-97922380D02*
X149382023Y-97922380D01*
X149286785Y-97970000D01*
X149239166Y-98017619D01*
X149191547Y-98112857D01*
X149143928Y-98303333D01*
X149143928Y-98541428D01*
X149191547Y-98731904D01*
X149239166Y-98827142D01*
X149286785Y-98874761D01*
X149382023Y-98922380D01*
X149477261Y-98922380D01*
X149572500Y-98874761D01*
X149620119Y-98827142D01*
X149667738Y-98731904D01*
X149715357Y-98541428D01*
X149715357Y-98303333D01*
X149667738Y-98112857D01*
X149620119Y-98017619D01*
X149572500Y-97970000D01*
X149477261Y-97922380D01*
X147572500Y-98874761D02*
X147667738Y-98922380D01*
X147858214Y-98922380D01*
X147953452Y-98874761D01*
X148001071Y-98779523D01*
X148001071Y-98398571D01*
X147953452Y-98303333D01*
X147858214Y-98255714D01*
X147667738Y-98255714D01*
X147572500Y-98303333D01*
X147524880Y-98398571D01*
X147524880Y-98493809D01*
X148001071Y-98589047D01*
X147191547Y-98922380D02*
X146667738Y-98255714D01*
X147191547Y-98255714D02*
X146667738Y-98922380D01*
X146286785Y-98255714D02*
X146286785Y-99255714D01*
X146286785Y-98303333D02*
X146191547Y-98255714D01*
X146001071Y-98255714D01*
X145905833Y-98303333D01*
X145858214Y-98350952D01*
X145810595Y-98446190D01*
X145810595Y-98731904D01*
X145858214Y-98827142D01*
X145905833Y-98874761D01*
X146001071Y-98922380D01*
X146191547Y-98922380D01*
X146286785Y-98874761D01*
X145239166Y-98922380D02*
X145334404Y-98874761D01*
X145382023Y-98827142D01*
X145429642Y-98731904D01*
X145429642Y-98446190D01*
X145382023Y-98350952D01*
X145334404Y-98303333D01*
X145239166Y-98255714D01*
X145096309Y-98255714D01*
X145001071Y-98303333D01*
X144953452Y-98350952D01*
X144905833Y-98446190D01*
X144905833Y-98731904D01*
X144953452Y-98827142D01*
X145001071Y-98874761D01*
X145096309Y-98922380D01*
X145239166Y-98922380D01*
X144524880Y-98874761D02*
X144429642Y-98922380D01*
X144239166Y-98922380D01*
X144143928Y-98874761D01*
X144096309Y-98779523D01*
X144096309Y-98731904D01*
X144143928Y-98636666D01*
X144239166Y-98589047D01*
X144382023Y-98589047D01*
X144477261Y-98541428D01*
X144524880Y-98446190D01*
X144524880Y-98398571D01*
X144477261Y-98303333D01*
X144382023Y-98255714D01*
X144239166Y-98255714D01*
X144143928Y-98303333D01*
X143286785Y-98874761D02*
X143382023Y-98922380D01*
X143572500Y-98922380D01*
X143667738Y-98874761D01*
X143715357Y-98779523D01*
X143715357Y-98398571D01*
X143667738Y-98303333D01*
X143572500Y-98255714D01*
X143382023Y-98255714D01*
X143286785Y-98303333D01*
X143239166Y-98398571D01*
X143239166Y-98493809D01*
X143715357Y-98589047D01*
X142382023Y-98922380D02*
X142382023Y-97922380D01*
X142382023Y-98874761D02*
X142477261Y-98922380D01*
X142667738Y-98922380D01*
X142762976Y-98874761D01*
X142810595Y-98827142D01*
X142858214Y-98731904D01*
X142858214Y-98446190D01*
X142810595Y-98350952D01*
X142762976Y-98303333D01*
X142667738Y-98255714D01*
X142477261Y-98255714D01*
X142382023Y-98303333D01*
X144895863Y-70538571D02*
X144562529Y-70538571D01*
X144485148Y-71062380D02*
X144961339Y-71062380D01*
X144836339Y-70062380D01*
X144360148Y-70062380D01*
X144151815Y-71062380D02*
X143544672Y-70395714D01*
X144068482Y-70395714D02*
X143628005Y-71062380D01*
X142818482Y-71062380D02*
X142753005Y-70538571D01*
X142788720Y-70443333D01*
X142878005Y-70395714D01*
X143068482Y-70395714D01*
X143169672Y-70443333D01*
X142812529Y-71014761D02*
X142913720Y-71062380D01*
X143151815Y-71062380D01*
X143241101Y-71014761D01*
X143276815Y-70919523D01*
X143264910Y-70824285D01*
X143205386Y-70729047D01*
X143104196Y-70681428D01*
X142866101Y-70681428D01*
X142764910Y-70633809D01*
X142342291Y-71062380D02*
X142258958Y-70395714D01*
X142270863Y-70490952D02*
X142217291Y-70443333D01*
X142116101Y-70395714D01*
X141973244Y-70395714D01*
X141883958Y-70443333D01*
X141848244Y-70538571D01*
X141913720Y-71062380D01*
X141848244Y-70538571D02*
X141788720Y-70443333D01*
X141687529Y-70395714D01*
X141544672Y-70395714D01*
X141455386Y-70443333D01*
X141419672Y-70538571D01*
X141485148Y-71062380D01*
X140925625Y-70395714D02*
X141050625Y-71395714D01*
X140931577Y-70443333D02*
X140830386Y-70395714D01*
X140639910Y-70395714D01*
X140550625Y-70443333D01*
X140508958Y-70490952D01*
X140473244Y-70586190D01*
X140508958Y-70871904D01*
X140568482Y-70967142D01*
X140622053Y-71014761D01*
X140723244Y-71062380D01*
X140913720Y-71062380D01*
X141003005Y-71014761D01*
X139961339Y-71062380D02*
X140050625Y-71014761D01*
X140086339Y-70919523D01*
X139979196Y-70062380D01*
X139193482Y-71014761D02*
X139294672Y-71062380D01*
X139485148Y-71062380D01*
X139574434Y-71014761D01*
X139610148Y-70919523D01*
X139562529Y-70538571D01*
X139503005Y-70443333D01*
X139401815Y-70395714D01*
X139211339Y-70395714D01*
X139122053Y-70443333D01*
X139086339Y-70538571D01*
X139098244Y-70633809D01*
X139586339Y-70729047D01*
X137449434Y-70395714D02*
X137532767Y-71062380D01*
X137878005Y-70395714D02*
X137943482Y-70919523D01*
X137907767Y-71014761D01*
X137818482Y-71062380D01*
X137675625Y-71062380D01*
X137574434Y-71014761D01*
X137520863Y-70967142D01*
X137098244Y-71014761D02*
X137008958Y-71062380D01*
X136818482Y-71062380D01*
X136717291Y-71014761D01*
X136657767Y-70919523D01*
X136651815Y-70871904D01*
X136687529Y-70776666D01*
X136776815Y-70729047D01*
X136919672Y-70729047D01*
X137008958Y-70681428D01*
X137044672Y-70586190D01*
X137038720Y-70538571D01*
X136979196Y-70443333D01*
X136878005Y-70395714D01*
X136735148Y-70395714D01*
X136645863Y-70443333D01*
X135860148Y-71014761D02*
X135961339Y-71062380D01*
X136151815Y-71062380D01*
X136241101Y-71014761D01*
X136276815Y-70919523D01*
X136229196Y-70538571D01*
X136169672Y-70443333D01*
X136068482Y-70395714D01*
X135878005Y-70395714D01*
X135788720Y-70443333D01*
X135753005Y-70538571D01*
X135764910Y-70633809D01*
X136253005Y-70729047D01*
X135378005Y-70967142D02*
X135336339Y-71014761D01*
X135389910Y-71062380D01*
X135431577Y-71014761D01*
X135378005Y-70967142D01*
X135389910Y-71062380D01*
X135312529Y-70443333D02*
X135270863Y-70490952D01*
X135324434Y-70538571D01*
X135366101Y-70490952D01*
X135312529Y-70443333D01*
X135324434Y-70538571D01*
X148723244Y-72672380D02*
X148598244Y-71672380D01*
X148151815Y-72672380D02*
X148508958Y-72100952D01*
X148026815Y-71672380D02*
X148669672Y-72243809D01*
X147294672Y-72672380D02*
X147229196Y-72148571D01*
X147264910Y-72053333D01*
X147354196Y-72005714D01*
X147544672Y-72005714D01*
X147645863Y-72053333D01*
X147288720Y-72624761D02*
X147389910Y-72672380D01*
X147628005Y-72672380D01*
X147717291Y-72624761D01*
X147753005Y-72529523D01*
X147741101Y-72434285D01*
X147681577Y-72339047D01*
X147580386Y-72291428D01*
X147342291Y-72291428D01*
X147241101Y-72243809D01*
X146818482Y-72672380D02*
X146735148Y-72005714D01*
X146747053Y-72100952D02*
X146693482Y-72053333D01*
X146592291Y-72005714D01*
X146449434Y-72005714D01*
X146360148Y-72053333D01*
X146324434Y-72148571D01*
X146389910Y-72672380D01*
X146324434Y-72148571D02*
X146264910Y-72053333D01*
X146163720Y-72005714D01*
X146020863Y-72005714D01*
X145931577Y-72053333D01*
X145895863Y-72148571D01*
X145961339Y-72672380D01*
X145526815Y-72624761D02*
X145437529Y-72672380D01*
X145247053Y-72672380D01*
X145145863Y-72624761D01*
X145086339Y-72529523D01*
X145080386Y-72481904D01*
X145116101Y-72386666D01*
X145205386Y-72339047D01*
X145348244Y-72339047D01*
X145437529Y-72291428D01*
X145473244Y-72196190D01*
X145467291Y-72148571D01*
X145407767Y-72053333D01*
X145306577Y-72005714D01*
X145163720Y-72005714D01*
X145074434Y-72053333D01*
X144735148Y-72005714D02*
X144354196Y-72005714D01*
X144550625Y-71672380D02*
X144657767Y-72529523D01*
X144622053Y-72624761D01*
X144532767Y-72672380D01*
X144437529Y-72672380D01*
X144104196Y-72672380D02*
X144020863Y-72005714D01*
X144044672Y-72196190D02*
X143985148Y-72100952D01*
X143931577Y-72053333D01*
X143830386Y-72005714D01*
X143735148Y-72005714D01*
X142973244Y-72005714D02*
X143056577Y-72672380D01*
X143401815Y-72005714D02*
X143467291Y-72529523D01*
X143431577Y-72624761D01*
X143342291Y-72672380D01*
X143199434Y-72672380D01*
X143098244Y-72624761D01*
X143044672Y-72577142D01*
X142497053Y-72005714D02*
X142622053Y-73005714D01*
X142503005Y-72053333D02*
X142401815Y-72005714D01*
X142211339Y-72005714D01*
X142122053Y-72053333D01*
X142080386Y-72100952D01*
X142044672Y-72196190D01*
X142080386Y-72481904D01*
X142139910Y-72577142D01*
X142193482Y-72624761D01*
X142294672Y-72672380D01*
X142485148Y-72672380D01*
X142574434Y-72624761D01*
X140913720Y-72672380D02*
X140788720Y-71672380D01*
X140544672Y-72386666D01*
X140122053Y-71672380D01*
X140247053Y-72672380D01*
X139645863Y-71672380D02*
X139747053Y-72481904D01*
X139711339Y-72577142D01*
X139669672Y-72624761D01*
X139580386Y-72672380D01*
X139389910Y-72672380D01*
X139288720Y-72624761D01*
X139235148Y-72577142D01*
X139175625Y-72481904D01*
X139074434Y-71672380D01*
X138247053Y-72672380D02*
X138723244Y-72672380D01*
X138598244Y-71672380D01*
X137931577Y-71672380D02*
X137360148Y-71672380D01*
X137770863Y-72672380D02*
X137645863Y-71672380D01*
X137151815Y-72672380D02*
X137026815Y-71672380D01*
X136092291Y-72577142D02*
X136145863Y-72624761D01*
X136294672Y-72672380D01*
X136389910Y-72672380D01*
X136526815Y-72624761D01*
X136610148Y-72529523D01*
X136645863Y-72434285D01*
X136669672Y-72243809D01*
X136651815Y-72100952D01*
X136580386Y-71910476D01*
X136520863Y-71815238D01*
X136413720Y-71720000D01*
X136264910Y-71672380D01*
X136169672Y-71672380D01*
X136032767Y-71720000D01*
X135991101Y-71767619D01*
X135687529Y-72386666D02*
X135211339Y-72386666D01*
X135818482Y-72672380D02*
X135360148Y-71672380D01*
X135151815Y-72672380D01*
X134342291Y-72672380D02*
X134818482Y-72672380D01*
X134693482Y-71672380D01*
X132735148Y-72005714D02*
X132818482Y-72672380D01*
X132925625Y-71624761D02*
X133253005Y-72339047D01*
X132633958Y-72339047D01*
X131979196Y-71672380D02*
X131883958Y-71672380D01*
X131794672Y-71720000D01*
X131753005Y-71767619D01*
X131717291Y-71862857D01*
X131693482Y-72053333D01*
X131723244Y-72291428D01*
X131794672Y-72481904D01*
X131854196Y-72577142D01*
X131907767Y-72624761D01*
X132008958Y-72672380D01*
X132104196Y-72672380D01*
X132193482Y-72624761D01*
X132235148Y-72577142D01*
X132270863Y-72481904D01*
X132294672Y-72291428D01*
X132264910Y-72053333D01*
X132193482Y-71862857D01*
X132133958Y-71767619D01*
X132080386Y-71720000D01*
X131979196Y-71672380D01*
X131312529Y-71672380D02*
X130693482Y-71672380D01*
X131074434Y-72053333D01*
X130931577Y-72053333D01*
X130842291Y-72100952D01*
X130800625Y-72148571D01*
X130764910Y-72243809D01*
X130794672Y-72481904D01*
X130854196Y-72577142D01*
X130907767Y-72624761D01*
X131008958Y-72672380D01*
X131294672Y-72672380D01*
X131383958Y-72624761D01*
X131425625Y-72577142D01*
X147247053Y-74282380D02*
X147181577Y-73758571D01*
X147217291Y-73663333D01*
X147306577Y-73615714D01*
X147497053Y-73615714D01*
X147598244Y-73663333D01*
X147241101Y-74234761D02*
X147342291Y-74282380D01*
X147580386Y-74282380D01*
X147669672Y-74234761D01*
X147705386Y-74139523D01*
X147693482Y-74044285D01*
X147633958Y-73949047D01*
X147532767Y-73901428D01*
X147294672Y-73901428D01*
X147193482Y-73853809D01*
X146687529Y-73615714D02*
X146770863Y-74282380D01*
X146699434Y-73710952D02*
X146645863Y-73663333D01*
X146544672Y-73615714D01*
X146401815Y-73615714D01*
X146312529Y-73663333D01*
X146276815Y-73758571D01*
X146342291Y-74282380D01*
X145437529Y-74282380D02*
X145312529Y-73282380D01*
X145431577Y-74234761D02*
X145532767Y-74282380D01*
X145723244Y-74282380D01*
X145812529Y-74234761D01*
X145854196Y-74187142D01*
X145889910Y-74091904D01*
X145854196Y-73806190D01*
X145794672Y-73710952D01*
X145741101Y-73663333D01*
X145639910Y-73615714D01*
X145449434Y-73615714D01*
X145360148Y-73663333D01*
X144211339Y-73615714D02*
X144104196Y-74282380D01*
X143854196Y-73806190D01*
X143723244Y-74282380D01*
X143449434Y-73615714D01*
X142723244Y-74282380D02*
X142657767Y-73758571D01*
X142693482Y-73663333D01*
X142782767Y-73615714D01*
X142973244Y-73615714D01*
X143074434Y-73663333D01*
X142717291Y-74234761D02*
X142818482Y-74282380D01*
X143056577Y-74282380D01*
X143145863Y-74234761D01*
X143181577Y-74139523D01*
X143169672Y-74044285D01*
X143110148Y-73949047D01*
X143008958Y-73901428D01*
X142770863Y-73901428D01*
X142669672Y-73853809D01*
X142306577Y-73615714D02*
X141925625Y-73615714D01*
X142122053Y-73282380D02*
X142229196Y-74139523D01*
X142193482Y-74234761D01*
X142104196Y-74282380D01*
X142008958Y-74282380D01*
X141288720Y-74234761D02*
X141389910Y-74282380D01*
X141580386Y-74282380D01*
X141669672Y-74234761D01*
X141705386Y-74139523D01*
X141657767Y-73758571D01*
X141598244Y-73663333D01*
X141497053Y-73615714D01*
X141306577Y-73615714D01*
X141217291Y-73663333D01*
X141181577Y-73758571D01*
X141193482Y-73853809D01*
X141681577Y-73949047D01*
X140818482Y-74282380D02*
X140735148Y-73615714D01*
X140758958Y-73806190D02*
X140699434Y-73710952D01*
X140645863Y-73663333D01*
X140544672Y-73615714D01*
X140449434Y-73615714D01*
X139437529Y-74282380D02*
X139354196Y-73615714D01*
X139366101Y-73710952D02*
X139312529Y-73663333D01*
X139211339Y-73615714D01*
X139068482Y-73615714D01*
X138979196Y-73663333D01*
X138943482Y-73758571D01*
X139008958Y-74282380D01*
X138943482Y-73758571D02*
X138883958Y-73663333D01*
X138782767Y-73615714D01*
X138639910Y-73615714D01*
X138550625Y-73663333D01*
X138514910Y-73758571D01*
X138580386Y-74282380D01*
X137717291Y-74234761D02*
X137818482Y-74282380D01*
X138008958Y-74282380D01*
X138098244Y-74234761D01*
X138133958Y-74139523D01*
X138086339Y-73758571D01*
X138026815Y-73663333D01*
X137925625Y-73615714D01*
X137735148Y-73615714D01*
X137645863Y-73663333D01*
X137610148Y-73758571D01*
X137622053Y-73853809D01*
X138110148Y-73949047D01*
X137306577Y-73615714D02*
X136925625Y-73615714D01*
X137122053Y-73282380D02*
X137229196Y-74139523D01*
X137193482Y-74234761D01*
X137104196Y-74282380D01*
X137008958Y-74282380D01*
X136288720Y-74234761D02*
X136389910Y-74282380D01*
X136580386Y-74282380D01*
X136669672Y-74234761D01*
X136705386Y-74139523D01*
X136657767Y-73758571D01*
X136598244Y-73663333D01*
X136497053Y-73615714D01*
X136306577Y-73615714D01*
X136217291Y-73663333D01*
X136181577Y-73758571D01*
X136193482Y-73853809D01*
X136681577Y-73949047D01*
X135818482Y-74282380D02*
X135735148Y-73615714D01*
X135758958Y-73806190D02*
X135699434Y-73710952D01*
X135645863Y-73663333D01*
X135544672Y-73615714D01*
X135449434Y-73615714D01*
X134449434Y-73615714D02*
X134342291Y-74282380D01*
X134092291Y-73806190D01*
X133961339Y-74282380D01*
X133687529Y-73615714D01*
X133389910Y-74282380D02*
X133306577Y-73615714D01*
X133264910Y-73282380D02*
X133318482Y-73330000D01*
X133276815Y-73377619D01*
X133223244Y-73330000D01*
X133264910Y-73282380D01*
X133276815Y-73377619D01*
X132973244Y-73615714D02*
X132592291Y-73615714D01*
X132788720Y-73282380D02*
X132895863Y-74139523D01*
X132860148Y-74234761D01*
X132770863Y-74282380D01*
X132675625Y-74282380D01*
X132342291Y-74282380D02*
X132217291Y-73282380D01*
X131913720Y-74282380D02*
X131848244Y-73758571D01*
X131883958Y-73663333D01*
X131973244Y-73615714D01*
X132116101Y-73615714D01*
X132217291Y-73663333D01*
X132270863Y-73710952D01*
X145735148Y-75225714D02*
X145860148Y-76225714D01*
X145741101Y-75273333D02*
X145639910Y-75225714D01*
X145449434Y-75225714D01*
X145360148Y-75273333D01*
X145318482Y-75320952D01*
X145282767Y-75416190D01*
X145318482Y-75701904D01*
X145378005Y-75797142D01*
X145431577Y-75844761D01*
X145532767Y-75892380D01*
X145723244Y-75892380D01*
X145812529Y-75844761D01*
X144913720Y-75892380D02*
X144830386Y-75225714D01*
X144854196Y-75416190D02*
X144794672Y-75320952D01*
X144741101Y-75273333D01*
X144639910Y-75225714D01*
X144544672Y-75225714D01*
X144151815Y-75892380D02*
X144241101Y-75844761D01*
X144282767Y-75797142D01*
X144318482Y-75701904D01*
X144282767Y-75416190D01*
X144223244Y-75320952D01*
X144169672Y-75273333D01*
X144068482Y-75225714D01*
X143925625Y-75225714D01*
X143836339Y-75273333D01*
X143794672Y-75320952D01*
X143758958Y-75416190D01*
X143794672Y-75701904D01*
X143854196Y-75797142D01*
X143907767Y-75844761D01*
X144008958Y-75892380D01*
X144151815Y-75892380D01*
X143485148Y-75892380D02*
X142878005Y-75225714D01*
X143401815Y-75225714D02*
X142961339Y-75892380D01*
X142580386Y-75892380D02*
X142497053Y-75225714D01*
X142455386Y-74892380D02*
X142508958Y-74940000D01*
X142467291Y-74987619D01*
X142413720Y-74940000D01*
X142455386Y-74892380D01*
X142467291Y-74987619D01*
X142104196Y-75892380D02*
X142020863Y-75225714D01*
X142032767Y-75320952D02*
X141979196Y-75273333D01*
X141878005Y-75225714D01*
X141735148Y-75225714D01*
X141645863Y-75273333D01*
X141610148Y-75368571D01*
X141675625Y-75892380D01*
X141610148Y-75368571D02*
X141550625Y-75273333D01*
X141449434Y-75225714D01*
X141306577Y-75225714D01*
X141217291Y-75273333D01*
X141181577Y-75368571D01*
X141247053Y-75892380D01*
X140770863Y-75892380D02*
X140687529Y-75225714D01*
X140645863Y-74892380D02*
X140699434Y-74940000D01*
X140657767Y-74987619D01*
X140604196Y-74940000D01*
X140645863Y-74892380D01*
X140657767Y-74987619D01*
X140354196Y-75225714D02*
X139973244Y-75225714D01*
X140169672Y-74892380D02*
X140276815Y-75749523D01*
X140241101Y-75844761D01*
X140151815Y-75892380D01*
X140056577Y-75892380D01*
X139735148Y-75225714D02*
X139580386Y-75892380D01*
X139258958Y-75225714D02*
X139580386Y-75892380D01*
X139705386Y-76130476D01*
X139758958Y-76178095D01*
X139860148Y-76225714D01*
X138241101Y-75844761D02*
X138151815Y-75892380D01*
X137961339Y-75892380D01*
X137860148Y-75844761D01*
X137800625Y-75749523D01*
X137794672Y-75701904D01*
X137830386Y-75606666D01*
X137919672Y-75559047D01*
X138062529Y-75559047D01*
X138151815Y-75511428D01*
X138187529Y-75416190D01*
X138181577Y-75368571D01*
X138122053Y-75273333D01*
X138020863Y-75225714D01*
X137878005Y-75225714D01*
X137788720Y-75273333D01*
X137003005Y-75844761D02*
X137104196Y-75892380D01*
X137294672Y-75892380D01*
X137383958Y-75844761D01*
X137419672Y-75749523D01*
X137372053Y-75368571D01*
X137312529Y-75273333D01*
X137211339Y-75225714D01*
X137020863Y-75225714D01*
X136931577Y-75273333D01*
X136895863Y-75368571D01*
X136907767Y-75463809D01*
X137395863Y-75559047D01*
X136449434Y-75225714D02*
X136532767Y-75892380D01*
X136461339Y-75320952D02*
X136407767Y-75273333D01*
X136306577Y-75225714D01*
X136163720Y-75225714D01*
X136074434Y-75273333D01*
X136038720Y-75368571D01*
X136104196Y-75892380D01*
X135669672Y-75844761D02*
X135580386Y-75892380D01*
X135389910Y-75892380D01*
X135288720Y-75844761D01*
X135229196Y-75749523D01*
X135223244Y-75701904D01*
X135258958Y-75606666D01*
X135348244Y-75559047D01*
X135491101Y-75559047D01*
X135580386Y-75511428D01*
X135616101Y-75416190D01*
X135610148Y-75368571D01*
X135550625Y-75273333D01*
X135449434Y-75225714D01*
X135306577Y-75225714D01*
X135217291Y-75273333D01*
X134675625Y-75892380D02*
X134764910Y-75844761D01*
X134806577Y-75797142D01*
X134842291Y-75701904D01*
X134806577Y-75416190D01*
X134747053Y-75320952D01*
X134693482Y-75273333D01*
X134592291Y-75225714D01*
X134449434Y-75225714D01*
X134360148Y-75273333D01*
X134318482Y-75320952D01*
X134282767Y-75416190D01*
X134318482Y-75701904D01*
X134378005Y-75797142D01*
X134431577Y-75844761D01*
X134532767Y-75892380D01*
X134675625Y-75892380D01*
X133913720Y-75892380D02*
X133830386Y-75225714D01*
X133854196Y-75416190D02*
X133794672Y-75320952D01*
X133741101Y-75273333D01*
X133639910Y-75225714D01*
X133544672Y-75225714D01*
X145232380Y-77470238D02*
X144232380Y-77470238D01*
X144232380Y-77851190D01*
X144280000Y-77946428D01*
X144327619Y-77994047D01*
X144422857Y-78041666D01*
X144565714Y-78041666D01*
X144660952Y-77994047D01*
X144708571Y-77946428D01*
X144756190Y-77851190D01*
X144756190Y-77470238D01*
X145232380Y-78470238D02*
X144232380Y-78470238D01*
X145232380Y-78898809D02*
X144708571Y-78898809D01*
X144613333Y-78851190D01*
X144565714Y-78755952D01*
X144565714Y-78613095D01*
X144613333Y-78517857D01*
X144660952Y-78470238D01*
X145232380Y-79517857D02*
X145184761Y-79422619D01*
X145137142Y-79375000D01*
X145041904Y-79327380D01*
X144756190Y-79327380D01*
X144660952Y-79375000D01*
X144613333Y-79422619D01*
X144565714Y-79517857D01*
X144565714Y-79660714D01*
X144613333Y-79755952D01*
X144660952Y-79803571D01*
X144756190Y-79851190D01*
X145041904Y-79851190D01*
X145137142Y-79803571D01*
X145184761Y-79755952D01*
X145232380Y-79660714D01*
X145232380Y-79517857D01*
X144565714Y-80136904D02*
X144565714Y-80517857D01*
X144232380Y-80279761D02*
X145089523Y-80279761D01*
X145184761Y-80327380D01*
X145232380Y-80422619D01*
X145232380Y-80517857D01*
X145232380Y-80994047D02*
X145184761Y-80898809D01*
X145137142Y-80851190D01*
X145041904Y-80803571D01*
X144756190Y-80803571D01*
X144660952Y-80851190D01*
X144613333Y-80898809D01*
X144565714Y-80994047D01*
X144565714Y-81136904D01*
X144613333Y-81232142D01*
X144660952Y-81279761D01*
X144756190Y-81327380D01*
X145041904Y-81327380D01*
X145137142Y-81279761D01*
X145184761Y-81232142D01*
X145232380Y-81136904D01*
X145232380Y-80994047D01*
X135730952Y-99512380D02*
X136064285Y-99036190D01*
X136302380Y-99512380D02*
X136302380Y-98512380D01*
X135921428Y-98512380D01*
X135826190Y-98560000D01*
X135778571Y-98607619D01*
X135730952Y-98702857D01*
X135730952Y-98845714D01*
X135778571Y-98940952D01*
X135826190Y-98988571D01*
X135921428Y-99036190D01*
X136302380Y-99036190D01*
X135302380Y-98988571D02*
X134969047Y-98988571D01*
X134826190Y-99512380D02*
X135302380Y-99512380D01*
X135302380Y-98512380D01*
X134826190Y-98512380D01*
X134540476Y-98512380D02*
X134207142Y-99512380D01*
X133873809Y-98512380D01*
X133540476Y-99131428D02*
X132778571Y-99131428D01*
X131778571Y-99512380D02*
X132350000Y-99512380D01*
X132064285Y-99512380D02*
X132064285Y-98512380D01*
X132159523Y-98655238D01*
X132254761Y-98750476D01*
X132350000Y-98798095D01*
X131350000Y-99417142D02*
X131302380Y-99464761D01*
X131350000Y-99512380D01*
X131397619Y-99464761D01*
X131350000Y-99417142D01*
X131350000Y-99512380D01*
X130683333Y-98512380D02*
X130588095Y-98512380D01*
X130492857Y-98560000D01*
X130445238Y-98607619D01*
X130397619Y-98702857D01*
X130350000Y-98893333D01*
X130350000Y-99131428D01*
X130397619Y-99321904D01*
X130445238Y-99417142D01*
X130492857Y-99464761D01*
X130588095Y-99512380D01*
X130683333Y-99512380D01*
X130778571Y-99464761D01*
X130826190Y-99417142D01*
X130873809Y-99321904D01*
X130921428Y-99131428D01*
X130921428Y-98893333D01*
X130873809Y-98702857D01*
X130826190Y-98607619D01*
X130778571Y-98560000D01*
X130683333Y-98512380D01*
X151423452Y-94092380D02*
X151298452Y-93092380D01*
X150947261Y-94092380D02*
X150822261Y-93092380D01*
X150375833Y-94092380D01*
X150250833Y-93092380D01*
X149375833Y-94092380D02*
X149947261Y-94092380D01*
X149661547Y-94092380D02*
X149536547Y-93092380D01*
X149649642Y-93235238D01*
X149756785Y-93330476D01*
X149857976Y-93378095D01*
X148881785Y-93568571D02*
X148119880Y-93568571D01*
X148155595Y-93854285D02*
X148917500Y-93854285D01*
X147066309Y-93140000D02*
X147155595Y-93092380D01*
X147298452Y-93092380D01*
X147447261Y-93140000D01*
X147554404Y-93235238D01*
X147613928Y-93330476D01*
X147685357Y-93520952D01*
X147703214Y-93663809D01*
X147679404Y-93854285D01*
X147643690Y-93949523D01*
X147560357Y-94044761D01*
X147423452Y-94092380D01*
X147328214Y-94092380D01*
X147179404Y-94044761D01*
X147125833Y-93997142D01*
X147084166Y-93663809D01*
X147274642Y-93663809D01*
X146709166Y-94092380D02*
X146584166Y-93092380D01*
X146203214Y-93092380D01*
X146113928Y-93140000D01*
X146072261Y-93187619D01*
X146036547Y-93282857D01*
X146054404Y-93425714D01*
X146113928Y-93520952D01*
X146167500Y-93568571D01*
X146268690Y-93616190D01*
X146649642Y-93616190D01*
X145709166Y-94092380D02*
X145584166Y-93092380D01*
X144917500Y-93092380D02*
X144727023Y-93092380D01*
X144637738Y-93140000D01*
X144554404Y-93235238D01*
X144530595Y-93425714D01*
X144572261Y-93759047D01*
X144643690Y-93949523D01*
X144750833Y-94044761D01*
X144852023Y-94092380D01*
X145042500Y-94092380D01*
X145131785Y-94044761D01*
X145215119Y-93949523D01*
X145238928Y-93759047D01*
X145197261Y-93425714D01*
X145125833Y-93235238D01*
X145018690Y-93140000D01*
X144917500Y-93092380D01*
X144119880Y-93187619D02*
X144066309Y-93140000D01*
X143965119Y-93092380D01*
X143727023Y-93092380D01*
X143637738Y-93140000D01*
X143596071Y-93187619D01*
X143560357Y-93282857D01*
X143572261Y-93378095D01*
X143637738Y-93520952D01*
X144280595Y-94092380D01*
X143661547Y-94092380D01*
X142417500Y-94044761D02*
X142423452Y-94092380D01*
X142482976Y-94187619D01*
X142536547Y-94235238D01*
X142393690Y-93473333D02*
X142352023Y-93520952D01*
X142405595Y-93568571D01*
X142447261Y-93520952D01*
X142393690Y-93473333D01*
X142405595Y-93568571D01*
X141232976Y-94092380D02*
X141107976Y-93092380D01*
X140756785Y-94092380D02*
X140631785Y-93092380D01*
X140185357Y-94092380D01*
X140060357Y-93092380D01*
X139643690Y-93187619D02*
X139590119Y-93140000D01*
X139488928Y-93092380D01*
X139250833Y-93092380D01*
X139161547Y-93140000D01*
X139119880Y-93187619D01*
X139084166Y-93282857D01*
X139096071Y-93378095D01*
X139161547Y-93520952D01*
X139804404Y-94092380D01*
X139185357Y-94092380D01*
X138691309Y-93568571D02*
X137929404Y-93568571D01*
X137965119Y-93854285D02*
X138727023Y-93854285D01*
X136875833Y-93140000D02*
X136965119Y-93092380D01*
X137107976Y-93092380D01*
X137256785Y-93140000D01*
X137363928Y-93235238D01*
X137423452Y-93330476D01*
X137494880Y-93520952D01*
X137512738Y-93663809D01*
X137488928Y-93854285D01*
X137453214Y-93949523D01*
X137369880Y-94044761D01*
X137232976Y-94092380D01*
X137137738Y-94092380D01*
X136988928Y-94044761D01*
X136935357Y-93997142D01*
X136893690Y-93663809D01*
X137084166Y-93663809D01*
X136518690Y-94092380D02*
X136393690Y-93092380D01*
X136012738Y-93092380D01*
X135923452Y-93140000D01*
X135881785Y-93187619D01*
X135846071Y-93282857D01*
X135863928Y-93425714D01*
X135923452Y-93520952D01*
X135977023Y-93568571D01*
X136078214Y-93616190D01*
X136459166Y-93616190D01*
X135518690Y-94092380D02*
X135393690Y-93092380D01*
X134727023Y-93092380D02*
X134536547Y-93092380D01*
X134447261Y-93140000D01*
X134363928Y-93235238D01*
X134340119Y-93425714D01*
X134381785Y-93759047D01*
X134453214Y-93949523D01*
X134560357Y-94044761D01*
X134661547Y-94092380D01*
X134852023Y-94092380D01*
X134941309Y-94044761D01*
X135024642Y-93949523D01*
X135048452Y-93759047D01*
X135006785Y-93425714D01*
X134935357Y-93235238D01*
X134828214Y-93140000D01*
X134727023Y-93092380D01*
X133679404Y-93092380D02*
X133584166Y-93092380D01*
X133494880Y-93140000D01*
X133453214Y-93187619D01*
X133417500Y-93282857D01*
X133393690Y-93473333D01*
X133423452Y-93711428D01*
X133494880Y-93901904D01*
X133554404Y-93997142D01*
X133607976Y-94044761D01*
X133709166Y-94092380D01*
X133804404Y-94092380D01*
X133893690Y-94044761D01*
X133935357Y-93997142D01*
X133971071Y-93901904D01*
X133994880Y-93711428D01*
X133965119Y-93473333D01*
X133893690Y-93282857D01*
X133834166Y-93187619D01*
X133780595Y-93140000D01*
X133679404Y-93092380D01*
X151107976Y-96312380D02*
X150917500Y-96312380D01*
X150828214Y-96360000D01*
X150744880Y-96455238D01*
X150721071Y-96645714D01*
X150762738Y-96979047D01*
X150834166Y-97169523D01*
X150941309Y-97264761D01*
X151042500Y-97312380D01*
X151232976Y-97312380D01*
X151322261Y-97264761D01*
X151405595Y-97169523D01*
X151429404Y-96979047D01*
X151387738Y-96645714D01*
X151316309Y-96455238D01*
X151209166Y-96360000D01*
X151107976Y-96312380D01*
X150250833Y-96312380D02*
X150352023Y-97121904D01*
X150316309Y-97217142D01*
X150274642Y-97264761D01*
X150185357Y-97312380D01*
X149994880Y-97312380D01*
X149893690Y-97264761D01*
X149840119Y-97217142D01*
X149780595Y-97121904D01*
X149679404Y-96312380D01*
X149346071Y-96312380D02*
X148774642Y-96312380D01*
X149185357Y-97312380D02*
X149060357Y-96312380D01*
X148042500Y-97312380D02*
X148613928Y-97312380D01*
X148328214Y-97312380D02*
X148203214Y-96312380D01*
X148316309Y-96455238D01*
X148423452Y-96550476D01*
X148524642Y-96598095D01*
X147548452Y-96788571D02*
X146786547Y-96788571D01*
X146822261Y-97074285D02*
X147584166Y-97074285D01*
X145732976Y-96360000D02*
X145822261Y-96312380D01*
X145965119Y-96312380D01*
X146113928Y-96360000D01*
X146221071Y-96455238D01*
X146280595Y-96550476D01*
X146352023Y-96740952D01*
X146369880Y-96883809D01*
X146346071Y-97074285D01*
X146310357Y-97169523D01*
X146227023Y-97264761D01*
X146090119Y-97312380D01*
X145994880Y-97312380D01*
X145846071Y-97264761D01*
X145792500Y-97217142D01*
X145750833Y-96883809D01*
X145941309Y-96883809D01*
X145375833Y-97312380D02*
X145250833Y-96312380D01*
X144869880Y-96312380D01*
X144780595Y-96360000D01*
X144738928Y-96407619D01*
X144703214Y-96502857D01*
X144721071Y-96645714D01*
X144780595Y-96740952D01*
X144834166Y-96788571D01*
X144935357Y-96836190D01*
X145316309Y-96836190D01*
X144375833Y-97312380D02*
X144250833Y-96312380D01*
X143584166Y-96312380D02*
X143393690Y-96312380D01*
X143304404Y-96360000D01*
X143221071Y-96455238D01*
X143197261Y-96645714D01*
X143238928Y-96979047D01*
X143310357Y-97169523D01*
X143417500Y-97264761D01*
X143518690Y-97312380D01*
X143709166Y-97312380D01*
X143798452Y-97264761D01*
X143881785Y-97169523D01*
X143905595Y-96979047D01*
X143863928Y-96645714D01*
X143792500Y-96455238D01*
X143685357Y-96360000D01*
X143584166Y-96312380D01*
X142340119Y-96645714D02*
X142423452Y-97312380D01*
X142530595Y-96264761D02*
X142857976Y-96979047D01*
X142238928Y-96979047D01*
X141084166Y-97264761D02*
X141090119Y-97312380D01*
X141149642Y-97407619D01*
X141203214Y-97455238D01*
X141060357Y-96693333D02*
X141018690Y-96740952D01*
X141072261Y-96788571D01*
X141113928Y-96740952D01*
X141060357Y-96693333D01*
X141072261Y-96788571D01*
X139584166Y-96312380D02*
X139393690Y-96312380D01*
X139304404Y-96360000D01*
X139221071Y-96455238D01*
X139197261Y-96645714D01*
X139238928Y-96979047D01*
X139310357Y-97169523D01*
X139417500Y-97264761D01*
X139518690Y-97312380D01*
X139709166Y-97312380D01*
X139798452Y-97264761D01*
X139881785Y-97169523D01*
X139905595Y-96979047D01*
X139863928Y-96645714D01*
X139792500Y-96455238D01*
X139685357Y-96360000D01*
X139584166Y-96312380D01*
X138727023Y-96312380D02*
X138828214Y-97121904D01*
X138792500Y-97217142D01*
X138750833Y-97264761D01*
X138661547Y-97312380D01*
X138471071Y-97312380D01*
X138369880Y-97264761D01*
X138316309Y-97217142D01*
X138256785Y-97121904D01*
X138155595Y-96312380D01*
X137822261Y-96312380D02*
X137250833Y-96312380D01*
X137661547Y-97312380D02*
X137536547Y-96312380D01*
X136977023Y-96407619D02*
X136923452Y-96360000D01*
X136822261Y-96312380D01*
X136584166Y-96312380D01*
X136494880Y-96360000D01*
X136453214Y-96407619D01*
X136417500Y-96502857D01*
X136429404Y-96598095D01*
X136494880Y-96740952D01*
X137137738Y-97312380D01*
X136518690Y-97312380D01*
X136024642Y-96788571D02*
X135262738Y-96788571D01*
X135298452Y-97074285D02*
X136060357Y-97074285D01*
X134209166Y-96360000D02*
X134298452Y-96312380D01*
X134441309Y-96312380D01*
X134590119Y-96360000D01*
X134697261Y-96455238D01*
X134756785Y-96550476D01*
X134828214Y-96740952D01*
X134846071Y-96883809D01*
X134822261Y-97074285D01*
X134786547Y-97169523D01*
X134703214Y-97264761D01*
X134566309Y-97312380D01*
X134471071Y-97312380D01*
X134322261Y-97264761D01*
X134268690Y-97217142D01*
X134227023Y-96883809D01*
X134417500Y-96883809D01*
X133852023Y-97312380D02*
X133727023Y-96312380D01*
X133346071Y-96312380D01*
X133256785Y-96360000D01*
X133215119Y-96407619D01*
X133179404Y-96502857D01*
X133197261Y-96645714D01*
X133256785Y-96740952D01*
X133310357Y-96788571D01*
X133411547Y-96836190D01*
X133792500Y-96836190D01*
X132852023Y-97312380D02*
X132727023Y-96312380D01*
X132060357Y-96312380D02*
X131869880Y-96312380D01*
X131780595Y-96360000D01*
X131697261Y-96455238D01*
X131673452Y-96645714D01*
X131715119Y-96979047D01*
X131786547Y-97169523D01*
X131893690Y-97264761D01*
X131994880Y-97312380D01*
X132185357Y-97312380D01*
X132274642Y-97264761D01*
X132357976Y-97169523D01*
X132381785Y-96979047D01*
X132340119Y-96645714D01*
X132268690Y-96455238D01*
X132161547Y-96360000D01*
X132060357Y-96312380D01*
X130727023Y-96312380D02*
X131203214Y-96312380D01*
X131310357Y-96788571D01*
X131256785Y-96740952D01*
X131155595Y-96693333D01*
X130917500Y-96693333D01*
X130828214Y-96740952D01*
X130786547Y-96788571D01*
X130750833Y-96883809D01*
X130780595Y-97121904D01*
X130840119Y-97217142D01*
X130893690Y-97264761D01*
X130994880Y-97312380D01*
X131232976Y-97312380D01*
X131322261Y-97264761D01*
X131363928Y-97217142D01*
%TO.C,D1*%
X143962380Y-78636904D02*
X142962380Y-78636904D01*
X142962380Y-78875000D01*
X143010000Y-79017857D01*
X143105238Y-79113095D01*
X143200476Y-79160714D01*
X143390952Y-79208333D01*
X143533809Y-79208333D01*
X143724285Y-79160714D01*
X143819523Y-79113095D01*
X143914761Y-79017857D01*
X143962380Y-78875000D01*
X143962380Y-78636904D01*
X143962380Y-80160714D02*
X143962380Y-79589285D01*
X143962380Y-79875000D02*
X142962380Y-79875000D01*
X143105238Y-79779761D01*
X143200476Y-79684523D01*
X143248095Y-79589285D01*
%TO.C,D2*%
X143962380Y-85621904D02*
X142962380Y-85621904D01*
X142962380Y-85860000D01*
X143010000Y-86002857D01*
X143105238Y-86098095D01*
X143200476Y-86145714D01*
X143390952Y-86193333D01*
X143533809Y-86193333D01*
X143724285Y-86145714D01*
X143819523Y-86098095D01*
X143914761Y-86002857D01*
X143962380Y-85860000D01*
X143962380Y-85621904D01*
X143057619Y-86574285D02*
X143010000Y-86621904D01*
X142962380Y-86717142D01*
X142962380Y-86955238D01*
X143010000Y-87050476D01*
X143057619Y-87098095D01*
X143152857Y-87145714D01*
X143248095Y-87145714D01*
X143390952Y-87098095D01*
X143962380Y-86526666D01*
X143962380Y-87145714D01*
D13*
%TO.C,D1*%
X140610000Y-81940000D02*
X137520000Y-81940000D01*
X139065462Y-76390000D02*
G75*
G03*
X137520170Y-81940000I-462J-2990000D01*
G01*
X140609830Y-81940000D02*
G75*
G03*
X139064538Y-76390000I-1544830J2560000D01*
G01*
X141565000Y-79380000D02*
G75*
G03*
X141565000Y-79380000I-2500000J0D01*
G01*
%TO.C,D2*%
X137520000Y-83800000D02*
X140610000Y-83800000D01*
X137520170Y-83800000D02*
G75*
G03*
X139065462Y-89350000I1544830J-2560000D01*
G01*
X139064538Y-89350000D02*
G75*
G03*
X140609830Y-83800000I462J2990000D01*
G01*
X141565000Y-86360000D02*
G75*
G03*
X141565000Y-86360000I-2500000J0D01*
G01*
%TD*%
M02*
