%TF.GenerationSoftware,KiCad,Pcbnew,(6.0.6)*%
%TF.CreationDate,2022-12-26T19:12:46+01:00*%
%TF.ProjectId,ESPkamstrup,4553506b-616d-4737-9472-75702e6b6963,rev?*%
%TF.SameCoordinates,Original*%
%TF.FileFunction,Soldermask,Top*%
%TF.FilePolarity,Negative*%
%FSLAX46Y46*%
G04 Gerber Fmt 4.6, Leading zero omitted, Abs format (unit mm)*
G04 Created by KiCad (PCBNEW (6.0.6)) date 2022-12-26 19:12:46*
%MOMM*%
%LPD*%
G01*
G04 APERTURE LIST*
G04 Aperture macros list*
%AMRoundRect*
0 Rectangle with rounded corners*
0 $1 Rounding radius*
0 $2 $3 $4 $5 $6 $7 $8 $9 X,Y pos of 4 corners*
0 Add a 4 corners polygon primitive as box body*
4,1,4,$2,$3,$4,$5,$6,$7,$8,$9,$2,$3,0*
0 Add four circle primitives for the rounded corners*
1,1,$1+$1,$2,$3*
1,1,$1+$1,$4,$5*
1,1,$1+$1,$6,$7*
1,1,$1+$1,$8,$9*
0 Add four rect primitives between the rounded corners*
20,1,$1+$1,$2,$3,$4,$5,0*
20,1,$1+$1,$4,$5,$6,$7,0*
20,1,$1+$1,$6,$7,$8,$9,0*
20,1,$1+$1,$8,$9,$2,$3,0*%
G04 Aperture macros list end*
%ADD10RoundRect,0.150000X-0.587500X-0.150000X0.587500X-0.150000X0.587500X0.150000X-0.587500X0.150000X0*%
%ADD11R,1.700000X1.700000*%
%ADD12O,1.700000X1.700000*%
%ADD13RoundRect,0.150000X0.587500X0.150000X-0.587500X0.150000X-0.587500X-0.150000X0.587500X-0.150000X0*%
%ADD14C,1.524000*%
%ADD15R,1.524000X1.524000*%
%ADD16RoundRect,0.135000X0.135000X0.185000X-0.135000X0.185000X-0.135000X-0.185000X0.135000X-0.185000X0*%
%ADD17RoundRect,0.135000X-0.185000X0.135000X-0.185000X-0.135000X0.185000X-0.135000X0.185000X0.135000X0*%
%ADD18C,1.300000*%
%ADD19RoundRect,0.135000X0.185000X-0.135000X0.185000X0.135000X-0.185000X0.135000X-0.185000X-0.135000X0*%
%ADD20R,1.800000X1.800000*%
%ADD21C,1.800000*%
G04 APERTURE END LIST*
D10*
%TO.C,Q8*%
X143842500Y-74615000D03*
X143842500Y-76515000D03*
X145717500Y-75565000D03*
%TD*%
D11*
%TO.C,J1*%
X155575000Y-93360000D03*
D12*
X155575000Y-95900000D03*
X155575000Y-98440000D03*
%TD*%
D13*
%TO.C,Q3*%
X134590000Y-87945000D03*
X134590000Y-86045000D03*
X132715000Y-86995000D03*
%TD*%
D14*
%TO.C,U1*%
X127855000Y-72390000D03*
X127855000Y-74930000D03*
X127855000Y-77470000D03*
X127855000Y-80010000D03*
X127855000Y-82550000D03*
X127855000Y-85090000D03*
X127855000Y-87630000D03*
X127855000Y-90170000D03*
X150715000Y-90170000D03*
D15*
X150715000Y-87630000D03*
D14*
X150715000Y-85090000D03*
X150715000Y-82550000D03*
X150715000Y-80010000D03*
X150715000Y-77470000D03*
X150715000Y-74930000D03*
X150715000Y-72390000D03*
%TD*%
D16*
%TO.C,R2*%
X130810000Y-83185000D03*
X129790000Y-83185000D03*
%TD*%
D13*
%TO.C,Q2*%
X134590000Y-76515000D03*
X134590000Y-74615000D03*
X132715000Y-75565000D03*
%TD*%
D16*
%TO.C,R8*%
X148465000Y-85725000D03*
X147445000Y-85725000D03*
%TD*%
D13*
%TO.C,Q4*%
X134590000Y-84135000D03*
X134590000Y-82235000D03*
X132715000Y-83185000D03*
%TD*%
D17*
%TO.C,R5*%
X136525000Y-87245000D03*
X136525000Y-88265000D03*
%TD*%
D16*
%TO.C,R6*%
X130810000Y-84455000D03*
X129790000Y-84455000D03*
%TD*%
D10*
%TO.C,Q5*%
X143842500Y-86045000D03*
X143842500Y-87945000D03*
X145717500Y-86995000D03*
%TD*%
D11*
%TO.C,J3*%
X155575000Y-70485000D03*
D12*
X155575000Y-67945000D03*
X155575000Y-65405000D03*
%TD*%
D18*
%TO.C,*%
X128905000Y-98425000D03*
%TD*%
D13*
%TO.C,Q1*%
X134590000Y-80325000D03*
X134590000Y-78425000D03*
X132715000Y-79375000D03*
%TD*%
D11*
%TO.C,J2*%
X155575000Y-89535000D03*
D12*
X155575000Y-86995000D03*
X155575000Y-84455000D03*
X155575000Y-81915000D03*
X155575000Y-79375000D03*
X155575000Y-76835000D03*
X155575000Y-74295000D03*
%TD*%
D10*
%TO.C,Q7*%
X143842500Y-78425000D03*
X143842500Y-80325000D03*
X145717500Y-79375000D03*
%TD*%
D16*
%TO.C,R12*%
X148465000Y-80010000D03*
X147445000Y-80010000D03*
%TD*%
%TO.C,R3*%
X130810000Y-86995000D03*
X129790000Y-86995000D03*
%TD*%
%TO.C,R10*%
X148465000Y-81280000D03*
X147445000Y-81280000D03*
%TD*%
%TO.C,R9*%
X148465000Y-84455000D03*
X147445000Y-84455000D03*
%TD*%
%TO.C,R13*%
X148465000Y-77470000D03*
X147445000Y-77470000D03*
%TD*%
%TO.C,R7*%
X130810000Y-88265000D03*
X129790000Y-88265000D03*
%TD*%
D18*
%TO.C,*%
X158750000Y-97155000D03*
%TD*%
%TO.C,*%
X127000000Y-66040000D03*
%TD*%
D10*
%TO.C,Q6*%
X143842500Y-82235000D03*
X143842500Y-84135000D03*
X145717500Y-83185000D03*
%TD*%
D19*
%TO.C,R4*%
X136525000Y-84840000D03*
X136525000Y-83820000D03*
%TD*%
D16*
%TO.C,R11*%
X148465000Y-83185000D03*
X147445000Y-83185000D03*
%TD*%
%TO.C,R1*%
X130810000Y-85725000D03*
X129790000Y-85725000D03*
%TD*%
D20*
%TO.C,D1*%
X139065000Y-80650000D03*
D21*
X139065000Y-78110000D03*
%TD*%
D20*
%TO.C,D2*%
X139065000Y-85090000D03*
D21*
X139065000Y-87630000D03*
%TD*%
M02*
