%TF.GenerationSoftware,KiCad,Pcbnew,(6.0.6)*%
%TF.CreationDate,2022-12-26T19:12:46+01:00*%
%TF.ProjectId,ESPkamstrup,4553506b-616d-4737-9472-75702e6b6963,rev?*%
%TF.SameCoordinates,Original*%
%TF.FileFunction,Legend,Top*%
%TF.FilePolarity,Positive*%
%FSLAX46Y46*%
G04 Gerber Fmt 4.6, Leading zero omitted, Abs format (unit mm)*
G04 Created by KiCad (PCBNEW (6.0.6)) date 2022-12-26 19:12:46*
%MOMM*%
%LPD*%
G01*
G04 APERTURE LIST*
%ADD10C,0.001000*%
%ADD11C,0.150000*%
%ADD12C,0.120000*%
G04 APERTURE END LIST*
D10*
G36*
X146595235Y-98122751D02*
G01*
X146501701Y-98096693D01*
X146406686Y-98071840D01*
X146313732Y-98049149D01*
X146226382Y-98029577D01*
X146148178Y-98014080D01*
X146078347Y-98002218D01*
X145996127Y-97989872D01*
X145895508Y-97976186D01*
X145770480Y-97960305D01*
X145719200Y-97953811D01*
X145701462Y-97951379D01*
X145687635Y-97949270D01*
X145676703Y-97947314D01*
X145667647Y-97945346D01*
X145659452Y-97943198D01*
X145651099Y-97940704D01*
X145639831Y-97936998D01*
X145628923Y-97933000D01*
X145618459Y-97928749D01*
X145608521Y-97924284D01*
X145599194Y-97919644D01*
X145590560Y-97914870D01*
X145586528Y-97912444D01*
X145582701Y-97909999D01*
X145579089Y-97907540D01*
X145575702Y-97905072D01*
X145569802Y-97900331D01*
X145563531Y-97894766D01*
X145556957Y-97888464D01*
X145550150Y-97881512D01*
X145543180Y-97873997D01*
X145536115Y-97866006D01*
X145529026Y-97857627D01*
X145521981Y-97848947D01*
X145515050Y-97840053D01*
X145508303Y-97831032D01*
X145501808Y-97821972D01*
X145495635Y-97812960D01*
X145489853Y-97804082D01*
X145484532Y-97795427D01*
X145479741Y-97787082D01*
X145475549Y-97779132D01*
X145473185Y-97774139D01*
X145471098Y-97769128D01*
X145469287Y-97764067D01*
X145467750Y-97758924D01*
X145466484Y-97753665D01*
X145465488Y-97748257D01*
X145464760Y-97742669D01*
X145464299Y-97736866D01*
X145464102Y-97730816D01*
X145464168Y-97724486D01*
X145464495Y-97717843D01*
X145465080Y-97710855D01*
X145465923Y-97703489D01*
X145467022Y-97695711D01*
X145468373Y-97687489D01*
X145469977Y-97678790D01*
X145471297Y-97672248D01*
X145472575Y-97666669D01*
X145473229Y-97664158D01*
X145473908Y-97661789D01*
X145474626Y-97659529D01*
X145475393Y-97657345D01*
X145476223Y-97655204D01*
X145477128Y-97653073D01*
X145478120Y-97650919D01*
X145479210Y-97648709D01*
X145480412Y-97646411D01*
X145481737Y-97643991D01*
X145484805Y-97638653D01*
X145494208Y-97622951D01*
X145498473Y-97616125D01*
X145502555Y-97609858D01*
X145506535Y-97604057D01*
X145510494Y-97598629D01*
X145514512Y-97593482D01*
X145518671Y-97588521D01*
X145523051Y-97583655D01*
X145527734Y-97578789D01*
X145532800Y-97573830D01*
X145538330Y-97568687D01*
X145544405Y-97563264D01*
X145551106Y-97557471D01*
X145566709Y-97544396D01*
X145585793Y-97528681D01*
X145601522Y-97515918D01*
X145614574Y-97505612D01*
X145625629Y-97497265D01*
X145635365Y-97490380D01*
X145644461Y-97484458D01*
X145653596Y-97479004D01*
X145663449Y-97473519D01*
X145696133Y-97455548D01*
X145738705Y-97431688D01*
X145795621Y-97399423D01*
X145871337Y-97356240D01*
X146103673Y-97224951D01*
X146296096Y-97119730D01*
X146381815Y-97074501D01*
X146462929Y-97032918D01*
X146541226Y-96994022D01*
X146618499Y-96956858D01*
X146748837Y-96897639D01*
X146894426Y-96836086D01*
X147054253Y-96772571D01*
X147227305Y-96707465D01*
X147412570Y-96641140D01*
X147609036Y-96573966D01*
X147815690Y-96506315D01*
X148031519Y-96438559D01*
X148197385Y-96388883D01*
X148344381Y-96345795D01*
X148473024Y-96309717D01*
X148615684Y-96270547D01*
X148764343Y-96231744D01*
X148925025Y-96191917D01*
X149103756Y-96149669D01*
X149539462Y-96052335D01*
X150119662Y-95928585D01*
X150404736Y-95868079D01*
X150434015Y-95861831D01*
X150458723Y-95856794D01*
X150479628Y-95852850D01*
X150497500Y-95849884D01*
X150513109Y-95847779D01*
X150527223Y-95846418D01*
X150540612Y-95845684D01*
X150554045Y-95845462D01*
X150560063Y-95845550D01*
X150565745Y-95845835D01*
X150571132Y-95846335D01*
X150576267Y-95847068D01*
X150581190Y-95848054D01*
X150585945Y-95849312D01*
X150590573Y-95850859D01*
X150595115Y-95852714D01*
X150599614Y-95854897D01*
X150604111Y-95857426D01*
X150608649Y-95860319D01*
X150613270Y-95863596D01*
X150618014Y-95867274D01*
X150622925Y-95871373D01*
X150628043Y-95875911D01*
X150633411Y-95880907D01*
X150635724Y-95883126D01*
X150637853Y-95885219D01*
X150639816Y-95887209D01*
X150641630Y-95889122D01*
X150643313Y-95890980D01*
X150644883Y-95892808D01*
X150646357Y-95894630D01*
X150647752Y-95896468D01*
X150649087Y-95898348D01*
X150650377Y-95900293D01*
X150651642Y-95902326D01*
X150652898Y-95904472D01*
X150654163Y-95906754D01*
X150655454Y-95909196D01*
X150656789Y-95911823D01*
X150658186Y-95914657D01*
X150667425Y-95933649D01*
X150668575Y-95963136D01*
X150668899Y-95974905D01*
X150668903Y-95980030D01*
X150668783Y-95984730D01*
X150668523Y-95989067D01*
X150668108Y-95993100D01*
X150667524Y-95996893D01*
X150666755Y-96000505D01*
X150665787Y-96003998D01*
X150664604Y-96007433D01*
X150663192Y-96010871D01*
X150661535Y-96014373D01*
X150659619Y-96018001D01*
X150657429Y-96021816D01*
X150654949Y-96025878D01*
X150652165Y-96030249D01*
X150649266Y-96034602D01*
X150646274Y-96038846D01*
X150643201Y-96042969D01*
X150640055Y-96046963D01*
X150636848Y-96050815D01*
X150633589Y-96054518D01*
X150630290Y-96058059D01*
X150626961Y-96061430D01*
X150623611Y-96064620D01*
X150620251Y-96067619D01*
X150616892Y-96070416D01*
X150613544Y-96073002D01*
X150610217Y-96075367D01*
X150606921Y-96077500D01*
X150603668Y-96079390D01*
X150600466Y-96081029D01*
X150594197Y-96083949D01*
X150587745Y-96086709D01*
X150580399Y-96089470D01*
X150576169Y-96090900D01*
X150571447Y-96092392D01*
X150560177Y-96095635D01*
X150545876Y-96099361D01*
X150527832Y-96103730D01*
X150505334Y-96108902D01*
X150477669Y-96115038D01*
X150444125Y-96122299D01*
X150403990Y-96130844D01*
X150356552Y-96140835D01*
X150236917Y-96165795D01*
X150079525Y-96198463D01*
X149564460Y-96306648D01*
X149162430Y-96394540D01*
X148837905Y-96470133D01*
X148555356Y-96541423D01*
X148267661Y-96618755D01*
X148010421Y-96691800D01*
X147775823Y-96762847D01*
X147556053Y-96834185D01*
X147384594Y-96893388D01*
X147225915Y-96951987D01*
X147072978Y-97013151D01*
X146918748Y-97080051D01*
X146756189Y-97155854D01*
X146578265Y-97243732D01*
X146377940Y-97346852D01*
X146148178Y-97468386D01*
X145989036Y-97553056D01*
X145907357Y-97595680D01*
X145899376Y-97599788D01*
X145892628Y-97603449D01*
X145889608Y-97605186D01*
X145886767Y-97606901D01*
X145884062Y-97608624D01*
X145881450Y-97610384D01*
X145878887Y-97612211D01*
X145876331Y-97614135D01*
X145873738Y-97616186D01*
X145871066Y-97618394D01*
X145865310Y-97623400D01*
X145858719Y-97629391D01*
X145849757Y-97637762D01*
X145842133Y-97645147D01*
X145835719Y-97651692D01*
X145832927Y-97654695D01*
X145830390Y-97657543D01*
X145828091Y-97660254D01*
X145826016Y-97662846D01*
X145824149Y-97665338D01*
X145822473Y-97667747D01*
X145820973Y-97670092D01*
X145819633Y-97672392D01*
X145818436Y-97674664D01*
X145817368Y-97676926D01*
X145816773Y-97678327D01*
X145816251Y-97679704D01*
X145815800Y-97681055D01*
X145815420Y-97682381D01*
X145815113Y-97683683D01*
X145814877Y-97684959D01*
X145814712Y-97686210D01*
X145814619Y-97687435D01*
X145814598Y-97688635D01*
X145814647Y-97689810D01*
X145814769Y-97690959D01*
X145814961Y-97692082D01*
X145815225Y-97693180D01*
X145815560Y-97694252D01*
X145815967Y-97695298D01*
X145816445Y-97696318D01*
X145816993Y-97697312D01*
X145817613Y-97698280D01*
X145818305Y-97699222D01*
X145819067Y-97700138D01*
X145819900Y-97701027D01*
X145820804Y-97701890D01*
X145821779Y-97702726D01*
X145822825Y-97703536D01*
X145823942Y-97704319D01*
X145825129Y-97705076D01*
X145826388Y-97705805D01*
X145827717Y-97706508D01*
X145829116Y-97707184D01*
X145830587Y-97707833D01*
X145833740Y-97709050D01*
X145835673Y-97709716D01*
X145837682Y-97710358D01*
X145839959Y-97711010D01*
X145842696Y-97711710D01*
X145846085Y-97712495D01*
X145850319Y-97713400D01*
X145855590Y-97714464D01*
X145862091Y-97715721D01*
X145870014Y-97717210D01*
X145879552Y-97718966D01*
X145904240Y-97723428D01*
X145981456Y-97737175D01*
X146126223Y-97763419D01*
X146241022Y-97785841D01*
X146347735Y-97808938D01*
X146468243Y-97837206D01*
X146552710Y-97857977D01*
X146626505Y-97877420D01*
X146693593Y-97896894D01*
X146757940Y-97917754D01*
X146823509Y-97941357D01*
X146894267Y-97969062D01*
X146974178Y-98002225D01*
X147067207Y-98042202D01*
X147097946Y-98055498D01*
X147121622Y-98065518D01*
X147139299Y-98072587D01*
X147146220Y-98075115D01*
X147152039Y-98077027D01*
X147156889Y-98078362D01*
X147160904Y-98079161D01*
X147164215Y-98079465D01*
X147166956Y-98079313D01*
X147169259Y-98078747D01*
X147171257Y-98077807D01*
X147173083Y-98076532D01*
X147174870Y-98074964D01*
X147175610Y-98074225D01*
X147176330Y-98073420D01*
X147177029Y-98072548D01*
X147177709Y-98071611D01*
X147179004Y-98069547D01*
X147180213Y-98067240D01*
X147181333Y-98064698D01*
X147182363Y-98061932D01*
X147183299Y-98058952D01*
X147184140Y-98055768D01*
X147184882Y-98052390D01*
X147185524Y-98048828D01*
X147186062Y-98045093D01*
X147186495Y-98041194D01*
X147186821Y-98037141D01*
X147187035Y-98032945D01*
X147187137Y-98028615D01*
X147187124Y-98024162D01*
X147187090Y-98018355D01*
X147187175Y-98012703D01*
X147187381Y-98007205D01*
X147187706Y-98001860D01*
X147188153Y-97996666D01*
X147188719Y-97991621D01*
X147189407Y-97986726D01*
X147190216Y-97981977D01*
X147191146Y-97977374D01*
X147192198Y-97972916D01*
X147193371Y-97968600D01*
X147194667Y-97964426D01*
X147196086Y-97960393D01*
X147197627Y-97956498D01*
X147199291Y-97952740D01*
X147201078Y-97949118D01*
X147202920Y-97945672D01*
X147204766Y-97942414D01*
X147206632Y-97939327D01*
X147208532Y-97936397D01*
X147210482Y-97933605D01*
X147212497Y-97930935D01*
X147214593Y-97928371D01*
X147216784Y-97925896D01*
X147219087Y-97923494D01*
X147221515Y-97921148D01*
X147224085Y-97918841D01*
X147226811Y-97916558D01*
X147229710Y-97914280D01*
X147232795Y-97911993D01*
X147236083Y-97909679D01*
X147239589Y-97907321D01*
X147242026Y-97905769D01*
X147244614Y-97904250D01*
X147247471Y-97902718D01*
X147250719Y-97901130D01*
X147254477Y-97899441D01*
X147258866Y-97897608D01*
X147264006Y-97895586D01*
X147270016Y-97893330D01*
X147277018Y-97890797D01*
X147285132Y-97887943D01*
X147305173Y-97881092D01*
X147331102Y-97872425D01*
X147363880Y-97861586D01*
X147454455Y-97832152D01*
X147492125Y-97820195D01*
X147517975Y-97812239D01*
X147558294Y-97800599D01*
X147600059Y-97789042D01*
X147635001Y-97779808D01*
X147647330Y-97776763D01*
X147654851Y-97775138D01*
X147656707Y-97774768D01*
X147658828Y-97774255D01*
X147661139Y-97773623D01*
X147663568Y-97772895D01*
X147666038Y-97772094D01*
X147668477Y-97771244D01*
X147670810Y-97770368D01*
X147672962Y-97769488D01*
X147678891Y-97767194D01*
X147680117Y-97766619D01*
X147680695Y-97766299D01*
X147681250Y-97765949D01*
X147681782Y-97765564D01*
X147682292Y-97765137D01*
X147682780Y-97764663D01*
X147683248Y-97764136D01*
X147683695Y-97763550D01*
X147684122Y-97762899D01*
X147684529Y-97762177D01*
X147684918Y-97761379D01*
X147685287Y-97760497D01*
X147685639Y-97759528D01*
X147685974Y-97758464D01*
X147686291Y-97757300D01*
X147686592Y-97756030D01*
X147686877Y-97754647D01*
X147687402Y-97751523D01*
X147687868Y-97747880D01*
X147688281Y-97743672D01*
X147688644Y-97738850D01*
X147688961Y-97733369D01*
X147689236Y-97727180D01*
X147689474Y-97720238D01*
X147689679Y-97712494D01*
X147689854Y-97703902D01*
X147690132Y-97683984D01*
X147690340Y-97660109D01*
X147690511Y-97631898D01*
X147690872Y-97560964D01*
X147691901Y-97369461D01*
X147699105Y-97357300D01*
X147699935Y-97355964D01*
X147700930Y-97354473D01*
X147703364Y-97351091D01*
X147706300Y-97347283D01*
X147709634Y-97343176D01*
X147713260Y-97338896D01*
X147717072Y-97334571D01*
X147720965Y-97330328D01*
X147724833Y-97326294D01*
X147728574Y-97322565D01*
X147732220Y-97319095D01*
X147735813Y-97315862D01*
X147739394Y-97312839D01*
X147743005Y-97310004D01*
X147746688Y-97307331D01*
X147750485Y-97304796D01*
X147754437Y-97302374D01*
X147758586Y-97300041D01*
X147762974Y-97297772D01*
X147767642Y-97295544D01*
X147772633Y-97293331D01*
X147777987Y-97291108D01*
X147783747Y-97288853D01*
X147789954Y-97286539D01*
X147796650Y-97284143D01*
X147814951Y-97277708D01*
X147841477Y-97281084D01*
X147857624Y-97283338D01*
X147864695Y-97284512D01*
X147871179Y-97285748D01*
X147877137Y-97287071D01*
X147882631Y-97288506D01*
X147887721Y-97290076D01*
X147892469Y-97291806D01*
X147896937Y-97293720D01*
X147901184Y-97295842D01*
X147905273Y-97298196D01*
X147909264Y-97300807D01*
X147913220Y-97303699D01*
X147917200Y-97306896D01*
X147921267Y-97310421D01*
X147925480Y-97314301D01*
X147928848Y-97317511D01*
X147931870Y-97320474D01*
X147934572Y-97323241D01*
X147936983Y-97325860D01*
X147939131Y-97328382D01*
X147941044Y-97330855D01*
X147942750Y-97333329D01*
X147944275Y-97335854D01*
X147945649Y-97338479D01*
X147946899Y-97341253D01*
X147948053Y-97344226D01*
X147949139Y-97347448D01*
X147950185Y-97350968D01*
X147951218Y-97354835D01*
X147952267Y-97359100D01*
X147953359Y-97363810D01*
X147958413Y-97386090D01*
X147958434Y-97508576D01*
X147958454Y-97631062D01*
X147966888Y-97643970D01*
X147968070Y-97645720D01*
X147969281Y-97647397D01*
X147970521Y-97649003D01*
X147971792Y-97650537D01*
X147973092Y-97651999D01*
X147974423Y-97653389D01*
X147975785Y-97654708D01*
X147977179Y-97655955D01*
X147978603Y-97657131D01*
X147980060Y-97658236D01*
X147981548Y-97659269D01*
X147983069Y-97660232D01*
X147984623Y-97661123D01*
X147986209Y-97661944D01*
X147987829Y-97662694D01*
X147989483Y-97663374D01*
X147991170Y-97663983D01*
X147992892Y-97664522D01*
X147994648Y-97664991D01*
X147996440Y-97665390D01*
X147998266Y-97665719D01*
X148000128Y-97665978D01*
X148002026Y-97666167D01*
X148003959Y-97666287D01*
X148005930Y-97666337D01*
X148007937Y-97666318D01*
X148009981Y-97666230D01*
X148012062Y-97666073D01*
X148014181Y-97665847D01*
X148016338Y-97665552D01*
X148018534Y-97665188D01*
X148020768Y-97664755D01*
X148403046Y-97575372D01*
X149140946Y-97402565D01*
X149620529Y-97290401D01*
X149906627Y-97223512D01*
X150056376Y-97189313D01*
X150095779Y-97181045D01*
X150119886Y-97176836D01*
X150134960Y-97175317D01*
X150147265Y-97175115D01*
X150150617Y-97175161D01*
X150153888Y-97175304D01*
X150157096Y-97175549D01*
X150160258Y-97175900D01*
X150163391Y-97176362D01*
X150166514Y-97176940D01*
X150169643Y-97177639D01*
X150172796Y-97178463D01*
X150175991Y-97179419D01*
X150179244Y-97180509D01*
X150182573Y-97181741D01*
X150185995Y-97183118D01*
X150189529Y-97184644D01*
X150193191Y-97186326D01*
X150196998Y-97188168D01*
X150200969Y-97190175D01*
X150204522Y-97192080D01*
X150207976Y-97194080D01*
X150211329Y-97196177D01*
X150214583Y-97198368D01*
X150217735Y-97200654D01*
X150220787Y-97203035D01*
X150223736Y-97205509D01*
X150226583Y-97208077D01*
X150229327Y-97210738D01*
X150231968Y-97213491D01*
X150234505Y-97216337D01*
X150236938Y-97219273D01*
X150239265Y-97222301D01*
X150241488Y-97225420D01*
X150243605Y-97228628D01*
X150245615Y-97231927D01*
X150246869Y-97234086D01*
X150247978Y-97236055D01*
X150248954Y-97237891D01*
X150249810Y-97239654D01*
X150250560Y-97241400D01*
X150251215Y-97243189D01*
X150251790Y-97245078D01*
X150252296Y-97247125D01*
X150252748Y-97249390D01*
X150253157Y-97251929D01*
X150253537Y-97254801D01*
X150253901Y-97258065D01*
X150254261Y-97261778D01*
X150254631Y-97265999D01*
X150255451Y-97276197D01*
X150256060Y-97285186D01*
X150256420Y-97293568D01*
X150256518Y-97301391D01*
X150256338Y-97308705D01*
X150255868Y-97315559D01*
X150255093Y-97322002D01*
X150253998Y-97328084D01*
X150252571Y-97333855D01*
X150250797Y-97339363D01*
X150248662Y-97344658D01*
X150246152Y-97349790D01*
X150243253Y-97354807D01*
X150239951Y-97359760D01*
X150236232Y-97364697D01*
X150232082Y-97369667D01*
X150227487Y-97374721D01*
X150224743Y-97377549D01*
X150221978Y-97380228D01*
X150219153Y-97382781D01*
X150216230Y-97385229D01*
X150213171Y-97387595D01*
X150209940Y-97389902D01*
X150206497Y-97392171D01*
X150202806Y-97394425D01*
X150198829Y-97396685D01*
X150194528Y-97398974D01*
X150189865Y-97401315D01*
X150184802Y-97403729D01*
X150179302Y-97406239D01*
X150173328Y-97408867D01*
X150166841Y-97411634D01*
X150159803Y-97414564D01*
X150152230Y-97417742D01*
X150147103Y-97419480D01*
X150138934Y-97421806D01*
X150126111Y-97425087D01*
X150107025Y-97429690D01*
X150080062Y-97435981D01*
X150043611Y-97444327D01*
X149935803Y-97468651D01*
X149770710Y-97505594D01*
X149217103Y-97629071D01*
X148965418Y-97685198D01*
X148921004Y-97695255D01*
X148892517Y-97702127D01*
X148883300Y-97704614D01*
X148876927Y-97706597D01*
X148873021Y-97708174D01*
X148871874Y-97708841D01*
X148871201Y-97709443D01*
X148870028Y-97711009D01*
X148868853Y-97712720D01*
X148867684Y-97714561D01*
X148866526Y-97716517D01*
X148865388Y-97718571D01*
X148864276Y-97720708D01*
X148863197Y-97722913D01*
X148862158Y-97725169D01*
X148861166Y-97727462D01*
X148860228Y-97729774D01*
X148859352Y-97732092D01*
X148858543Y-97734399D01*
X148857810Y-97736679D01*
X148857158Y-97738917D01*
X148856596Y-97741097D01*
X148856129Y-97743204D01*
X148853046Y-97770167D01*
X148846338Y-97835211D01*
X148826001Y-98040522D01*
X148798155Y-98326519D01*
X148803317Y-98337067D01*
X148804098Y-98338628D01*
X148804853Y-98340060D01*
X148805592Y-98341372D01*
X148806327Y-98342575D01*
X148807067Y-98343679D01*
X148807824Y-98344696D01*
X148808608Y-98345636D01*
X148809429Y-98346509D01*
X148810299Y-98347326D01*
X148811227Y-98348097D01*
X148812225Y-98348834D01*
X148813303Y-98349547D01*
X148814471Y-98350246D01*
X148815741Y-98350942D01*
X148817122Y-98351646D01*
X148818626Y-98352368D01*
X148819901Y-98352945D01*
X148821182Y-98353484D01*
X148822467Y-98353984D01*
X148823758Y-98354446D01*
X148825055Y-98354870D01*
X148826357Y-98355255D01*
X148827665Y-98355602D01*
X148828980Y-98355911D01*
X148830301Y-98356182D01*
X148831629Y-98356415D01*
X148832964Y-98356610D01*
X148834306Y-98356767D01*
X148835656Y-98356886D01*
X148837013Y-98356968D01*
X148838377Y-98357011D01*
X148839750Y-98357017D01*
X148841395Y-98356896D01*
X148843902Y-98356563D01*
X148851345Y-98355291D01*
X148861764Y-98353269D01*
X148874844Y-98350563D01*
X148890269Y-98347239D01*
X148907725Y-98343365D01*
X148947466Y-98334231D01*
X149051306Y-98310306D01*
X149165115Y-98284633D01*
X149275453Y-98259851D01*
X149370945Y-98238066D01*
X149418568Y-98227424D01*
X149438995Y-98223235D01*
X149457419Y-98219799D01*
X149474028Y-98217115D01*
X149489012Y-98215182D01*
X149502560Y-98214000D01*
X149514861Y-98213567D01*
X149526105Y-98213882D01*
X149536481Y-98214945D01*
X149546178Y-98216754D01*
X149555385Y-98219309D01*
X149564293Y-98222608D01*
X149573089Y-98226651D01*
X149581963Y-98231437D01*
X149591105Y-98236965D01*
X149594322Y-98239061D01*
X149597407Y-98241203D01*
X149600361Y-98243394D01*
X149603188Y-98245638D01*
X149605892Y-98247936D01*
X149608473Y-98250293D01*
X149610936Y-98252712D01*
X149613284Y-98255195D01*
X149615518Y-98257746D01*
X149617642Y-98260368D01*
X149619659Y-98263064D01*
X149621572Y-98265837D01*
X149623383Y-98268690D01*
X149625096Y-98271626D01*
X149626712Y-98274649D01*
X149628236Y-98277762D01*
X149629288Y-98280035D01*
X149630220Y-98282125D01*
X149631040Y-98284084D01*
X149631757Y-98285964D01*
X149632380Y-98287817D01*
X149632918Y-98289698D01*
X149633379Y-98291658D01*
X149633773Y-98293749D01*
X149634107Y-98296026D01*
X149634391Y-98298540D01*
X149634634Y-98301344D01*
X149634844Y-98304490D01*
X149635031Y-98308032D01*
X149635202Y-98312022D01*
X149635534Y-98321557D01*
X149635802Y-98332886D01*
X149635820Y-98337796D01*
X149635745Y-98342286D01*
X149635564Y-98346418D01*
X149635266Y-98350254D01*
X149634838Y-98353857D01*
X149634270Y-98357290D01*
X149633548Y-98360614D01*
X149632662Y-98363891D01*
X149631598Y-98367185D01*
X149630346Y-98370558D01*
X149628894Y-98374071D01*
X149627229Y-98377788D01*
X149623213Y-98386080D01*
X149620843Y-98390568D01*
X149618331Y-98394826D01*
X149615668Y-98398861D01*
X149612845Y-98402682D01*
X149609851Y-98406297D01*
X149606677Y-98409712D01*
X149603314Y-98412937D01*
X149599751Y-98415978D01*
X149595979Y-98418844D01*
X149591988Y-98421543D01*
X149587769Y-98424081D01*
X149583312Y-98426468D01*
X149578606Y-98428710D01*
X149573643Y-98430817D01*
X149568413Y-98432794D01*
X149562905Y-98434651D01*
X149556027Y-98436773D01*
X149548420Y-98438935D01*
X149539059Y-98441382D01*
X149526923Y-98444361D01*
X149510986Y-98448117D01*
X149490225Y-98452895D01*
X149430137Y-98466502D01*
X149170791Y-98525380D01*
X148856085Y-98596757D01*
X148803200Y-98608422D01*
X148784969Y-98611920D01*
X148780375Y-98612667D01*
X148778259Y-98613103D01*
X148776253Y-98613602D01*
X148774350Y-98614177D01*
X148772544Y-98614844D01*
X148770826Y-98615616D01*
X148769190Y-98616510D01*
X148767629Y-98617540D01*
X148766135Y-98618720D01*
X148764700Y-98620065D01*
X148763319Y-98621590D01*
X148761983Y-98623311D01*
X148760685Y-98625241D01*
X148759419Y-98627395D01*
X148758176Y-98629788D01*
X148756950Y-98632436D01*
X148755733Y-98635352D01*
X148754518Y-98638551D01*
X148753298Y-98642049D01*
X148752066Y-98645860D01*
X148750814Y-98649998D01*
X148749535Y-98654480D01*
X148748222Y-98659318D01*
X148745465Y-98670126D01*
X148742485Y-98682541D01*
X148739224Y-98696680D01*
X148735624Y-98712662D01*
X148669293Y-99007270D01*
X148639881Y-99133965D01*
X148639689Y-99134435D01*
X148639518Y-99134921D01*
X148639370Y-99135423D01*
X148639244Y-99135940D01*
X148639059Y-99137021D01*
X148638962Y-99138166D01*
X148638955Y-99139374D01*
X148639036Y-99140647D01*
X148639207Y-99141985D01*
X148639468Y-99143388D01*
X148639818Y-99144857D01*
X148640258Y-99146393D01*
X148640787Y-99147996D01*
X148641407Y-99149667D01*
X148642116Y-99151406D01*
X148642916Y-99153215D01*
X148643805Y-99155093D01*
X148644786Y-99157041D01*
X148645234Y-99157846D01*
X148645739Y-99158640D01*
X148646297Y-99159420D01*
X148646906Y-99160186D01*
X148647564Y-99160937D01*
X148648268Y-99161671D01*
X148649015Y-99162387D01*
X148649803Y-99163084D01*
X148650630Y-99163760D01*
X148651493Y-99164415D01*
X148653316Y-99165656D01*
X148655252Y-99166797D01*
X148657282Y-99167829D01*
X148659385Y-99168741D01*
X148661540Y-99169525D01*
X148663728Y-99170170D01*
X148665929Y-99170668D01*
X148667027Y-99170858D01*
X148668121Y-99171008D01*
X148669209Y-99171117D01*
X148670286Y-99171182D01*
X148671352Y-99171204D01*
X148672402Y-99171180D01*
X148673436Y-99171110D01*
X148674450Y-99170992D01*
X148753778Y-99147906D01*
X148928383Y-99095472D01*
X149269590Y-98991286D01*
X149438669Y-98938485D01*
X149486611Y-98923983D01*
X149529964Y-98911331D01*
X149567626Y-98900713D01*
X149606530Y-98890217D01*
X149647641Y-98879610D01*
X149691921Y-98868656D01*
X149793845Y-98844779D01*
X149920012Y-98816715D01*
X149998375Y-98799377D01*
X150046597Y-98788326D01*
X150055136Y-98786269D01*
X150062305Y-98784691D01*
X150065571Y-98784061D01*
X150068727Y-98783527D01*
X150071853Y-98783081D01*
X150075025Y-98782715D01*
X150078322Y-98782421D01*
X150081822Y-98782191D01*
X150085602Y-98782017D01*
X150089740Y-98781891D01*
X150099403Y-98781752D01*
X150111433Y-98781710D01*
X150126561Y-98781848D01*
X150133202Y-98782052D01*
X150139303Y-98782361D01*
X150144920Y-98782789D01*
X150150108Y-98783346D01*
X150154925Y-98784046D01*
X150159425Y-98784899D01*
X150163665Y-98785918D01*
X150167700Y-98787115D01*
X150171588Y-98788501D01*
X150175383Y-98790090D01*
X150179143Y-98791893D01*
X150182922Y-98793921D01*
X150186776Y-98796187D01*
X150190763Y-98798703D01*
X150194861Y-98801447D01*
X150198669Y-98804180D01*
X150202214Y-98806938D01*
X150205522Y-98809758D01*
X150208620Y-98812675D01*
X150211533Y-98815726D01*
X150214289Y-98818947D01*
X150216913Y-98822375D01*
X150219431Y-98826045D01*
X150221870Y-98829994D01*
X150224256Y-98834258D01*
X150226616Y-98838874D01*
X150228975Y-98843877D01*
X150231359Y-98849303D01*
X150233796Y-98855190D01*
X150236311Y-98861573D01*
X150238640Y-98867686D01*
X150239584Y-98870273D01*
X150240391Y-98872615D01*
X150241070Y-98874765D01*
X150241628Y-98876773D01*
X150242073Y-98878691D01*
X150242414Y-98880571D01*
X150242659Y-98882464D01*
X150242815Y-98884421D01*
X150242890Y-98886495D01*
X150242893Y-98888736D01*
X150242831Y-98891196D01*
X150242712Y-98893926D01*
X150242337Y-98900405D01*
X150241669Y-98909535D01*
X150240844Y-98917638D01*
X150240362Y-98921356D01*
X150239828Y-98924878D01*
X150239236Y-98928225D01*
X150238584Y-98931417D01*
X150237866Y-98934474D01*
X150237077Y-98937417D01*
X150236214Y-98940266D01*
X150235271Y-98943041D01*
X150234245Y-98945763D01*
X150233131Y-98948451D01*
X150231925Y-98951127D01*
X150230622Y-98953810D01*
X150229014Y-98956816D01*
X150227191Y-98959871D01*
X150225175Y-98962955D01*
X150222984Y-98966046D01*
X150220638Y-98969124D01*
X150218156Y-98972169D01*
X150215560Y-98975159D01*
X150212867Y-98978075D01*
X150210099Y-98980894D01*
X150207274Y-98983597D01*
X150204413Y-98986162D01*
X150201535Y-98988570D01*
X150198660Y-98990799D01*
X150195808Y-98992828D01*
X150192997Y-98994637D01*
X150190250Y-98996206D01*
X150185206Y-98998834D01*
X150180280Y-99001262D01*
X150175304Y-99003538D01*
X150170110Y-99005705D01*
X150164530Y-99007812D01*
X150158395Y-99009902D01*
X150151537Y-99012022D01*
X150143788Y-99014218D01*
X150134979Y-99016536D01*
X150124943Y-99019022D01*
X150113512Y-99021721D01*
X150100517Y-99024679D01*
X150069162Y-99031557D01*
X150029533Y-99040023D01*
X149809795Y-99087752D01*
X149721933Y-99108095D01*
X149642148Y-99127776D01*
X149565496Y-99148057D01*
X149487032Y-99170201D01*
X149304889Y-99225132D01*
X149106788Y-99287617D01*
X148905346Y-99353075D01*
X148742023Y-99407841D01*
X148687611Y-99426945D01*
X148658275Y-99438252D01*
X148629656Y-99451505D01*
X148616521Y-99457811D01*
X148603928Y-99464025D01*
X148591696Y-99470235D01*
X148579644Y-99476533D01*
X148567593Y-99483009D01*
X148555360Y-99489754D01*
X148542332Y-99496979D01*
X148531581Y-99502802D01*
X148522472Y-99507515D01*
X148514373Y-99511408D01*
X148506648Y-99514773D01*
X148498664Y-99517899D01*
X148489787Y-99521078D01*
X148479384Y-99524601D01*
X148455893Y-99532428D01*
X148438218Y-99529833D01*
X148429348Y-99528395D01*
X148425235Y-99527617D01*
X148421316Y-99526793D01*
X148417573Y-99525915D01*
X148413991Y-99524980D01*
X148410553Y-99523982D01*
X148407244Y-99522915D01*
X148404045Y-99521773D01*
X148400942Y-99520551D01*
X148397918Y-99519243D01*
X148394957Y-99517845D01*
X148392042Y-99516349D01*
X148389157Y-99514752D01*
X148386285Y-99513047D01*
X148383411Y-99511228D01*
X148378347Y-99507778D01*
X148373578Y-99504211D01*
X148369093Y-99500509D01*
X148364878Y-99496653D01*
X148360922Y-99492623D01*
X148357211Y-99488401D01*
X148353733Y-99483966D01*
X148350476Y-99479301D01*
X148347426Y-99474386D01*
X148344571Y-99469201D01*
X148341899Y-99463728D01*
X148339396Y-99457948D01*
X148337051Y-99451841D01*
X148334851Y-99445388D01*
X148332783Y-99438571D01*
X148330834Y-99431369D01*
X148329973Y-99427927D01*
X148329247Y-99424769D01*
X148328667Y-99421801D01*
X148328243Y-99418929D01*
X148327986Y-99416061D01*
X148327924Y-99414599D01*
X148327908Y-99413103D01*
X148327938Y-99411560D01*
X148328018Y-99409960D01*
X148328327Y-99406539D01*
X148328847Y-99402747D01*
X148329588Y-99398490D01*
X148330560Y-99393674D01*
X148331775Y-99388206D01*
X148333244Y-99381992D01*
X148334976Y-99374938D01*
X148339276Y-99357938D01*
X148394017Y-99130957D01*
X148460520Y-98847282D01*
X148491760Y-98709264D01*
X148516635Y-98593957D01*
X148536182Y-98494583D01*
X148551440Y-98404364D01*
X148563445Y-98316520D01*
X148573236Y-98224275D01*
X148581851Y-98120848D01*
X148590327Y-97999462D01*
X148599655Y-97859327D01*
X148602735Y-97813873D01*
X148594929Y-97798622D01*
X148593293Y-97795545D01*
X148591635Y-97792649D01*
X148590000Y-97790000D01*
X148588436Y-97787662D01*
X148587693Y-97786630D01*
X148586986Y-97785700D01*
X148586319Y-97784881D01*
X148585697Y-97784181D01*
X148585127Y-97783607D01*
X148584615Y-97783168D01*
X148584166Y-97782872D01*
X148583785Y-97782728D01*
X148532213Y-97793520D01*
X148416271Y-97819485D01*
X148285643Y-97849369D01*
X148190013Y-97871918D01*
X148119375Y-97889785D01*
X148054018Y-97907164D01*
X148005280Y-97920956D01*
X147990687Y-97925539D01*
X147984499Y-97928065D01*
X147983396Y-97929142D01*
X147982320Y-97930354D01*
X147981273Y-97931690D01*
X147980260Y-97933144D01*
X147979284Y-97934705D01*
X147978348Y-97936366D01*
X147977458Y-97938118D01*
X147976616Y-97939953D01*
X147975826Y-97941862D01*
X147975092Y-97943836D01*
X147974417Y-97945867D01*
X147973806Y-97947946D01*
X147973262Y-97950066D01*
X147972789Y-97952216D01*
X147972390Y-97954389D01*
X147972069Y-97956576D01*
X147971838Y-97962738D01*
X147971705Y-97976268D01*
X147971719Y-98022028D01*
X147972087Y-98087034D01*
X147972786Y-98164464D01*
X147982575Y-99162915D01*
X147983112Y-99462782D01*
X147982071Y-99473211D01*
X147980936Y-99482293D01*
X147979662Y-99490215D01*
X147978959Y-99493801D01*
X147978204Y-99497166D01*
X147977392Y-99500336D01*
X147976517Y-99503332D01*
X147975573Y-99506180D01*
X147974556Y-99508902D01*
X147973458Y-99511522D01*
X147972276Y-99514062D01*
X147971002Y-99516547D01*
X147969632Y-99519001D01*
X147968044Y-99521513D01*
X147966049Y-99524310D01*
X147963696Y-99527342D01*
X147961035Y-99530560D01*
X147958114Y-99533914D01*
X147954984Y-99537354D01*
X147951694Y-99540831D01*
X147948294Y-99544296D01*
X147944832Y-99547699D01*
X147941358Y-99550991D01*
X147937923Y-99554122D01*
X147934574Y-99557042D01*
X147931362Y-99559702D01*
X147928336Y-99562054D01*
X147925546Y-99564046D01*
X147923040Y-99565629D01*
X147919034Y-99567687D01*
X147914346Y-99569630D01*
X147909064Y-99571447D01*
X147903277Y-99573124D01*
X147897075Y-99574652D01*
X147890547Y-99576018D01*
X147883783Y-99577211D01*
X147876870Y-99578219D01*
X147869899Y-99579029D01*
X147862959Y-99579632D01*
X147856139Y-99580014D01*
X147849527Y-99580164D01*
X147843214Y-99580071D01*
X147837289Y-99579723D01*
X147831839Y-99579108D01*
X147826956Y-99578214D01*
X147826952Y-99578215D01*
X147821313Y-99576853D01*
X147815813Y-99575356D01*
X147810447Y-99573722D01*
X147805210Y-99571947D01*
X147800096Y-99570030D01*
X147795102Y-99567967D01*
X147790222Y-99565757D01*
X147785451Y-99563397D01*
X147780784Y-99560884D01*
X147776218Y-99558216D01*
X147771746Y-99555391D01*
X147767364Y-99552405D01*
X147763067Y-99549256D01*
X147758851Y-99545943D01*
X147754710Y-99542461D01*
X147750639Y-99538810D01*
X147747136Y-99535514D01*
X147743987Y-99532415D01*
X147741159Y-99529441D01*
X147738621Y-99526523D01*
X147737450Y-99525063D01*
X147736339Y-99523590D01*
X147735284Y-99522095D01*
X147734280Y-99520571D01*
X147733324Y-99519007D01*
X147732412Y-99517395D01*
X147731539Y-99515726D01*
X147730702Y-99513992D01*
X147729896Y-99512183D01*
X147729117Y-99510291D01*
X147728362Y-99508307D01*
X147727625Y-99506222D01*
X147726192Y-99501714D01*
X147724787Y-99496697D01*
X147723375Y-99491098D01*
X147721925Y-99484849D01*
X147720403Y-99477879D01*
X147718777Y-99470116D01*
X147717192Y-99462254D01*
X147716556Y-99458805D01*
X147716021Y-99455523D01*
X147715581Y-99452292D01*
X147715232Y-99448994D01*
X147714971Y-99445514D01*
X147714794Y-99441734D01*
X147714697Y-99437539D01*
X147714674Y-99432812D01*
X147714724Y-99427436D01*
X147714841Y-99421296D01*
X147715262Y-99406254D01*
X147715905Y-99386755D01*
X147716775Y-99352444D01*
X147717238Y-99314925D01*
X147717031Y-99237761D01*
X147715468Y-99170258D01*
X147714235Y-99144815D01*
X147712732Y-99127410D01*
X147707570Y-99091868D01*
X147704608Y-99074876D01*
X147701370Y-99058333D01*
X147697840Y-99042184D01*
X147694000Y-99026377D01*
X147689836Y-99010857D01*
X147685329Y-98995571D01*
X147680464Y-98980465D01*
X147675223Y-98965485D01*
X147669592Y-98950579D01*
X147663552Y-98935692D01*
X147657087Y-98920772D01*
X147650181Y-98905763D01*
X147634980Y-98875268D01*
X147618495Y-98844234D01*
X147602328Y-98814797D01*
X147586622Y-98787192D01*
X147571517Y-98761655D01*
X147557157Y-98738419D01*
X147543683Y-98717721D01*
X147531237Y-98699795D01*
X147519961Y-98684876D01*
X147500193Y-98661407D01*
X147474744Y-98633144D01*
X147445364Y-98601865D01*
X147413806Y-98569347D01*
X147381822Y-98537368D01*
X147351162Y-98507707D01*
X147323579Y-98482141D01*
X147300824Y-98462449D01*
X147283327Y-98448718D01*
X147261198Y-98432224D01*
X147236188Y-98414180D01*
X147210047Y-98395803D01*
X147184524Y-98378307D01*
X147161371Y-98362907D01*
X147142336Y-98350819D01*
X147129171Y-98343258D01*
X147119995Y-98338444D01*
X147105059Y-98330431D01*
X147086432Y-98320336D01*
X147066178Y-98309272D01*
X147033716Y-98291743D01*
X147002307Y-98275344D01*
X146971873Y-98260039D01*
X146942333Y-98245789D01*
X146913608Y-98232557D01*
X146885620Y-98220306D01*
X146858287Y-98208999D01*
X146831532Y-98198598D01*
X146763693Y-98174660D01*
X146710130Y-98157508D01*
X147329720Y-98157508D01*
X147329752Y-98158194D01*
X147329837Y-98158887D01*
X147329975Y-98159588D01*
X147330167Y-98160297D01*
X147330414Y-98161017D01*
X147330716Y-98161747D01*
X147331073Y-98162489D01*
X147331486Y-98163245D01*
X147331956Y-98164014D01*
X147332483Y-98164799D01*
X147333068Y-98165600D01*
X147333711Y-98166418D01*
X147334413Y-98167254D01*
X147335174Y-98168110D01*
X147335995Y-98168986D01*
X147337819Y-98170805D01*
X147339889Y-98172717D01*
X147342210Y-98174733D01*
X147344785Y-98176860D01*
X147403033Y-98223668D01*
X147445810Y-98258167D01*
X147480971Y-98287048D01*
X147510304Y-98311957D01*
X147535597Y-98334539D01*
X147558638Y-98356440D01*
X147581217Y-98379307D01*
X147605120Y-98404784D01*
X147632137Y-98434519D01*
X147637191Y-98440073D01*
X147642111Y-98445367D01*
X147646776Y-98450277D01*
X147651063Y-98454678D01*
X147654849Y-98458447D01*
X147658013Y-98461460D01*
X147660432Y-98463593D01*
X147661323Y-98464291D01*
X147661983Y-98464722D01*
X147663557Y-98465489D01*
X147665231Y-98466136D01*
X147666991Y-98466665D01*
X147668821Y-98467075D01*
X147670708Y-98467369D01*
X147672637Y-98467546D01*
X147674593Y-98467608D01*
X147676563Y-98467554D01*
X147678532Y-98467387D01*
X147680486Y-98467107D01*
X147682410Y-98466715D01*
X147684290Y-98466210D01*
X147686111Y-98465596D01*
X147687860Y-98464871D01*
X147689521Y-98464037D01*
X147691081Y-98463095D01*
X147691082Y-98463094D01*
X147691929Y-98462496D01*
X147692783Y-98461818D01*
X147693643Y-98461064D01*
X147694508Y-98460234D01*
X147695375Y-98459330D01*
X147696244Y-98458355D01*
X147697113Y-98457311D01*
X147697981Y-98456199D01*
X147698845Y-98455020D01*
X147699706Y-98453778D01*
X147700561Y-98452474D01*
X147701409Y-98451109D01*
X147702249Y-98449686D01*
X147703078Y-98448206D01*
X147703897Y-98446671D01*
X147704703Y-98445084D01*
X147711330Y-98431705D01*
X147710033Y-98236258D01*
X147708735Y-98040810D01*
X147704334Y-98036408D01*
X147703807Y-98035921D01*
X147703222Y-98035451D01*
X147702580Y-98034998D01*
X147701884Y-98034563D01*
X147700340Y-98033749D01*
X147698613Y-98033011D01*
X147696723Y-98032353D01*
X147694692Y-98031778D01*
X147692541Y-98031290D01*
X147690292Y-98030891D01*
X147687965Y-98030585D01*
X147685583Y-98030375D01*
X147683167Y-98030265D01*
X147680738Y-98030257D01*
X147678317Y-98030356D01*
X147675925Y-98030564D01*
X147673585Y-98030885D01*
X147671318Y-98031322D01*
X147663234Y-98033327D01*
X147650587Y-98036711D01*
X147615940Y-98046383D01*
X147576049Y-98057877D01*
X147539587Y-98068730D01*
X147498694Y-98081555D01*
X147479879Y-98087751D01*
X147461915Y-98093886D01*
X147444623Y-98100021D01*
X147427825Y-98106220D01*
X147411342Y-98112543D01*
X147394998Y-98119052D01*
X147380195Y-98124965D01*
X147367655Y-98129808D01*
X147358700Y-98133079D01*
X147355981Y-98133970D01*
X147354655Y-98134281D01*
X147354251Y-98134314D01*
X147353786Y-98134410D01*
X147352688Y-98134780D01*
X147351394Y-98135367D01*
X147349936Y-98136146D01*
X147348348Y-98137092D01*
X147346663Y-98138180D01*
X147344913Y-98139386D01*
X147343132Y-98140685D01*
X147341353Y-98142052D01*
X147339608Y-98143463D01*
X147337931Y-98144893D01*
X147336355Y-98146316D01*
X147334913Y-98147710D01*
X147333637Y-98149047D01*
X147332561Y-98150305D01*
X147331718Y-98151458D01*
X147331299Y-98152132D01*
X147330928Y-98152803D01*
X147330606Y-98153472D01*
X147330333Y-98154140D01*
X147330109Y-98154809D01*
X147329935Y-98155479D01*
X147329812Y-98156151D01*
X147329740Y-98156827D01*
X147329720Y-98157508D01*
X146710130Y-98157508D01*
X146683747Y-98149059D01*
X146595235Y-98122751D01*
G37*
X146595235Y-98122751D02*
X146501701Y-98096693D01*
X146406686Y-98071840D01*
X146313732Y-98049149D01*
X146226382Y-98029577D01*
X146148178Y-98014080D01*
X146078347Y-98002218D01*
X145996127Y-97989872D01*
X145895508Y-97976186D01*
X145770480Y-97960305D01*
X145719200Y-97953811D01*
X145701462Y-97951379D01*
X145687635Y-97949270D01*
X145676703Y-97947314D01*
X145667647Y-97945346D01*
X145659452Y-97943198D01*
X145651099Y-97940704D01*
X145639831Y-97936998D01*
X145628923Y-97933000D01*
X145618459Y-97928749D01*
X145608521Y-97924284D01*
X145599194Y-97919644D01*
X145590560Y-97914870D01*
X145586528Y-97912444D01*
X145582701Y-97909999D01*
X145579089Y-97907540D01*
X145575702Y-97905072D01*
X145569802Y-97900331D01*
X145563531Y-97894766D01*
X145556957Y-97888464D01*
X145550150Y-97881512D01*
X145543180Y-97873997D01*
X145536115Y-97866006D01*
X145529026Y-97857627D01*
X145521981Y-97848947D01*
X145515050Y-97840053D01*
X145508303Y-97831032D01*
X145501808Y-97821972D01*
X145495635Y-97812960D01*
X145489853Y-97804082D01*
X145484532Y-97795427D01*
X145479741Y-97787082D01*
X145475549Y-97779132D01*
X145473185Y-97774139D01*
X145471098Y-97769128D01*
X145469287Y-97764067D01*
X145467750Y-97758924D01*
X145466484Y-97753665D01*
X145465488Y-97748257D01*
X145464760Y-97742669D01*
X145464299Y-97736866D01*
X145464102Y-97730816D01*
X145464168Y-97724486D01*
X145464495Y-97717843D01*
X145465080Y-97710855D01*
X145465923Y-97703489D01*
X145467022Y-97695711D01*
X145468373Y-97687489D01*
X145469977Y-97678790D01*
X145471297Y-97672248D01*
X145472575Y-97666669D01*
X145473229Y-97664158D01*
X145473908Y-97661789D01*
X145474626Y-97659529D01*
X145475393Y-97657345D01*
X145476223Y-97655204D01*
X145477128Y-97653073D01*
X145478120Y-97650919D01*
X145479210Y-97648709D01*
X145480412Y-97646411D01*
X145481737Y-97643991D01*
X145484805Y-97638653D01*
X145494208Y-97622951D01*
X145498473Y-97616125D01*
X145502555Y-97609858D01*
X145506535Y-97604057D01*
X145510494Y-97598629D01*
X145514512Y-97593482D01*
X145518671Y-97588521D01*
X145523051Y-97583655D01*
X145527734Y-97578789D01*
X145532800Y-97573830D01*
X145538330Y-97568687D01*
X145544405Y-97563264D01*
X145551106Y-97557471D01*
X145566709Y-97544396D01*
X145585793Y-97528681D01*
X145601522Y-97515918D01*
X145614574Y-97505612D01*
X145625629Y-97497265D01*
X145635365Y-97490380D01*
X145644461Y-97484458D01*
X145653596Y-97479004D01*
X145663449Y-97473519D01*
X145696133Y-97455548D01*
X145738705Y-97431688D01*
X145795621Y-97399423D01*
X145871337Y-97356240D01*
X146103673Y-97224951D01*
X146296096Y-97119730D01*
X146381815Y-97074501D01*
X146462929Y-97032918D01*
X146541226Y-96994022D01*
X146618499Y-96956858D01*
X146748837Y-96897639D01*
X146894426Y-96836086D01*
X147054253Y-96772571D01*
X147227305Y-96707465D01*
X147412570Y-96641140D01*
X147609036Y-96573966D01*
X147815690Y-96506315D01*
X148031519Y-96438559D01*
X148197385Y-96388883D01*
X148344381Y-96345795D01*
X148473024Y-96309717D01*
X148615684Y-96270547D01*
X148764343Y-96231744D01*
X148925025Y-96191917D01*
X149103756Y-96149669D01*
X149539462Y-96052335D01*
X150119662Y-95928585D01*
X150404736Y-95868079D01*
X150434015Y-95861831D01*
X150458723Y-95856794D01*
X150479628Y-95852850D01*
X150497500Y-95849884D01*
X150513109Y-95847779D01*
X150527223Y-95846418D01*
X150540612Y-95845684D01*
X150554045Y-95845462D01*
X150560063Y-95845550D01*
X150565745Y-95845835D01*
X150571132Y-95846335D01*
X150576267Y-95847068D01*
X150581190Y-95848054D01*
X150585945Y-95849312D01*
X150590573Y-95850859D01*
X150595115Y-95852714D01*
X150599614Y-95854897D01*
X150604111Y-95857426D01*
X150608649Y-95860319D01*
X150613270Y-95863596D01*
X150618014Y-95867274D01*
X150622925Y-95871373D01*
X150628043Y-95875911D01*
X150633411Y-95880907D01*
X150635724Y-95883126D01*
X150637853Y-95885219D01*
X150639816Y-95887209D01*
X150641630Y-95889122D01*
X150643313Y-95890980D01*
X150644883Y-95892808D01*
X150646357Y-95894630D01*
X150647752Y-95896468D01*
X150649087Y-95898348D01*
X150650377Y-95900293D01*
X150651642Y-95902326D01*
X150652898Y-95904472D01*
X150654163Y-95906754D01*
X150655454Y-95909196D01*
X150656789Y-95911823D01*
X150658186Y-95914657D01*
X150667425Y-95933649D01*
X150668575Y-95963136D01*
X150668899Y-95974905D01*
X150668903Y-95980030D01*
X150668783Y-95984730D01*
X150668523Y-95989067D01*
X150668108Y-95993100D01*
X150667524Y-95996893D01*
X150666755Y-96000505D01*
X150665787Y-96003998D01*
X150664604Y-96007433D01*
X150663192Y-96010871D01*
X150661535Y-96014373D01*
X150659619Y-96018001D01*
X150657429Y-96021816D01*
X150654949Y-96025878D01*
X150652165Y-96030249D01*
X150649266Y-96034602D01*
X150646274Y-96038846D01*
X150643201Y-96042969D01*
X150640055Y-96046963D01*
X150636848Y-96050815D01*
X150633589Y-96054518D01*
X150630290Y-96058059D01*
X150626961Y-96061430D01*
X150623611Y-96064620D01*
X150620251Y-96067619D01*
X150616892Y-96070416D01*
X150613544Y-96073002D01*
X150610217Y-96075367D01*
X150606921Y-96077500D01*
X150603668Y-96079390D01*
X150600466Y-96081029D01*
X150594197Y-96083949D01*
X150587745Y-96086709D01*
X150580399Y-96089470D01*
X150576169Y-96090900D01*
X150571447Y-96092392D01*
X150560177Y-96095635D01*
X150545876Y-96099361D01*
X150527832Y-96103730D01*
X150505334Y-96108902D01*
X150477669Y-96115038D01*
X150444125Y-96122299D01*
X150403990Y-96130844D01*
X150356552Y-96140835D01*
X150236917Y-96165795D01*
X150079525Y-96198463D01*
X149564460Y-96306648D01*
X149162430Y-96394540D01*
X148837905Y-96470133D01*
X148555356Y-96541423D01*
X148267661Y-96618755D01*
X148010421Y-96691800D01*
X147775823Y-96762847D01*
X147556053Y-96834185D01*
X147384594Y-96893388D01*
X147225915Y-96951987D01*
X147072978Y-97013151D01*
X146918748Y-97080051D01*
X146756189Y-97155854D01*
X146578265Y-97243732D01*
X146377940Y-97346852D01*
X146148178Y-97468386D01*
X145989036Y-97553056D01*
X145907357Y-97595680D01*
X145899376Y-97599788D01*
X145892628Y-97603449D01*
X145889608Y-97605186D01*
X145886767Y-97606901D01*
X145884062Y-97608624D01*
X145881450Y-97610384D01*
X145878887Y-97612211D01*
X145876331Y-97614135D01*
X145873738Y-97616186D01*
X145871066Y-97618394D01*
X145865310Y-97623400D01*
X145858719Y-97629391D01*
X145849757Y-97637762D01*
X145842133Y-97645147D01*
X145835719Y-97651692D01*
X145832927Y-97654695D01*
X145830390Y-97657543D01*
X145828091Y-97660254D01*
X145826016Y-97662846D01*
X145824149Y-97665338D01*
X145822473Y-97667747D01*
X145820973Y-97670092D01*
X145819633Y-97672392D01*
X145818436Y-97674664D01*
X145817368Y-97676926D01*
X145816773Y-97678327D01*
X145816251Y-97679704D01*
X145815800Y-97681055D01*
X145815420Y-97682381D01*
X145815113Y-97683683D01*
X145814877Y-97684959D01*
X145814712Y-97686210D01*
X145814619Y-97687435D01*
X145814598Y-97688635D01*
X145814647Y-97689810D01*
X145814769Y-97690959D01*
X145814961Y-97692082D01*
X145815225Y-97693180D01*
X145815560Y-97694252D01*
X145815967Y-97695298D01*
X145816445Y-97696318D01*
X145816993Y-97697312D01*
X145817613Y-97698280D01*
X145818305Y-97699222D01*
X145819067Y-97700138D01*
X145819900Y-97701027D01*
X145820804Y-97701890D01*
X145821779Y-97702726D01*
X145822825Y-97703536D01*
X145823942Y-97704319D01*
X145825129Y-97705076D01*
X145826388Y-97705805D01*
X145827717Y-97706508D01*
X145829116Y-97707184D01*
X145830587Y-97707833D01*
X145833740Y-97709050D01*
X145835673Y-97709716D01*
X145837682Y-97710358D01*
X145839959Y-97711010D01*
X145842696Y-97711710D01*
X145846085Y-97712495D01*
X145850319Y-97713400D01*
X145855590Y-97714464D01*
X145862091Y-97715721D01*
X145870014Y-97717210D01*
X145879552Y-97718966D01*
X145904240Y-97723428D01*
X145981456Y-97737175D01*
X146126223Y-97763419D01*
X146241022Y-97785841D01*
X146347735Y-97808938D01*
X146468243Y-97837206D01*
X146552710Y-97857977D01*
X146626505Y-97877420D01*
X146693593Y-97896894D01*
X146757940Y-97917754D01*
X146823509Y-97941357D01*
X146894267Y-97969062D01*
X146974178Y-98002225D01*
X147067207Y-98042202D01*
X147097946Y-98055498D01*
X147121622Y-98065518D01*
X147139299Y-98072587D01*
X147146220Y-98075115D01*
X147152039Y-98077027D01*
X147156889Y-98078362D01*
X147160904Y-98079161D01*
X147164215Y-98079465D01*
X147166956Y-98079313D01*
X147169259Y-98078747D01*
X147171257Y-98077807D01*
X147173083Y-98076532D01*
X147174870Y-98074964D01*
X147175610Y-98074225D01*
X147176330Y-98073420D01*
X147177029Y-98072548D01*
X147177709Y-98071611D01*
X147179004Y-98069547D01*
X147180213Y-98067240D01*
X147181333Y-98064698D01*
X147182363Y-98061932D01*
X147183299Y-98058952D01*
X147184140Y-98055768D01*
X147184882Y-98052390D01*
X147185524Y-98048828D01*
X147186062Y-98045093D01*
X147186495Y-98041194D01*
X147186821Y-98037141D01*
X147187035Y-98032945D01*
X147187137Y-98028615D01*
X147187124Y-98024162D01*
X147187090Y-98018355D01*
X147187175Y-98012703D01*
X147187381Y-98007205D01*
X147187706Y-98001860D01*
X147188153Y-97996666D01*
X147188719Y-97991621D01*
X147189407Y-97986726D01*
X147190216Y-97981977D01*
X147191146Y-97977374D01*
X147192198Y-97972916D01*
X147193371Y-97968600D01*
X147194667Y-97964426D01*
X147196086Y-97960393D01*
X147197627Y-97956498D01*
X147199291Y-97952740D01*
X147201078Y-97949118D01*
X147202920Y-97945672D01*
X147204766Y-97942414D01*
X147206632Y-97939327D01*
X147208532Y-97936397D01*
X147210482Y-97933605D01*
X147212497Y-97930935D01*
X147214593Y-97928371D01*
X147216784Y-97925896D01*
X147219087Y-97923494D01*
X147221515Y-97921148D01*
X147224085Y-97918841D01*
X147226811Y-97916558D01*
X147229710Y-97914280D01*
X147232795Y-97911993D01*
X147236083Y-97909679D01*
X147239589Y-97907321D01*
X147242026Y-97905769D01*
X147244614Y-97904250D01*
X147247471Y-97902718D01*
X147250719Y-97901130D01*
X147254477Y-97899441D01*
X147258866Y-97897608D01*
X147264006Y-97895586D01*
X147270016Y-97893330D01*
X147277018Y-97890797D01*
X147285132Y-97887943D01*
X147305173Y-97881092D01*
X147331102Y-97872425D01*
X147363880Y-97861586D01*
X147454455Y-97832152D01*
X147492125Y-97820195D01*
X147517975Y-97812239D01*
X147558294Y-97800599D01*
X147600059Y-97789042D01*
X147635001Y-97779808D01*
X147647330Y-97776763D01*
X147654851Y-97775138D01*
X147656707Y-97774768D01*
X147658828Y-97774255D01*
X147661139Y-97773623D01*
X147663568Y-97772895D01*
X147666038Y-97772094D01*
X147668477Y-97771244D01*
X147670810Y-97770368D01*
X147672962Y-97769488D01*
X147678891Y-97767194D01*
X147680117Y-97766619D01*
X147680695Y-97766299D01*
X147681250Y-97765949D01*
X147681782Y-97765564D01*
X147682292Y-97765137D01*
X147682780Y-97764663D01*
X147683248Y-97764136D01*
X147683695Y-97763550D01*
X147684122Y-97762899D01*
X147684529Y-97762177D01*
X147684918Y-97761379D01*
X147685287Y-97760497D01*
X147685639Y-97759528D01*
X147685974Y-97758464D01*
X147686291Y-97757300D01*
X147686592Y-97756030D01*
X147686877Y-97754647D01*
X147687402Y-97751523D01*
X147687868Y-97747880D01*
X147688281Y-97743672D01*
X147688644Y-97738850D01*
X147688961Y-97733369D01*
X147689236Y-97727180D01*
X147689474Y-97720238D01*
X147689679Y-97712494D01*
X147689854Y-97703902D01*
X147690132Y-97683984D01*
X147690340Y-97660109D01*
X147690511Y-97631898D01*
X147690872Y-97560964D01*
X147691901Y-97369461D01*
X147699105Y-97357300D01*
X147699935Y-97355964D01*
X147700930Y-97354473D01*
X147703364Y-97351091D01*
X147706300Y-97347283D01*
X147709634Y-97343176D01*
X147713260Y-97338896D01*
X147717072Y-97334571D01*
X147720965Y-97330328D01*
X147724833Y-97326294D01*
X147728574Y-97322565D01*
X147732220Y-97319095D01*
X147735813Y-97315862D01*
X147739394Y-97312839D01*
X147743005Y-97310004D01*
X147746688Y-97307331D01*
X147750485Y-97304796D01*
X147754437Y-97302374D01*
X147758586Y-97300041D01*
X147762974Y-97297772D01*
X147767642Y-97295544D01*
X147772633Y-97293331D01*
X147777987Y-97291108D01*
X147783747Y-97288853D01*
X147789954Y-97286539D01*
X147796650Y-97284143D01*
X147814951Y-97277708D01*
X147841477Y-97281084D01*
X147857624Y-97283338D01*
X147864695Y-97284512D01*
X147871179Y-97285748D01*
X147877137Y-97287071D01*
X147882631Y-97288506D01*
X147887721Y-97290076D01*
X147892469Y-97291806D01*
X147896937Y-97293720D01*
X147901184Y-97295842D01*
X147905273Y-97298196D01*
X147909264Y-97300807D01*
X147913220Y-97303699D01*
X147917200Y-97306896D01*
X147921267Y-97310421D01*
X147925480Y-97314301D01*
X147928848Y-97317511D01*
X147931870Y-97320474D01*
X147934572Y-97323241D01*
X147936983Y-97325860D01*
X147939131Y-97328382D01*
X147941044Y-97330855D01*
X147942750Y-97333329D01*
X147944275Y-97335854D01*
X147945649Y-97338479D01*
X147946899Y-97341253D01*
X147948053Y-97344226D01*
X147949139Y-97347448D01*
X147950185Y-97350968D01*
X147951218Y-97354835D01*
X147952267Y-97359100D01*
X147953359Y-97363810D01*
X147958413Y-97386090D01*
X147958434Y-97508576D01*
X147958454Y-97631062D01*
X147966888Y-97643970D01*
X147968070Y-97645720D01*
X147969281Y-97647397D01*
X147970521Y-97649003D01*
X147971792Y-97650537D01*
X147973092Y-97651999D01*
X147974423Y-97653389D01*
X147975785Y-97654708D01*
X147977179Y-97655955D01*
X147978603Y-97657131D01*
X147980060Y-97658236D01*
X147981548Y-97659269D01*
X147983069Y-97660232D01*
X147984623Y-97661123D01*
X147986209Y-97661944D01*
X147987829Y-97662694D01*
X147989483Y-97663374D01*
X147991170Y-97663983D01*
X147992892Y-97664522D01*
X147994648Y-97664991D01*
X147996440Y-97665390D01*
X147998266Y-97665719D01*
X148000128Y-97665978D01*
X148002026Y-97666167D01*
X148003959Y-97666287D01*
X148005930Y-97666337D01*
X148007937Y-97666318D01*
X148009981Y-97666230D01*
X148012062Y-97666073D01*
X148014181Y-97665847D01*
X148016338Y-97665552D01*
X148018534Y-97665188D01*
X148020768Y-97664755D01*
X148403046Y-97575372D01*
X149140946Y-97402565D01*
X149620529Y-97290401D01*
X149906627Y-97223512D01*
X150056376Y-97189313D01*
X150095779Y-97181045D01*
X150119886Y-97176836D01*
X150134960Y-97175317D01*
X150147265Y-97175115D01*
X150150617Y-97175161D01*
X150153888Y-97175304D01*
X150157096Y-97175549D01*
X150160258Y-97175900D01*
X150163391Y-97176362D01*
X150166514Y-97176940D01*
X150169643Y-97177639D01*
X150172796Y-97178463D01*
X150175991Y-97179419D01*
X150179244Y-97180509D01*
X150182573Y-97181741D01*
X150185995Y-97183118D01*
X150189529Y-97184644D01*
X150193191Y-97186326D01*
X150196998Y-97188168D01*
X150200969Y-97190175D01*
X150204522Y-97192080D01*
X150207976Y-97194080D01*
X150211329Y-97196177D01*
X150214583Y-97198368D01*
X150217735Y-97200654D01*
X150220787Y-97203035D01*
X150223736Y-97205509D01*
X150226583Y-97208077D01*
X150229327Y-97210738D01*
X150231968Y-97213491D01*
X150234505Y-97216337D01*
X150236938Y-97219273D01*
X150239265Y-97222301D01*
X150241488Y-97225420D01*
X150243605Y-97228628D01*
X150245615Y-97231927D01*
X150246869Y-97234086D01*
X150247978Y-97236055D01*
X150248954Y-97237891D01*
X150249810Y-97239654D01*
X150250560Y-97241400D01*
X150251215Y-97243189D01*
X150251790Y-97245078D01*
X150252296Y-97247125D01*
X150252748Y-97249390D01*
X150253157Y-97251929D01*
X150253537Y-97254801D01*
X150253901Y-97258065D01*
X150254261Y-97261778D01*
X150254631Y-97265999D01*
X150255451Y-97276197D01*
X150256060Y-97285186D01*
X150256420Y-97293568D01*
X150256518Y-97301391D01*
X150256338Y-97308705D01*
X150255868Y-97315559D01*
X150255093Y-97322002D01*
X150253998Y-97328084D01*
X150252571Y-97333855D01*
X150250797Y-97339363D01*
X150248662Y-97344658D01*
X150246152Y-97349790D01*
X150243253Y-97354807D01*
X150239951Y-97359760D01*
X150236232Y-97364697D01*
X150232082Y-97369667D01*
X150227487Y-97374721D01*
X150224743Y-97377549D01*
X150221978Y-97380228D01*
X150219153Y-97382781D01*
X150216230Y-97385229D01*
X150213171Y-97387595D01*
X150209940Y-97389902D01*
X150206497Y-97392171D01*
X150202806Y-97394425D01*
X150198829Y-97396685D01*
X150194528Y-97398974D01*
X150189865Y-97401315D01*
X150184802Y-97403729D01*
X150179302Y-97406239D01*
X150173328Y-97408867D01*
X150166841Y-97411634D01*
X150159803Y-97414564D01*
X150152230Y-97417742D01*
X150147103Y-97419480D01*
X150138934Y-97421806D01*
X150126111Y-97425087D01*
X150107025Y-97429690D01*
X150080062Y-97435981D01*
X150043611Y-97444327D01*
X149935803Y-97468651D01*
X149770710Y-97505594D01*
X149217103Y-97629071D01*
X148965418Y-97685198D01*
X148921004Y-97695255D01*
X148892517Y-97702127D01*
X148883300Y-97704614D01*
X148876927Y-97706597D01*
X148873021Y-97708174D01*
X148871874Y-97708841D01*
X148871201Y-97709443D01*
X148870028Y-97711009D01*
X148868853Y-97712720D01*
X148867684Y-97714561D01*
X148866526Y-97716517D01*
X148865388Y-97718571D01*
X148864276Y-97720708D01*
X148863197Y-97722913D01*
X148862158Y-97725169D01*
X148861166Y-97727462D01*
X148860228Y-97729774D01*
X148859352Y-97732092D01*
X148858543Y-97734399D01*
X148857810Y-97736679D01*
X148857158Y-97738917D01*
X148856596Y-97741097D01*
X148856129Y-97743204D01*
X148853046Y-97770167D01*
X148846338Y-97835211D01*
X148826001Y-98040522D01*
X148798155Y-98326519D01*
X148803317Y-98337067D01*
X148804098Y-98338628D01*
X148804853Y-98340060D01*
X148805592Y-98341372D01*
X148806327Y-98342575D01*
X148807067Y-98343679D01*
X148807824Y-98344696D01*
X148808608Y-98345636D01*
X148809429Y-98346509D01*
X148810299Y-98347326D01*
X148811227Y-98348097D01*
X148812225Y-98348834D01*
X148813303Y-98349547D01*
X148814471Y-98350246D01*
X148815741Y-98350942D01*
X148817122Y-98351646D01*
X148818626Y-98352368D01*
X148819901Y-98352945D01*
X148821182Y-98353484D01*
X148822467Y-98353984D01*
X148823758Y-98354446D01*
X148825055Y-98354870D01*
X148826357Y-98355255D01*
X148827665Y-98355602D01*
X148828980Y-98355911D01*
X148830301Y-98356182D01*
X148831629Y-98356415D01*
X148832964Y-98356610D01*
X148834306Y-98356767D01*
X148835656Y-98356886D01*
X148837013Y-98356968D01*
X148838377Y-98357011D01*
X148839750Y-98357017D01*
X148841395Y-98356896D01*
X148843902Y-98356563D01*
X148851345Y-98355291D01*
X148861764Y-98353269D01*
X148874844Y-98350563D01*
X148890269Y-98347239D01*
X148907725Y-98343365D01*
X148947466Y-98334231D01*
X149051306Y-98310306D01*
X149165115Y-98284633D01*
X149275453Y-98259851D01*
X149370945Y-98238066D01*
X149418568Y-98227424D01*
X149438995Y-98223235D01*
X149457419Y-98219799D01*
X149474028Y-98217115D01*
X149489012Y-98215182D01*
X149502560Y-98214000D01*
X149514861Y-98213567D01*
X149526105Y-98213882D01*
X149536481Y-98214945D01*
X149546178Y-98216754D01*
X149555385Y-98219309D01*
X149564293Y-98222608D01*
X149573089Y-98226651D01*
X149581963Y-98231437D01*
X149591105Y-98236965D01*
X149594322Y-98239061D01*
X149597407Y-98241203D01*
X149600361Y-98243394D01*
X149603188Y-98245638D01*
X149605892Y-98247936D01*
X149608473Y-98250293D01*
X149610936Y-98252712D01*
X149613284Y-98255195D01*
X149615518Y-98257746D01*
X149617642Y-98260368D01*
X149619659Y-98263064D01*
X149621572Y-98265837D01*
X149623383Y-98268690D01*
X149625096Y-98271626D01*
X149626712Y-98274649D01*
X149628236Y-98277762D01*
X149629288Y-98280035D01*
X149630220Y-98282125D01*
X149631040Y-98284084D01*
X149631757Y-98285964D01*
X149632380Y-98287817D01*
X149632918Y-98289698D01*
X149633379Y-98291658D01*
X149633773Y-98293749D01*
X149634107Y-98296026D01*
X149634391Y-98298540D01*
X149634634Y-98301344D01*
X149634844Y-98304490D01*
X149635031Y-98308032D01*
X149635202Y-98312022D01*
X149635534Y-98321557D01*
X149635802Y-98332886D01*
X149635820Y-98337796D01*
X149635745Y-98342286D01*
X149635564Y-98346418D01*
X149635266Y-98350254D01*
X149634838Y-98353857D01*
X149634270Y-98357290D01*
X149633548Y-98360614D01*
X149632662Y-98363891D01*
X149631598Y-98367185D01*
X149630346Y-98370558D01*
X149628894Y-98374071D01*
X149627229Y-98377788D01*
X149623213Y-98386080D01*
X149620843Y-98390568D01*
X149618331Y-98394826D01*
X149615668Y-98398861D01*
X149612845Y-98402682D01*
X149609851Y-98406297D01*
X149606677Y-98409712D01*
X149603314Y-98412937D01*
X149599751Y-98415978D01*
X149595979Y-98418844D01*
X149591988Y-98421543D01*
X149587769Y-98424081D01*
X149583312Y-98426468D01*
X149578606Y-98428710D01*
X149573643Y-98430817D01*
X149568413Y-98432794D01*
X149562905Y-98434651D01*
X149556027Y-98436773D01*
X149548420Y-98438935D01*
X149539059Y-98441382D01*
X149526923Y-98444361D01*
X149510986Y-98448117D01*
X149490225Y-98452895D01*
X149430137Y-98466502D01*
X149170791Y-98525380D01*
X148856085Y-98596757D01*
X148803200Y-98608422D01*
X148784969Y-98611920D01*
X148780375Y-98612667D01*
X148778259Y-98613103D01*
X148776253Y-98613602D01*
X148774350Y-98614177D01*
X148772544Y-98614844D01*
X148770826Y-98615616D01*
X148769190Y-98616510D01*
X148767629Y-98617540D01*
X148766135Y-98618720D01*
X148764700Y-98620065D01*
X148763319Y-98621590D01*
X148761983Y-98623311D01*
X148760685Y-98625241D01*
X148759419Y-98627395D01*
X148758176Y-98629788D01*
X148756950Y-98632436D01*
X148755733Y-98635352D01*
X148754518Y-98638551D01*
X148753298Y-98642049D01*
X148752066Y-98645860D01*
X148750814Y-98649998D01*
X148749535Y-98654480D01*
X148748222Y-98659318D01*
X148745465Y-98670126D01*
X148742485Y-98682541D01*
X148739224Y-98696680D01*
X148735624Y-98712662D01*
X148669293Y-99007270D01*
X148639881Y-99133965D01*
X148639689Y-99134435D01*
X148639518Y-99134921D01*
X148639370Y-99135423D01*
X148639244Y-99135940D01*
X148639059Y-99137021D01*
X148638962Y-99138166D01*
X148638955Y-99139374D01*
X148639036Y-99140647D01*
X148639207Y-99141985D01*
X148639468Y-99143388D01*
X148639818Y-99144857D01*
X148640258Y-99146393D01*
X148640787Y-99147996D01*
X148641407Y-99149667D01*
X148642116Y-99151406D01*
X148642916Y-99153215D01*
X148643805Y-99155093D01*
X148644786Y-99157041D01*
X148645234Y-99157846D01*
X148645739Y-99158640D01*
X148646297Y-99159420D01*
X148646906Y-99160186D01*
X148647564Y-99160937D01*
X148648268Y-99161671D01*
X148649015Y-99162387D01*
X148649803Y-99163084D01*
X148650630Y-99163760D01*
X148651493Y-99164415D01*
X148653316Y-99165656D01*
X148655252Y-99166797D01*
X148657282Y-99167829D01*
X148659385Y-99168741D01*
X148661540Y-99169525D01*
X148663728Y-99170170D01*
X148665929Y-99170668D01*
X148667027Y-99170858D01*
X148668121Y-99171008D01*
X148669209Y-99171117D01*
X148670286Y-99171182D01*
X148671352Y-99171204D01*
X148672402Y-99171180D01*
X148673436Y-99171110D01*
X148674450Y-99170992D01*
X148753778Y-99147906D01*
X148928383Y-99095472D01*
X149269590Y-98991286D01*
X149438669Y-98938485D01*
X149486611Y-98923983D01*
X149529964Y-98911331D01*
X149567626Y-98900713D01*
X149606530Y-98890217D01*
X149647641Y-98879610D01*
X149691921Y-98868656D01*
X149793845Y-98844779D01*
X149920012Y-98816715D01*
X149998375Y-98799377D01*
X150046597Y-98788326D01*
X150055136Y-98786269D01*
X150062305Y-98784691D01*
X150065571Y-98784061D01*
X150068727Y-98783527D01*
X150071853Y-98783081D01*
X150075025Y-98782715D01*
X150078322Y-98782421D01*
X150081822Y-98782191D01*
X150085602Y-98782017D01*
X150089740Y-98781891D01*
X150099403Y-98781752D01*
X150111433Y-98781710D01*
X150126561Y-98781848D01*
X150133202Y-98782052D01*
X150139303Y-98782361D01*
X150144920Y-98782789D01*
X150150108Y-98783346D01*
X150154925Y-98784046D01*
X150159425Y-98784899D01*
X150163665Y-98785918D01*
X150167700Y-98787115D01*
X150171588Y-98788501D01*
X150175383Y-98790090D01*
X150179143Y-98791893D01*
X150182922Y-98793921D01*
X150186776Y-98796187D01*
X150190763Y-98798703D01*
X150194861Y-98801447D01*
X150198669Y-98804180D01*
X150202214Y-98806938D01*
X150205522Y-98809758D01*
X150208620Y-98812675D01*
X150211533Y-98815726D01*
X150214289Y-98818947D01*
X150216913Y-98822375D01*
X150219431Y-98826045D01*
X150221870Y-98829994D01*
X150224256Y-98834258D01*
X150226616Y-98838874D01*
X150228975Y-98843877D01*
X150231359Y-98849303D01*
X150233796Y-98855190D01*
X150236311Y-98861573D01*
X150238640Y-98867686D01*
X150239584Y-98870273D01*
X150240391Y-98872615D01*
X150241070Y-98874765D01*
X150241628Y-98876773D01*
X150242073Y-98878691D01*
X150242414Y-98880571D01*
X150242659Y-98882464D01*
X150242815Y-98884421D01*
X150242890Y-98886495D01*
X150242893Y-98888736D01*
X150242831Y-98891196D01*
X150242712Y-98893926D01*
X150242337Y-98900405D01*
X150241669Y-98909535D01*
X150240844Y-98917638D01*
X150240362Y-98921356D01*
X150239828Y-98924878D01*
X150239236Y-98928225D01*
X150238584Y-98931417D01*
X150237866Y-98934474D01*
X150237077Y-98937417D01*
X150236214Y-98940266D01*
X150235271Y-98943041D01*
X150234245Y-98945763D01*
X150233131Y-98948451D01*
X150231925Y-98951127D01*
X150230622Y-98953810D01*
X150229014Y-98956816D01*
X150227191Y-98959871D01*
X150225175Y-98962955D01*
X150222984Y-98966046D01*
X150220638Y-98969124D01*
X150218156Y-98972169D01*
X150215560Y-98975159D01*
X150212867Y-98978075D01*
X150210099Y-98980894D01*
X150207274Y-98983597D01*
X150204413Y-98986162D01*
X150201535Y-98988570D01*
X150198660Y-98990799D01*
X150195808Y-98992828D01*
X150192997Y-98994637D01*
X150190250Y-98996206D01*
X150185206Y-98998834D01*
X150180280Y-99001262D01*
X150175304Y-99003538D01*
X150170110Y-99005705D01*
X150164530Y-99007812D01*
X150158395Y-99009902D01*
X150151537Y-99012022D01*
X150143788Y-99014218D01*
X150134979Y-99016536D01*
X150124943Y-99019022D01*
X150113512Y-99021721D01*
X150100517Y-99024679D01*
X150069162Y-99031557D01*
X150029533Y-99040023D01*
X149809795Y-99087752D01*
X149721933Y-99108095D01*
X149642148Y-99127776D01*
X149565496Y-99148057D01*
X149487032Y-99170201D01*
X149304889Y-99225132D01*
X149106788Y-99287617D01*
X148905346Y-99353075D01*
X148742023Y-99407841D01*
X148687611Y-99426945D01*
X148658275Y-99438252D01*
X148629656Y-99451505D01*
X148616521Y-99457811D01*
X148603928Y-99464025D01*
X148591696Y-99470235D01*
X148579644Y-99476533D01*
X148567593Y-99483009D01*
X148555360Y-99489754D01*
X148542332Y-99496979D01*
X148531581Y-99502802D01*
X148522472Y-99507515D01*
X148514373Y-99511408D01*
X148506648Y-99514773D01*
X148498664Y-99517899D01*
X148489787Y-99521078D01*
X148479384Y-99524601D01*
X148455893Y-99532428D01*
X148438218Y-99529833D01*
X148429348Y-99528395D01*
X148425235Y-99527617D01*
X148421316Y-99526793D01*
X148417573Y-99525915D01*
X148413991Y-99524980D01*
X148410553Y-99523982D01*
X148407244Y-99522915D01*
X148404045Y-99521773D01*
X148400942Y-99520551D01*
X148397918Y-99519243D01*
X148394957Y-99517845D01*
X148392042Y-99516349D01*
X148389157Y-99514752D01*
X148386285Y-99513047D01*
X148383411Y-99511228D01*
X148378347Y-99507778D01*
X148373578Y-99504211D01*
X148369093Y-99500509D01*
X148364878Y-99496653D01*
X148360922Y-99492623D01*
X148357211Y-99488401D01*
X148353733Y-99483966D01*
X148350476Y-99479301D01*
X148347426Y-99474386D01*
X148344571Y-99469201D01*
X148341899Y-99463728D01*
X148339396Y-99457948D01*
X148337051Y-99451841D01*
X148334851Y-99445388D01*
X148332783Y-99438571D01*
X148330834Y-99431369D01*
X148329973Y-99427927D01*
X148329247Y-99424769D01*
X148328667Y-99421801D01*
X148328243Y-99418929D01*
X148327986Y-99416061D01*
X148327924Y-99414599D01*
X148327908Y-99413103D01*
X148327938Y-99411560D01*
X148328018Y-99409960D01*
X148328327Y-99406539D01*
X148328847Y-99402747D01*
X148329588Y-99398490D01*
X148330560Y-99393674D01*
X148331775Y-99388206D01*
X148333244Y-99381992D01*
X148334976Y-99374938D01*
X148339276Y-99357938D01*
X148394017Y-99130957D01*
X148460520Y-98847282D01*
X148491760Y-98709264D01*
X148516635Y-98593957D01*
X148536182Y-98494583D01*
X148551440Y-98404364D01*
X148563445Y-98316520D01*
X148573236Y-98224275D01*
X148581851Y-98120848D01*
X148590327Y-97999462D01*
X148599655Y-97859327D01*
X148602735Y-97813873D01*
X148594929Y-97798622D01*
X148593293Y-97795545D01*
X148591635Y-97792649D01*
X148590000Y-97790000D01*
X148588436Y-97787662D01*
X148587693Y-97786630D01*
X148586986Y-97785700D01*
X148586319Y-97784881D01*
X148585697Y-97784181D01*
X148585127Y-97783607D01*
X148584615Y-97783168D01*
X148584166Y-97782872D01*
X148583785Y-97782728D01*
X148532213Y-97793520D01*
X148416271Y-97819485D01*
X148285643Y-97849369D01*
X148190013Y-97871918D01*
X148119375Y-97889785D01*
X148054018Y-97907164D01*
X148005280Y-97920956D01*
X147990687Y-97925539D01*
X147984499Y-97928065D01*
X147983396Y-97929142D01*
X147982320Y-97930354D01*
X147981273Y-97931690D01*
X147980260Y-97933144D01*
X147979284Y-97934705D01*
X147978348Y-97936366D01*
X147977458Y-97938118D01*
X147976616Y-97939953D01*
X147975826Y-97941862D01*
X147975092Y-97943836D01*
X147974417Y-97945867D01*
X147973806Y-97947946D01*
X147973262Y-97950066D01*
X147972789Y-97952216D01*
X147972390Y-97954389D01*
X147972069Y-97956576D01*
X147971838Y-97962738D01*
X147971705Y-97976268D01*
X147971719Y-98022028D01*
X147972087Y-98087034D01*
X147972786Y-98164464D01*
X147982575Y-99162915D01*
X147983112Y-99462782D01*
X147982071Y-99473211D01*
X147980936Y-99482293D01*
X147979662Y-99490215D01*
X147978959Y-99493801D01*
X147978204Y-99497166D01*
X147977392Y-99500336D01*
X147976517Y-99503332D01*
X147975573Y-99506180D01*
X147974556Y-99508902D01*
X147973458Y-99511522D01*
X147972276Y-99514062D01*
X147971002Y-99516547D01*
X147969632Y-99519001D01*
X147968044Y-99521513D01*
X147966049Y-99524310D01*
X147963696Y-99527342D01*
X147961035Y-99530560D01*
X147958114Y-99533914D01*
X147954984Y-99537354D01*
X147951694Y-99540831D01*
X147948294Y-99544296D01*
X147944832Y-99547699D01*
X147941358Y-99550991D01*
X147937923Y-99554122D01*
X147934574Y-99557042D01*
X147931362Y-99559702D01*
X147928336Y-99562054D01*
X147925546Y-99564046D01*
X147923040Y-99565629D01*
X147919034Y-99567687D01*
X147914346Y-99569630D01*
X147909064Y-99571447D01*
X147903277Y-99573124D01*
X147897075Y-99574652D01*
X147890547Y-99576018D01*
X147883783Y-99577211D01*
X147876870Y-99578219D01*
X147869899Y-99579029D01*
X147862959Y-99579632D01*
X147856139Y-99580014D01*
X147849527Y-99580164D01*
X147843214Y-99580071D01*
X147837289Y-99579723D01*
X147831839Y-99579108D01*
X147826956Y-99578214D01*
X147826952Y-99578215D01*
X147821313Y-99576853D01*
X147815813Y-99575356D01*
X147810447Y-99573722D01*
X147805210Y-99571947D01*
X147800096Y-99570030D01*
X147795102Y-99567967D01*
X147790222Y-99565757D01*
X147785451Y-99563397D01*
X147780784Y-99560884D01*
X147776218Y-99558216D01*
X147771746Y-99555391D01*
X147767364Y-99552405D01*
X147763067Y-99549256D01*
X147758851Y-99545943D01*
X147754710Y-99542461D01*
X147750639Y-99538810D01*
X147747136Y-99535514D01*
X147743987Y-99532415D01*
X147741159Y-99529441D01*
X147738621Y-99526523D01*
X147737450Y-99525063D01*
X147736339Y-99523590D01*
X147735284Y-99522095D01*
X147734280Y-99520571D01*
X147733324Y-99519007D01*
X147732412Y-99517395D01*
X147731539Y-99515726D01*
X147730702Y-99513992D01*
X147729896Y-99512183D01*
X147729117Y-99510291D01*
X147728362Y-99508307D01*
X147727625Y-99506222D01*
X147726192Y-99501714D01*
X147724787Y-99496697D01*
X147723375Y-99491098D01*
X147721925Y-99484849D01*
X147720403Y-99477879D01*
X147718777Y-99470116D01*
X147717192Y-99462254D01*
X147716556Y-99458805D01*
X147716021Y-99455523D01*
X147715581Y-99452292D01*
X147715232Y-99448994D01*
X147714971Y-99445514D01*
X147714794Y-99441734D01*
X147714697Y-99437539D01*
X147714674Y-99432812D01*
X147714724Y-99427436D01*
X147714841Y-99421296D01*
X147715262Y-99406254D01*
X147715905Y-99386755D01*
X147716775Y-99352444D01*
X147717238Y-99314925D01*
X147717031Y-99237761D01*
X147715468Y-99170258D01*
X147714235Y-99144815D01*
X147712732Y-99127410D01*
X147707570Y-99091868D01*
X147704608Y-99074876D01*
X147701370Y-99058333D01*
X147697840Y-99042184D01*
X147694000Y-99026377D01*
X147689836Y-99010857D01*
X147685329Y-98995571D01*
X147680464Y-98980465D01*
X147675223Y-98965485D01*
X147669592Y-98950579D01*
X147663552Y-98935692D01*
X147657087Y-98920772D01*
X147650181Y-98905763D01*
X147634980Y-98875268D01*
X147618495Y-98844234D01*
X147602328Y-98814797D01*
X147586622Y-98787192D01*
X147571517Y-98761655D01*
X147557157Y-98738419D01*
X147543683Y-98717721D01*
X147531237Y-98699795D01*
X147519961Y-98684876D01*
X147500193Y-98661407D01*
X147474744Y-98633144D01*
X147445364Y-98601865D01*
X147413806Y-98569347D01*
X147381822Y-98537368D01*
X147351162Y-98507707D01*
X147323579Y-98482141D01*
X147300824Y-98462449D01*
X147283327Y-98448718D01*
X147261198Y-98432224D01*
X147236188Y-98414180D01*
X147210047Y-98395803D01*
X147184524Y-98378307D01*
X147161371Y-98362907D01*
X147142336Y-98350819D01*
X147129171Y-98343258D01*
X147119995Y-98338444D01*
X147105059Y-98330431D01*
X147086432Y-98320336D01*
X147066178Y-98309272D01*
X147033716Y-98291743D01*
X147002307Y-98275344D01*
X146971873Y-98260039D01*
X146942333Y-98245789D01*
X146913608Y-98232557D01*
X146885620Y-98220306D01*
X146858287Y-98208999D01*
X146831532Y-98198598D01*
X146763693Y-98174660D01*
X146710130Y-98157508D01*
X147329720Y-98157508D01*
X147329752Y-98158194D01*
X147329837Y-98158887D01*
X147329975Y-98159588D01*
X147330167Y-98160297D01*
X147330414Y-98161017D01*
X147330716Y-98161747D01*
X147331073Y-98162489D01*
X147331486Y-98163245D01*
X147331956Y-98164014D01*
X147332483Y-98164799D01*
X147333068Y-98165600D01*
X147333711Y-98166418D01*
X147334413Y-98167254D01*
X147335174Y-98168110D01*
X147335995Y-98168986D01*
X147337819Y-98170805D01*
X147339889Y-98172717D01*
X147342210Y-98174733D01*
X147344785Y-98176860D01*
X147403033Y-98223668D01*
X147445810Y-98258167D01*
X147480971Y-98287048D01*
X147510304Y-98311957D01*
X147535597Y-98334539D01*
X147558638Y-98356440D01*
X147581217Y-98379307D01*
X147605120Y-98404784D01*
X147632137Y-98434519D01*
X147637191Y-98440073D01*
X147642111Y-98445367D01*
X147646776Y-98450277D01*
X147651063Y-98454678D01*
X147654849Y-98458447D01*
X147658013Y-98461460D01*
X147660432Y-98463593D01*
X147661323Y-98464291D01*
X147661983Y-98464722D01*
X147663557Y-98465489D01*
X147665231Y-98466136D01*
X147666991Y-98466665D01*
X147668821Y-98467075D01*
X147670708Y-98467369D01*
X147672637Y-98467546D01*
X147674593Y-98467608D01*
X147676563Y-98467554D01*
X147678532Y-98467387D01*
X147680486Y-98467107D01*
X147682410Y-98466715D01*
X147684290Y-98466210D01*
X147686111Y-98465596D01*
X147687860Y-98464871D01*
X147689521Y-98464037D01*
X147691081Y-98463095D01*
X147691082Y-98463094D01*
X147691929Y-98462496D01*
X147692783Y-98461818D01*
X147693643Y-98461064D01*
X147694508Y-98460234D01*
X147695375Y-98459330D01*
X147696244Y-98458355D01*
X147697113Y-98457311D01*
X147697981Y-98456199D01*
X147698845Y-98455020D01*
X147699706Y-98453778D01*
X147700561Y-98452474D01*
X147701409Y-98451109D01*
X147702249Y-98449686D01*
X147703078Y-98448206D01*
X147703897Y-98446671D01*
X147704703Y-98445084D01*
X147711330Y-98431705D01*
X147710033Y-98236258D01*
X147708735Y-98040810D01*
X147704334Y-98036408D01*
X147703807Y-98035921D01*
X147703222Y-98035451D01*
X147702580Y-98034998D01*
X147701884Y-98034563D01*
X147700340Y-98033749D01*
X147698613Y-98033011D01*
X147696723Y-98032353D01*
X147694692Y-98031778D01*
X147692541Y-98031290D01*
X147690292Y-98030891D01*
X147687965Y-98030585D01*
X147685583Y-98030375D01*
X147683167Y-98030265D01*
X147680738Y-98030257D01*
X147678317Y-98030356D01*
X147675925Y-98030564D01*
X147673585Y-98030885D01*
X147671318Y-98031322D01*
X147663234Y-98033327D01*
X147650587Y-98036711D01*
X147615940Y-98046383D01*
X147576049Y-98057877D01*
X147539587Y-98068730D01*
X147498694Y-98081555D01*
X147479879Y-98087751D01*
X147461915Y-98093886D01*
X147444623Y-98100021D01*
X147427825Y-98106220D01*
X147411342Y-98112543D01*
X147394998Y-98119052D01*
X147380195Y-98124965D01*
X147367655Y-98129808D01*
X147358700Y-98133079D01*
X147355981Y-98133970D01*
X147354655Y-98134281D01*
X147354251Y-98134314D01*
X147353786Y-98134410D01*
X147352688Y-98134780D01*
X147351394Y-98135367D01*
X147349936Y-98136146D01*
X147348348Y-98137092D01*
X147346663Y-98138180D01*
X147344913Y-98139386D01*
X147343132Y-98140685D01*
X147341353Y-98142052D01*
X147339608Y-98143463D01*
X147337931Y-98144893D01*
X147336355Y-98146316D01*
X147334913Y-98147710D01*
X147333637Y-98149047D01*
X147332561Y-98150305D01*
X147331718Y-98151458D01*
X147331299Y-98152132D01*
X147330928Y-98152803D01*
X147330606Y-98153472D01*
X147330333Y-98154140D01*
X147330109Y-98154809D01*
X147329935Y-98155479D01*
X147329812Y-98156151D01*
X147329740Y-98156827D01*
X147329720Y-98157508D01*
X146710130Y-98157508D01*
X146683747Y-98149059D01*
X146595235Y-98122751D01*
D11*
X157511904Y-86447380D02*
X158130952Y-86447380D01*
X157797619Y-86828333D01*
X157940476Y-86828333D01*
X158035714Y-86875952D01*
X158083333Y-86923571D01*
X158130952Y-87018809D01*
X158130952Y-87256904D01*
X158083333Y-87352142D01*
X158035714Y-87399761D01*
X157940476Y-87447380D01*
X157654761Y-87447380D01*
X157559523Y-87399761D01*
X157511904Y-87352142D01*
X158416666Y-86447380D02*
X158750000Y-87447380D01*
X159083333Y-86447380D01*
X159321428Y-86447380D02*
X159940476Y-86447380D01*
X159607142Y-86828333D01*
X159750000Y-86828333D01*
X159845238Y-86875952D01*
X159892857Y-86923571D01*
X159940476Y-87018809D01*
X159940476Y-87256904D01*
X159892857Y-87352142D01*
X159845238Y-87399761D01*
X159750000Y-87447380D01*
X159464285Y-87447380D01*
X159369047Y-87399761D01*
X159321428Y-87352142D01*
X157750000Y-82367380D02*
X157750000Y-81367380D01*
X158226190Y-82367380D02*
X158226190Y-81367380D01*
X158797619Y-82367380D01*
X158797619Y-81367380D01*
X159797619Y-82367380D02*
X159226190Y-82367380D01*
X159511904Y-82367380D02*
X159511904Y-81367380D01*
X159416666Y-81510238D01*
X159321428Y-81605476D01*
X159226190Y-81653095D01*
X157607142Y-96337380D02*
X157607142Y-95337380D01*
X157988095Y-95337380D01*
X158083333Y-95385000D01*
X158130952Y-95432619D01*
X158178571Y-95527857D01*
X158178571Y-95670714D01*
X158130952Y-95765952D01*
X158083333Y-95813571D01*
X157988095Y-95861190D01*
X157607142Y-95861190D01*
X159083333Y-96337380D02*
X158607142Y-96337380D01*
X158607142Y-95337380D01*
X159369047Y-96289761D02*
X159511904Y-96337380D01*
X159750000Y-96337380D01*
X159845238Y-96289761D01*
X159892857Y-96242142D01*
X159940476Y-96146904D01*
X159940476Y-96051666D01*
X159892857Y-95956428D01*
X159845238Y-95908809D01*
X159750000Y-95861190D01*
X159559523Y-95813571D01*
X159464285Y-95765952D01*
X159416666Y-95718333D01*
X159369047Y-95623095D01*
X159369047Y-95527857D01*
X159416666Y-95432619D01*
X159464285Y-95385000D01*
X159559523Y-95337380D01*
X159797619Y-95337380D01*
X159940476Y-95385000D01*
X157988095Y-89035000D02*
X157892857Y-88987380D01*
X157750000Y-88987380D01*
X157607142Y-89035000D01*
X157511904Y-89130238D01*
X157464285Y-89225476D01*
X157416666Y-89415952D01*
X157416666Y-89558809D01*
X157464285Y-89749285D01*
X157511904Y-89844523D01*
X157607142Y-89939761D01*
X157750000Y-89987380D01*
X157845238Y-89987380D01*
X157988095Y-89939761D01*
X158035714Y-89892142D01*
X158035714Y-89558809D01*
X157845238Y-89558809D01*
X158464285Y-89987380D02*
X158464285Y-88987380D01*
X159035714Y-89987380D01*
X159035714Y-88987380D01*
X159511904Y-89987380D02*
X159511904Y-88987380D01*
X159750000Y-88987380D01*
X159892857Y-89035000D01*
X159988095Y-89130238D01*
X160035714Y-89225476D01*
X160083333Y-89415952D01*
X160083333Y-89558809D01*
X160035714Y-89749285D01*
X159988095Y-89844523D01*
X159892857Y-89939761D01*
X159750000Y-89987380D01*
X159511904Y-89987380D01*
X157273809Y-73747380D02*
X157464285Y-73747380D01*
X157559523Y-73795000D01*
X157654761Y-73890238D01*
X157702380Y-74080714D01*
X157702380Y-74414047D01*
X157654761Y-74604523D01*
X157559523Y-74699761D01*
X157464285Y-74747380D01*
X157273809Y-74747380D01*
X157178571Y-74699761D01*
X157083333Y-74604523D01*
X157035714Y-74414047D01*
X157035714Y-74080714D01*
X157083333Y-73890238D01*
X157178571Y-73795000D01*
X157273809Y-73747380D01*
X158130952Y-73747380D02*
X158130952Y-74556904D01*
X158178571Y-74652142D01*
X158226190Y-74699761D01*
X158321428Y-74747380D01*
X158511904Y-74747380D01*
X158607142Y-74699761D01*
X158654761Y-74652142D01*
X158702380Y-74556904D01*
X158702380Y-73747380D01*
X159035714Y-73747380D02*
X159607142Y-73747380D01*
X159321428Y-74747380D02*
X159321428Y-73747380D01*
X159892857Y-73842619D02*
X159940476Y-73795000D01*
X160035714Y-73747380D01*
X160273809Y-73747380D01*
X160369047Y-73795000D01*
X160416666Y-73842619D01*
X160464285Y-73937857D01*
X160464285Y-74033095D01*
X160416666Y-74175952D01*
X159845238Y-74747380D01*
X160464285Y-74747380D01*
X157988095Y-69985000D02*
X157892857Y-69937380D01*
X157750000Y-69937380D01*
X157607142Y-69985000D01*
X157511904Y-70080238D01*
X157464285Y-70175476D01*
X157416666Y-70365952D01*
X157416666Y-70508809D01*
X157464285Y-70699285D01*
X157511904Y-70794523D01*
X157607142Y-70889761D01*
X157750000Y-70937380D01*
X157845238Y-70937380D01*
X157988095Y-70889761D01*
X158035714Y-70842142D01*
X158035714Y-70508809D01*
X157845238Y-70508809D01*
X158464285Y-70937380D02*
X158464285Y-69937380D01*
X159035714Y-70937380D01*
X159035714Y-69937380D01*
X159511904Y-70937380D02*
X159511904Y-69937380D01*
X159750000Y-69937380D01*
X159892857Y-69985000D01*
X159988095Y-70080238D01*
X160035714Y-70175476D01*
X160083333Y-70365952D01*
X160083333Y-70508809D01*
X160035714Y-70699285D01*
X159988095Y-70794523D01*
X159892857Y-70889761D01*
X159750000Y-70937380D01*
X159511904Y-70937380D01*
X157924523Y-97877380D02*
X157448333Y-97877380D01*
X157400714Y-98353571D01*
X157448333Y-98305952D01*
X157543571Y-98258333D01*
X157781666Y-98258333D01*
X157876904Y-98305952D01*
X157924523Y-98353571D01*
X157972142Y-98448809D01*
X157972142Y-98686904D01*
X157924523Y-98782142D01*
X157876904Y-98829761D01*
X157781666Y-98877380D01*
X157543571Y-98877380D01*
X157448333Y-98829761D01*
X157400714Y-98782142D01*
X158257857Y-97877380D02*
X158591190Y-98877380D01*
X158924523Y-97877380D01*
X157750000Y-79827380D02*
X157750000Y-78827380D01*
X158226190Y-79827380D02*
X158226190Y-78827380D01*
X158797619Y-79827380D01*
X158797619Y-78827380D01*
X159226190Y-78922619D02*
X159273809Y-78875000D01*
X159369047Y-78827380D01*
X159607142Y-78827380D01*
X159702380Y-78875000D01*
X159750000Y-78922619D01*
X159797619Y-79017857D01*
X159797619Y-79113095D01*
X159750000Y-79255952D01*
X159178571Y-79827380D01*
X159797619Y-79827380D01*
X157273809Y-76287380D02*
X157464285Y-76287380D01*
X157559523Y-76335000D01*
X157654761Y-76430238D01*
X157702380Y-76620714D01*
X157702380Y-76954047D01*
X157654761Y-77144523D01*
X157559523Y-77239761D01*
X157464285Y-77287380D01*
X157273809Y-77287380D01*
X157178571Y-77239761D01*
X157083333Y-77144523D01*
X157035714Y-76954047D01*
X157035714Y-76620714D01*
X157083333Y-76430238D01*
X157178571Y-76335000D01*
X157273809Y-76287380D01*
X158130952Y-76287380D02*
X158130952Y-77096904D01*
X158178571Y-77192142D01*
X158226190Y-77239761D01*
X158321428Y-77287380D01*
X158511904Y-77287380D01*
X158607142Y-77239761D01*
X158654761Y-77192142D01*
X158702380Y-77096904D01*
X158702380Y-76287380D01*
X159035714Y-76287380D02*
X159607142Y-76287380D01*
X159321428Y-77287380D02*
X159321428Y-76287380D01*
X160464285Y-77287380D02*
X159892857Y-77287380D01*
X160178571Y-77287380D02*
X160178571Y-76287380D01*
X160083333Y-76430238D01*
X159988095Y-76525476D01*
X159892857Y-76573095D01*
X157988095Y-92845000D02*
X157892857Y-92797380D01*
X157750000Y-92797380D01*
X157607142Y-92845000D01*
X157511904Y-92940238D01*
X157464285Y-93035476D01*
X157416666Y-93225952D01*
X157416666Y-93368809D01*
X157464285Y-93559285D01*
X157511904Y-93654523D01*
X157607142Y-93749761D01*
X157750000Y-93797380D01*
X157845238Y-93797380D01*
X157988095Y-93749761D01*
X158035714Y-93702142D01*
X158035714Y-93368809D01*
X157845238Y-93368809D01*
X158464285Y-93797380D02*
X158464285Y-92797380D01*
X159035714Y-93797380D01*
X159035714Y-92797380D01*
X159511904Y-93797380D02*
X159511904Y-92797380D01*
X159750000Y-92797380D01*
X159892857Y-92845000D01*
X159988095Y-92940238D01*
X160035714Y-93035476D01*
X160083333Y-93225952D01*
X160083333Y-93368809D01*
X160035714Y-93559285D01*
X159988095Y-93654523D01*
X159892857Y-93749761D01*
X159750000Y-93797380D01*
X159511904Y-93797380D01*
X157948333Y-68397380D02*
X157615000Y-67921190D01*
X157376904Y-68397380D02*
X157376904Y-67397380D01*
X157757857Y-67397380D01*
X157853095Y-67445000D01*
X157900714Y-67492619D01*
X157948333Y-67587857D01*
X157948333Y-67730714D01*
X157900714Y-67825952D01*
X157853095Y-67873571D01*
X157757857Y-67921190D01*
X157376904Y-67921190D01*
X158281666Y-67397380D02*
X158948333Y-68397380D01*
X158948333Y-67397380D02*
X158281666Y-68397380D01*
X134445952Y-92797380D02*
X134445952Y-93511666D01*
X134398333Y-93654523D01*
X134303095Y-93749761D01*
X134160238Y-93797380D01*
X134065000Y-93797380D01*
X135398333Y-93797380D02*
X134922142Y-93797380D01*
X134922142Y-92797380D01*
X136303095Y-93702142D02*
X136255476Y-93749761D01*
X136112619Y-93797380D01*
X136017380Y-93797380D01*
X135874523Y-93749761D01*
X135779285Y-93654523D01*
X135731666Y-93559285D01*
X135684047Y-93368809D01*
X135684047Y-93225952D01*
X135731666Y-93035476D01*
X135779285Y-92940238D01*
X135874523Y-92845000D01*
X136017380Y-92797380D01*
X136112619Y-92797380D01*
X136255476Y-92845000D01*
X136303095Y-92892619D01*
X137017380Y-92797380D02*
X137017380Y-93511666D01*
X136969761Y-93654523D01*
X136874523Y-93749761D01*
X136731666Y-93797380D01*
X136636428Y-93797380D01*
X137969761Y-93797380D02*
X137493571Y-93797380D01*
X137493571Y-92797380D01*
X138874523Y-93702142D02*
X138826904Y-93749761D01*
X138684047Y-93797380D01*
X138588809Y-93797380D01*
X138445952Y-93749761D01*
X138350714Y-93654523D01*
X138303095Y-93559285D01*
X138255476Y-93368809D01*
X138255476Y-93225952D01*
X138303095Y-93035476D01*
X138350714Y-92940238D01*
X138445952Y-92845000D01*
X138588809Y-92797380D01*
X138684047Y-92797380D01*
X138826904Y-92845000D01*
X138874523Y-92892619D01*
X139588809Y-92797380D02*
X139588809Y-93511666D01*
X139541190Y-93654523D01*
X139445952Y-93749761D01*
X139303095Y-93797380D01*
X139207857Y-93797380D01*
X140541190Y-93797380D02*
X140065000Y-93797380D01*
X140065000Y-92797380D01*
X141445952Y-93702142D02*
X141398333Y-93749761D01*
X141255476Y-93797380D01*
X141160238Y-93797380D01*
X141017380Y-93749761D01*
X140922142Y-93654523D01*
X140874523Y-93559285D01*
X140826904Y-93368809D01*
X140826904Y-93225952D01*
X140874523Y-93035476D01*
X140922142Y-92940238D01*
X141017380Y-92845000D01*
X141160238Y-92797380D01*
X141255476Y-92797380D01*
X141398333Y-92845000D01*
X141445952Y-92892619D01*
X142160238Y-92797380D02*
X142160238Y-93511666D01*
X142112619Y-93654523D01*
X142017380Y-93749761D01*
X141874523Y-93797380D01*
X141779285Y-93797380D01*
X143112619Y-93797380D02*
X142636428Y-93797380D01*
X142636428Y-92797380D01*
X144017380Y-93702142D02*
X143969761Y-93749761D01*
X143826904Y-93797380D01*
X143731666Y-93797380D01*
X143588809Y-93749761D01*
X143493571Y-93654523D01*
X143445952Y-93559285D01*
X143398333Y-93368809D01*
X143398333Y-93225952D01*
X143445952Y-93035476D01*
X143493571Y-92940238D01*
X143588809Y-92845000D01*
X143731666Y-92797380D01*
X143826904Y-92797380D01*
X143969761Y-92845000D01*
X144017380Y-92892619D01*
X157924523Y-83907380D02*
X157448333Y-83907380D01*
X157400714Y-84383571D01*
X157448333Y-84335952D01*
X157543571Y-84288333D01*
X157781666Y-84288333D01*
X157876904Y-84335952D01*
X157924523Y-84383571D01*
X157972142Y-84478809D01*
X157972142Y-84716904D01*
X157924523Y-84812142D01*
X157876904Y-84859761D01*
X157781666Y-84907380D01*
X157543571Y-84907380D01*
X157448333Y-84859761D01*
X157400714Y-84812142D01*
X158257857Y-83907380D02*
X158591190Y-84907380D01*
X158924523Y-83907380D01*
X157353095Y-64857380D02*
X157924523Y-64857380D01*
X157638809Y-65857380D02*
X157638809Y-64857380D01*
X158162619Y-64857380D02*
X158829285Y-65857380D01*
X158829285Y-64857380D02*
X158162619Y-65857380D01*
X120637380Y-86581666D02*
X120637380Y-85962619D01*
X121018333Y-86295952D01*
X121018333Y-86153095D01*
X121065952Y-86057857D01*
X121113571Y-86010238D01*
X121208809Y-85962619D01*
X121446904Y-85962619D01*
X121542142Y-86010238D01*
X121589761Y-86057857D01*
X121637380Y-86153095D01*
X121637380Y-86438809D01*
X121589761Y-86534047D01*
X121542142Y-86581666D01*
X120637380Y-85105476D02*
X120637380Y-85295952D01*
X120685000Y-85391190D01*
X120732619Y-85438809D01*
X120875476Y-85534047D01*
X121065952Y-85581666D01*
X121446904Y-85581666D01*
X121542142Y-85534047D01*
X121589761Y-85486428D01*
X121637380Y-85391190D01*
X121637380Y-85200714D01*
X121589761Y-85105476D01*
X121542142Y-85057857D01*
X121446904Y-85010238D01*
X121208809Y-85010238D01*
X121113571Y-85057857D01*
X121065952Y-85105476D01*
X121018333Y-85200714D01*
X121018333Y-85391190D01*
X121065952Y-85486428D01*
X121113571Y-85534047D01*
X121208809Y-85581666D01*
X121589761Y-84534047D02*
X121637380Y-84534047D01*
X121732619Y-84581666D01*
X121780238Y-84629285D01*
X121065952Y-83962619D02*
X121018333Y-84057857D01*
X120970714Y-84105476D01*
X120875476Y-84153095D01*
X120827857Y-84153095D01*
X120732619Y-84105476D01*
X120685000Y-84057857D01*
X120637380Y-83962619D01*
X120637380Y-83772142D01*
X120685000Y-83676904D01*
X120732619Y-83629285D01*
X120827857Y-83581666D01*
X120875476Y-83581666D01*
X120970714Y-83629285D01*
X121018333Y-83676904D01*
X121065952Y-83772142D01*
X121065952Y-83962619D01*
X121113571Y-84057857D01*
X121161190Y-84105476D01*
X121256428Y-84153095D01*
X121446904Y-84153095D01*
X121542142Y-84105476D01*
X121589761Y-84057857D01*
X121637380Y-83962619D01*
X121637380Y-83772142D01*
X121589761Y-83676904D01*
X121542142Y-83629285D01*
X121446904Y-83581666D01*
X121256428Y-83581666D01*
X121161190Y-83629285D01*
X121113571Y-83676904D01*
X121065952Y-83772142D01*
X120637380Y-83248333D02*
X120637380Y-82629285D01*
X121018333Y-82962619D01*
X121018333Y-82819761D01*
X121065952Y-82724523D01*
X121113571Y-82676904D01*
X121208809Y-82629285D01*
X121446904Y-82629285D01*
X121542142Y-82676904D01*
X121589761Y-82724523D01*
X121637380Y-82819761D01*
X121637380Y-83105476D01*
X121589761Y-83200714D01*
X121542142Y-83248333D01*
X120637380Y-82010238D02*
X120637380Y-81915000D01*
X120685000Y-81819761D01*
X120732619Y-81772142D01*
X120827857Y-81724523D01*
X121018333Y-81676904D01*
X121256428Y-81676904D01*
X121446904Y-81724523D01*
X121542142Y-81772142D01*
X121589761Y-81819761D01*
X121637380Y-81915000D01*
X121637380Y-82010238D01*
X121589761Y-82105476D01*
X121542142Y-82153095D01*
X121446904Y-82200714D01*
X121256428Y-82248333D01*
X121018333Y-82248333D01*
X120827857Y-82200714D01*
X120732619Y-82153095D01*
X120685000Y-82105476D01*
X120637380Y-82010238D01*
X120637380Y-81057857D02*
X120637380Y-80962619D01*
X120685000Y-80867380D01*
X120732619Y-80819761D01*
X120827857Y-80772142D01*
X121018333Y-80724523D01*
X121256428Y-80724523D01*
X121446904Y-80772142D01*
X121542142Y-80819761D01*
X121589761Y-80867380D01*
X121637380Y-80962619D01*
X121637380Y-81057857D01*
X121589761Y-81153095D01*
X121542142Y-81200714D01*
X121446904Y-81248333D01*
X121256428Y-81295952D01*
X121018333Y-81295952D01*
X120827857Y-81248333D01*
X120732619Y-81200714D01*
X120685000Y-81153095D01*
X120637380Y-81057857D01*
X121637380Y-79534047D02*
X120970714Y-79534047D01*
X121065952Y-79534047D02*
X121018333Y-79486428D01*
X120970714Y-79391190D01*
X120970714Y-79248333D01*
X121018333Y-79153095D01*
X121113571Y-79105476D01*
X121637380Y-79105476D01*
X121113571Y-79105476D02*
X121018333Y-79057857D01*
X120970714Y-78962619D01*
X120970714Y-78819761D01*
X121018333Y-78724523D01*
X121113571Y-78676904D01*
X121637380Y-78676904D01*
X121637380Y-78200714D02*
X120970714Y-78200714D01*
X121065952Y-78200714D02*
X121018333Y-78153095D01*
X120970714Y-78057857D01*
X120970714Y-77915000D01*
X121018333Y-77819761D01*
X121113571Y-77772142D01*
X121637380Y-77772142D01*
X121113571Y-77772142D02*
X121018333Y-77724523D01*
X120970714Y-77629285D01*
X120970714Y-77486428D01*
X121018333Y-77391190D01*
X121113571Y-77343571D01*
X121637380Y-77343571D01*
X124595000Y-63500000D02*
X121748580Y-63500000D01*
X124595000Y-100330000D02*
X121748580Y-100330000D01*
X122335000Y-63500000D02*
X122335000Y-100330000D01*
X122335000Y-63500000D02*
X122335000Y-100330000D01*
X122335000Y-63500000D02*
X121748579Y-64626504D01*
X122335000Y-63500000D02*
X122921421Y-64626504D01*
X122335000Y-100330000D02*
X122921421Y-99203496D01*
X122335000Y-100330000D02*
X121748579Y-99203496D01*
X138208333Y-59262380D02*
X138827380Y-59262380D01*
X138494047Y-59643333D01*
X138636904Y-59643333D01*
X138732142Y-59690952D01*
X138779761Y-59738571D01*
X138827380Y-59833809D01*
X138827380Y-60071904D01*
X138779761Y-60167142D01*
X138732142Y-60214761D01*
X138636904Y-60262380D01*
X138351190Y-60262380D01*
X138255952Y-60214761D01*
X138208333Y-60167142D01*
X139732142Y-59262380D02*
X139255952Y-59262380D01*
X139208333Y-59738571D01*
X139255952Y-59690952D01*
X139351190Y-59643333D01*
X139589285Y-59643333D01*
X139684523Y-59690952D01*
X139732142Y-59738571D01*
X139779761Y-59833809D01*
X139779761Y-60071904D01*
X139732142Y-60167142D01*
X139684523Y-60214761D01*
X139589285Y-60262380D01*
X139351190Y-60262380D01*
X139255952Y-60214761D01*
X139208333Y-60167142D01*
X140255952Y-60214761D02*
X140255952Y-60262380D01*
X140208333Y-60357619D01*
X140160714Y-60405238D01*
X141160714Y-59262380D02*
X140684523Y-59262380D01*
X140636904Y-59738571D01*
X140684523Y-59690952D01*
X140779761Y-59643333D01*
X141017857Y-59643333D01*
X141113095Y-59690952D01*
X141160714Y-59738571D01*
X141208333Y-59833809D01*
X141208333Y-60071904D01*
X141160714Y-60167142D01*
X141113095Y-60214761D01*
X141017857Y-60262380D01*
X140779761Y-60262380D01*
X140684523Y-60214761D01*
X140636904Y-60167142D01*
X142065476Y-59262380D02*
X141875000Y-59262380D01*
X141779761Y-59310000D01*
X141732142Y-59357619D01*
X141636904Y-59500476D01*
X141589285Y-59690952D01*
X141589285Y-60071904D01*
X141636904Y-60167142D01*
X141684523Y-60214761D01*
X141779761Y-60262380D01*
X141970238Y-60262380D01*
X142065476Y-60214761D01*
X142113095Y-60167142D01*
X142160714Y-60071904D01*
X142160714Y-59833809D01*
X142113095Y-59738571D01*
X142065476Y-59690952D01*
X141970238Y-59643333D01*
X141779761Y-59643333D01*
X141684523Y-59690952D01*
X141636904Y-59738571D01*
X141589285Y-59833809D01*
X142779761Y-59262380D02*
X142875000Y-59262380D01*
X142970238Y-59310000D01*
X143017857Y-59357619D01*
X143065476Y-59452857D01*
X143113095Y-59643333D01*
X143113095Y-59881428D01*
X143065476Y-60071904D01*
X143017857Y-60167142D01*
X142970238Y-60214761D01*
X142875000Y-60262380D01*
X142779761Y-60262380D01*
X142684523Y-60214761D01*
X142636904Y-60167142D01*
X142589285Y-60071904D01*
X142541666Y-59881428D01*
X142541666Y-59643333D01*
X142589285Y-59452857D01*
X142636904Y-59357619D01*
X142684523Y-59310000D01*
X142779761Y-59262380D01*
X143732142Y-59262380D02*
X143827380Y-59262380D01*
X143922619Y-59310000D01*
X143970238Y-59357619D01*
X144017857Y-59452857D01*
X144065476Y-59643333D01*
X144065476Y-59881428D01*
X144017857Y-60071904D01*
X143970238Y-60167142D01*
X143922619Y-60214761D01*
X143827380Y-60262380D01*
X143732142Y-60262380D01*
X143636904Y-60214761D01*
X143589285Y-60167142D01*
X143541666Y-60071904D01*
X143494047Y-59881428D01*
X143494047Y-59643333D01*
X143541666Y-59452857D01*
X143589285Y-59357619D01*
X143636904Y-59310000D01*
X143732142Y-59262380D01*
X145255952Y-60262380D02*
X145255952Y-59595714D01*
X145255952Y-59690952D02*
X145303571Y-59643333D01*
X145398809Y-59595714D01*
X145541666Y-59595714D01*
X145636904Y-59643333D01*
X145684523Y-59738571D01*
X145684523Y-60262380D01*
X145684523Y-59738571D02*
X145732142Y-59643333D01*
X145827380Y-59595714D01*
X145970238Y-59595714D01*
X146065476Y-59643333D01*
X146113095Y-59738571D01*
X146113095Y-60262380D01*
X146589285Y-60262380D02*
X146589285Y-59595714D01*
X146589285Y-59690952D02*
X146636904Y-59643333D01*
X146732142Y-59595714D01*
X146875000Y-59595714D01*
X146970238Y-59643333D01*
X147017857Y-59738571D01*
X147017857Y-60262380D01*
X147017857Y-59738571D02*
X147065476Y-59643333D01*
X147160714Y-59595714D01*
X147303571Y-59595714D01*
X147398809Y-59643333D01*
X147446428Y-59738571D01*
X147446428Y-60262380D01*
X125095000Y-63000000D02*
X125095000Y-60373580D01*
X160655000Y-63000000D02*
X160655000Y-60373580D01*
X125095000Y-60960000D02*
X160655000Y-60960000D01*
X125095000Y-60960000D02*
X160655000Y-60960000D01*
X125095000Y-60960000D02*
X126221504Y-61546421D01*
X125095000Y-60960000D02*
X126221504Y-60373579D01*
X160655000Y-60960000D02*
X159528496Y-60373579D01*
X160655000Y-60960000D02*
X159528496Y-61546421D01*
%TO.C,Q8*%
X142779761Y-76112619D02*
X142684523Y-76065000D01*
X142589285Y-75969761D01*
X142446428Y-75826904D01*
X142351190Y-75779285D01*
X142255952Y-75779285D01*
X142303571Y-76017380D02*
X142208333Y-75969761D01*
X142113095Y-75874523D01*
X142065476Y-75684047D01*
X142065476Y-75350714D01*
X142113095Y-75160238D01*
X142208333Y-75065000D01*
X142303571Y-75017380D01*
X142494047Y-75017380D01*
X142589285Y-75065000D01*
X142684523Y-75160238D01*
X142732142Y-75350714D01*
X142732142Y-75684047D01*
X142684523Y-75874523D01*
X142589285Y-75969761D01*
X142494047Y-76017380D01*
X142303571Y-76017380D01*
X143303571Y-75445952D02*
X143208333Y-75398333D01*
X143160714Y-75350714D01*
X143113095Y-75255476D01*
X143113095Y-75207857D01*
X143160714Y-75112619D01*
X143208333Y-75065000D01*
X143303571Y-75017380D01*
X143494047Y-75017380D01*
X143589285Y-75065000D01*
X143636904Y-75112619D01*
X143684523Y-75207857D01*
X143684523Y-75255476D01*
X143636904Y-75350714D01*
X143589285Y-75398333D01*
X143494047Y-75445952D01*
X143303571Y-75445952D01*
X143208333Y-75493571D01*
X143160714Y-75541190D01*
X143113095Y-75636428D01*
X143113095Y-75826904D01*
X143160714Y-75922142D01*
X143208333Y-75969761D01*
X143303571Y-76017380D01*
X143494047Y-76017380D01*
X143589285Y-75969761D01*
X143636904Y-75922142D01*
X143684523Y-75826904D01*
X143684523Y-75636428D01*
X143636904Y-75541190D01*
X143589285Y-75493571D01*
X143494047Y-75445952D01*
%TO.C,J1*%
X151852380Y-96218333D02*
X152566666Y-96218333D01*
X152709523Y-96265952D01*
X152804761Y-96361190D01*
X152852380Y-96504047D01*
X152852380Y-96599285D01*
X152852380Y-95218333D02*
X152852380Y-95789761D01*
X152852380Y-95504047D02*
X151852380Y-95504047D01*
X151995238Y-95599285D01*
X152090476Y-95694523D01*
X152138095Y-95789761D01*
%TO.C,Q3*%
X135159761Y-87542619D02*
X135064523Y-87495000D01*
X134969285Y-87399761D01*
X134826428Y-87256904D01*
X134731190Y-87209285D01*
X134635952Y-87209285D01*
X134683571Y-87447380D02*
X134588333Y-87399761D01*
X134493095Y-87304523D01*
X134445476Y-87114047D01*
X134445476Y-86780714D01*
X134493095Y-86590238D01*
X134588333Y-86495000D01*
X134683571Y-86447380D01*
X134874047Y-86447380D01*
X134969285Y-86495000D01*
X135064523Y-86590238D01*
X135112142Y-86780714D01*
X135112142Y-87114047D01*
X135064523Y-87304523D01*
X134969285Y-87399761D01*
X134874047Y-87447380D01*
X134683571Y-87447380D01*
X135445476Y-86447380D02*
X136064523Y-86447380D01*
X135731190Y-86828333D01*
X135874047Y-86828333D01*
X135969285Y-86875952D01*
X136016904Y-86923571D01*
X136064523Y-87018809D01*
X136064523Y-87256904D01*
X136016904Y-87352142D01*
X135969285Y-87399761D01*
X135874047Y-87447380D01*
X135588333Y-87447380D01*
X135493095Y-87399761D01*
X135445476Y-87352142D01*
%TO.C,U1*%
X138303095Y-70572380D02*
X138303095Y-71381904D01*
X138350714Y-71477142D01*
X138398333Y-71524761D01*
X138493571Y-71572380D01*
X138684047Y-71572380D01*
X138779285Y-71524761D01*
X138826904Y-71477142D01*
X138874523Y-71381904D01*
X138874523Y-70572380D01*
X139874523Y-71572380D02*
X139303095Y-71572380D01*
X139588809Y-71572380D02*
X139588809Y-70572380D01*
X139493571Y-70715238D01*
X139398333Y-70810476D01*
X139303095Y-70858095D01*
X138023095Y-97242380D02*
X138023095Y-98051904D01*
X138070714Y-98147142D01*
X138118333Y-98194761D01*
X138213571Y-98242380D01*
X138404047Y-98242380D01*
X138499285Y-98194761D01*
X138546904Y-98147142D01*
X138594523Y-98051904D01*
X138594523Y-97242380D01*
X139023095Y-98194761D02*
X139165952Y-98242380D01*
X139404047Y-98242380D01*
X139499285Y-98194761D01*
X139546904Y-98147142D01*
X139594523Y-98051904D01*
X139594523Y-97956666D01*
X139546904Y-97861428D01*
X139499285Y-97813809D01*
X139404047Y-97766190D01*
X139213571Y-97718571D01*
X139118333Y-97670952D01*
X139070714Y-97623333D01*
X139023095Y-97528095D01*
X139023095Y-97432857D01*
X139070714Y-97337619D01*
X139118333Y-97290000D01*
X139213571Y-97242380D01*
X139451666Y-97242380D01*
X139594523Y-97290000D01*
X140356428Y-97718571D02*
X140499285Y-97766190D01*
X140546904Y-97813809D01*
X140594523Y-97909047D01*
X140594523Y-98051904D01*
X140546904Y-98147142D01*
X140499285Y-98194761D01*
X140404047Y-98242380D01*
X140023095Y-98242380D01*
X140023095Y-97242380D01*
X140356428Y-97242380D01*
X140451666Y-97290000D01*
X140499285Y-97337619D01*
X140546904Y-97432857D01*
X140546904Y-97528095D01*
X140499285Y-97623333D01*
X140451666Y-97670952D01*
X140356428Y-97718571D01*
X140023095Y-97718571D01*
X127032698Y-98022795D02*
X126556508Y-98356129D01*
X127032698Y-98594224D02*
X126032698Y-98594224D01*
X126032698Y-98213272D01*
X126080318Y-98118034D01*
X126127937Y-98070415D01*
X126223175Y-98022795D01*
X126366032Y-98022795D01*
X126461270Y-98070415D01*
X126508889Y-98118034D01*
X126556508Y-98213272D01*
X126556508Y-98594224D01*
X126508889Y-97594224D02*
X126508889Y-97260891D01*
X127032698Y-97118034D02*
X127032698Y-97594224D01*
X126032698Y-97594224D01*
X126032698Y-97118034D01*
X126985079Y-96737081D02*
X127032698Y-96594224D01*
X127032698Y-96356129D01*
X126985079Y-96260891D01*
X126937460Y-96213272D01*
X126842222Y-96165653D01*
X126746984Y-96165653D01*
X126651746Y-96213272D01*
X126604127Y-96260891D01*
X126556508Y-96356129D01*
X126508889Y-96546605D01*
X126461270Y-96641843D01*
X126413651Y-96689462D01*
X126318413Y-96737081D01*
X126223175Y-96737081D01*
X126127937Y-96689462D01*
X126080318Y-96641843D01*
X126032698Y-96546605D01*
X126032698Y-96308510D01*
X126080318Y-96165653D01*
X126508889Y-95737081D02*
X126508889Y-95403748D01*
X127032698Y-95260891D02*
X127032698Y-95737081D01*
X126032698Y-95737081D01*
X126032698Y-95260891D01*
X126032698Y-94975176D02*
X126032698Y-94403748D01*
X127032698Y-94689462D02*
X126032698Y-94689462D01*
%TO.C,R2*%
X130008333Y-89987380D02*
X129675000Y-89511190D01*
X129436904Y-89987380D02*
X129436904Y-88987380D01*
X129817857Y-88987380D01*
X129913095Y-89035000D01*
X129960714Y-89082619D01*
X130008333Y-89177857D01*
X130008333Y-89320714D01*
X129960714Y-89415952D01*
X129913095Y-89463571D01*
X129817857Y-89511190D01*
X129436904Y-89511190D01*
X130389285Y-89082619D02*
X130436904Y-89035000D01*
X130532142Y-88987380D01*
X130770238Y-88987380D01*
X130865476Y-89035000D01*
X130913095Y-89082619D01*
X130960714Y-89177857D01*
X130960714Y-89273095D01*
X130913095Y-89415952D01*
X130341666Y-89987380D01*
X130960714Y-89987380D01*
%TO.C,Q2*%
X135159761Y-76112619D02*
X135064523Y-76065000D01*
X134969285Y-75969761D01*
X134826428Y-75826904D01*
X134731190Y-75779285D01*
X134635952Y-75779285D01*
X134683571Y-76017380D02*
X134588333Y-75969761D01*
X134493095Y-75874523D01*
X134445476Y-75684047D01*
X134445476Y-75350714D01*
X134493095Y-75160238D01*
X134588333Y-75065000D01*
X134683571Y-75017380D01*
X134874047Y-75017380D01*
X134969285Y-75065000D01*
X135064523Y-75160238D01*
X135112142Y-75350714D01*
X135112142Y-75684047D01*
X135064523Y-75874523D01*
X134969285Y-75969761D01*
X134874047Y-76017380D01*
X134683571Y-76017380D01*
X135493095Y-75112619D02*
X135540714Y-75065000D01*
X135635952Y-75017380D01*
X135874047Y-75017380D01*
X135969285Y-75065000D01*
X136016904Y-75112619D01*
X136064523Y-75207857D01*
X136064523Y-75303095D01*
X136016904Y-75445952D01*
X135445476Y-76017380D01*
X136064523Y-76017380D01*
%TO.C,R8*%
X147459374Y-94432380D02*
X147126041Y-93956190D01*
X146887945Y-94432380D02*
X146887945Y-93432380D01*
X147268898Y-93432380D01*
X147364136Y-93480000D01*
X147411755Y-93527619D01*
X147459374Y-93622857D01*
X147459374Y-93765714D01*
X147411755Y-93860952D01*
X147364136Y-93908571D01*
X147268898Y-93956190D01*
X146887945Y-93956190D01*
X148030802Y-93860952D02*
X147935564Y-93813333D01*
X147887945Y-93765714D01*
X147840326Y-93670476D01*
X147840326Y-93622857D01*
X147887945Y-93527619D01*
X147935564Y-93480000D01*
X148030802Y-93432380D01*
X148221279Y-93432380D01*
X148316517Y-93480000D01*
X148364136Y-93527619D01*
X148411755Y-93622857D01*
X148411755Y-93670476D01*
X148364136Y-93765714D01*
X148316517Y-93813333D01*
X148221279Y-93860952D01*
X148030802Y-93860952D01*
X147935564Y-93908571D01*
X147887945Y-93956190D01*
X147840326Y-94051428D01*
X147840326Y-94241904D01*
X147887945Y-94337142D01*
X147935564Y-94384761D01*
X148030802Y-94432380D01*
X148221279Y-94432380D01*
X148316517Y-94384761D01*
X148364136Y-94337142D01*
X148411755Y-94241904D01*
X148411755Y-94051428D01*
X148364136Y-93956190D01*
X148316517Y-93908571D01*
X148221279Y-93860952D01*
%TO.C,Q4*%
X135159761Y-83732619D02*
X135064523Y-83685000D01*
X134969285Y-83589761D01*
X134826428Y-83446904D01*
X134731190Y-83399285D01*
X134635952Y-83399285D01*
X134683571Y-83637380D02*
X134588333Y-83589761D01*
X134493095Y-83494523D01*
X134445476Y-83304047D01*
X134445476Y-82970714D01*
X134493095Y-82780238D01*
X134588333Y-82685000D01*
X134683571Y-82637380D01*
X134874047Y-82637380D01*
X134969285Y-82685000D01*
X135064523Y-82780238D01*
X135112142Y-82970714D01*
X135112142Y-83304047D01*
X135064523Y-83494523D01*
X134969285Y-83589761D01*
X134874047Y-83637380D01*
X134683571Y-83637380D01*
X135969285Y-82970714D02*
X135969285Y-83637380D01*
X135731190Y-82589761D02*
X135493095Y-83304047D01*
X136112142Y-83304047D01*
%TO.C,R5*%
X136977380Y-89701666D02*
X136501190Y-90035000D01*
X136977380Y-90273095D02*
X135977380Y-90273095D01*
X135977380Y-89892142D01*
X136025000Y-89796904D01*
X136072619Y-89749285D01*
X136167857Y-89701666D01*
X136310714Y-89701666D01*
X136405952Y-89749285D01*
X136453571Y-89796904D01*
X136501190Y-89892142D01*
X136501190Y-90273095D01*
X135977380Y-88796904D02*
X135977380Y-89273095D01*
X136453571Y-89320714D01*
X136405952Y-89273095D01*
X136358333Y-89177857D01*
X136358333Y-88939761D01*
X136405952Y-88844523D01*
X136453571Y-88796904D01*
X136548809Y-88749285D01*
X136786904Y-88749285D01*
X136882142Y-88796904D01*
X136929761Y-88844523D01*
X136977380Y-88939761D01*
X136977380Y-89177857D01*
X136929761Y-89273095D01*
X136882142Y-89320714D01*
%TO.C,R6*%
X130008333Y-91257380D02*
X129675000Y-90781190D01*
X129436904Y-91257380D02*
X129436904Y-90257380D01*
X129817857Y-90257380D01*
X129913095Y-90305000D01*
X129960714Y-90352619D01*
X130008333Y-90447857D01*
X130008333Y-90590714D01*
X129960714Y-90685952D01*
X129913095Y-90733571D01*
X129817857Y-90781190D01*
X129436904Y-90781190D01*
X130865476Y-90257380D02*
X130675000Y-90257380D01*
X130579761Y-90305000D01*
X130532142Y-90352619D01*
X130436904Y-90495476D01*
X130389285Y-90685952D01*
X130389285Y-91066904D01*
X130436904Y-91162142D01*
X130484523Y-91209761D01*
X130579761Y-91257380D01*
X130770238Y-91257380D01*
X130865476Y-91209761D01*
X130913095Y-91162142D01*
X130960714Y-91066904D01*
X130960714Y-90828809D01*
X130913095Y-90733571D01*
X130865476Y-90685952D01*
X130770238Y-90638333D01*
X130579761Y-90638333D01*
X130484523Y-90685952D01*
X130436904Y-90733571D01*
X130389285Y-90828809D01*
%TO.C,Q5*%
X142779761Y-87542619D02*
X142684523Y-87495000D01*
X142589285Y-87399761D01*
X142446428Y-87256904D01*
X142351190Y-87209285D01*
X142255952Y-87209285D01*
X142303571Y-87447380D02*
X142208333Y-87399761D01*
X142113095Y-87304523D01*
X142065476Y-87114047D01*
X142065476Y-86780714D01*
X142113095Y-86590238D01*
X142208333Y-86495000D01*
X142303571Y-86447380D01*
X142494047Y-86447380D01*
X142589285Y-86495000D01*
X142684523Y-86590238D01*
X142732142Y-86780714D01*
X142732142Y-87114047D01*
X142684523Y-87304523D01*
X142589285Y-87399761D01*
X142494047Y-87447380D01*
X142303571Y-87447380D01*
X143636904Y-86447380D02*
X143160714Y-86447380D01*
X143113095Y-86923571D01*
X143160714Y-86875952D01*
X143255952Y-86828333D01*
X143494047Y-86828333D01*
X143589285Y-86875952D01*
X143636904Y-86923571D01*
X143684523Y-87018809D01*
X143684523Y-87256904D01*
X143636904Y-87352142D01*
X143589285Y-87399761D01*
X143494047Y-87447380D01*
X143255952Y-87447380D01*
X143160714Y-87399761D01*
X143113095Y-87352142D01*
%TO.C,J3*%
X151852380Y-68278333D02*
X152566666Y-68278333D01*
X152709523Y-68325952D01*
X152804761Y-68421190D01*
X152852380Y-68564047D01*
X152852380Y-68659285D01*
X151852380Y-67897380D02*
X151852380Y-67278333D01*
X152233333Y-67611666D01*
X152233333Y-67468809D01*
X152280952Y-67373571D01*
X152328571Y-67325952D01*
X152423809Y-67278333D01*
X152661904Y-67278333D01*
X152757142Y-67325952D01*
X152804761Y-67373571D01*
X152852380Y-67468809D01*
X152852380Y-67754523D01*
X152804761Y-67849761D01*
X152757142Y-67897380D01*
%TO.C,*%
%TO.C,Q1*%
X135159761Y-79922619D02*
X135064523Y-79875000D01*
X134969285Y-79779761D01*
X134826428Y-79636904D01*
X134731190Y-79589285D01*
X134635952Y-79589285D01*
X134683571Y-79827380D02*
X134588333Y-79779761D01*
X134493095Y-79684523D01*
X134445476Y-79494047D01*
X134445476Y-79160714D01*
X134493095Y-78970238D01*
X134588333Y-78875000D01*
X134683571Y-78827380D01*
X134874047Y-78827380D01*
X134969285Y-78875000D01*
X135064523Y-78970238D01*
X135112142Y-79160714D01*
X135112142Y-79494047D01*
X135064523Y-79684523D01*
X134969285Y-79779761D01*
X134874047Y-79827380D01*
X134683571Y-79827380D01*
X136064523Y-79827380D02*
X135493095Y-79827380D01*
X135778809Y-79827380D02*
X135778809Y-78827380D01*
X135683571Y-78970238D01*
X135588333Y-79065476D01*
X135493095Y-79113095D01*
%TO.C,J2*%
X151852380Y-82248333D02*
X152566666Y-82248333D01*
X152709523Y-82295952D01*
X152804761Y-82391190D01*
X152852380Y-82534047D01*
X152852380Y-82629285D01*
X151947619Y-81819761D02*
X151900000Y-81772142D01*
X151852380Y-81676904D01*
X151852380Y-81438809D01*
X151900000Y-81343571D01*
X151947619Y-81295952D01*
X152042857Y-81248333D01*
X152138095Y-81248333D01*
X152280952Y-81295952D01*
X152852380Y-81867380D01*
X152852380Y-81248333D01*
%TO.C,Q7*%
X142779761Y-79922619D02*
X142684523Y-79875000D01*
X142589285Y-79779761D01*
X142446428Y-79636904D01*
X142351190Y-79589285D01*
X142255952Y-79589285D01*
X142303571Y-79827380D02*
X142208333Y-79779761D01*
X142113095Y-79684523D01*
X142065476Y-79494047D01*
X142065476Y-79160714D01*
X142113095Y-78970238D01*
X142208333Y-78875000D01*
X142303571Y-78827380D01*
X142494047Y-78827380D01*
X142589285Y-78875000D01*
X142684523Y-78970238D01*
X142732142Y-79160714D01*
X142732142Y-79494047D01*
X142684523Y-79684523D01*
X142589285Y-79779761D01*
X142494047Y-79827380D01*
X142303571Y-79827380D01*
X143065476Y-78827380D02*
X143732142Y-78827380D01*
X143303571Y-79827380D01*
%TO.C,R12*%
X147465783Y-89352380D02*
X147132450Y-88876190D01*
X146894355Y-89352380D02*
X146894355Y-88352380D01*
X147275307Y-88352380D01*
X147370545Y-88400000D01*
X147418164Y-88447619D01*
X147465783Y-88542857D01*
X147465783Y-88685714D01*
X147418164Y-88780952D01*
X147370545Y-88828571D01*
X147275307Y-88876190D01*
X146894355Y-88876190D01*
X148418164Y-89352380D02*
X147846736Y-89352380D01*
X148132450Y-89352380D02*
X148132450Y-88352380D01*
X148037212Y-88495238D01*
X147941974Y-88590476D01*
X147846736Y-88638095D01*
X148799117Y-88447619D02*
X148846736Y-88400000D01*
X148941974Y-88352380D01*
X149180069Y-88352380D01*
X149275307Y-88400000D01*
X149322926Y-88447619D01*
X149370545Y-88542857D01*
X149370545Y-88638095D01*
X149322926Y-88780952D01*
X148751498Y-89352380D01*
X149370545Y-89352380D01*
%TO.C,R3*%
X130008333Y-93797380D02*
X129675000Y-93321190D01*
X129436904Y-93797380D02*
X129436904Y-92797380D01*
X129817857Y-92797380D01*
X129913095Y-92845000D01*
X129960714Y-92892619D01*
X130008333Y-92987857D01*
X130008333Y-93130714D01*
X129960714Y-93225952D01*
X129913095Y-93273571D01*
X129817857Y-93321190D01*
X129436904Y-93321190D01*
X130341666Y-92797380D02*
X130960714Y-92797380D01*
X130627380Y-93178333D01*
X130770238Y-93178333D01*
X130865476Y-93225952D01*
X130913095Y-93273571D01*
X130960714Y-93368809D01*
X130960714Y-93606904D01*
X130913095Y-93702142D01*
X130865476Y-93749761D01*
X130770238Y-93797380D01*
X130484523Y-93797380D01*
X130389285Y-93749761D01*
X130341666Y-93702142D01*
%TO.C,R10*%
X147465783Y-90622380D02*
X147132450Y-90146190D01*
X146894355Y-90622380D02*
X146894355Y-89622380D01*
X147275307Y-89622380D01*
X147370545Y-89670000D01*
X147418164Y-89717619D01*
X147465783Y-89812857D01*
X147465783Y-89955714D01*
X147418164Y-90050952D01*
X147370545Y-90098571D01*
X147275307Y-90146190D01*
X146894355Y-90146190D01*
X148418164Y-90622380D02*
X147846736Y-90622380D01*
X148132450Y-90622380D02*
X148132450Y-89622380D01*
X148037212Y-89765238D01*
X147941974Y-89860476D01*
X147846736Y-89908095D01*
X149037212Y-89622380D02*
X149132450Y-89622380D01*
X149227688Y-89670000D01*
X149275307Y-89717619D01*
X149322926Y-89812857D01*
X149370545Y-90003333D01*
X149370545Y-90241428D01*
X149322926Y-90431904D01*
X149275307Y-90527142D01*
X149227688Y-90574761D01*
X149132450Y-90622380D01*
X149037212Y-90622380D01*
X148941974Y-90574761D01*
X148894355Y-90527142D01*
X148846736Y-90431904D01*
X148799117Y-90241428D01*
X148799117Y-90003333D01*
X148846736Y-89812857D01*
X148894355Y-89717619D01*
X148941974Y-89670000D01*
X149037212Y-89622380D01*
%TO.C,R9*%
X147459374Y-93162380D02*
X147126041Y-92686190D01*
X146887945Y-93162380D02*
X146887945Y-92162380D01*
X147268898Y-92162380D01*
X147364136Y-92210000D01*
X147411755Y-92257619D01*
X147459374Y-92352857D01*
X147459374Y-92495714D01*
X147411755Y-92590952D01*
X147364136Y-92638571D01*
X147268898Y-92686190D01*
X146887945Y-92686190D01*
X147935564Y-93162380D02*
X148126041Y-93162380D01*
X148221279Y-93114761D01*
X148268898Y-93067142D01*
X148364136Y-92924285D01*
X148411755Y-92733809D01*
X148411755Y-92352857D01*
X148364136Y-92257619D01*
X148316517Y-92210000D01*
X148221279Y-92162380D01*
X148030802Y-92162380D01*
X147935564Y-92210000D01*
X147887945Y-92257619D01*
X147840326Y-92352857D01*
X147840326Y-92590952D01*
X147887945Y-92686190D01*
X147935564Y-92733809D01*
X148030802Y-92781428D01*
X148221279Y-92781428D01*
X148316517Y-92733809D01*
X148364136Y-92686190D01*
X148411755Y-92590952D01*
%TO.C,R13*%
X147465783Y-88082380D02*
X147132450Y-87606190D01*
X146894355Y-88082380D02*
X146894355Y-87082380D01*
X147275307Y-87082380D01*
X147370545Y-87130000D01*
X147418164Y-87177619D01*
X147465783Y-87272857D01*
X147465783Y-87415714D01*
X147418164Y-87510952D01*
X147370545Y-87558571D01*
X147275307Y-87606190D01*
X146894355Y-87606190D01*
X148418164Y-88082380D02*
X147846736Y-88082380D01*
X148132450Y-88082380D02*
X148132450Y-87082380D01*
X148037212Y-87225238D01*
X147941974Y-87320476D01*
X147846736Y-87368095D01*
X148751498Y-87082380D02*
X149370545Y-87082380D01*
X149037212Y-87463333D01*
X149180069Y-87463333D01*
X149275307Y-87510952D01*
X149322926Y-87558571D01*
X149370545Y-87653809D01*
X149370545Y-87891904D01*
X149322926Y-87987142D01*
X149275307Y-88034761D01*
X149180069Y-88082380D01*
X148894355Y-88082380D01*
X148799117Y-88034761D01*
X148751498Y-87987142D01*
%TO.C,R7*%
X130008333Y-95067380D02*
X129675000Y-94591190D01*
X129436904Y-95067380D02*
X129436904Y-94067380D01*
X129817857Y-94067380D01*
X129913095Y-94115000D01*
X129960714Y-94162619D01*
X130008333Y-94257857D01*
X130008333Y-94400714D01*
X129960714Y-94495952D01*
X129913095Y-94543571D01*
X129817857Y-94591190D01*
X129436904Y-94591190D01*
X130341666Y-94067380D02*
X131008333Y-94067380D01*
X130579761Y-95067380D01*
%TO.C,*%
%TO.C,Q6*%
X142779761Y-83732619D02*
X142684523Y-83685000D01*
X142589285Y-83589761D01*
X142446428Y-83446904D01*
X142351190Y-83399285D01*
X142255952Y-83399285D01*
X142303571Y-83637380D02*
X142208333Y-83589761D01*
X142113095Y-83494523D01*
X142065476Y-83304047D01*
X142065476Y-82970714D01*
X142113095Y-82780238D01*
X142208333Y-82685000D01*
X142303571Y-82637380D01*
X142494047Y-82637380D01*
X142589285Y-82685000D01*
X142684523Y-82780238D01*
X142732142Y-82970714D01*
X142732142Y-83304047D01*
X142684523Y-83494523D01*
X142589285Y-83589761D01*
X142494047Y-83637380D01*
X142303571Y-83637380D01*
X143589285Y-82637380D02*
X143398809Y-82637380D01*
X143303571Y-82685000D01*
X143255952Y-82732619D01*
X143160714Y-82875476D01*
X143113095Y-83065952D01*
X143113095Y-83446904D01*
X143160714Y-83542142D01*
X143208333Y-83589761D01*
X143303571Y-83637380D01*
X143494047Y-83637380D01*
X143589285Y-83589761D01*
X143636904Y-83542142D01*
X143684523Y-83446904D01*
X143684523Y-83208809D01*
X143636904Y-83113571D01*
X143589285Y-83065952D01*
X143494047Y-83018333D01*
X143303571Y-83018333D01*
X143208333Y-83065952D01*
X143160714Y-83113571D01*
X143113095Y-83208809D01*
%TO.C,R4*%
X136977380Y-82081666D02*
X136501190Y-82415000D01*
X136977380Y-82653095D02*
X135977380Y-82653095D01*
X135977380Y-82272142D01*
X136025000Y-82176904D01*
X136072619Y-82129285D01*
X136167857Y-82081666D01*
X136310714Y-82081666D01*
X136405952Y-82129285D01*
X136453571Y-82176904D01*
X136501190Y-82272142D01*
X136501190Y-82653095D01*
X136310714Y-81224523D02*
X136977380Y-81224523D01*
X135929761Y-81462619D02*
X136644047Y-81700714D01*
X136644047Y-81081666D01*
%TO.C,R11*%
X147465783Y-91892380D02*
X147132450Y-91416190D01*
X146894355Y-91892380D02*
X146894355Y-90892380D01*
X147275307Y-90892380D01*
X147370545Y-90940000D01*
X147418164Y-90987619D01*
X147465783Y-91082857D01*
X147465783Y-91225714D01*
X147418164Y-91320952D01*
X147370545Y-91368571D01*
X147275307Y-91416190D01*
X146894355Y-91416190D01*
X148418164Y-91892380D02*
X147846736Y-91892380D01*
X148132450Y-91892380D02*
X148132450Y-90892380D01*
X148037212Y-91035238D01*
X147941974Y-91130476D01*
X147846736Y-91178095D01*
X149370545Y-91892380D02*
X148799117Y-91892380D01*
X149084831Y-91892380D02*
X149084831Y-90892380D01*
X148989593Y-91035238D01*
X148894355Y-91130476D01*
X148799117Y-91178095D01*
%TO.C,R1*%
X130008333Y-92527380D02*
X129675000Y-92051190D01*
X129436904Y-92527380D02*
X129436904Y-91527380D01*
X129817857Y-91527380D01*
X129913095Y-91575000D01*
X129960714Y-91622619D01*
X130008333Y-91717857D01*
X130008333Y-91860714D01*
X129960714Y-91955952D01*
X129913095Y-92003571D01*
X129817857Y-92051190D01*
X129436904Y-92051190D01*
X130960714Y-92527380D02*
X130389285Y-92527380D01*
X130675000Y-92527380D02*
X130675000Y-91527380D01*
X130579761Y-91670238D01*
X130484523Y-91765476D01*
X130389285Y-91813095D01*
D12*
%TO.C,Q8*%
X144780000Y-74005000D02*
X143105000Y-74005000D01*
X144780000Y-74005000D02*
X145430000Y-74005000D01*
X144780000Y-77125000D02*
X144130000Y-77125000D01*
X144780000Y-77125000D02*
X145430000Y-77125000D01*
%TO.C,J1*%
X154245000Y-94630000D02*
X156905000Y-94630000D01*
X154245000Y-94630000D02*
X154245000Y-99770000D01*
X154245000Y-93360000D02*
X154245000Y-92030000D01*
X154245000Y-92030000D02*
X155575000Y-92030000D01*
X156905000Y-94630000D02*
X156905000Y-99770000D01*
X154245000Y-99770000D02*
X156905000Y-99770000D01*
%TO.C,Q3*%
X133652500Y-88555000D02*
X133002500Y-88555000D01*
X133652500Y-88555000D02*
X135327500Y-88555000D01*
X133652500Y-85435000D02*
X134302500Y-85435000D01*
X133652500Y-85435000D02*
X133002500Y-85435000D01*
%TO.C,U1*%
X130395000Y-67310000D02*
X130395000Y-72390000D01*
X138015000Y-67310000D02*
X135475000Y-67310000D01*
X148175000Y-72390000D02*
X148175000Y-67310000D01*
X140555000Y-69850000D02*
X138015000Y-69850000D01*
X148175000Y-67310000D02*
X145635000Y-67310000D01*
X134205000Y-67310000D02*
X134205000Y-72390000D01*
X143095000Y-67310000D02*
X140555000Y-67310000D01*
X138015000Y-69850000D02*
X138015000Y-67310000D01*
X143095000Y-69850000D02*
X143095000Y-67310000D01*
X145635000Y-67310000D02*
X145635000Y-69850000D01*
X135475000Y-67310000D02*
X130395000Y-67310000D01*
X140555000Y-67310000D02*
X140555000Y-69850000D01*
X134205000Y-72390000D02*
X134205000Y-67310000D01*
X145635000Y-69850000D02*
X143095000Y-69850000D01*
X134205000Y-100330000D02*
X144365000Y-100330000D01*
X144365000Y-100330000D02*
X144365000Y-95250000D01*
X144365000Y-95250000D02*
X134205000Y-95250000D01*
X134205000Y-95250000D02*
X134205000Y-100330000D01*
X125315000Y-92710000D02*
X127855000Y-92710000D01*
X127855000Y-92710000D02*
X127855000Y-100330000D01*
X127855000Y-100330000D02*
X125315000Y-100330000D01*
X125315000Y-100330000D02*
X125315000Y-92710000D01*
X125315000Y-64770000D02*
X153255000Y-64770000D01*
X153255000Y-64770000D02*
X153255000Y-100330000D01*
X153255000Y-100330000D02*
X125315000Y-100330000D01*
X125315000Y-100330000D02*
X125315000Y-64770000D01*
%TO.C,R2*%
X130453641Y-83565000D02*
X130146359Y-83565000D01*
X130453641Y-82805000D02*
X130146359Y-82805000D01*
%TO.C,Q2*%
X133652500Y-74005000D02*
X133002500Y-74005000D01*
X133652500Y-77125000D02*
X133002500Y-77125000D01*
X133652500Y-74005000D02*
X134302500Y-74005000D01*
X133652500Y-77125000D02*
X135327500Y-77125000D01*
%TO.C,R8*%
X148108641Y-86105000D02*
X147801359Y-86105000D01*
X148108641Y-85345000D02*
X147801359Y-85345000D01*
%TO.C,Q4*%
X133652500Y-81625000D02*
X134302500Y-81625000D01*
X133652500Y-81625000D02*
X133002500Y-81625000D01*
X133652500Y-84745000D02*
X133002500Y-84745000D01*
X133652500Y-84745000D02*
X135327500Y-84745000D01*
%TO.C,R5*%
X136905000Y-87601359D02*
X136905000Y-87908641D01*
X136145000Y-87601359D02*
X136145000Y-87908641D01*
%TO.C,R6*%
X130453641Y-84075000D02*
X130146359Y-84075000D01*
X130453641Y-84835000D02*
X130146359Y-84835000D01*
%TO.C,Q5*%
X144780000Y-88555000D02*
X145430000Y-88555000D01*
X144780000Y-88555000D02*
X144130000Y-88555000D01*
X144780000Y-85435000D02*
X145430000Y-85435000D01*
X144780000Y-85435000D02*
X143105000Y-85435000D01*
%TO.C,J3*%
X156905000Y-69215000D02*
X156905000Y-64075000D01*
X154245000Y-69215000D02*
X154245000Y-64075000D01*
X156905000Y-64075000D02*
X154245000Y-64075000D01*
X156905000Y-71815000D02*
X155575000Y-71815000D01*
X156905000Y-70485000D02*
X156905000Y-71815000D01*
X156905000Y-69215000D02*
X154245000Y-69215000D01*
%TO.C,Q1*%
X133652500Y-80935000D02*
X133002500Y-80935000D01*
X133652500Y-77815000D02*
X133002500Y-77815000D01*
X133652500Y-80935000D02*
X135327500Y-80935000D01*
X133652500Y-77815000D02*
X134302500Y-77815000D01*
%TO.C,J2*%
X156905000Y-89535000D02*
X156905000Y-90865000D01*
X156905000Y-72965000D02*
X154245000Y-72965000D01*
X156905000Y-90865000D02*
X155575000Y-90865000D01*
X154245000Y-88265000D02*
X154245000Y-72965000D01*
X156905000Y-88265000D02*
X154245000Y-88265000D01*
X156905000Y-88265000D02*
X156905000Y-72965000D01*
%TO.C,Q7*%
X144780000Y-80935000D02*
X145430000Y-80935000D01*
X144780000Y-77815000D02*
X145430000Y-77815000D01*
X144780000Y-80935000D02*
X144130000Y-80935000D01*
X144780000Y-77815000D02*
X143105000Y-77815000D01*
%TO.C,R12*%
X148108641Y-80390000D02*
X147801359Y-80390000D01*
X148108641Y-79630000D02*
X147801359Y-79630000D01*
%TO.C,R3*%
X130453641Y-86615000D02*
X130146359Y-86615000D01*
X130453641Y-87375000D02*
X130146359Y-87375000D01*
%TO.C,R10*%
X148108641Y-81660000D02*
X147801359Y-81660000D01*
X148108641Y-80900000D02*
X147801359Y-80900000D01*
%TO.C,R9*%
X148108641Y-84075000D02*
X147801359Y-84075000D01*
X148108641Y-84835000D02*
X147801359Y-84835000D01*
%TO.C,R13*%
X148108641Y-77850000D02*
X147801359Y-77850000D01*
X148108641Y-77090000D02*
X147801359Y-77090000D01*
%TO.C,R7*%
X130453641Y-87885000D02*
X130146359Y-87885000D01*
X130453641Y-88645000D02*
X130146359Y-88645000D01*
%TO.C,Q6*%
X144780000Y-84745000D02*
X144130000Y-84745000D01*
X144780000Y-81625000D02*
X145430000Y-81625000D01*
X144780000Y-81625000D02*
X143105000Y-81625000D01*
X144780000Y-84745000D02*
X145430000Y-84745000D01*
%TO.C,R4*%
X136145000Y-84483641D02*
X136145000Y-84176359D01*
X136905000Y-84483641D02*
X136905000Y-84176359D01*
%TO.C,R11*%
X148108641Y-83565000D02*
X147801359Y-83565000D01*
X148108641Y-82805000D02*
X147801359Y-82805000D01*
%TO.C,R1*%
X130453641Y-86105000D02*
X130146359Y-86105000D01*
X130453641Y-85345000D02*
X130146359Y-85345000D01*
%TD*%
M02*
