%TF.GenerationSoftware,KiCad,Pcbnew,(6.0.6)*%
%TF.CreationDate,2022-12-26T19:12:46+01:00*%
%TF.ProjectId,ESPkamstrup,4553506b-616d-4737-9472-75702e6b6963,rev?*%
%TF.SameCoordinates,Original*%
%TF.FileFunction,Copper,L1,Top*%
%TF.FilePolarity,Positive*%
%FSLAX46Y46*%
G04 Gerber Fmt 4.6, Leading zero omitted, Abs format (unit mm)*
G04 Created by KiCad (PCBNEW (6.0.6)) date 2022-12-26 19:12:46*
%MOMM*%
%LPD*%
G01*
G04 APERTURE LIST*
G04 Aperture macros list*
%AMRoundRect*
0 Rectangle with rounded corners*
0 $1 Rounding radius*
0 $2 $3 $4 $5 $6 $7 $8 $9 X,Y pos of 4 corners*
0 Add a 4 corners polygon primitive as box body*
4,1,4,$2,$3,$4,$5,$6,$7,$8,$9,$2,$3,0*
0 Add four circle primitives for the rounded corners*
1,1,$1+$1,$2,$3*
1,1,$1+$1,$4,$5*
1,1,$1+$1,$6,$7*
1,1,$1+$1,$8,$9*
0 Add four rect primitives between the rounded corners*
20,1,$1+$1,$2,$3,$4,$5,0*
20,1,$1+$1,$4,$5,$6,$7,0*
20,1,$1+$1,$6,$7,$8,$9,0*
20,1,$1+$1,$8,$9,$2,$3,0*%
G04 Aperture macros list end*
%TA.AperFunction,SMDPad,CuDef*%
%ADD10RoundRect,0.150000X-0.587500X-0.150000X0.587500X-0.150000X0.587500X0.150000X-0.587500X0.150000X0*%
%TD*%
%TA.AperFunction,ComponentPad*%
%ADD11R,1.700000X1.700000*%
%TD*%
%TA.AperFunction,ComponentPad*%
%ADD12O,1.700000X1.700000*%
%TD*%
%TA.AperFunction,SMDPad,CuDef*%
%ADD13RoundRect,0.150000X0.587500X0.150000X-0.587500X0.150000X-0.587500X-0.150000X0.587500X-0.150000X0*%
%TD*%
%TA.AperFunction,ComponentPad*%
%ADD14C,1.524000*%
%TD*%
%TA.AperFunction,ComponentPad*%
%ADD15R,1.524000X1.524000*%
%TD*%
%TA.AperFunction,SMDPad,CuDef*%
%ADD16RoundRect,0.135000X0.135000X0.185000X-0.135000X0.185000X-0.135000X-0.185000X0.135000X-0.185000X0*%
%TD*%
%TA.AperFunction,SMDPad,CuDef*%
%ADD17RoundRect,0.135000X-0.185000X0.135000X-0.185000X-0.135000X0.185000X-0.135000X0.185000X0.135000X0*%
%TD*%
%TA.AperFunction,WasherPad*%
%ADD18C,1.300000*%
%TD*%
%TA.AperFunction,SMDPad,CuDef*%
%ADD19RoundRect,0.135000X0.185000X-0.135000X0.185000X0.135000X-0.185000X0.135000X-0.185000X-0.135000X0*%
%TD*%
%TA.AperFunction,ComponentPad*%
%ADD20R,1.800000X1.800000*%
%TD*%
%TA.AperFunction,ComponentPad*%
%ADD21C,1.800000*%
%TD*%
%TA.AperFunction,ViaPad*%
%ADD22C,0.800000*%
%TD*%
%TA.AperFunction,Conductor*%
%ADD23C,0.250000*%
%TD*%
G04 APERTURE END LIST*
D10*
%TO.P,Q8,1,B*%
%TO.N,Net-(Q8-Pad1)*%
X143842500Y-74615000D03*
%TO.P,Q8,2,E*%
%TO.N,GND*%
X143842500Y-76515000D03*
%TO.P,Q8,3,C*%
%TO.N,OUT2*%
X145717500Y-75565000D03*
%TD*%
D11*
%TO.P,J1,1,Pin_1*%
%TO.N,GND*%
X155575000Y-93360000D03*
D12*
%TO.P,J1,2,Pin_2*%
%TO.N,PulseIn*%
X155575000Y-95900000D03*
%TO.P,J1,3,Pin_3*%
%TO.N,+5V*%
X155575000Y-98440000D03*
%TD*%
D13*
%TO.P,Q3,1,B*%
%TO.N,Net-(Q3-Pad1)*%
X134590000Y-87945000D03*
%TO.P,Q3,2,E*%
%TO.N,+3V3*%
X134590000Y-86045000D03*
%TO.P,Q3,3,C*%
%TO.N,Net-(Q3-Pad3)*%
X132715000Y-86995000D03*
%TD*%
D14*
%TO.P,U1,1,RST*%
%TO.N,unconnected-(U1-Pad1)*%
X127855000Y-72390000D03*
%TO.P,U1,2,ADC*%
%TO.N,unconnected-(U1-Pad2)*%
X127855000Y-74930000D03*
%TO.P,U1,3,GPIO16*%
%TO.N,unconnected-(U1-Pad3)*%
X127855000Y-77470000D03*
%TO.P,U1,4,CLK_GPIO14*%
%TO.N,unconnected-(U1-Pad4)*%
X127855000Y-80010000D03*
%TO.P,U1,5,MISO_GPIO12*%
%TO.N,Net-(Q4-Pad3)*%
X127855000Y-82550000D03*
%TO.P,U1,6,MOSI_GPIO13*%
%TO.N,IR_RX*%
X127855000Y-85090000D03*
%TO.P,U1,7,CS_GPIO15*%
%TO.N,IR_TX*%
X127855000Y-87630000D03*
%TO.P,U1,8,3V3*%
%TO.N,+3V3*%
X127855000Y-90170000D03*
%TO.P,U1,9,5V*%
%TO.N,+5V*%
X150715000Y-90170000D03*
D15*
%TO.P,U1,10,GND*%
%TO.N,GND*%
X150715000Y-87630000D03*
D14*
%TO.P,U1,11,GPIO2*%
%TO.N,Net-(Q5-Pad3)*%
X150715000Y-85090000D03*
%TO.P,U1,12,GPIO0*%
%TO.N,Net-(Q6-Pad3)*%
X150715000Y-82550000D03*
%TO.P,U1,13,GPIO4*%
%TO.N,Net-(R12-Pad1)*%
X150715000Y-80010000D03*
%TO.P,U1,14,GPIO5*%
%TO.N,Net-(R13-Pad1)*%
X150715000Y-77470000D03*
%TO.P,U1,15,RxD0_GPIO3*%
%TO.N,RX*%
X150715000Y-74930000D03*
%TO.P,U1,16,TxD0_GPIO1*%
%TO.N,TX*%
X150715000Y-72390000D03*
%TD*%
D16*
%TO.P,R2,1*%
%TO.N,+3V3*%
X130810000Y-83185000D03*
%TO.P,R2,2*%
%TO.N,Net-(Q2-Pad3)*%
X129790000Y-83185000D03*
%TD*%
D13*
%TO.P,Q2,1,B*%
%TO.N,Net-(Q2-Pad1)*%
X134590000Y-76515000D03*
%TO.P,Q2,2,E*%
%TO.N,Net-(Q1-Pad1)*%
X134590000Y-74615000D03*
%TO.P,Q2,3,C*%
%TO.N,Net-(Q2-Pad3)*%
X132715000Y-75565000D03*
%TD*%
D16*
%TO.P,R8,1*%
%TO.N,Net-(Q5-Pad3)*%
X148465000Y-85725000D03*
%TO.P,R8,2*%
%TO.N,+3V3*%
X147445000Y-85725000D03*
%TD*%
D13*
%TO.P,Q4,1,B*%
%TO.N,Net-(Q4-Pad1)*%
X134590000Y-84135000D03*
%TO.P,Q4,2,E*%
%TO.N,GND*%
X134590000Y-82235000D03*
%TO.P,Q4,3,C*%
%TO.N,Net-(Q4-Pad3)*%
X132715000Y-83185000D03*
%TD*%
D17*
%TO.P,R5,1*%
%TO.N,Net-(Q3-Pad3)*%
X136525000Y-87245000D03*
%TO.P,R5,2*%
%TO.N,Net-(D2-Pad2)*%
X136525000Y-88265000D03*
%TD*%
D16*
%TO.P,R6,1*%
%TO.N,+3V3*%
X130810000Y-84455000D03*
%TO.P,R6,2*%
%TO.N,Net-(Q4-Pad3)*%
X129790000Y-84455000D03*
%TD*%
D10*
%TO.P,Q5,1,B*%
%TO.N,Net-(Q5-Pad1)*%
X143842500Y-86045000D03*
%TO.P,Q5,2,E*%
%TO.N,GND*%
X143842500Y-87945000D03*
%TO.P,Q5,3,C*%
%TO.N,Net-(Q5-Pad3)*%
X145717500Y-86995000D03*
%TD*%
D11*
%TO.P,J3,1,Pin_1*%
%TO.N,GND*%
X155575000Y-70485000D03*
D12*
%TO.P,J3,2,Pin_2*%
%TO.N,RX*%
X155575000Y-67945000D03*
%TO.P,J3,3,Pin_3*%
%TO.N,TX*%
X155575000Y-65405000D03*
%TD*%
D18*
%TO.P,,*%
%TO.N,*%
X128905000Y-98425000D03*
%TD*%
D13*
%TO.P,Q1,1,B*%
%TO.N,Net-(Q1-Pad1)*%
X134590000Y-80325000D03*
%TO.P,Q1,2,E*%
%TO.N,GND*%
X134590000Y-78425000D03*
%TO.P,Q1,3,C*%
%TO.N,IR_RX*%
X132715000Y-79375000D03*
%TD*%
D11*
%TO.P,J2,1,Pin_1*%
%TO.N,GND*%
X155575000Y-89535000D03*
D12*
%TO.P,J2,2,Pin_2*%
%TO.N,+3V3*%
X155575000Y-86995000D03*
%TO.P,J2,3,Pin_3*%
%TO.N,+5V*%
X155575000Y-84455000D03*
%TO.P,J2,4,Pin_4*%
%TO.N,IN1*%
X155575000Y-81915000D03*
%TO.P,J2,5,Pin_5*%
%TO.N,IN2*%
X155575000Y-79375000D03*
%TO.P,J2,6,Pin_6*%
%TO.N,OUT1*%
X155575000Y-76835000D03*
%TO.P,J2,7,Pin_7*%
%TO.N,OUT2*%
X155575000Y-74295000D03*
%TD*%
D10*
%TO.P,Q7,1,B*%
%TO.N,Net-(Q7-Pad1)*%
X143842500Y-78425000D03*
%TO.P,Q7,2,E*%
%TO.N,GND*%
X143842500Y-80325000D03*
%TO.P,Q7,3,C*%
%TO.N,OUT1*%
X145717500Y-79375000D03*
%TD*%
D16*
%TO.P,R12,1*%
%TO.N,Net-(R12-Pad1)*%
X148465000Y-80010000D03*
%TO.P,R12,2*%
%TO.N,Net-(Q7-Pad1)*%
X147445000Y-80010000D03*
%TD*%
%TO.P,R3,1*%
%TO.N,Net-(Q2-Pad1)*%
X130810000Y-86995000D03*
%TO.P,R3,2*%
%TO.N,GND*%
X129790000Y-86995000D03*
%TD*%
%TO.P,R10,1*%
%TO.N,IN2*%
X148465000Y-81280000D03*
%TO.P,R10,2*%
%TO.N,Net-(Q6-Pad1)*%
X147445000Y-81280000D03*
%TD*%
%TO.P,R9,1*%
%TO.N,IN1*%
X148465000Y-84455000D03*
%TO.P,R9,2*%
%TO.N,Net-(Q5-Pad1)*%
X147445000Y-84455000D03*
%TD*%
%TO.P,R13,1*%
%TO.N,Net-(R13-Pad1)*%
X148465000Y-77470000D03*
%TO.P,R13,2*%
%TO.N,Net-(Q8-Pad1)*%
X147445000Y-77470000D03*
%TD*%
%TO.P,R7,1*%
%TO.N,Net-(Q3-Pad1)*%
X130810000Y-88265000D03*
%TO.P,R7,2*%
%TO.N,IR_TX*%
X129790000Y-88265000D03*
%TD*%
D18*
%TO.P,,*%
%TO.N,*%
X158750000Y-97155000D03*
%TD*%
%TO.P,,*%
%TO.N,*%
X127000000Y-66040000D03*
%TD*%
D10*
%TO.P,Q6,1,B*%
%TO.N,Net-(Q6-Pad1)*%
X143842500Y-82235000D03*
%TO.P,Q6,2,E*%
%TO.N,GND*%
X143842500Y-84135000D03*
%TO.P,Q6,3,C*%
%TO.N,Net-(Q6-Pad3)*%
X145717500Y-83185000D03*
%TD*%
D19*
%TO.P,R4,1*%
%TO.N,Net-(Q4-Pad1)*%
X136525000Y-84840000D03*
%TO.P,R4,2*%
%TO.N,PulseIn*%
X136525000Y-83820000D03*
%TD*%
D16*
%TO.P,R11,1*%
%TO.N,Net-(Q6-Pad3)*%
X148465000Y-83185000D03*
%TO.P,R11,2*%
%TO.N,+3V3*%
X147445000Y-83185000D03*
%TD*%
%TO.P,R1,1*%
%TO.N,+3V3*%
X130810000Y-85725000D03*
%TO.P,R1,2*%
%TO.N,IR_RX*%
X129790000Y-85725000D03*
%TD*%
D20*
%TO.P,D1,1,K*%
%TO.N,IR_TX*%
X139065000Y-80650000D03*
D21*
%TO.P,D1,2,A*%
%TO.N,Net-(Q2-Pad1)*%
X139065000Y-78110000D03*
%TD*%
D20*
%TO.P,D2,1,K*%
%TO.N,GND*%
X139065000Y-85090000D03*
D21*
%TO.P,D2,2,A*%
%TO.N,Net-(D2-Pad2)*%
X139065000Y-87630000D03*
%TD*%
D22*
%TO.N,+3V3*%
X142240000Y-86995000D03*
%TO.N,GND*%
X142557500Y-84772500D03*
X142240000Y-77470000D03*
%TO.N,PulseIn*%
X136525000Y-82550000D03*
%TO.N,IR_RX*%
X131445000Y-79375000D03*
%TO.N,Net-(Q2-Pad1)*%
X131490844Y-86449500D03*
%TD*%
D23*
%TO.N,+3V3*%
X130810000Y-84455000D02*
X130810000Y-85725000D01*
X147445000Y-83185000D02*
X147320000Y-83185000D01*
X127855000Y-90170000D02*
X128270000Y-90170000D01*
X128270000Y-90170000D02*
X128905000Y-89535000D01*
X134590000Y-86045000D02*
X137480000Y-86045000D01*
X144301751Y-83185000D02*
X142240000Y-83185000D01*
X141605000Y-83820000D02*
X141605000Y-86360000D01*
X130810000Y-85725000D02*
X134270000Y-85725000D01*
X128905000Y-89535000D02*
X139700000Y-89535000D01*
X144301751Y-86995000D02*
X142240000Y-86995000D01*
X147445000Y-85725000D02*
X145571751Y-85725000D01*
X146685000Y-83820000D02*
X144936751Y-83820000D01*
X144936751Y-83820000D02*
X144301751Y-83185000D01*
X141605000Y-86360000D02*
X142240000Y-86995000D01*
X142240000Y-83185000D02*
X141605000Y-83820000D01*
X130810000Y-83185000D02*
X130810000Y-84455000D01*
X137480000Y-86045000D02*
X137795000Y-86360000D01*
X137795000Y-86360000D02*
X141605000Y-86360000D01*
X147320000Y-83185000D02*
X146685000Y-83820000D01*
X134270000Y-85725000D02*
X134590000Y-86045000D01*
X139700000Y-89535000D02*
X142240000Y-86995000D01*
X145571751Y-85725000D02*
X144301751Y-86995000D01*
%TO.N,IR_TX*%
X128490000Y-88265000D02*
X127855000Y-87630000D01*
X129790000Y-88265000D02*
X128490000Y-88265000D01*
%TO.N,GND*%
X129155000Y-86360000D02*
X127000000Y-86360000D01*
X143842500Y-84135000D02*
X143195000Y-84135000D01*
X147005000Y-87945000D02*
X147320000Y-87630000D01*
X128270000Y-91440000D02*
X129540000Y-90170000D01*
X142240000Y-77470000D02*
X142240000Y-79375000D01*
X134590000Y-78425000D02*
X136615000Y-80450000D01*
X143842500Y-87945000D02*
X147005000Y-87945000D01*
X139065000Y-85090000D02*
X139065000Y-83185000D01*
X129540000Y-90170000D02*
X140335000Y-90170000D01*
X134590000Y-82235000D02*
X134830000Y-82235000D01*
X143842500Y-76515000D02*
X143195000Y-76515000D01*
X147320000Y-87630000D02*
X150715000Y-87630000D01*
X137690000Y-79375000D02*
X142240000Y-79375000D01*
X126365000Y-86995000D02*
X126365000Y-90805000D01*
X134830000Y-82235000D02*
X136472500Y-80592500D01*
X137690000Y-79375000D02*
X136615000Y-80450000D01*
X142240000Y-79375000D02*
X143190000Y-80325000D01*
X127000000Y-86360000D02*
X126365000Y-86995000D01*
X127000000Y-91440000D02*
X128270000Y-91440000D01*
X155575000Y-89535000D02*
X155575000Y-93360000D01*
X136472500Y-80592500D02*
X136615000Y-80450000D01*
X143190000Y-80325000D02*
X143842500Y-80325000D01*
X142560000Y-87945000D02*
X143842500Y-87945000D01*
X152620000Y-89535000D02*
X150715000Y-87630000D01*
X140335000Y-90170000D02*
X142560000Y-87945000D01*
X143195000Y-84135000D02*
X142557500Y-84772500D01*
X155575000Y-89535000D02*
X152620000Y-89535000D01*
X126365000Y-90805000D02*
X127000000Y-91440000D01*
X143195000Y-76515000D02*
X142240000Y-77470000D01*
X139065000Y-83185000D02*
X136472500Y-80592500D01*
X129790000Y-86995000D02*
X129155000Y-86360000D01*
%TO.N,Net-(D2-Pad2)*%
X138430000Y-88265000D02*
X139065000Y-87630000D01*
X136525000Y-88265000D02*
X138430000Y-88265000D01*
%TO.N,RX*%
X154101778Y-69418222D02*
X155575000Y-67945000D01*
X154101778Y-71543222D02*
X154101778Y-69418222D01*
X150715000Y-74930000D02*
X154101778Y-71543222D01*
%TO.N,Net-(Q3-Pad1)*%
X134270000Y-88265000D02*
X134590000Y-87945000D01*
X130810000Y-88265000D02*
X134270000Y-88265000D01*
%TO.N,Net-(Q4-Pad1)*%
X136525000Y-84840000D02*
X135295000Y-84840000D01*
X135295000Y-84840000D02*
X134590000Y-84135000D01*
%TO.N,PulseIn*%
X136525000Y-83820000D02*
X136525000Y-82550000D01*
%TO.N,+5V*%
X155575000Y-98440000D02*
X153670000Y-96535000D01*
X153670000Y-96535000D02*
X153670000Y-96520000D01*
X153670000Y-96520000D02*
X150715000Y-93565000D01*
X150715000Y-93565000D02*
X150715000Y-90170000D01*
%TO.N,IR_RX*%
X127855000Y-85090000D02*
X128490000Y-85725000D01*
X132715000Y-79375000D02*
X131445000Y-79375000D01*
X128490000Y-85725000D02*
X129790000Y-85725000D01*
%TO.N,Net-(Q5-Pad1)*%
X146050000Y-85090000D02*
X146685000Y-84455000D01*
X143842500Y-86045000D02*
X143842500Y-86027500D01*
X144780000Y-85090000D02*
X146050000Y-85090000D01*
X146685000Y-84455000D02*
X147445000Y-84455000D01*
X143842500Y-86027500D02*
X144780000Y-85090000D01*
%TO.N,Net-(Q2-Pad1)*%
X134590000Y-76515000D02*
X137470000Y-76515000D01*
X130945344Y-86995000D02*
X131490844Y-86449500D01*
X130810000Y-86995000D02*
X130945344Y-86995000D01*
X137470000Y-76515000D02*
X139065000Y-78110000D01*
%TO.N,Net-(Q6-Pad1)*%
X144797500Y-81280000D02*
X143842500Y-82235000D01*
X147445000Y-81280000D02*
X144797500Y-81280000D01*
%TO.N,Net-(Q5-Pad3)*%
X150495000Y-85090000D02*
X149860000Y-85725000D01*
X149860000Y-85725000D02*
X148465000Y-85725000D01*
X147195000Y-86995000D02*
X148465000Y-85725000D01*
X145717500Y-86995000D02*
X147195000Y-86995000D01*
X150715000Y-85090000D02*
X150495000Y-85090000D01*
%TO.N,Net-(Q7-Pad1)*%
X147445000Y-80010000D02*
X144936751Y-80010000D01*
X143842500Y-78425000D02*
X143842500Y-78915749D01*
X144936751Y-80010000D02*
X143842500Y-78915749D01*
%TO.N,Net-(Q1-Pad1)*%
X133527500Y-78771751D02*
X133527500Y-76168249D01*
X134590000Y-80325000D02*
X134590000Y-79834251D01*
X134590000Y-75105749D02*
X134590000Y-74615000D01*
X133527500Y-76168249D02*
X134590000Y-75105749D01*
X134590000Y-79834251D02*
X133527500Y-78771751D01*
%TO.N,Net-(Q2-Pad3)*%
X130175000Y-80010000D02*
X130810000Y-80645000D01*
X132715000Y-77470000D02*
X132080000Y-78105000D01*
X130810000Y-78105000D02*
X130175000Y-78740000D01*
X131940749Y-83820000D02*
X133495749Y-83820000D01*
X132080000Y-80645000D02*
X131445000Y-80645000D01*
X132715000Y-81775749D02*
X132715000Y-81280000D01*
X130175000Y-79375000D02*
X130175000Y-80010000D01*
X130185000Y-82540000D02*
X131354251Y-82540000D01*
X130175000Y-78740000D02*
X130175000Y-79375000D01*
X133495749Y-83820000D02*
X133985000Y-83330749D01*
X132715000Y-81280000D02*
X132080000Y-80645000D01*
X133985000Y-83045749D02*
X132715000Y-81775749D01*
X130810000Y-80645000D02*
X131445000Y-80645000D01*
X131652500Y-83531751D02*
X131940749Y-83820000D01*
X132080000Y-78105000D02*
X131445000Y-78105000D01*
X131354251Y-82540000D02*
X131652500Y-82838249D01*
X129790000Y-82935000D02*
X130185000Y-82540000D01*
X133985000Y-83330749D02*
X133985000Y-83045749D01*
X131652500Y-82838249D02*
X131652500Y-83531751D01*
X131445000Y-78105000D02*
X130810000Y-78105000D01*
X129790000Y-83185000D02*
X129790000Y-82935000D01*
X132715000Y-75565000D02*
X132715000Y-77470000D01*
%TO.N,Net-(Q3-Pad3)*%
X136275000Y-86995000D02*
X136525000Y-87245000D01*
X132715000Y-86995000D02*
X136275000Y-86995000D01*
%TO.N,Net-(Q4-Pad3)*%
X132715000Y-83185000D02*
X131445000Y-81915000D01*
X129760000Y-84455000D02*
X129790000Y-84455000D01*
X127855000Y-82550000D02*
X129760000Y-84455000D01*
X131445000Y-81915000D02*
X128490000Y-81915000D01*
X128490000Y-81915000D02*
X127855000Y-82550000D01*
%TO.N,Net-(Q8-Pad1)*%
X143842500Y-74615000D02*
X143842500Y-75105749D01*
X146206751Y-77470000D02*
X147445000Y-77470000D01*
X143842500Y-75105749D02*
X146206751Y-77470000D01*
%TO.N,IN1*%
X153670000Y-83820000D02*
X155575000Y-81915000D01*
X149225000Y-84455000D02*
X149860000Y-83820000D01*
X148465000Y-84455000D02*
X149225000Y-84455000D01*
X149860000Y-83820000D02*
X153670000Y-83820000D01*
%TO.N,IN2*%
X153670000Y-81280000D02*
X155575000Y-79375000D01*
X148465000Y-81280000D02*
X153670000Y-81280000D01*
%TO.N,Net-(Q6-Pad3)*%
X146685000Y-82550000D02*
X146695000Y-82540000D01*
X149100000Y-82550000D02*
X150715000Y-82550000D01*
X147820000Y-82540000D02*
X148465000Y-83185000D01*
X146352500Y-82550000D02*
X146685000Y-82550000D01*
X146695000Y-82540000D02*
X147820000Y-82540000D01*
X145717500Y-83185000D02*
X146352500Y-82550000D01*
X148465000Y-83185000D02*
X149100000Y-82550000D01*
%TO.N,Net-(R12-Pad1)*%
X148465000Y-80010000D02*
X150715000Y-80010000D01*
%TO.N,TX*%
X150715000Y-72390000D02*
X152400000Y-72390000D01*
X153651778Y-71138222D02*
X153651778Y-67328222D01*
X153651778Y-67328222D02*
X155575000Y-65405000D01*
X152400000Y-72390000D02*
X153651778Y-71138222D01*
%TO.N,OUT1*%
X146169500Y-78923000D02*
X153487000Y-78923000D01*
X153487000Y-78923000D02*
X155575000Y-76835000D01*
X145717500Y-79375000D02*
X146169500Y-78923000D01*
%TO.N,OUT2*%
X155575000Y-74295000D02*
X153670000Y-76200000D01*
X153670000Y-76200000D02*
X146352500Y-76200000D01*
X146352500Y-76200000D02*
X145717500Y-75565000D01*
%TO.N,Net-(R13-Pad1)*%
X148465000Y-77470000D02*
X150715000Y-77470000D01*
%TD*%
%TA.AperFunction,Conductor*%
%TO.N,GND*%
G36*
X160088621Y-64028502D02*
G01*
X160135114Y-64082158D01*
X160146500Y-64134500D01*
X160146500Y-96942852D01*
X160126498Y-97010973D01*
X160072842Y-97057466D01*
X160002568Y-97067570D01*
X159937988Y-97038076D01*
X159899604Y-96978350D01*
X159895029Y-96954382D01*
X159894510Y-96948729D01*
X159894509Y-96948725D01*
X159893981Y-96942976D01*
X159878943Y-96889654D01*
X159837754Y-96743611D01*
X159837753Y-96743609D01*
X159836186Y-96738052D01*
X159742015Y-96547092D01*
X159614622Y-96376491D01*
X159458271Y-96231963D01*
X159278201Y-96118347D01*
X159080441Y-96039449D01*
X159074781Y-96038323D01*
X159074777Y-96038322D01*
X158877282Y-95999038D01*
X158877280Y-95999038D01*
X158871615Y-95997911D01*
X158865840Y-95997835D01*
X158865836Y-95997835D01*
X158759161Y-95996439D01*
X158658716Y-95995124D01*
X158653019Y-95996103D01*
X158653018Y-95996103D01*
X158454564Y-96030203D01*
X158454561Y-96030204D01*
X158448874Y-96031181D01*
X158249116Y-96104875D01*
X158066134Y-96213739D01*
X157906054Y-96354125D01*
X157774238Y-96521333D01*
X157771549Y-96526444D01*
X157771547Y-96526447D01*
X157734197Y-96597438D01*
X157675100Y-96709762D01*
X157673386Y-96715283D01*
X157673384Y-96715287D01*
X157653510Y-96779292D01*
X157611961Y-96913102D01*
X157586936Y-97124544D01*
X157600861Y-97337006D01*
X157602282Y-97342602D01*
X157602283Y-97342607D01*
X157641972Y-97498880D01*
X157653272Y-97543372D01*
X157655689Y-97548615D01*
X157692389Y-97628223D01*
X157742411Y-97736731D01*
X157865296Y-97910609D01*
X157869430Y-97914636D01*
X157995698Y-98037641D01*
X158017809Y-98059181D01*
X158022605Y-98062386D01*
X158022608Y-98062388D01*
X158091547Y-98108451D01*
X158194843Y-98177471D01*
X158200146Y-98179749D01*
X158200149Y-98179751D01*
X158293208Y-98219732D01*
X158390470Y-98261519D01*
X158466316Y-98278681D01*
X158592501Y-98307234D01*
X158592506Y-98307235D01*
X158598138Y-98308509D01*
X158603909Y-98308736D01*
X158603911Y-98308736D01*
X158665252Y-98311146D01*
X158810891Y-98316869D01*
X158816600Y-98316041D01*
X158816604Y-98316041D01*
X159015890Y-98287145D01*
X159015894Y-98287144D01*
X159021605Y-98286316D01*
X159223223Y-98217876D01*
X159408993Y-98113840D01*
X159572693Y-97977693D01*
X159708840Y-97813993D01*
X159812876Y-97628223D01*
X159881316Y-97426605D01*
X159886864Y-97388347D01*
X159895804Y-97326686D01*
X159925374Y-97262141D01*
X159985146Y-97223829D01*
X160056143Y-97223913D01*
X160115823Y-97262368D01*
X160145239Y-97326984D01*
X160146500Y-97344767D01*
X160146500Y-99695500D01*
X160126498Y-99763621D01*
X160072842Y-99810114D01*
X160020500Y-99821500D01*
X156371362Y-99821500D01*
X156303241Y-99801498D01*
X156256748Y-99747842D01*
X156246644Y-99677568D01*
X156276138Y-99612988D01*
X156298194Y-99592921D01*
X156323874Y-99574604D01*
X156454860Y-99481173D01*
X156613096Y-99323489D01*
X156672594Y-99240689D01*
X156740435Y-99146277D01*
X156743453Y-99142077D01*
X156769967Y-99088431D01*
X156840136Y-98946453D01*
X156840137Y-98946451D01*
X156842430Y-98941811D01*
X156907370Y-98728069D01*
X156936529Y-98506590D01*
X156938156Y-98440000D01*
X156919852Y-98217361D01*
X156865431Y-98000702D01*
X156776354Y-97795840D01*
X156665267Y-97624125D01*
X156657822Y-97612617D01*
X156657820Y-97612614D01*
X156655014Y-97608277D01*
X156504670Y-97443051D01*
X156500619Y-97439852D01*
X156500615Y-97439848D01*
X156333414Y-97307800D01*
X156333410Y-97307798D01*
X156329359Y-97304598D01*
X156288053Y-97281796D01*
X156238084Y-97231364D01*
X156223312Y-97161921D01*
X156248428Y-97095516D01*
X156275780Y-97068909D01*
X156357003Y-97010973D01*
X156454860Y-96941173D01*
X156492814Y-96903352D01*
X156609435Y-96787137D01*
X156613096Y-96783489D01*
X156743453Y-96602077D01*
X156780832Y-96526447D01*
X156840136Y-96406453D01*
X156840137Y-96406451D01*
X156842430Y-96401811D01*
X156874900Y-96294940D01*
X156905865Y-96193023D01*
X156905865Y-96193021D01*
X156907370Y-96188069D01*
X156936529Y-95966590D01*
X156938156Y-95900000D01*
X156919852Y-95677361D01*
X156865431Y-95460702D01*
X156776354Y-95255840D01*
X156655014Y-95068277D01*
X156651540Y-95064459D01*
X156651533Y-95064450D01*
X156507435Y-94906088D01*
X156476383Y-94842242D01*
X156484779Y-94771744D01*
X156529956Y-94716976D01*
X156556400Y-94703307D01*
X156663052Y-94663325D01*
X156678649Y-94654786D01*
X156780724Y-94578285D01*
X156793285Y-94565724D01*
X156869786Y-94463649D01*
X156878324Y-94448054D01*
X156923478Y-94327606D01*
X156927105Y-94312351D01*
X156932631Y-94261486D01*
X156933000Y-94254672D01*
X156933000Y-93632115D01*
X156928525Y-93616876D01*
X156927135Y-93615671D01*
X156919452Y-93614000D01*
X154235116Y-93614000D01*
X154219877Y-93618475D01*
X154218672Y-93619865D01*
X154217001Y-93627548D01*
X154217001Y-94254669D01*
X154217371Y-94261490D01*
X154222895Y-94312352D01*
X154226521Y-94327604D01*
X154271676Y-94448054D01*
X154280214Y-94463649D01*
X154356715Y-94565724D01*
X154369276Y-94578285D01*
X154471351Y-94654786D01*
X154486946Y-94663324D01*
X154595827Y-94704142D01*
X154652591Y-94746784D01*
X154677291Y-94813345D01*
X154662083Y-94882694D01*
X154642691Y-94909175D01*
X154519200Y-95038401D01*
X154515629Y-95042138D01*
X154389743Y-95226680D01*
X154295688Y-95429305D01*
X154235989Y-95644570D01*
X154212251Y-95866695D01*
X154212271Y-95867050D01*
X154191039Y-95933330D01*
X154136264Y-95978499D01*
X154065765Y-95986885D01*
X153997641Y-95951737D01*
X152709230Y-94663325D01*
X151385405Y-93339500D01*
X151351379Y-93277188D01*
X151348500Y-93250405D01*
X151348500Y-93087885D01*
X154217000Y-93087885D01*
X154221475Y-93103124D01*
X154222865Y-93104329D01*
X154230548Y-93106000D01*
X155302885Y-93106000D01*
X155318124Y-93101525D01*
X155319329Y-93100135D01*
X155321000Y-93092452D01*
X155321000Y-93087885D01*
X155829000Y-93087885D01*
X155833475Y-93103124D01*
X155834865Y-93104329D01*
X155842548Y-93106000D01*
X156914884Y-93106000D01*
X156930123Y-93101525D01*
X156931328Y-93100135D01*
X156932999Y-93092452D01*
X156932999Y-92465331D01*
X156932629Y-92458510D01*
X156927105Y-92407648D01*
X156923479Y-92392396D01*
X156878324Y-92271946D01*
X156869786Y-92256351D01*
X156793285Y-92154276D01*
X156780724Y-92141715D01*
X156678649Y-92065214D01*
X156663054Y-92056676D01*
X156542606Y-92011522D01*
X156527351Y-92007895D01*
X156476486Y-92002369D01*
X156469672Y-92002000D01*
X155847115Y-92002000D01*
X155831876Y-92006475D01*
X155830671Y-92007865D01*
X155829000Y-92015548D01*
X155829000Y-93087885D01*
X155321000Y-93087885D01*
X155321000Y-92020116D01*
X155316525Y-92004877D01*
X155315135Y-92003672D01*
X155307452Y-92002001D01*
X154680331Y-92002001D01*
X154673510Y-92002371D01*
X154622648Y-92007895D01*
X154607396Y-92011521D01*
X154486946Y-92056676D01*
X154471351Y-92065214D01*
X154369276Y-92141715D01*
X154356715Y-92154276D01*
X154280214Y-92256351D01*
X154271676Y-92271946D01*
X154226522Y-92392394D01*
X154222895Y-92407649D01*
X154217369Y-92458514D01*
X154217000Y-92465328D01*
X154217000Y-93087885D01*
X151348500Y-93087885D01*
X151348500Y-91343004D01*
X151368502Y-91274883D01*
X151402229Y-91239791D01*
X151530270Y-91150136D01*
X151530273Y-91150134D01*
X151534781Y-91146977D01*
X151691977Y-90989781D01*
X151759745Y-90892999D01*
X151816331Y-90812185D01*
X151816332Y-90812183D01*
X151819488Y-90807676D01*
X151821811Y-90802694D01*
X151821814Y-90802689D01*
X151911117Y-90611178D01*
X151911118Y-90611177D01*
X151913440Y-90606196D01*
X151960741Y-90429669D01*
X154217001Y-90429669D01*
X154217371Y-90436490D01*
X154222895Y-90487352D01*
X154226521Y-90502604D01*
X154271676Y-90623054D01*
X154280214Y-90638649D01*
X154356715Y-90740724D01*
X154369276Y-90753285D01*
X154471351Y-90829786D01*
X154486946Y-90838324D01*
X154607394Y-90883478D01*
X154622649Y-90887105D01*
X154673514Y-90892631D01*
X154680328Y-90893000D01*
X155302885Y-90893000D01*
X155318124Y-90888525D01*
X155319329Y-90887135D01*
X155321000Y-90879452D01*
X155321000Y-90874884D01*
X155829000Y-90874884D01*
X155833475Y-90890123D01*
X155834865Y-90891328D01*
X155842548Y-90892999D01*
X156469669Y-90892999D01*
X156476490Y-90892629D01*
X156527352Y-90887105D01*
X156542604Y-90883479D01*
X156663054Y-90838324D01*
X156678649Y-90829786D01*
X156780724Y-90753285D01*
X156793285Y-90740724D01*
X156869786Y-90638649D01*
X156878324Y-90623054D01*
X156923478Y-90502606D01*
X156927105Y-90487351D01*
X156932631Y-90436486D01*
X156933000Y-90429672D01*
X156933000Y-89807115D01*
X156928525Y-89791876D01*
X156927135Y-89790671D01*
X156919452Y-89789000D01*
X155847115Y-89789000D01*
X155831876Y-89793475D01*
X155830671Y-89794865D01*
X155829000Y-89802548D01*
X155829000Y-90874884D01*
X155321000Y-90874884D01*
X155321000Y-89807115D01*
X155316525Y-89791876D01*
X155315135Y-89790671D01*
X155307452Y-89789000D01*
X154235116Y-89789000D01*
X154219877Y-89793475D01*
X154218672Y-89794865D01*
X154217001Y-89802548D01*
X154217001Y-90429669D01*
X151960741Y-90429669D01*
X151970978Y-90391463D01*
X151990353Y-90170000D01*
X151970978Y-89948537D01*
X151929429Y-89793475D01*
X151914863Y-89739114D01*
X151914862Y-89739112D01*
X151913440Y-89733804D01*
X151911117Y-89728822D01*
X151821814Y-89537311D01*
X151821811Y-89537306D01*
X151819488Y-89532324D01*
X151691977Y-89350219D01*
X151534781Y-89193023D01*
X151530273Y-89189866D01*
X151530270Y-89189864D01*
X151443650Y-89129212D01*
X151399322Y-89073755D01*
X151392013Y-89003135D01*
X151424044Y-88939775D01*
X151485245Y-88903790D01*
X151515921Y-88899999D01*
X151521669Y-88899999D01*
X151528490Y-88899629D01*
X151579352Y-88894105D01*
X151594604Y-88890479D01*
X151715054Y-88845324D01*
X151730649Y-88836786D01*
X151832724Y-88760285D01*
X151845285Y-88747724D01*
X151921786Y-88645649D01*
X151930324Y-88630054D01*
X151975478Y-88509606D01*
X151979105Y-88494351D01*
X151984631Y-88443486D01*
X151985000Y-88436672D01*
X151985000Y-87902115D01*
X151980525Y-87886876D01*
X151979135Y-87885671D01*
X151971452Y-87884000D01*
X149463116Y-87884000D01*
X149447877Y-87888475D01*
X149446672Y-87889865D01*
X149445001Y-87897548D01*
X149445001Y-88436669D01*
X149445371Y-88443490D01*
X149450895Y-88494352D01*
X149454521Y-88509604D01*
X149499676Y-88630054D01*
X149508214Y-88645649D01*
X149584715Y-88747724D01*
X149597276Y-88760285D01*
X149699351Y-88836786D01*
X149714946Y-88845324D01*
X149835394Y-88890478D01*
X149850649Y-88894105D01*
X149901514Y-88899631D01*
X149908328Y-88900000D01*
X149914078Y-88900000D01*
X149982199Y-88920002D01*
X150028692Y-88973658D01*
X150038796Y-89043932D01*
X150009302Y-89108512D01*
X149986349Y-89129213D01*
X149899730Y-89189864D01*
X149899727Y-89189866D01*
X149895219Y-89193023D01*
X149738023Y-89350219D01*
X149610512Y-89532324D01*
X149608189Y-89537306D01*
X149608186Y-89537311D01*
X149518883Y-89728822D01*
X149516560Y-89733804D01*
X149515138Y-89739112D01*
X149515137Y-89739114D01*
X149500571Y-89793475D01*
X149459022Y-89948537D01*
X149439647Y-90170000D01*
X149459022Y-90391463D01*
X149516560Y-90606196D01*
X149518882Y-90611177D01*
X149518883Y-90611178D01*
X149608186Y-90802689D01*
X149608189Y-90802694D01*
X149610512Y-90807676D01*
X149613668Y-90812183D01*
X149613669Y-90812185D01*
X149670256Y-90892999D01*
X149738023Y-90989781D01*
X149895219Y-91146977D01*
X149899727Y-91150134D01*
X149899730Y-91150136D01*
X150027771Y-91239791D01*
X150072099Y-91295248D01*
X150081500Y-91343004D01*
X150081500Y-93486233D01*
X150080973Y-93497416D01*
X150079298Y-93504909D01*
X150079547Y-93512835D01*
X150079547Y-93512836D01*
X150081438Y-93572986D01*
X150081500Y-93576945D01*
X150081500Y-93604856D01*
X150081997Y-93608790D01*
X150081997Y-93608791D01*
X150082005Y-93608856D01*
X150082938Y-93620693D01*
X150084327Y-93664889D01*
X150089978Y-93684339D01*
X150093987Y-93703700D01*
X150096526Y-93723797D01*
X150099445Y-93731168D01*
X150099445Y-93731170D01*
X150112804Y-93764912D01*
X150116649Y-93776142D01*
X150128982Y-93818593D01*
X150133015Y-93825412D01*
X150133017Y-93825417D01*
X150139293Y-93836028D01*
X150147988Y-93853776D01*
X150155448Y-93872617D01*
X150160110Y-93879033D01*
X150160110Y-93879034D01*
X150181436Y-93908387D01*
X150187952Y-93918307D01*
X150210458Y-93956362D01*
X150224779Y-93970683D01*
X150237619Y-93985716D01*
X150249528Y-94002107D01*
X150255634Y-94007158D01*
X150283605Y-94030298D01*
X150292384Y-94038288D01*
X153132491Y-96878396D01*
X153151850Y-96903352D01*
X153165458Y-96926362D01*
X153179779Y-96940683D01*
X153192619Y-96955716D01*
X153204528Y-96972107D01*
X153238605Y-97000298D01*
X153247384Y-97008288D01*
X154224778Y-97985682D01*
X154258804Y-98047994D01*
X154257100Y-98108448D01*
X154235989Y-98184570D01*
X154235441Y-98189700D01*
X154235440Y-98189704D01*
X154232338Y-98218730D01*
X154212251Y-98406695D01*
X154212548Y-98411848D01*
X154212548Y-98411851D01*
X154218011Y-98506590D01*
X154225110Y-98629715D01*
X154226247Y-98634761D01*
X154226248Y-98634767D01*
X154241417Y-98702075D01*
X154274222Y-98847639D01*
X154358266Y-99054616D01*
X154474987Y-99245088D01*
X154621250Y-99413938D01*
X154793126Y-99556632D01*
X154817379Y-99570804D01*
X154844602Y-99586712D01*
X154893326Y-99638350D01*
X154906397Y-99708133D01*
X154879666Y-99773905D01*
X154821619Y-99814784D01*
X154781032Y-99821500D01*
X129094767Y-99821500D01*
X129026646Y-99801498D01*
X128980153Y-99747842D01*
X128970049Y-99677568D01*
X128999543Y-99612988D01*
X129059269Y-99574604D01*
X129076686Y-99570804D01*
X129170890Y-99557145D01*
X129170894Y-99557144D01*
X129176605Y-99556316D01*
X129378223Y-99487876D01*
X129563993Y-99383840D01*
X129727693Y-99247693D01*
X129863840Y-99083993D01*
X129967876Y-98898223D01*
X130036316Y-98696605D01*
X130045283Y-98634767D01*
X130066337Y-98489561D01*
X130066337Y-98489559D01*
X130066869Y-98485891D01*
X130068463Y-98425000D01*
X130053559Y-98262794D01*
X130049510Y-98218730D01*
X130049509Y-98218727D01*
X130048981Y-98212976D01*
X130038998Y-98177579D01*
X129992754Y-98013611D01*
X129992753Y-98013609D01*
X129991186Y-98008052D01*
X129987562Y-98000702D01*
X129899570Y-97822273D01*
X129897015Y-97817092D01*
X129884693Y-97800590D01*
X129773074Y-97651114D01*
X129769622Y-97646491D01*
X129613271Y-97501963D01*
X129433201Y-97388347D01*
X129235441Y-97309449D01*
X129229781Y-97308323D01*
X129229777Y-97308322D01*
X129032282Y-97269038D01*
X129032280Y-97269038D01*
X129026615Y-97267911D01*
X129020840Y-97267835D01*
X129020836Y-97267835D01*
X128914161Y-97266439D01*
X128813716Y-97265124D01*
X128808019Y-97266103D01*
X128808018Y-97266103D01*
X128609564Y-97300203D01*
X128609561Y-97300204D01*
X128603874Y-97301181D01*
X128404116Y-97374875D01*
X128221134Y-97483739D01*
X128061054Y-97624125D01*
X127929238Y-97791333D01*
X127926549Y-97796444D01*
X127926547Y-97796447D01*
X127872085Y-97899961D01*
X127830100Y-97979762D01*
X127828386Y-97985283D01*
X127828384Y-97985287D01*
X127787592Y-98116659D01*
X127766961Y-98183102D01*
X127741936Y-98394544D01*
X127755861Y-98607006D01*
X127757282Y-98612602D01*
X127757283Y-98612607D01*
X127806851Y-98807777D01*
X127808272Y-98813372D01*
X127810689Y-98818615D01*
X127847389Y-98898223D01*
X127897411Y-99006731D01*
X128020296Y-99180609D01*
X128172809Y-99329181D01*
X128177605Y-99332386D01*
X128177608Y-99332388D01*
X128249088Y-99380149D01*
X128349843Y-99447471D01*
X128355146Y-99449749D01*
X128355149Y-99449751D01*
X128437324Y-99485056D01*
X128545470Y-99531519D01*
X128727055Y-99572607D01*
X128789081Y-99607150D01*
X128822586Y-99669743D01*
X128816932Y-99740514D01*
X128773913Y-99796993D01*
X128707189Y-99821249D01*
X128699247Y-99821500D01*
X125729500Y-99821500D01*
X125661379Y-99801498D01*
X125614886Y-99747842D01*
X125603500Y-99695500D01*
X125603500Y-71246000D01*
X125623502Y-71177879D01*
X125677158Y-71131386D01*
X125729500Y-71120000D01*
X127054078Y-71120000D01*
X127122199Y-71140002D01*
X127168692Y-71193658D01*
X127178796Y-71263932D01*
X127149302Y-71328512D01*
X127126349Y-71349213D01*
X127039730Y-71409864D01*
X127039727Y-71409866D01*
X127035219Y-71413023D01*
X126878023Y-71570219D01*
X126874866Y-71574727D01*
X126874864Y-71574730D01*
X126785209Y-71702771D01*
X126750512Y-71752324D01*
X126748189Y-71757306D01*
X126748186Y-71757311D01*
X126670307Y-71924323D01*
X126656560Y-71953804D01*
X126655138Y-71959112D01*
X126655137Y-71959114D01*
X126654935Y-71959869D01*
X126599022Y-72168537D01*
X126579647Y-72390000D01*
X126599022Y-72611463D01*
X126656560Y-72826196D01*
X126658882Y-72831177D01*
X126658883Y-72831178D01*
X126748186Y-73022689D01*
X126748189Y-73022694D01*
X126750512Y-73027676D01*
X126753668Y-73032183D01*
X126753669Y-73032185D01*
X126845127Y-73162800D01*
X126878023Y-73209781D01*
X127035219Y-73366977D01*
X127039727Y-73370134D01*
X127039730Y-73370136D01*
X127115495Y-73423187D01*
X127217323Y-73494488D01*
X127222305Y-73496811D01*
X127222310Y-73496814D01*
X127327373Y-73545805D01*
X127380658Y-73592722D01*
X127400119Y-73660999D01*
X127379577Y-73728959D01*
X127327373Y-73774195D01*
X127222311Y-73823186D01*
X127222306Y-73823189D01*
X127217324Y-73825512D01*
X127212817Y-73828668D01*
X127212815Y-73828669D01*
X127039730Y-73949864D01*
X127039727Y-73949866D01*
X127035219Y-73953023D01*
X126878023Y-74110219D01*
X126874866Y-74114727D01*
X126874864Y-74114730D01*
X126768348Y-74266851D01*
X126750512Y-74292324D01*
X126748189Y-74297306D01*
X126748186Y-74297311D01*
X126716665Y-74364908D01*
X126656560Y-74493804D01*
X126599022Y-74708537D01*
X126579647Y-74930000D01*
X126599022Y-75151463D01*
X126605139Y-75174292D01*
X126652480Y-75350968D01*
X126656560Y-75366196D01*
X126658882Y-75371177D01*
X126658883Y-75371178D01*
X126748186Y-75562689D01*
X126748189Y-75562694D01*
X126750512Y-75567676D01*
X126753668Y-75572183D01*
X126753669Y-75572185D01*
X126849775Y-75709438D01*
X126878023Y-75749781D01*
X127035219Y-75906977D01*
X127039727Y-75910134D01*
X127039730Y-75910136D01*
X127055681Y-75921305D01*
X127217323Y-76034488D01*
X127222305Y-76036811D01*
X127222310Y-76036814D01*
X127327373Y-76085805D01*
X127380658Y-76132722D01*
X127400119Y-76200999D01*
X127379577Y-76268959D01*
X127327373Y-76314195D01*
X127222311Y-76363186D01*
X127222306Y-76363189D01*
X127217324Y-76365512D01*
X127212817Y-76368668D01*
X127212815Y-76368669D01*
X127039730Y-76489864D01*
X127039727Y-76489866D01*
X127035219Y-76493023D01*
X126878023Y-76650219D01*
X126874866Y-76654727D01*
X126874864Y-76654730D01*
X126755625Y-76825022D01*
X126750512Y-76832324D01*
X126748189Y-76837306D01*
X126748186Y-76837311D01*
X126660798Y-77024715D01*
X126656560Y-77033804D01*
X126599022Y-77248537D01*
X126579647Y-77470000D01*
X126599022Y-77691463D01*
X126637497Y-77835051D01*
X126649319Y-77879171D01*
X126656560Y-77906196D01*
X126658882Y-77911177D01*
X126658883Y-77911178D01*
X126748186Y-78102689D01*
X126748189Y-78102694D01*
X126750512Y-78107676D01*
X126753668Y-78112183D01*
X126753669Y-78112185D01*
X126863821Y-78269498D01*
X126878023Y-78289781D01*
X127035219Y-78446977D01*
X127039727Y-78450134D01*
X127039730Y-78450136D01*
X127108086Y-78497999D01*
X127217323Y-78574488D01*
X127222305Y-78576811D01*
X127222310Y-78576814D01*
X127327373Y-78625805D01*
X127380658Y-78672722D01*
X127400119Y-78740999D01*
X127379577Y-78808959D01*
X127327373Y-78854195D01*
X127222311Y-78903186D01*
X127222306Y-78903189D01*
X127217324Y-78905512D01*
X127212817Y-78908668D01*
X127212815Y-78908669D01*
X127039730Y-79029864D01*
X127039727Y-79029866D01*
X127035219Y-79033023D01*
X126878023Y-79190219D01*
X126874866Y-79194727D01*
X126874864Y-79194730D01*
X126763066Y-79354395D01*
X126750512Y-79372324D01*
X126748189Y-79377306D01*
X126748186Y-79377311D01*
X126661298Y-79563643D01*
X126656560Y-79573804D01*
X126599022Y-79788537D01*
X126579647Y-80010000D01*
X126599022Y-80231463D01*
X126609460Y-80270417D01*
X126649319Y-80419171D01*
X126656560Y-80446196D01*
X126658882Y-80451177D01*
X126658883Y-80451178D01*
X126748186Y-80642689D01*
X126748189Y-80642694D01*
X126750512Y-80647676D01*
X126753668Y-80652183D01*
X126753669Y-80652185D01*
X126867472Y-80814712D01*
X126878023Y-80829781D01*
X127035219Y-80986977D01*
X127039727Y-80990134D01*
X127039730Y-80990136D01*
X127058229Y-81003089D01*
X127217323Y-81114488D01*
X127222305Y-81116811D01*
X127222310Y-81116814D01*
X127327373Y-81165805D01*
X127380658Y-81212722D01*
X127400119Y-81280999D01*
X127379577Y-81348959D01*
X127327373Y-81394195D01*
X127222311Y-81443186D01*
X127222306Y-81443189D01*
X127217324Y-81445512D01*
X127212817Y-81448668D01*
X127212815Y-81448669D01*
X127039730Y-81569864D01*
X127039727Y-81569866D01*
X127035219Y-81573023D01*
X126878023Y-81730219D01*
X126874866Y-81734727D01*
X126874864Y-81734730D01*
X126755625Y-81905022D01*
X126750512Y-81912324D01*
X126748189Y-81917306D01*
X126748186Y-81917311D01*
X126660798Y-82104715D01*
X126656560Y-82113804D01*
X126655138Y-82119112D01*
X126655137Y-82119114D01*
X126654050Y-82123172D01*
X126599022Y-82328537D01*
X126579647Y-82550000D01*
X126599022Y-82771463D01*
X126636854Y-82912651D01*
X126649319Y-82959171D01*
X126656560Y-82986196D01*
X126658882Y-82991177D01*
X126658883Y-82991178D01*
X126748186Y-83182689D01*
X126748189Y-83182694D01*
X126750512Y-83187676D01*
X126753668Y-83192183D01*
X126753669Y-83192185D01*
X126867343Y-83354528D01*
X126878023Y-83369781D01*
X127035219Y-83526977D01*
X127039727Y-83530134D01*
X127039730Y-83530136D01*
X127055230Y-83540989D01*
X127217323Y-83654488D01*
X127222305Y-83656811D01*
X127222310Y-83656814D01*
X127327373Y-83705805D01*
X127380658Y-83752722D01*
X127400119Y-83820999D01*
X127379577Y-83888959D01*
X127327373Y-83934195D01*
X127222311Y-83983186D01*
X127222306Y-83983189D01*
X127217324Y-83985512D01*
X127212817Y-83988668D01*
X127212815Y-83988669D01*
X127039730Y-84109864D01*
X127039727Y-84109866D01*
X127035219Y-84113023D01*
X126878023Y-84270219D01*
X126874866Y-84274727D01*
X126874864Y-84274730D01*
X126757387Y-84442505D01*
X126750512Y-84452324D01*
X126748189Y-84457306D01*
X126748186Y-84457311D01*
X126660798Y-84644715D01*
X126656560Y-84653804D01*
X126599022Y-84868537D01*
X126579647Y-85090000D01*
X126599022Y-85311463D01*
X126625677Y-85410941D01*
X126653260Y-85513879D01*
X126656560Y-85526196D01*
X126658882Y-85531177D01*
X126658883Y-85531178D01*
X126748186Y-85722689D01*
X126748189Y-85722694D01*
X126750512Y-85727676D01*
X126753668Y-85732183D01*
X126753669Y-85732185D01*
X126845127Y-85862800D01*
X126878023Y-85909781D01*
X127035219Y-86066977D01*
X127039727Y-86070134D01*
X127039730Y-86070136D01*
X127098234Y-86111101D01*
X127217323Y-86194488D01*
X127222305Y-86196811D01*
X127222310Y-86196814D01*
X127327373Y-86245805D01*
X127380658Y-86292722D01*
X127400119Y-86360999D01*
X127379577Y-86428959D01*
X127327373Y-86474195D01*
X127222311Y-86523186D01*
X127222306Y-86523189D01*
X127217324Y-86525512D01*
X127212817Y-86528668D01*
X127212815Y-86528669D01*
X127039730Y-86649864D01*
X127039727Y-86649866D01*
X127035219Y-86653023D01*
X126878023Y-86810219D01*
X126874866Y-86814727D01*
X126874864Y-86814730D01*
X126753669Y-86987815D01*
X126750512Y-86992324D01*
X126748189Y-86997306D01*
X126748186Y-86997311D01*
X126663208Y-87179547D01*
X126656560Y-87193804D01*
X126655138Y-87199112D01*
X126655137Y-87199114D01*
X126652597Y-87208595D01*
X126599022Y-87408537D01*
X126579647Y-87630000D01*
X126599022Y-87851463D01*
X126656560Y-88066196D01*
X126658882Y-88071177D01*
X126658883Y-88071178D01*
X126748186Y-88262689D01*
X126748189Y-88262694D01*
X126750512Y-88267676D01*
X126753668Y-88272183D01*
X126753669Y-88272185D01*
X126818814Y-88365221D01*
X126878023Y-88449781D01*
X127035219Y-88606977D01*
X127039727Y-88610134D01*
X127039730Y-88610136D01*
X127082849Y-88640328D01*
X127217323Y-88734488D01*
X127222305Y-88736811D01*
X127222310Y-88736814D01*
X127327373Y-88785805D01*
X127380658Y-88832722D01*
X127400119Y-88900999D01*
X127379577Y-88968959D01*
X127327373Y-89014195D01*
X127222311Y-89063186D01*
X127222306Y-89063189D01*
X127217324Y-89065512D01*
X127212817Y-89068668D01*
X127212815Y-89068669D01*
X127039730Y-89189864D01*
X127039727Y-89189866D01*
X127035219Y-89193023D01*
X126878023Y-89350219D01*
X126750512Y-89532324D01*
X126748189Y-89537306D01*
X126748186Y-89537311D01*
X126658883Y-89728822D01*
X126656560Y-89733804D01*
X126655138Y-89739112D01*
X126655137Y-89739114D01*
X126640571Y-89793475D01*
X126599022Y-89948537D01*
X126579647Y-90170000D01*
X126599022Y-90391463D01*
X126656560Y-90606196D01*
X126658882Y-90611177D01*
X126658883Y-90611178D01*
X126748186Y-90802689D01*
X126748189Y-90802694D01*
X126750512Y-90807676D01*
X126753668Y-90812183D01*
X126753669Y-90812185D01*
X126810256Y-90892999D01*
X126878023Y-90989781D01*
X127035219Y-91146977D01*
X127039727Y-91150134D01*
X127039730Y-91150136D01*
X127115495Y-91203187D01*
X127217323Y-91274488D01*
X127222305Y-91276811D01*
X127222310Y-91276814D01*
X127364256Y-91343004D01*
X127418804Y-91368440D01*
X127424112Y-91369862D01*
X127424114Y-91369863D01*
X127489949Y-91387503D01*
X127633537Y-91425978D01*
X127855000Y-91445353D01*
X128076463Y-91425978D01*
X128220051Y-91387503D01*
X128285886Y-91369863D01*
X128285888Y-91369862D01*
X128291196Y-91368440D01*
X128345744Y-91343004D01*
X128487690Y-91276814D01*
X128487695Y-91276811D01*
X128492677Y-91274488D01*
X128594505Y-91203187D01*
X128670270Y-91150136D01*
X128670273Y-91150134D01*
X128674781Y-91146977D01*
X128831977Y-90989781D01*
X128899745Y-90892999D01*
X128956331Y-90812185D01*
X128956332Y-90812183D01*
X128959488Y-90807676D01*
X128961811Y-90802694D01*
X128961814Y-90802689D01*
X129051117Y-90611178D01*
X129051118Y-90611177D01*
X129053440Y-90606196D01*
X129085285Y-90487352D01*
X129109554Y-90396778D01*
X129109554Y-90396776D01*
X129110978Y-90391463D01*
X129120422Y-90283518D01*
X129146286Y-90217400D01*
X129203789Y-90175761D01*
X129245943Y-90168500D01*
X139621233Y-90168500D01*
X139632416Y-90169027D01*
X139639909Y-90170702D01*
X139647835Y-90170453D01*
X139647836Y-90170453D01*
X139707986Y-90168562D01*
X139711945Y-90168500D01*
X139739856Y-90168500D01*
X139743791Y-90168003D01*
X139743856Y-90167995D01*
X139755693Y-90167062D01*
X139787951Y-90166048D01*
X139791970Y-90165922D01*
X139799889Y-90165673D01*
X139819343Y-90160021D01*
X139838700Y-90156013D01*
X139850930Y-90154468D01*
X139850931Y-90154468D01*
X139858797Y-90153474D01*
X139866168Y-90150555D01*
X139866170Y-90150555D01*
X139899912Y-90137196D01*
X139911142Y-90133351D01*
X139945983Y-90123229D01*
X139945984Y-90123229D01*
X139953593Y-90121018D01*
X139960412Y-90116985D01*
X139960417Y-90116983D01*
X139971028Y-90110707D01*
X139988776Y-90102012D01*
X140007617Y-90094552D01*
X140043387Y-90068564D01*
X140053307Y-90062048D01*
X140084535Y-90043580D01*
X140084538Y-90043578D01*
X140091362Y-90039542D01*
X140105683Y-90025221D01*
X140120717Y-90012380D01*
X140130694Y-90005131D01*
X140137107Y-90000472D01*
X140165298Y-89966395D01*
X140173288Y-89957616D01*
X141920033Y-88210871D01*
X142603456Y-88210871D01*
X142644107Y-88350790D01*
X142650352Y-88365221D01*
X142726911Y-88494678D01*
X142736551Y-88507104D01*
X142842896Y-88613449D01*
X142855322Y-88623089D01*
X142984779Y-88699648D01*
X142999210Y-88705893D01*
X143145065Y-88748269D01*
X143157667Y-88750570D01*
X143186084Y-88752807D01*
X143191014Y-88753000D01*
X143570385Y-88753000D01*
X143585624Y-88748525D01*
X143586829Y-88747135D01*
X143588500Y-88739452D01*
X143588500Y-88734884D01*
X144096500Y-88734884D01*
X144100975Y-88750123D01*
X144102365Y-88751328D01*
X144110048Y-88752999D01*
X144493984Y-88752999D01*
X144498920Y-88752805D01*
X144527336Y-88750570D01*
X144539931Y-88748270D01*
X144685790Y-88705893D01*
X144700221Y-88699648D01*
X144829678Y-88623089D01*
X144842104Y-88613449D01*
X144948449Y-88507104D01*
X144958089Y-88494678D01*
X145034648Y-88365221D01*
X145040893Y-88350790D01*
X145079939Y-88216395D01*
X145079899Y-88202294D01*
X145072630Y-88199000D01*
X144114615Y-88199000D01*
X144099376Y-88203475D01*
X144098171Y-88204865D01*
X144096500Y-88212548D01*
X144096500Y-88734884D01*
X143588500Y-88734884D01*
X143588500Y-88217115D01*
X143584025Y-88201876D01*
X143582635Y-88200671D01*
X143574952Y-88199000D01*
X142618122Y-88199000D01*
X142604591Y-88202973D01*
X142603456Y-88210871D01*
X141920033Y-88210871D01*
X142190499Y-87940405D01*
X142252811Y-87906379D01*
X142279594Y-87903500D01*
X142335487Y-87903500D01*
X142341939Y-87902128D01*
X142341944Y-87902128D01*
X142428888Y-87883647D01*
X142522288Y-87863794D01*
X142549984Y-87851463D01*
X142690722Y-87788803D01*
X142690724Y-87788802D01*
X142696752Y-87786118D01*
X142794549Y-87715064D01*
X142861417Y-87691206D01*
X142868610Y-87691000D01*
X144725158Y-87691000D01*
X144789297Y-87708547D01*
X144866399Y-87754145D01*
X144874010Y-87756356D01*
X144874012Y-87756357D01*
X144926231Y-87771528D01*
X145026169Y-87800562D01*
X145032574Y-87801066D01*
X145032579Y-87801067D01*
X145061042Y-87803307D01*
X145061050Y-87803307D01*
X145063498Y-87803500D01*
X146371502Y-87803500D01*
X146373950Y-87803307D01*
X146373958Y-87803307D01*
X146402421Y-87801067D01*
X146402426Y-87801066D01*
X146408831Y-87800562D01*
X146508769Y-87771528D01*
X146560988Y-87756357D01*
X146560990Y-87756356D01*
X146568601Y-87754145D01*
X146597411Y-87737107D01*
X146704980Y-87673491D01*
X146704983Y-87673489D01*
X146711807Y-87669453D01*
X146717415Y-87663845D01*
X146723675Y-87658989D01*
X146724844Y-87660496D01*
X146778167Y-87631379D01*
X146804950Y-87628500D01*
X147116233Y-87628500D01*
X147127416Y-87629027D01*
X147134909Y-87630702D01*
X147142835Y-87630453D01*
X147142836Y-87630453D01*
X147202986Y-87628562D01*
X147206945Y-87628500D01*
X147234856Y-87628500D01*
X147238791Y-87628003D01*
X147238856Y-87627995D01*
X147250693Y-87627062D01*
X147282951Y-87626048D01*
X147286970Y-87625922D01*
X147294889Y-87625673D01*
X147314343Y-87620021D01*
X147333700Y-87616013D01*
X147345930Y-87614468D01*
X147345931Y-87614468D01*
X147353797Y-87613474D01*
X147361168Y-87610555D01*
X147361170Y-87610555D01*
X147394912Y-87597196D01*
X147406142Y-87593351D01*
X147440983Y-87583229D01*
X147440984Y-87583229D01*
X147448593Y-87581018D01*
X147455412Y-87576985D01*
X147455417Y-87576983D01*
X147466028Y-87570707D01*
X147483776Y-87562012D01*
X147502617Y-87554552D01*
X147538387Y-87528564D01*
X147548307Y-87522048D01*
X147579535Y-87503580D01*
X147579538Y-87503578D01*
X147586362Y-87499542D01*
X147600683Y-87485221D01*
X147615717Y-87472380D01*
X147625694Y-87465131D01*
X147632107Y-87460472D01*
X147660298Y-87426395D01*
X147668288Y-87417616D01*
X148495500Y-86590404D01*
X148557812Y-86556378D01*
X148584595Y-86553499D01*
X148664988Y-86553499D01*
X148701466Y-86550629D01*
X148833478Y-86512276D01*
X148849983Y-86507481D01*
X148849985Y-86507480D01*
X148857596Y-86505269D01*
X148910140Y-86474195D01*
X148990720Y-86426540D01*
X148997541Y-86422506D01*
X149024642Y-86395405D01*
X149086954Y-86361379D01*
X149113737Y-86358500D01*
X149448073Y-86358500D01*
X149516194Y-86378502D01*
X149562687Y-86432158D01*
X149572791Y-86502432D01*
X149548900Y-86560065D01*
X149508211Y-86614356D01*
X149499676Y-86629946D01*
X149454522Y-86750394D01*
X149450895Y-86765649D01*
X149445369Y-86816514D01*
X149445000Y-86823328D01*
X149445000Y-87357885D01*
X149449475Y-87373124D01*
X149450865Y-87374329D01*
X149458548Y-87376000D01*
X151966884Y-87376000D01*
X151982123Y-87371525D01*
X151983328Y-87370135D01*
X151984999Y-87362452D01*
X151984999Y-86823331D01*
X151984629Y-86816510D01*
X151979105Y-86765648D01*
X151975479Y-86750396D01*
X151930324Y-86629946D01*
X151921786Y-86614351D01*
X151845285Y-86512276D01*
X151832724Y-86499715D01*
X151730649Y-86423214D01*
X151715054Y-86414676D01*
X151594606Y-86369522D01*
X151579351Y-86365895D01*
X151528486Y-86360369D01*
X151521672Y-86360000D01*
X151515922Y-86360000D01*
X151447801Y-86339998D01*
X151401308Y-86286342D01*
X151391204Y-86216068D01*
X151420698Y-86151488D01*
X151443651Y-86130787D01*
X151530270Y-86070136D01*
X151530273Y-86070134D01*
X151534781Y-86066977D01*
X151691977Y-85909781D01*
X151724874Y-85862800D01*
X151816331Y-85732185D01*
X151816332Y-85732183D01*
X151819488Y-85727676D01*
X151821811Y-85722694D01*
X151821814Y-85722689D01*
X151911117Y-85531178D01*
X151911118Y-85531177D01*
X151913440Y-85526196D01*
X151916741Y-85513879D01*
X151944323Y-85410941D01*
X151970978Y-85311463D01*
X151990353Y-85090000D01*
X151970978Y-84868537D01*
X151913440Y-84653804D01*
X151908162Y-84642484D01*
X151903623Y-84632751D01*
X151892961Y-84562560D01*
X151921940Y-84497747D01*
X151981359Y-84458890D01*
X152017817Y-84453500D01*
X153591233Y-84453500D01*
X153602416Y-84454027D01*
X153609909Y-84455702D01*
X153617835Y-84455453D01*
X153617836Y-84455453D01*
X153677986Y-84453562D01*
X153681945Y-84453500D01*
X153709856Y-84453500D01*
X153713791Y-84453003D01*
X153713856Y-84452995D01*
X153725693Y-84452062D01*
X153757951Y-84451048D01*
X153761970Y-84450922D01*
X153769889Y-84450673D01*
X153789343Y-84445021D01*
X153808700Y-84441013D01*
X153820930Y-84439468D01*
X153820931Y-84439468D01*
X153828797Y-84438474D01*
X153836168Y-84435555D01*
X153836170Y-84435555D01*
X153869912Y-84422196D01*
X153881142Y-84418351D01*
X153915983Y-84408229D01*
X153915984Y-84408229D01*
X153923593Y-84406018D01*
X153930412Y-84401985D01*
X153930417Y-84401983D01*
X153941028Y-84395707D01*
X153958776Y-84387012D01*
X153977617Y-84379552D01*
X154013387Y-84353564D01*
X154023319Y-84347041D01*
X154023845Y-84346730D01*
X154092663Y-84329277D01*
X154159992Y-84351801D01*
X154204456Y-84407151D01*
X154213764Y-84447937D01*
X154214314Y-84457474D01*
X154225110Y-84644715D01*
X154226247Y-84649761D01*
X154226248Y-84649767D01*
X154239247Y-84707444D01*
X154274222Y-84862639D01*
X154358266Y-85069616D01*
X154396069Y-85131305D01*
X154463433Y-85241233D01*
X154474987Y-85260088D01*
X154621250Y-85428938D01*
X154701287Y-85495386D01*
X154782422Y-85562745D01*
X154793126Y-85571632D01*
X154824587Y-85590016D01*
X154866445Y-85614476D01*
X154915169Y-85666114D01*
X154928240Y-85735897D01*
X154901509Y-85801669D01*
X154861055Y-85835027D01*
X154848607Y-85841507D01*
X154844474Y-85844610D01*
X154844471Y-85844612D01*
X154674100Y-85972530D01*
X154669965Y-85975635D01*
X154666393Y-85979373D01*
X154540511Y-86111101D01*
X154515629Y-86137138D01*
X154389743Y-86321680D01*
X154346576Y-86414676D01*
X154301272Y-86512276D01*
X154295688Y-86524305D01*
X154235989Y-86739570D01*
X154212251Y-86961695D01*
X154212548Y-86966848D01*
X154212548Y-86966851D01*
X154224523Y-87174533D01*
X154225110Y-87184715D01*
X154226247Y-87189761D01*
X154226248Y-87189767D01*
X154238693Y-87244988D01*
X154274222Y-87402639D01*
X154334014Y-87549890D01*
X154352522Y-87595469D01*
X154358266Y-87609616D01*
X154375214Y-87637272D01*
X154468072Y-87788803D01*
X154474987Y-87800088D01*
X154621250Y-87968938D01*
X154625225Y-87972238D01*
X154625231Y-87972244D01*
X154630425Y-87976556D01*
X154670059Y-88035460D01*
X154671555Y-88106441D01*
X154634439Y-88166962D01*
X154594168Y-88191480D01*
X154486946Y-88231676D01*
X154471351Y-88240214D01*
X154369276Y-88316715D01*
X154356715Y-88329276D01*
X154280214Y-88431351D01*
X154271676Y-88446946D01*
X154226522Y-88567394D01*
X154222895Y-88582649D01*
X154217369Y-88633514D01*
X154217000Y-88640328D01*
X154217000Y-89262885D01*
X154221475Y-89278124D01*
X154222865Y-89279329D01*
X154230548Y-89281000D01*
X156914884Y-89281000D01*
X156930123Y-89276525D01*
X156931328Y-89275135D01*
X156932999Y-89267452D01*
X156932999Y-88640331D01*
X156932629Y-88633510D01*
X156927105Y-88582648D01*
X156923479Y-88567396D01*
X156878324Y-88446946D01*
X156869786Y-88431351D01*
X156793285Y-88329276D01*
X156780724Y-88316715D01*
X156678649Y-88240214D01*
X156663054Y-88231676D01*
X156552813Y-88190348D01*
X156496049Y-88147706D01*
X156471349Y-88081145D01*
X156486557Y-88011796D01*
X156508104Y-87983115D01*
X156609430Y-87882144D01*
X156609440Y-87882132D01*
X156613096Y-87878489D01*
X156622670Y-87865166D01*
X156740435Y-87701277D01*
X156743453Y-87697077D01*
X156746457Y-87691000D01*
X156840136Y-87501453D01*
X156840137Y-87501451D01*
X156842430Y-87496811D01*
X156907370Y-87283069D01*
X156936529Y-87061590D01*
X156937767Y-87010925D01*
X156938074Y-86998365D01*
X156938074Y-86998361D01*
X156938156Y-86995000D01*
X156919852Y-86772361D01*
X156865431Y-86555702D01*
X156776354Y-86350840D01*
X156676710Y-86196814D01*
X156657822Y-86167617D01*
X156657820Y-86167614D01*
X156655014Y-86163277D01*
X156504670Y-85998051D01*
X156500619Y-85994852D01*
X156500615Y-85994848D01*
X156333414Y-85862800D01*
X156333410Y-85862798D01*
X156329359Y-85859598D01*
X156288053Y-85836796D01*
X156238084Y-85786364D01*
X156223312Y-85716921D01*
X156248428Y-85650516D01*
X156275780Y-85623909D01*
X156323296Y-85590016D01*
X156454860Y-85496173D01*
X156475639Y-85475467D01*
X156603075Y-85348475D01*
X156613096Y-85338489D01*
X156672594Y-85255689D01*
X156740435Y-85161277D01*
X156743453Y-85157077D01*
X156756191Y-85131305D01*
X156840136Y-84961453D01*
X156840137Y-84961451D01*
X156842430Y-84956811D01*
X156907370Y-84743069D01*
X156936529Y-84521590D01*
X156937301Y-84489989D01*
X156938074Y-84458365D01*
X156938074Y-84458361D01*
X156938156Y-84455000D01*
X156919852Y-84232361D01*
X156865431Y-84015702D01*
X156776354Y-83810840D01*
X156708404Y-83705805D01*
X156657822Y-83627617D01*
X156657820Y-83627614D01*
X156655014Y-83623277D01*
X156504670Y-83458051D01*
X156500619Y-83454852D01*
X156500615Y-83454848D01*
X156333414Y-83322800D01*
X156333410Y-83322798D01*
X156329359Y-83319598D01*
X156288053Y-83296796D01*
X156238084Y-83246364D01*
X156223312Y-83176921D01*
X156248428Y-83110516D01*
X156275780Y-83083909D01*
X156336539Y-83040570D01*
X156454860Y-82956173D01*
X156613096Y-82798489D01*
X156673184Y-82714868D01*
X156740435Y-82621277D01*
X156743453Y-82617077D01*
X156750403Y-82603016D01*
X156840136Y-82421453D01*
X156840137Y-82421451D01*
X156842430Y-82416811D01*
X156907370Y-82203069D01*
X156936529Y-81981590D01*
X156936690Y-81974992D01*
X156938074Y-81918365D01*
X156938074Y-81918361D01*
X156938156Y-81915000D01*
X156919852Y-81692361D01*
X156865431Y-81475702D01*
X156776354Y-81270840D01*
X156715078Y-81176122D01*
X156657822Y-81087617D01*
X156657820Y-81087614D01*
X156655014Y-81083277D01*
X156504670Y-80918051D01*
X156500619Y-80914852D01*
X156500615Y-80914848D01*
X156333414Y-80782800D01*
X156333410Y-80782798D01*
X156329359Y-80779598D01*
X156288053Y-80756796D01*
X156238084Y-80706364D01*
X156223312Y-80636921D01*
X156248428Y-80570516D01*
X156275780Y-80543909D01*
X156356776Y-80486135D01*
X156454860Y-80416173D01*
X156613096Y-80258489D01*
X156621710Y-80246502D01*
X156740435Y-80081277D01*
X156743453Y-80077077D01*
X156746457Y-80071000D01*
X156840136Y-79881453D01*
X156840137Y-79881451D01*
X156842430Y-79876811D01*
X156907370Y-79663069D01*
X156936529Y-79441590D01*
X156938156Y-79375000D01*
X156919852Y-79152361D01*
X156865431Y-78935702D01*
X156776354Y-78730840D01*
X156725537Y-78652289D01*
X156657822Y-78547617D01*
X156657820Y-78547614D01*
X156655014Y-78543277D01*
X156504670Y-78378051D01*
X156500619Y-78374852D01*
X156500615Y-78374848D01*
X156333414Y-78242800D01*
X156333410Y-78242798D01*
X156329359Y-78239598D01*
X156288053Y-78216796D01*
X156238084Y-78166364D01*
X156223312Y-78096921D01*
X156248428Y-78030516D01*
X156275780Y-78003909D01*
X156360707Y-77943331D01*
X156454860Y-77876173D01*
X156468184Y-77862896D01*
X156580926Y-77750547D01*
X156613096Y-77718489D01*
X156673184Y-77634868D01*
X156740435Y-77541277D01*
X156743453Y-77537077D01*
X156750403Y-77523016D01*
X156840136Y-77341453D01*
X156840137Y-77341451D01*
X156842430Y-77336811D01*
X156890380Y-77178989D01*
X156905865Y-77128023D01*
X156905865Y-77128021D01*
X156907370Y-77123069D01*
X156936529Y-76901590D01*
X156938156Y-76835000D01*
X156919852Y-76612361D01*
X156865431Y-76395702D01*
X156776354Y-76190840D01*
X156691720Y-76060016D01*
X156657822Y-76007617D01*
X156657820Y-76007614D01*
X156655014Y-76003277D01*
X156504670Y-75838051D01*
X156500619Y-75834852D01*
X156500615Y-75834848D01*
X156333414Y-75702800D01*
X156333410Y-75702798D01*
X156329359Y-75699598D01*
X156288053Y-75676796D01*
X156238084Y-75626364D01*
X156223312Y-75556921D01*
X156248428Y-75490516D01*
X156275780Y-75463909D01*
X156339067Y-75418767D01*
X156454860Y-75336173D01*
X156497692Y-75293491D01*
X156609435Y-75182137D01*
X156613096Y-75178489D01*
X156617898Y-75171807D01*
X156740435Y-75001277D01*
X156743453Y-74997077D01*
X156773899Y-74935475D01*
X156840136Y-74801452D01*
X156842430Y-74796811D01*
X156907370Y-74583069D01*
X156936529Y-74361590D01*
X156938156Y-74295000D01*
X156919852Y-74072361D01*
X156865431Y-73855702D01*
X156776354Y-73650840D01*
X156676710Y-73496814D01*
X156657822Y-73467617D01*
X156657820Y-73467614D01*
X156655014Y-73463277D01*
X156504670Y-73298051D01*
X156500619Y-73294852D01*
X156500615Y-73294848D01*
X156333414Y-73162800D01*
X156333410Y-73162798D01*
X156329359Y-73159598D01*
X156133789Y-73051638D01*
X156128920Y-73049914D01*
X156128916Y-73049912D01*
X155928087Y-72978795D01*
X155928083Y-72978794D01*
X155923212Y-72977069D01*
X155918119Y-72976162D01*
X155918116Y-72976161D01*
X155708373Y-72938800D01*
X155708367Y-72938799D01*
X155703284Y-72937894D01*
X155629452Y-72936992D01*
X155485081Y-72935228D01*
X155485079Y-72935228D01*
X155479911Y-72935165D01*
X155259091Y-72968955D01*
X155046756Y-73038357D01*
X154848607Y-73141507D01*
X154844474Y-73144610D01*
X154844471Y-73144612D01*
X154757674Y-73209781D01*
X154669965Y-73275635D01*
X154515629Y-73437138D01*
X154389743Y-73621680D01*
X154374003Y-73655590D01*
X154301756Y-73811233D01*
X154295688Y-73824305D01*
X154235989Y-74039570D01*
X154212251Y-74261695D01*
X154212548Y-74266848D01*
X154212548Y-74266851D01*
X154218011Y-74361590D01*
X154225110Y-74484715D01*
X154226247Y-74489761D01*
X154226248Y-74489767D01*
X154258453Y-74632668D01*
X154253917Y-74703520D01*
X154224631Y-74749464D01*
X153444500Y-75529595D01*
X153382188Y-75563621D01*
X153355405Y-75566500D01*
X152017817Y-75566500D01*
X151949696Y-75546498D01*
X151903203Y-75492842D01*
X151893099Y-75422568D01*
X151903623Y-75387249D01*
X151911115Y-75371183D01*
X151911117Y-75371178D01*
X151913440Y-75366196D01*
X151917521Y-75350968D01*
X151964861Y-75174292D01*
X151970978Y-75151463D01*
X151990353Y-74930000D01*
X151970978Y-74708537D01*
X151960514Y-74669484D01*
X151962204Y-74598507D01*
X151993126Y-74547778D01*
X154494025Y-72046879D01*
X154502315Y-72039335D01*
X154508796Y-72035222D01*
X154555437Y-71985554D01*
X154558191Y-71982713D01*
X154577912Y-71962992D01*
X154580390Y-71959797D01*
X154588096Y-71950775D01*
X154612936Y-71924323D01*
X154618364Y-71918543D01*
X154623995Y-71908300D01*
X154626093Y-71906214D01*
X154626842Y-71905183D01*
X154627008Y-71905304D01*
X154674340Y-71858241D01*
X154734410Y-71843000D01*
X155302885Y-71843000D01*
X155318124Y-71838525D01*
X155319329Y-71837135D01*
X155321000Y-71829452D01*
X155321000Y-71824884D01*
X155829000Y-71824884D01*
X155833475Y-71840123D01*
X155834865Y-71841328D01*
X155842548Y-71842999D01*
X156469669Y-71842999D01*
X156476490Y-71842629D01*
X156527352Y-71837105D01*
X156542604Y-71833479D01*
X156663054Y-71788324D01*
X156678649Y-71779786D01*
X156780724Y-71703285D01*
X156793285Y-71690724D01*
X156869786Y-71588649D01*
X156878324Y-71573054D01*
X156923478Y-71452606D01*
X156927105Y-71437351D01*
X156932631Y-71386486D01*
X156933000Y-71379672D01*
X156933000Y-70757115D01*
X156928525Y-70741876D01*
X156927135Y-70740671D01*
X156919452Y-70739000D01*
X155847115Y-70739000D01*
X155831876Y-70743475D01*
X155830671Y-70744865D01*
X155829000Y-70752548D01*
X155829000Y-71824884D01*
X155321000Y-71824884D01*
X155321000Y-70357000D01*
X155341002Y-70288879D01*
X155394658Y-70242386D01*
X155447000Y-70231000D01*
X156914884Y-70231000D01*
X156930123Y-70226525D01*
X156931328Y-70225135D01*
X156932999Y-70217452D01*
X156932999Y-69590331D01*
X156932629Y-69583510D01*
X156927105Y-69532648D01*
X156923479Y-69517396D01*
X156878324Y-69396946D01*
X156869786Y-69381351D01*
X156793285Y-69279276D01*
X156780724Y-69266715D01*
X156678649Y-69190214D01*
X156663054Y-69181676D01*
X156552813Y-69140348D01*
X156496049Y-69097706D01*
X156471349Y-69031145D01*
X156486557Y-68961796D01*
X156508104Y-68933115D01*
X156609430Y-68832144D01*
X156609440Y-68832132D01*
X156613096Y-68828489D01*
X156743453Y-68647077D01*
X156842430Y-68446811D01*
X156907370Y-68233069D01*
X156936529Y-68011590D01*
X156938156Y-67945000D01*
X156919852Y-67722361D01*
X156865431Y-67505702D01*
X156776354Y-67300840D01*
X156710866Y-67199611D01*
X156657822Y-67117617D01*
X156657820Y-67117614D01*
X156655014Y-67113277D01*
X156504670Y-66948051D01*
X156500619Y-66944852D01*
X156500615Y-66944848D01*
X156333414Y-66812800D01*
X156333410Y-66812798D01*
X156329359Y-66809598D01*
X156288053Y-66786796D01*
X156238084Y-66736364D01*
X156223312Y-66666921D01*
X156248428Y-66600516D01*
X156275780Y-66573909D01*
X156360859Y-66513223D01*
X156454860Y-66446173D01*
X156472724Y-66428372D01*
X156609435Y-66292137D01*
X156613096Y-66288489D01*
X156687163Y-66185414D01*
X156740435Y-66111277D01*
X156743453Y-66107077D01*
X156746511Y-66100891D01*
X156840136Y-65911453D01*
X156840137Y-65911451D01*
X156842430Y-65906811D01*
X156907370Y-65693069D01*
X156936529Y-65471590D01*
X156938156Y-65405000D01*
X156919852Y-65182361D01*
X156865431Y-64965702D01*
X156776354Y-64760840D01*
X156655014Y-64573277D01*
X156504670Y-64408051D01*
X156500619Y-64404852D01*
X156500615Y-64404848D01*
X156333414Y-64272800D01*
X156333410Y-64272798D01*
X156329359Y-64269598D01*
X156324835Y-64267100D01*
X156324831Y-64267098D01*
X156284453Y-64244808D01*
X156234483Y-64194376D01*
X156219711Y-64124933D01*
X156244827Y-64058528D01*
X156301858Y-64016243D01*
X156345347Y-64008500D01*
X160020500Y-64008500D01*
X160088621Y-64028502D01*
G37*
%TD.AperFunction*%
%TA.AperFunction,Conductor*%
G36*
X129022206Y-86378502D02*
G01*
X129068699Y-86432158D01*
X129078803Y-86502432D01*
X129066272Y-86538030D01*
X129067376Y-86538508D01*
X129057981Y-86560217D01*
X129016665Y-86702429D01*
X129014661Y-86713400D01*
X128982746Y-86776819D01*
X128921611Y-86812915D01*
X128850665Y-86810230D01*
X128801616Y-86779858D01*
X128674781Y-86653023D01*
X128670273Y-86649866D01*
X128670270Y-86649864D01*
X128581509Y-86587713D01*
X128537181Y-86532256D01*
X128529872Y-86461636D01*
X128561903Y-86398276D01*
X128623104Y-86362291D01*
X128653780Y-86358500D01*
X128954085Y-86358500D01*
X129022206Y-86378502D01*
G37*
%TD.AperFunction*%
%TA.AperFunction,Conductor*%
G36*
X142565148Y-83859922D02*
G01*
X142573130Y-83863215D01*
X142612370Y-83881000D01*
X143970500Y-83881000D01*
X144038621Y-83901002D01*
X144085114Y-83954658D01*
X144096500Y-84007000D01*
X144096500Y-84263000D01*
X144076498Y-84331121D01*
X144022842Y-84377614D01*
X143970500Y-84389000D01*
X142618122Y-84389000D01*
X142604591Y-84392973D01*
X142603456Y-84400871D01*
X142644107Y-84540790D01*
X142650352Y-84555221D01*
X142726911Y-84684678D01*
X142736551Y-84697104D01*
X142842896Y-84803449D01*
X142855322Y-84813089D01*
X142984779Y-84889648D01*
X142999210Y-84895893D01*
X143145065Y-84938269D01*
X143157667Y-84940570D01*
X143186084Y-84942807D01*
X143191014Y-84943000D01*
X143726906Y-84942999D01*
X143795027Y-84963001D01*
X143841520Y-85016656D01*
X143851624Y-85086930D01*
X143822131Y-85151511D01*
X143816001Y-85158094D01*
X143774500Y-85199595D01*
X143712188Y-85233621D01*
X143685405Y-85236500D01*
X143188498Y-85236500D01*
X143186050Y-85236693D01*
X143186042Y-85236693D01*
X143157579Y-85238933D01*
X143157574Y-85238934D01*
X143151169Y-85239438D01*
X143080091Y-85260088D01*
X142999012Y-85283643D01*
X142999010Y-85283644D01*
X142991399Y-85285855D01*
X142984572Y-85289892D01*
X142984573Y-85289892D01*
X142855020Y-85366509D01*
X142855017Y-85366511D01*
X142848193Y-85370547D01*
X142730547Y-85488193D01*
X142726511Y-85495017D01*
X142726509Y-85495020D01*
X142681201Y-85571632D01*
X142645855Y-85631399D01*
X142599438Y-85791169D01*
X142598934Y-85797574D01*
X142598933Y-85797579D01*
X142596693Y-85826042D01*
X142596500Y-85828498D01*
X142596500Y-85986383D01*
X142576498Y-86054504D01*
X142522842Y-86100997D01*
X142452568Y-86111101D01*
X142444312Y-86109632D01*
X142338302Y-86087098D01*
X142275830Y-86053371D01*
X142241508Y-85991221D01*
X142238500Y-85963852D01*
X142238500Y-84134594D01*
X142258502Y-84066473D01*
X142275405Y-84045499D01*
X142432021Y-83888883D01*
X142494333Y-83854857D01*
X142565148Y-83859922D01*
G37*
%TD.AperFunction*%
%TA.AperFunction,Conductor*%
G36*
X128920931Y-71140002D02*
G01*
X128941905Y-71156905D01*
X130175000Y-72390000D01*
X148590000Y-72390000D01*
X149486315Y-71493685D01*
X149548627Y-71459659D01*
X149619442Y-71464724D01*
X149676278Y-71507271D01*
X149701089Y-71573791D01*
X149685998Y-71643165D01*
X149678623Y-71655050D01*
X149613672Y-71747810D01*
X149613669Y-71747815D01*
X149610512Y-71752324D01*
X149608189Y-71757306D01*
X149608186Y-71757311D01*
X149530307Y-71924323D01*
X149516560Y-71953804D01*
X149515138Y-71959112D01*
X149515137Y-71959114D01*
X149514935Y-71959869D01*
X149459022Y-72168537D01*
X149439647Y-72390000D01*
X149459022Y-72611463D01*
X149516560Y-72826196D01*
X149518882Y-72831177D01*
X149518883Y-72831178D01*
X149608186Y-73022689D01*
X149608189Y-73022694D01*
X149610512Y-73027676D01*
X149613668Y-73032183D01*
X149613669Y-73032185D01*
X149705127Y-73162800D01*
X149738023Y-73209781D01*
X149895219Y-73366977D01*
X149899727Y-73370134D01*
X149899730Y-73370136D01*
X149975495Y-73423187D01*
X150077323Y-73494488D01*
X150082305Y-73496811D01*
X150082310Y-73496814D01*
X150187373Y-73545805D01*
X150240658Y-73592722D01*
X150260119Y-73660999D01*
X150239577Y-73728959D01*
X150187373Y-73774195D01*
X150082311Y-73823186D01*
X150082306Y-73823189D01*
X150077324Y-73825512D01*
X150072817Y-73828668D01*
X150072815Y-73828669D01*
X149899730Y-73949864D01*
X149899727Y-73949866D01*
X149895219Y-73953023D01*
X149738023Y-74110219D01*
X149734866Y-74114727D01*
X149734864Y-74114730D01*
X149628348Y-74266851D01*
X149610512Y-74292324D01*
X149608189Y-74297306D01*
X149608186Y-74297311D01*
X149576665Y-74364908D01*
X149516560Y-74493804D01*
X149459022Y-74708537D01*
X149439647Y-74930000D01*
X149459022Y-75151463D01*
X149465139Y-75174292D01*
X149512480Y-75350968D01*
X149516560Y-75366196D01*
X149518883Y-75371178D01*
X149518885Y-75371183D01*
X149526377Y-75387249D01*
X149537039Y-75457440D01*
X149508060Y-75522253D01*
X149448641Y-75561110D01*
X149412183Y-75566500D01*
X147089500Y-75566500D01*
X147021379Y-75546498D01*
X146974886Y-75492842D01*
X146963500Y-75440500D01*
X146963500Y-75348498D01*
X146962530Y-75336173D01*
X146961067Y-75317579D01*
X146961066Y-75317574D01*
X146960562Y-75311169D01*
X146914145Y-75151399D01*
X146897107Y-75122589D01*
X146833491Y-75015020D01*
X146833489Y-75015017D01*
X146829453Y-75008193D01*
X146711807Y-74890547D01*
X146704983Y-74886511D01*
X146704980Y-74886509D01*
X146575427Y-74809892D01*
X146575428Y-74809892D01*
X146568601Y-74805855D01*
X146560990Y-74803644D01*
X146560988Y-74803643D01*
X146508769Y-74788472D01*
X146408831Y-74759438D01*
X146402426Y-74758934D01*
X146402421Y-74758933D01*
X146373958Y-74756693D01*
X146373950Y-74756693D01*
X146371502Y-74756500D01*
X145214500Y-74756500D01*
X145146379Y-74736498D01*
X145099886Y-74682842D01*
X145088500Y-74630500D01*
X145088500Y-74398498D01*
X145085562Y-74361169D01*
X145039145Y-74201399D01*
X144985221Y-74110219D01*
X144958491Y-74065020D01*
X144958489Y-74065017D01*
X144954453Y-74058193D01*
X144836807Y-73940547D01*
X144829983Y-73936511D01*
X144829980Y-73936509D01*
X144700427Y-73859892D01*
X144700428Y-73859892D01*
X144693601Y-73855855D01*
X144685990Y-73853644D01*
X144685988Y-73853643D01*
X144633769Y-73838472D01*
X144533831Y-73809438D01*
X144527426Y-73808934D01*
X144527421Y-73808933D01*
X144498958Y-73806693D01*
X144498950Y-73806693D01*
X144496502Y-73806500D01*
X143188498Y-73806500D01*
X143186050Y-73806693D01*
X143186042Y-73806693D01*
X143157579Y-73808933D01*
X143157574Y-73808934D01*
X143151169Y-73809438D01*
X143051231Y-73838472D01*
X142999012Y-73853643D01*
X142999010Y-73853644D01*
X142991399Y-73855855D01*
X142984572Y-73859892D01*
X142984573Y-73859892D01*
X142855020Y-73936509D01*
X142855017Y-73936511D01*
X142848193Y-73940547D01*
X142730547Y-74058193D01*
X142726511Y-74065017D01*
X142726509Y-74065020D01*
X142699779Y-74110219D01*
X142645855Y-74201399D01*
X142599438Y-74361169D01*
X142596500Y-74398498D01*
X142596500Y-74831502D01*
X142599438Y-74868831D01*
X142617209Y-74930000D01*
X142636697Y-74997077D01*
X142645855Y-75028601D01*
X142649892Y-75035427D01*
X142726509Y-75164980D01*
X142726511Y-75164983D01*
X142730547Y-75171807D01*
X142848193Y-75289453D01*
X142855017Y-75293489D01*
X142855020Y-75293491D01*
X142948032Y-75348498D01*
X142991399Y-75374145D01*
X142999010Y-75376356D01*
X142999012Y-75376357D01*
X143051231Y-75391528D01*
X143151169Y-75420562D01*
X143157574Y-75421066D01*
X143157579Y-75421067D01*
X143186042Y-75423307D01*
X143186050Y-75423307D01*
X143188498Y-75423500D01*
X143222555Y-75423500D01*
X143290676Y-75443502D01*
X143331007Y-75485358D01*
X143337958Y-75497111D01*
X143343564Y-75502717D01*
X143344384Y-75503774D01*
X143370331Y-75569859D01*
X143356432Y-75639481D01*
X143307098Y-75690537D01*
X143244825Y-75707001D01*
X143191017Y-75707001D01*
X143186080Y-75707195D01*
X143157664Y-75709430D01*
X143145069Y-75711730D01*
X142999210Y-75754107D01*
X142984779Y-75760352D01*
X142855322Y-75836911D01*
X142842896Y-75846551D01*
X142736551Y-75952896D01*
X142726911Y-75965322D01*
X142650352Y-76094779D01*
X142644107Y-76109210D01*
X142605061Y-76243605D01*
X142605101Y-76257706D01*
X142612370Y-76261000D01*
X143970500Y-76261000D01*
X144038621Y-76281002D01*
X144085114Y-76334658D01*
X144096500Y-76387000D01*
X144096500Y-77304884D01*
X144100975Y-77320123D01*
X144102365Y-77321328D01*
X144110048Y-77322999D01*
X144493984Y-77322999D01*
X144498920Y-77322805D01*
X144527336Y-77320570D01*
X144539931Y-77318270D01*
X144685790Y-77275893D01*
X144700221Y-77269648D01*
X144829678Y-77193089D01*
X144842104Y-77183449D01*
X144844104Y-77181449D01*
X144846057Y-77180382D01*
X144848364Y-77178593D01*
X144848653Y-77178965D01*
X144906416Y-77147423D01*
X144977231Y-77152488D01*
X145022294Y-77181449D01*
X145703103Y-77862258D01*
X145710638Y-77870538D01*
X145714751Y-77877018D01*
X145722525Y-77884318D01*
X145764402Y-77923643D01*
X145767244Y-77926398D01*
X145786981Y-77946135D01*
X145790178Y-77948615D01*
X145799198Y-77956318D01*
X145831430Y-77986586D01*
X145838376Y-77990405D01*
X145838379Y-77990407D01*
X145849185Y-77996348D01*
X145865704Y-78007199D01*
X145881710Y-78019614D01*
X145888979Y-78022759D01*
X145888983Y-78022762D01*
X145922288Y-78037174D01*
X145932938Y-78042391D01*
X145971691Y-78063695D01*
X145988740Y-78068072D01*
X146049745Y-78104388D01*
X146081432Y-78167921D01*
X146073741Y-78238499D01*
X146029113Y-78293716D01*
X146003788Y-78307264D01*
X145980142Y-78316626D01*
X145969597Y-78320801D01*
X145958368Y-78324645D01*
X145923517Y-78334770D01*
X145915907Y-78336981D01*
X145909084Y-78341016D01*
X145898466Y-78347295D01*
X145880713Y-78355992D01*
X145873369Y-78358900D01*
X145861883Y-78363448D01*
X145855468Y-78368109D01*
X145826112Y-78389437D01*
X145816195Y-78395951D01*
X145778138Y-78418458D01*
X145763817Y-78432779D01*
X145748784Y-78445619D01*
X145732393Y-78457528D01*
X145727340Y-78463636D01*
X145704208Y-78491598D01*
X145696218Y-78500378D01*
X145667001Y-78529595D01*
X145604689Y-78563621D01*
X145577906Y-78566500D01*
X145214500Y-78566500D01*
X145146379Y-78546498D01*
X145099886Y-78492842D01*
X145088500Y-78440500D01*
X145088500Y-78208498D01*
X145088307Y-78206042D01*
X145086067Y-78177579D01*
X145086066Y-78177574D01*
X145085562Y-78171169D01*
X145053230Y-78059879D01*
X145041357Y-78019012D01*
X145041356Y-78019010D01*
X145039145Y-78011399D01*
X145004167Y-77952255D01*
X144958491Y-77875020D01*
X144958489Y-77875017D01*
X144954453Y-77868193D01*
X144836807Y-77750547D01*
X144829983Y-77746511D01*
X144829980Y-77746509D01*
X144700427Y-77669892D01*
X144700428Y-77669892D01*
X144693601Y-77665855D01*
X144685990Y-77663644D01*
X144685988Y-77663643D01*
X144624009Y-77645637D01*
X144533831Y-77619438D01*
X144527426Y-77618934D01*
X144527421Y-77618933D01*
X144498958Y-77616693D01*
X144498950Y-77616693D01*
X144496502Y-77616500D01*
X143188498Y-77616500D01*
X143186050Y-77616693D01*
X143186042Y-77616693D01*
X143157579Y-77618933D01*
X143157574Y-77618934D01*
X143151169Y-77619438D01*
X143060991Y-77645637D01*
X142999012Y-77663643D01*
X142999010Y-77663644D01*
X142991399Y-77665855D01*
X142984572Y-77669892D01*
X142984573Y-77669892D01*
X142855020Y-77746509D01*
X142855017Y-77746511D01*
X142848193Y-77750547D01*
X142730547Y-77868193D01*
X142726511Y-77875017D01*
X142726509Y-77875020D01*
X142680833Y-77952255D01*
X142645855Y-78011399D01*
X142643644Y-78019010D01*
X142643643Y-78019012D01*
X142631770Y-78059879D01*
X142599438Y-78171169D01*
X142598934Y-78177574D01*
X142598933Y-78177579D01*
X142596693Y-78206042D01*
X142596500Y-78208498D01*
X142596500Y-78641502D01*
X142596693Y-78643950D01*
X142596693Y-78643958D01*
X142598825Y-78671041D01*
X142599438Y-78678831D01*
X142613285Y-78726492D01*
X142643586Y-78830790D01*
X142645855Y-78838601D01*
X142649892Y-78845427D01*
X142726509Y-78974980D01*
X142726511Y-78974983D01*
X142730547Y-78981807D01*
X142848193Y-79099453D01*
X142855017Y-79103489D01*
X142855020Y-79103491D01*
X142937655Y-79152361D01*
X142991399Y-79184145D01*
X142999010Y-79186356D01*
X142999012Y-79186357D01*
X143027833Y-79194730D01*
X143151169Y-79230562D01*
X143157574Y-79231066D01*
X143157579Y-79231067D01*
X143186042Y-79233307D01*
X143186050Y-79233307D01*
X143188498Y-79233500D01*
X143222555Y-79233500D01*
X143290676Y-79253502D01*
X143331007Y-79295358D01*
X143331525Y-79296233D01*
X143337958Y-79307111D01*
X143343564Y-79312717D01*
X143344384Y-79313774D01*
X143370331Y-79379859D01*
X143356432Y-79449481D01*
X143307098Y-79500537D01*
X143244825Y-79517001D01*
X143191017Y-79517001D01*
X143186080Y-79517195D01*
X143157664Y-79519430D01*
X143145069Y-79521730D01*
X142999210Y-79564107D01*
X142984779Y-79570352D01*
X142855322Y-79646911D01*
X142842896Y-79656551D01*
X142736551Y-79762896D01*
X142726911Y-79775322D01*
X142650352Y-79904779D01*
X142644107Y-79919210D01*
X142605061Y-80053605D01*
X142605101Y-80067706D01*
X142612370Y-80071000D01*
X143970500Y-80071000D01*
X144038621Y-80091002D01*
X144085114Y-80144658D01*
X144096500Y-80197000D01*
X144096500Y-81032905D01*
X144076498Y-81101026D01*
X144059597Y-81121999D01*
X143923414Y-81258181D01*
X143791999Y-81389596D01*
X143729687Y-81423621D01*
X143702904Y-81426500D01*
X143188498Y-81426500D01*
X143186050Y-81426693D01*
X143186042Y-81426693D01*
X143157579Y-81428933D01*
X143157574Y-81428934D01*
X143151169Y-81429438D01*
X143084975Y-81448669D01*
X142999012Y-81473643D01*
X142999010Y-81473644D01*
X142991399Y-81475855D01*
X142984572Y-81479892D01*
X142984573Y-81479892D01*
X142855020Y-81556509D01*
X142855017Y-81556511D01*
X142848193Y-81560547D01*
X142730547Y-81678193D01*
X142726511Y-81685017D01*
X142726509Y-81685020D01*
X142664852Y-81789277D01*
X142645855Y-81821399D01*
X142643644Y-81829010D01*
X142643643Y-81829012D01*
X142638284Y-81847460D01*
X142599438Y-81981169D01*
X142598934Y-81987574D01*
X142598933Y-81987579D01*
X142596928Y-82013056D01*
X142596500Y-82018498D01*
X142596500Y-82425500D01*
X142576498Y-82493621D01*
X142522842Y-82540114D01*
X142470500Y-82551500D01*
X142318768Y-82551500D01*
X142307585Y-82550973D01*
X142300092Y-82549298D01*
X142292166Y-82549547D01*
X142292165Y-82549547D01*
X142232002Y-82551438D01*
X142228044Y-82551500D01*
X142200144Y-82551500D01*
X142196154Y-82552004D01*
X142184320Y-82552936D01*
X142140111Y-82554326D01*
X142132495Y-82556539D01*
X142132493Y-82556539D01*
X142120652Y-82559979D01*
X142101293Y-82563988D01*
X142099983Y-82564154D01*
X142081203Y-82566526D01*
X142073837Y-82569442D01*
X142073831Y-82569444D01*
X142040098Y-82582800D01*
X142028868Y-82586645D01*
X141994017Y-82596770D01*
X141986407Y-82598981D01*
X141979584Y-82603016D01*
X141968966Y-82609295D01*
X141951213Y-82617992D01*
X141943568Y-82621019D01*
X141932383Y-82625448D01*
X141907875Y-82643254D01*
X141896612Y-82651437D01*
X141886695Y-82657951D01*
X141848638Y-82680458D01*
X141834317Y-82694779D01*
X141819284Y-82707619D01*
X141802893Y-82719528D01*
X141786017Y-82739928D01*
X141774712Y-82753593D01*
X141766722Y-82762374D01*
X141212742Y-83316353D01*
X141204463Y-83323887D01*
X141197982Y-83328000D01*
X141158747Y-83369781D01*
X141151357Y-83377651D01*
X141148602Y-83380493D01*
X141128865Y-83400230D01*
X141126385Y-83403427D01*
X141118682Y-83412447D01*
X141088414Y-83444679D01*
X141084595Y-83451625D01*
X141084593Y-83451628D01*
X141078652Y-83462434D01*
X141067801Y-83478953D01*
X141055386Y-83494959D01*
X141052241Y-83502228D01*
X141052238Y-83502232D01*
X141037826Y-83535537D01*
X141032609Y-83546187D01*
X141011305Y-83584940D01*
X141009334Y-83592615D01*
X141009334Y-83592616D01*
X141006267Y-83604562D01*
X140999863Y-83623266D01*
X140991819Y-83641855D01*
X140990580Y-83649678D01*
X140990577Y-83649688D01*
X140984901Y-83685524D01*
X140982495Y-83697144D01*
X140973472Y-83732289D01*
X140971500Y-83739970D01*
X140971500Y-83760224D01*
X140969949Y-83779934D01*
X140966780Y-83799943D01*
X140967526Y-83807835D01*
X140970941Y-83843961D01*
X140971500Y-83855819D01*
X140971500Y-85600500D01*
X140951498Y-85668621D01*
X140897842Y-85715114D01*
X140845500Y-85726500D01*
X140599000Y-85726500D01*
X140530879Y-85706498D01*
X140484386Y-85652842D01*
X140473000Y-85600500D01*
X140473000Y-85362115D01*
X140468525Y-85346876D01*
X140467135Y-85345671D01*
X140459452Y-85344000D01*
X137675116Y-85344000D01*
X137659877Y-85348475D01*
X137642948Y-85368012D01*
X137583222Y-85406396D01*
X137547723Y-85411500D01*
X137539776Y-85411500D01*
X137520065Y-85409949D01*
X137507886Y-85408020D01*
X137500057Y-85406780D01*
X137492165Y-85407526D01*
X137456039Y-85410941D01*
X137444181Y-85411500D01*
X137418585Y-85411500D01*
X137350464Y-85391498D01*
X137303971Y-85337842D01*
X137293867Y-85267568D01*
X137302372Y-85237494D01*
X137305269Y-85232596D01*
X137316518Y-85193879D01*
X137347589Y-85086930D01*
X137350629Y-85076466D01*
X137351169Y-85069616D01*
X137353307Y-85042444D01*
X137353307Y-85042438D01*
X137353500Y-85039989D01*
X137353499Y-84817885D01*
X137657000Y-84817885D01*
X137661475Y-84833124D01*
X137662865Y-84834329D01*
X137670548Y-84836000D01*
X138792885Y-84836000D01*
X138808124Y-84831525D01*
X138809329Y-84830135D01*
X138811000Y-84822452D01*
X138811000Y-84817885D01*
X139319000Y-84817885D01*
X139323475Y-84833124D01*
X139324865Y-84834329D01*
X139332548Y-84836000D01*
X140454884Y-84836000D01*
X140470123Y-84831525D01*
X140471328Y-84830135D01*
X140472999Y-84822452D01*
X140472999Y-84145331D01*
X140472629Y-84138510D01*
X140467105Y-84087648D01*
X140463479Y-84072396D01*
X140418324Y-83951946D01*
X140409786Y-83936351D01*
X140333285Y-83834276D01*
X140320724Y-83821715D01*
X140218649Y-83745214D01*
X140203054Y-83736676D01*
X140082606Y-83691522D01*
X140067351Y-83687895D01*
X140016486Y-83682369D01*
X140009672Y-83682000D01*
X139337115Y-83682000D01*
X139321876Y-83686475D01*
X139320671Y-83687865D01*
X139319000Y-83695548D01*
X139319000Y-84817885D01*
X138811000Y-84817885D01*
X138811000Y-83700116D01*
X138806525Y-83684877D01*
X138805135Y-83683672D01*
X138797452Y-83682001D01*
X138120331Y-83682001D01*
X138113510Y-83682371D01*
X138062648Y-83687895D01*
X138047396Y-83691521D01*
X137926946Y-83736676D01*
X137911351Y-83745214D01*
X137809276Y-83821715D01*
X137796715Y-83834276D01*
X137720214Y-83936351D01*
X137711676Y-83951946D01*
X137666522Y-84072394D01*
X137662895Y-84087649D01*
X137657369Y-84138514D01*
X137657000Y-84145328D01*
X137657000Y-84817885D01*
X137353499Y-84817885D01*
X137353499Y-84640012D01*
X137350629Y-84603534D01*
X137308606Y-84458890D01*
X137307481Y-84455017D01*
X137307480Y-84455015D01*
X137305269Y-84447404D01*
X137301233Y-84440579D01*
X137301231Y-84440575D01*
X137273769Y-84394139D01*
X137256309Y-84325323D01*
X137273769Y-84265861D01*
X137301231Y-84219425D01*
X137301233Y-84219421D01*
X137305269Y-84212596D01*
X137309054Y-84199570D01*
X137348834Y-84062644D01*
X137350629Y-84056466D01*
X137351493Y-84045499D01*
X137353307Y-84022444D01*
X137353307Y-84022438D01*
X137353500Y-84019989D01*
X137353499Y-83620012D01*
X137350629Y-83583534D01*
X137315446Y-83462434D01*
X137307481Y-83435017D01*
X137307480Y-83435015D01*
X137305269Y-83427404D01*
X137231345Y-83302404D01*
X137226540Y-83294280D01*
X137222506Y-83287459D01*
X137221104Y-83286057D01*
X137196122Y-83222435D01*
X137210020Y-83152812D01*
X137227991Y-83126980D01*
X137242816Y-83110516D01*
X137264040Y-83086944D01*
X137351668Y-82935168D01*
X137356223Y-82927279D01*
X137356224Y-82927278D01*
X137359527Y-82921556D01*
X137418542Y-82739928D01*
X137424793Y-82680458D01*
X137437814Y-82556565D01*
X137438504Y-82550000D01*
X137430896Y-82477614D01*
X137419232Y-82366635D01*
X137419232Y-82366633D01*
X137418542Y-82360072D01*
X137359527Y-82178444D01*
X137338199Y-82141502D01*
X137290064Y-82058131D01*
X137264040Y-82013056D01*
X137241101Y-81987579D01*
X137140675Y-81876045D01*
X137140674Y-81876044D01*
X137136253Y-81871134D01*
X136981752Y-81758882D01*
X136975724Y-81756198D01*
X136975722Y-81756197D01*
X136813319Y-81683891D01*
X136813318Y-81683891D01*
X136807288Y-81681206D01*
X136705499Y-81659570D01*
X136626944Y-81642872D01*
X136626939Y-81642872D01*
X136620487Y-81641500D01*
X136429513Y-81641500D01*
X136423061Y-81642872D01*
X136423056Y-81642872D01*
X136344501Y-81659570D01*
X136242712Y-81681206D01*
X136236682Y-81683891D01*
X136236681Y-81683891D01*
X136074278Y-81756197D01*
X136074276Y-81756198D01*
X136068248Y-81758882D01*
X135963633Y-81834890D01*
X135957037Y-81839682D01*
X135890170Y-81863540D01*
X135821018Y-81847460D01*
X135774522Y-81801884D01*
X135705591Y-81685325D01*
X135695949Y-81672896D01*
X135589604Y-81566551D01*
X135577178Y-81556911D01*
X135447721Y-81480352D01*
X135433290Y-81474107D01*
X135287435Y-81431731D01*
X135274833Y-81429430D01*
X135246416Y-81427193D01*
X135241486Y-81427000D01*
X134862115Y-81427000D01*
X134846876Y-81431475D01*
X134845671Y-81432865D01*
X134844000Y-81440548D01*
X134844000Y-82363000D01*
X134823998Y-82431121D01*
X134770342Y-82477614D01*
X134718000Y-82489000D01*
X134462000Y-82489000D01*
X134393879Y-82468998D01*
X134347386Y-82415342D01*
X134336000Y-82363000D01*
X134336000Y-81445116D01*
X134331525Y-81429877D01*
X134330135Y-81428672D01*
X134322452Y-81427001D01*
X133938517Y-81427001D01*
X133933580Y-81427195D01*
X133905164Y-81429430D01*
X133892569Y-81431730D01*
X133746710Y-81474107D01*
X133732279Y-81480352D01*
X133602824Y-81556911D01*
X133590392Y-81566554D01*
X133585146Y-81571800D01*
X133522834Y-81605826D01*
X133452019Y-81600761D01*
X133406956Y-81571800D01*
X133385405Y-81550249D01*
X133351379Y-81487937D01*
X133348500Y-81461154D01*
X133348500Y-81358768D01*
X133349027Y-81347585D01*
X133350702Y-81340092D01*
X133348562Y-81272001D01*
X133348500Y-81268044D01*
X133348500Y-81240144D01*
X133347996Y-81236153D01*
X133347063Y-81224311D01*
X133346565Y-81208440D01*
X133345674Y-81180111D01*
X133340021Y-81160652D01*
X133336012Y-81141293D01*
X133334656Y-81130562D01*
X133333474Y-81121203D01*
X133330558Y-81113837D01*
X133330556Y-81113831D01*
X133317200Y-81080098D01*
X133313355Y-81068869D01*
X133306224Y-81044323D01*
X133306426Y-80973329D01*
X133344980Y-80913712D01*
X133409644Y-80884403D01*
X133479889Y-80894707D01*
X133516316Y-80920076D01*
X133595693Y-80999453D01*
X133602517Y-81003489D01*
X133602520Y-81003491D01*
X133671567Y-81044325D01*
X133738899Y-81084145D01*
X133746510Y-81086356D01*
X133746512Y-81086357D01*
X133793469Y-81099999D01*
X133898669Y-81130562D01*
X133905074Y-81131066D01*
X133905079Y-81131067D01*
X133933542Y-81133307D01*
X133933550Y-81133307D01*
X133935998Y-81133500D01*
X135244002Y-81133500D01*
X135246450Y-81133307D01*
X135246458Y-81133307D01*
X135274921Y-81131067D01*
X135274926Y-81131066D01*
X135281331Y-81130562D01*
X135386531Y-81099999D01*
X135433488Y-81086357D01*
X135433490Y-81086356D01*
X135441101Y-81084145D01*
X135508433Y-81044325D01*
X135577480Y-81003491D01*
X135577483Y-81003489D01*
X135584307Y-80999453D01*
X135701953Y-80881807D01*
X135705989Y-80874983D01*
X135705991Y-80874980D01*
X135782608Y-80745427D01*
X135786645Y-80738601D01*
X135788915Y-80730790D01*
X135811751Y-80652185D01*
X135833062Y-80578831D01*
X135833717Y-80570516D01*
X135835807Y-80543958D01*
X135835807Y-80543950D01*
X135836000Y-80541502D01*
X135836000Y-80108498D01*
X135835807Y-80106042D01*
X135833567Y-80077579D01*
X135833566Y-80077574D01*
X135833062Y-80071169D01*
X135792407Y-79931233D01*
X135788857Y-79919012D01*
X135788856Y-79919010D01*
X135786645Y-79911399D01*
X135717225Y-79794016D01*
X135705991Y-79775020D01*
X135705989Y-79775017D01*
X135701953Y-79768193D01*
X135584307Y-79650547D01*
X135577483Y-79646511D01*
X135577480Y-79646509D01*
X135447927Y-79569892D01*
X135447928Y-79569892D01*
X135441101Y-79565855D01*
X135433490Y-79563644D01*
X135433488Y-79563643D01*
X135370198Y-79545256D01*
X135281331Y-79519438D01*
X135274926Y-79518934D01*
X135274921Y-79518933D01*
X135246458Y-79516693D01*
X135246450Y-79516693D01*
X135244002Y-79516500D01*
X135209945Y-79516500D01*
X135141824Y-79496498D01*
X135101493Y-79454642D01*
X135098578Y-79449713D01*
X135098577Y-79449712D01*
X135094542Y-79442889D01*
X135088936Y-79437283D01*
X135088116Y-79436226D01*
X135062169Y-79370141D01*
X135076068Y-79300519D01*
X135125402Y-79249463D01*
X135187675Y-79232999D01*
X135241484Y-79232999D01*
X135246420Y-79232805D01*
X135274836Y-79230570D01*
X135287431Y-79228270D01*
X135433290Y-79185893D01*
X135447721Y-79179648D01*
X135577178Y-79103089D01*
X135589604Y-79093449D01*
X135695949Y-78987104D01*
X135705589Y-78974678D01*
X135782148Y-78845221D01*
X135788393Y-78830790D01*
X135827439Y-78696395D01*
X135827399Y-78682294D01*
X135820130Y-78679000D01*
X134462000Y-78679000D01*
X134393879Y-78658998D01*
X134347386Y-78605342D01*
X134336000Y-78553000D01*
X134336000Y-78152885D01*
X134844000Y-78152885D01*
X134848475Y-78168124D01*
X134849865Y-78169329D01*
X134857548Y-78171000D01*
X135814378Y-78171000D01*
X135827909Y-78167027D01*
X135829044Y-78159129D01*
X135788393Y-78019210D01*
X135782148Y-78004779D01*
X135705589Y-77875322D01*
X135695949Y-77862896D01*
X135589604Y-77756551D01*
X135577178Y-77746911D01*
X135447721Y-77670352D01*
X135433290Y-77664107D01*
X135287435Y-77621731D01*
X135274833Y-77619430D01*
X135246416Y-77617193D01*
X135241486Y-77617000D01*
X134862115Y-77617000D01*
X134846876Y-77621475D01*
X134845671Y-77622865D01*
X134844000Y-77630548D01*
X134844000Y-78152885D01*
X134336000Y-78152885D01*
X134336000Y-77635116D01*
X134331525Y-77619877D01*
X134330135Y-77618672D01*
X134322452Y-77617001D01*
X134287000Y-77617001D01*
X134218879Y-77596999D01*
X134172386Y-77543343D01*
X134161000Y-77491001D01*
X134161000Y-77449500D01*
X134181002Y-77381379D01*
X134234658Y-77334886D01*
X134287000Y-77323500D01*
X135244002Y-77323500D01*
X135246450Y-77323307D01*
X135246458Y-77323307D01*
X135274921Y-77321067D01*
X135274926Y-77321066D01*
X135281331Y-77320562D01*
X135388372Y-77289464D01*
X135433488Y-77276357D01*
X135433490Y-77276356D01*
X135441101Y-77274145D01*
X135492885Y-77243520D01*
X135577480Y-77193491D01*
X135577483Y-77193489D01*
X135584307Y-77189453D01*
X135589915Y-77183845D01*
X135596175Y-77178989D01*
X135597344Y-77180496D01*
X135650667Y-77151379D01*
X135677450Y-77148500D01*
X137155406Y-77148500D01*
X137223527Y-77168502D01*
X137244501Y-77185405D01*
X137674154Y-77615058D01*
X137708180Y-77677370D01*
X137706476Y-77737825D01*
X137701283Y-77756551D01*
X137676707Y-77845169D01*
X137652095Y-78075469D01*
X137652392Y-78080622D01*
X137652392Y-78080625D01*
X137664598Y-78292326D01*
X137665427Y-78306697D01*
X137666564Y-78311743D01*
X137666565Y-78311749D01*
X137697752Y-78450136D01*
X137716346Y-78532642D01*
X137718288Y-78537424D01*
X137718289Y-78537428D01*
X137800140Y-78739001D01*
X137803484Y-78747237D01*
X137924501Y-78944719D01*
X137927882Y-78948622D01*
X138036304Y-79073788D01*
X138065786Y-79138373D01*
X138055671Y-79208646D01*
X138009170Y-79262294D01*
X137985296Y-79274267D01*
X137929515Y-79295179D01*
X137918295Y-79299385D01*
X137801739Y-79386739D01*
X137714385Y-79503295D01*
X137663255Y-79639684D01*
X137656500Y-79701866D01*
X137656500Y-81598134D01*
X137663255Y-81660316D01*
X137714385Y-81796705D01*
X137801739Y-81913261D01*
X137918295Y-82000615D01*
X138054684Y-82051745D01*
X138116866Y-82058500D01*
X140013134Y-82058500D01*
X140075316Y-82051745D01*
X140211705Y-82000615D01*
X140328261Y-81913261D01*
X140415615Y-81796705D01*
X140466745Y-81660316D01*
X140473500Y-81598134D01*
X140473500Y-80590871D01*
X142603456Y-80590871D01*
X142644107Y-80730790D01*
X142650352Y-80745221D01*
X142726911Y-80874678D01*
X142736551Y-80887104D01*
X142842896Y-80993449D01*
X142855322Y-81003089D01*
X142984779Y-81079648D01*
X142999210Y-81085893D01*
X143145065Y-81128269D01*
X143157667Y-81130570D01*
X143186084Y-81132807D01*
X143191014Y-81133000D01*
X143570385Y-81133000D01*
X143585624Y-81128525D01*
X143586829Y-81127135D01*
X143588500Y-81119452D01*
X143588500Y-80597115D01*
X143584025Y-80581876D01*
X143582635Y-80580671D01*
X143574952Y-80579000D01*
X142618122Y-80579000D01*
X142604591Y-80582973D01*
X142603456Y-80590871D01*
X140473500Y-80590871D01*
X140473500Y-79701866D01*
X140466745Y-79639684D01*
X140415615Y-79503295D01*
X140328261Y-79386739D01*
X140211705Y-79299385D01*
X140203296Y-79296233D01*
X140203295Y-79296232D01*
X140144804Y-79274305D01*
X140088039Y-79231664D01*
X140063339Y-79165103D01*
X140078546Y-79095754D01*
X140100093Y-79067073D01*
X140137636Y-79029660D01*
X140137640Y-79029655D01*
X140141303Y-79026005D01*
X140276458Y-78837917D01*
X140279981Y-78830790D01*
X140376784Y-78634922D01*
X140376785Y-78634920D01*
X140379078Y-78630280D01*
X140446408Y-78408671D01*
X140476640Y-78179041D01*
X140476832Y-78171169D01*
X140478245Y-78113365D01*
X140478245Y-78113361D01*
X140478327Y-78110000D01*
X140470497Y-78014758D01*
X140459773Y-77884318D01*
X140459772Y-77884312D01*
X140459349Y-77879167D01*
X140426028Y-77746509D01*
X140404184Y-77659544D01*
X140404183Y-77659540D01*
X140402925Y-77654533D01*
X140396401Y-77639528D01*
X140312630Y-77446868D01*
X140312628Y-77446865D01*
X140310570Y-77442131D01*
X140184764Y-77247665D01*
X140180993Y-77243520D01*
X140098160Y-77152488D01*
X140028887Y-77076358D01*
X140024836Y-77073159D01*
X140024832Y-77073155D01*
X139851177Y-76936011D01*
X139851172Y-76936008D01*
X139847123Y-76932810D01*
X139842607Y-76930317D01*
X139842604Y-76930315D01*
X139648879Y-76823373D01*
X139648875Y-76823371D01*
X139644355Y-76820876D01*
X139639486Y-76819152D01*
X139639482Y-76819150D01*
X139531386Y-76780871D01*
X142603456Y-76780871D01*
X142644107Y-76920790D01*
X142650352Y-76935221D01*
X142726911Y-77064678D01*
X142736551Y-77077104D01*
X142842896Y-77183449D01*
X142855322Y-77193089D01*
X142984779Y-77269648D01*
X142999210Y-77275893D01*
X143145065Y-77318269D01*
X143157667Y-77320570D01*
X143186084Y-77322807D01*
X143191014Y-77323000D01*
X143570385Y-77323000D01*
X143585624Y-77318525D01*
X143586829Y-77317135D01*
X143588500Y-77309452D01*
X143588500Y-76787115D01*
X143584025Y-76771876D01*
X143582635Y-76770671D01*
X143574952Y-76769000D01*
X142618122Y-76769000D01*
X142604591Y-76772973D01*
X142603456Y-76780871D01*
X139531386Y-76780871D01*
X139430903Y-76745288D01*
X139430899Y-76745287D01*
X139426028Y-76743562D01*
X139420935Y-76742655D01*
X139420932Y-76742654D01*
X139203095Y-76703851D01*
X139203089Y-76703850D01*
X139198006Y-76702945D01*
X139125096Y-76702054D01*
X138971581Y-76700179D01*
X138971579Y-76700179D01*
X138966411Y-76700116D01*
X138737464Y-76735150D01*
X138696885Y-76748413D01*
X138625922Y-76750563D01*
X138568647Y-76717742D01*
X137973652Y-76122747D01*
X137966112Y-76114461D01*
X137962000Y-76107982D01*
X137912348Y-76061356D01*
X137909507Y-76058602D01*
X137889770Y-76038865D01*
X137886573Y-76036385D01*
X137877551Y-76028680D01*
X137851100Y-76003841D01*
X137845321Y-75998414D01*
X137838375Y-75994595D01*
X137838372Y-75994593D01*
X137827566Y-75988652D01*
X137811047Y-75977801D01*
X137802263Y-75970988D01*
X137795041Y-75965386D01*
X137787772Y-75962241D01*
X137787768Y-75962238D01*
X137754463Y-75947826D01*
X137743813Y-75942609D01*
X137705060Y-75921305D01*
X137685437Y-75916267D01*
X137666734Y-75909863D01*
X137655420Y-75904967D01*
X137655419Y-75904967D01*
X137648145Y-75901819D01*
X137640322Y-75900580D01*
X137640312Y-75900577D01*
X137604476Y-75894901D01*
X137592856Y-75892495D01*
X137557711Y-75883472D01*
X137557710Y-75883472D01*
X137550030Y-75881500D01*
X137529776Y-75881500D01*
X137510065Y-75879949D01*
X137497886Y-75878020D01*
X137490057Y-75876780D01*
X137482165Y-75877526D01*
X137446039Y-75880941D01*
X137434181Y-75881500D01*
X135677450Y-75881500D01*
X135609329Y-75861498D01*
X135596229Y-75850941D01*
X135596175Y-75851011D01*
X135589915Y-75846155D01*
X135584307Y-75840547D01*
X135577483Y-75836511D01*
X135577480Y-75836509D01*
X135447927Y-75759892D01*
X135447928Y-75759892D01*
X135441101Y-75755855D01*
X135433490Y-75753644D01*
X135433488Y-75753643D01*
X135381269Y-75738472D01*
X135281331Y-75709438D01*
X135274926Y-75708934D01*
X135274921Y-75708933D01*
X135246458Y-75706693D01*
X135246450Y-75706693D01*
X135244002Y-75706500D01*
X135186062Y-75706500D01*
X135117941Y-75686498D01*
X135071448Y-75632842D01*
X135061344Y-75562568D01*
X135094212Y-75494247D01*
X135101160Y-75486848D01*
X135106586Y-75481070D01*
X135109854Y-75475126D01*
X135165676Y-75432084D01*
X135211386Y-75423500D01*
X135244002Y-75423500D01*
X135246450Y-75423307D01*
X135246458Y-75423307D01*
X135274921Y-75421067D01*
X135274926Y-75421066D01*
X135281331Y-75420562D01*
X135381269Y-75391528D01*
X135433488Y-75376357D01*
X135433490Y-75376356D01*
X135441101Y-75374145D01*
X135484468Y-75348498D01*
X135577480Y-75293491D01*
X135577483Y-75293489D01*
X135584307Y-75289453D01*
X135701953Y-75171807D01*
X135705989Y-75164983D01*
X135705991Y-75164980D01*
X135782608Y-75035427D01*
X135786645Y-75028601D01*
X135795804Y-74997077D01*
X135815291Y-74930000D01*
X135833062Y-74868831D01*
X135836000Y-74831502D01*
X135836000Y-74398498D01*
X135833062Y-74361169D01*
X135786645Y-74201399D01*
X135732721Y-74110219D01*
X135705991Y-74065020D01*
X135705989Y-74065017D01*
X135701953Y-74058193D01*
X135584307Y-73940547D01*
X135577483Y-73936511D01*
X135577480Y-73936509D01*
X135447927Y-73859892D01*
X135447928Y-73859892D01*
X135441101Y-73855855D01*
X135433490Y-73853644D01*
X135433488Y-73853643D01*
X135381269Y-73838472D01*
X135281331Y-73809438D01*
X135274926Y-73808934D01*
X135274921Y-73808933D01*
X135246458Y-73806693D01*
X135246450Y-73806693D01*
X135244002Y-73806500D01*
X133935998Y-73806500D01*
X133933550Y-73806693D01*
X133933542Y-73806693D01*
X133905079Y-73808933D01*
X133905074Y-73808934D01*
X133898669Y-73809438D01*
X133798731Y-73838472D01*
X133746512Y-73853643D01*
X133746510Y-73853644D01*
X133738899Y-73855855D01*
X133732072Y-73859892D01*
X133732073Y-73859892D01*
X133602520Y-73936509D01*
X133602517Y-73936511D01*
X133595693Y-73940547D01*
X133478047Y-74058193D01*
X133474011Y-74065017D01*
X133474009Y-74065020D01*
X133447279Y-74110219D01*
X133393355Y-74201399D01*
X133346938Y-74361169D01*
X133344000Y-74398498D01*
X133344000Y-74630500D01*
X133323998Y-74698621D01*
X133270342Y-74745114D01*
X133218000Y-74756500D01*
X132060998Y-74756500D01*
X132058550Y-74756693D01*
X132058542Y-74756693D01*
X132030079Y-74758933D01*
X132030074Y-74758934D01*
X132023669Y-74759438D01*
X131923731Y-74788472D01*
X131871512Y-74803643D01*
X131871510Y-74803644D01*
X131863899Y-74805855D01*
X131857072Y-74809892D01*
X131857073Y-74809892D01*
X131727520Y-74886509D01*
X131727517Y-74886511D01*
X131720693Y-74890547D01*
X131603047Y-75008193D01*
X131599011Y-75015017D01*
X131599009Y-75015020D01*
X131535393Y-75122589D01*
X131518355Y-75151399D01*
X131471938Y-75311169D01*
X131471434Y-75317574D01*
X131471433Y-75317579D01*
X131469970Y-75336173D01*
X131469000Y-75348498D01*
X131469000Y-75781502D01*
X131471938Y-75818831D01*
X131490145Y-75881500D01*
X131515927Y-75970242D01*
X131518355Y-75978601D01*
X131522392Y-75985427D01*
X131599009Y-76114980D01*
X131599011Y-76114983D01*
X131603047Y-76121807D01*
X131720693Y-76239453D01*
X131727517Y-76243489D01*
X131727520Y-76243491D01*
X131790948Y-76281002D01*
X131863899Y-76324145D01*
X131871509Y-76326356D01*
X131871514Y-76326358D01*
X131990652Y-76360970D01*
X132050488Y-76399183D01*
X132080166Y-76463679D01*
X132081500Y-76481967D01*
X132081500Y-77155405D01*
X132061498Y-77223526D01*
X132044595Y-77244501D01*
X131854499Y-77434596D01*
X131792187Y-77468621D01*
X131765404Y-77471500D01*
X130888768Y-77471500D01*
X130877585Y-77470973D01*
X130870092Y-77469298D01*
X130862166Y-77469547D01*
X130862165Y-77469547D01*
X130802002Y-77471438D01*
X130798044Y-77471500D01*
X130770144Y-77471500D01*
X130766154Y-77472004D01*
X130754320Y-77472936D01*
X130710111Y-77474326D01*
X130702495Y-77476539D01*
X130702493Y-77476539D01*
X130690652Y-77479979D01*
X130671293Y-77483988D01*
X130669983Y-77484154D01*
X130651203Y-77486526D01*
X130643837Y-77489442D01*
X130643831Y-77489444D01*
X130610098Y-77502800D01*
X130598868Y-77506645D01*
X130564017Y-77516770D01*
X130556407Y-77518981D01*
X130549584Y-77523016D01*
X130538966Y-77529295D01*
X130521213Y-77537992D01*
X130513568Y-77541019D01*
X130502383Y-77545448D01*
X130495968Y-77550109D01*
X130466612Y-77571437D01*
X130456695Y-77577951D01*
X130418638Y-77600458D01*
X130404317Y-77614779D01*
X130389284Y-77627619D01*
X130372893Y-77639528D01*
X130350152Y-77667017D01*
X130344712Y-77673593D01*
X130336722Y-77682374D01*
X129782742Y-78236353D01*
X129774463Y-78243887D01*
X129767982Y-78248000D01*
X129725088Y-78293678D01*
X129721357Y-78297651D01*
X129718602Y-78300493D01*
X129698865Y-78320230D01*
X129696385Y-78323427D01*
X129688682Y-78332447D01*
X129658414Y-78364679D01*
X129654595Y-78371625D01*
X129654593Y-78371628D01*
X129648652Y-78382434D01*
X129637801Y-78398953D01*
X129625386Y-78414959D01*
X129622241Y-78422228D01*
X129622238Y-78422232D01*
X129607826Y-78455537D01*
X129602609Y-78466187D01*
X129581305Y-78504940D01*
X129579334Y-78512615D01*
X129579334Y-78512616D01*
X129576267Y-78524562D01*
X129569863Y-78543266D01*
X129568465Y-78546498D01*
X129561819Y-78561855D01*
X129560580Y-78569678D01*
X129560577Y-78569688D01*
X129554901Y-78605524D01*
X129552495Y-78617144D01*
X129545611Y-78643958D01*
X129541500Y-78659970D01*
X129541500Y-78680224D01*
X129539949Y-78699934D01*
X129536780Y-78719943D01*
X129537526Y-78727835D01*
X129540941Y-78763961D01*
X129541500Y-78775819D01*
X129541500Y-79931233D01*
X129540973Y-79942416D01*
X129539298Y-79949909D01*
X129539547Y-79957835D01*
X129539547Y-79957836D01*
X129541438Y-80017986D01*
X129541500Y-80021945D01*
X129541500Y-80049856D01*
X129541997Y-80053790D01*
X129541997Y-80053791D01*
X129542005Y-80053856D01*
X129542938Y-80065693D01*
X129544327Y-80109889D01*
X129549978Y-80129339D01*
X129553987Y-80148700D01*
X129556526Y-80168797D01*
X129559445Y-80176168D01*
X129559445Y-80176170D01*
X129572804Y-80209912D01*
X129576649Y-80221142D01*
X129584017Y-80246502D01*
X129588982Y-80263593D01*
X129593015Y-80270412D01*
X129593017Y-80270417D01*
X129599293Y-80281028D01*
X129607988Y-80298776D01*
X129615448Y-80317617D01*
X129620110Y-80324033D01*
X129620110Y-80324034D01*
X129641436Y-80353387D01*
X129647952Y-80363307D01*
X129670458Y-80401362D01*
X129684779Y-80415683D01*
X129697619Y-80430716D01*
X129709528Y-80447107D01*
X129743605Y-80475298D01*
X129752384Y-80483288D01*
X130306343Y-81037247D01*
X130313887Y-81045537D01*
X130318000Y-81052018D01*
X130323777Y-81057443D01*
X130330386Y-81063649D01*
X130366352Y-81124862D01*
X130363515Y-81195802D01*
X130322775Y-81253946D01*
X130257067Y-81280835D01*
X130244134Y-81281500D01*
X128653780Y-81281500D01*
X128585659Y-81261498D01*
X128539166Y-81207842D01*
X128529062Y-81137568D01*
X128558556Y-81072988D01*
X128581509Y-81052287D01*
X128670270Y-80990136D01*
X128670273Y-80990134D01*
X128674781Y-80986977D01*
X128831977Y-80829781D01*
X128842529Y-80814712D01*
X128956331Y-80652185D01*
X128956332Y-80652183D01*
X128959488Y-80647676D01*
X128961811Y-80642694D01*
X128961814Y-80642689D01*
X129051117Y-80451178D01*
X129051118Y-80451177D01*
X129053440Y-80446196D01*
X129060682Y-80419171D01*
X129100540Y-80270417D01*
X129110978Y-80231463D01*
X129130353Y-80010000D01*
X129110978Y-79788537D01*
X129053440Y-79573804D01*
X129048702Y-79563643D01*
X128961814Y-79377311D01*
X128961811Y-79377306D01*
X128959488Y-79372324D01*
X128946934Y-79354395D01*
X128835136Y-79194730D01*
X128835134Y-79194727D01*
X128831977Y-79190219D01*
X128674781Y-79033023D01*
X128670273Y-79029866D01*
X128670270Y-79029864D01*
X128542385Y-78940318D01*
X128492677Y-78905512D01*
X128487695Y-78903189D01*
X128487690Y-78903186D01*
X128382627Y-78854195D01*
X128329342Y-78807278D01*
X128309881Y-78739001D01*
X128330423Y-78671041D01*
X128382627Y-78625805D01*
X128487690Y-78576814D01*
X128487695Y-78576811D01*
X128492677Y-78574488D01*
X128601914Y-78497999D01*
X128670270Y-78450136D01*
X128670273Y-78450134D01*
X128674781Y-78446977D01*
X128831977Y-78289781D01*
X128846180Y-78269498D01*
X128956331Y-78112185D01*
X128956332Y-78112183D01*
X128959488Y-78107676D01*
X128961811Y-78102694D01*
X128961814Y-78102689D01*
X129051117Y-77911178D01*
X129051118Y-77911177D01*
X129053440Y-77906196D01*
X129060682Y-77879171D01*
X129072503Y-77835051D01*
X129110978Y-77691463D01*
X129130353Y-77470000D01*
X129110978Y-77248537D01*
X129053440Y-77033804D01*
X129049202Y-77024715D01*
X128961814Y-76837311D01*
X128961811Y-76837306D01*
X128959488Y-76832324D01*
X128954375Y-76825022D01*
X128835136Y-76654730D01*
X128835134Y-76654727D01*
X128831977Y-76650219D01*
X128674781Y-76493023D01*
X128670273Y-76489866D01*
X128670270Y-76489864D01*
X128540764Y-76399183D01*
X128492677Y-76365512D01*
X128487695Y-76363189D01*
X128487690Y-76363186D01*
X128382627Y-76314195D01*
X128329342Y-76267278D01*
X128309881Y-76199001D01*
X128330423Y-76131041D01*
X128382627Y-76085805D01*
X128487690Y-76036814D01*
X128487695Y-76036811D01*
X128492677Y-76034488D01*
X128654319Y-75921305D01*
X128670270Y-75910136D01*
X128670273Y-75910134D01*
X128674781Y-75906977D01*
X128831977Y-75749781D01*
X128860226Y-75709438D01*
X128956331Y-75572185D01*
X128956332Y-75572183D01*
X128959488Y-75567676D01*
X128961811Y-75562694D01*
X128961814Y-75562689D01*
X129051117Y-75371178D01*
X129051118Y-75371177D01*
X129053440Y-75366196D01*
X129057521Y-75350968D01*
X129104861Y-75174292D01*
X129110978Y-75151463D01*
X129130353Y-74930000D01*
X129110978Y-74708537D01*
X129053440Y-74493804D01*
X128993335Y-74364908D01*
X128961814Y-74297311D01*
X128961811Y-74297306D01*
X128959488Y-74292324D01*
X128941652Y-74266851D01*
X128835136Y-74114730D01*
X128835134Y-74114727D01*
X128831977Y-74110219D01*
X128674781Y-73953023D01*
X128670273Y-73949866D01*
X128670270Y-73949864D01*
X128542959Y-73860720D01*
X128492677Y-73825512D01*
X128487695Y-73823189D01*
X128487690Y-73823186D01*
X128382627Y-73774195D01*
X128329342Y-73727278D01*
X128309881Y-73659001D01*
X128330423Y-73591041D01*
X128382627Y-73545805D01*
X128487690Y-73496814D01*
X128487695Y-73496811D01*
X128492677Y-73494488D01*
X128594505Y-73423187D01*
X128670270Y-73370136D01*
X128670273Y-73370134D01*
X128674781Y-73366977D01*
X128831977Y-73209781D01*
X128864874Y-73162800D01*
X128956331Y-73032185D01*
X128956332Y-73032183D01*
X128959488Y-73027676D01*
X128961811Y-73022694D01*
X128961814Y-73022689D01*
X129051117Y-72831178D01*
X129051118Y-72831177D01*
X129053440Y-72826196D01*
X129110978Y-72611463D01*
X129130353Y-72390000D01*
X129110978Y-72168537D01*
X129055065Y-71959869D01*
X129054863Y-71959114D01*
X129054862Y-71959112D01*
X129053440Y-71953804D01*
X129039693Y-71924323D01*
X128961814Y-71757311D01*
X128961811Y-71757306D01*
X128959488Y-71752324D01*
X128924791Y-71702771D01*
X128835136Y-71574730D01*
X128835134Y-71574727D01*
X128831977Y-71570219D01*
X128674781Y-71413023D01*
X128670273Y-71409866D01*
X128670270Y-71409864D01*
X128583651Y-71349213D01*
X128539323Y-71293756D01*
X128532014Y-71223137D01*
X128564045Y-71159776D01*
X128625246Y-71123791D01*
X128655922Y-71120000D01*
X128852810Y-71120000D01*
X128920931Y-71140002D01*
G37*
%TD.AperFunction*%
%TD*%
M02*
