M48
; DRILL file {KiCad (6.0.6)} date Mon Dec 26 19:12:51 2022
; FORMAT={-:-/ absolute / metric / decimal}
; #@! TF.CreationDate,2022-12-26T19:12:51+01:00
; #@! TF.GenerationSoftware,Kicad,Pcbnew,(6.0.6)
; #@! TF.FileFunction,Plated,1,2,PTH
FMAT,2
METRIC
; #@! TA.AperFunction,Plated,PTH,ViaDrill
T1C0.400
; #@! TA.AperFunction,Plated,PTH,ComponentDrill
T2C0.762
; #@! TA.AperFunction,Plated,PTH,ComponentDrill
T3C0.900
; #@! TA.AperFunction,Plated,PTH,ComponentDrill
T4C1.000
%
G90
G05
T1
X131.445Y-79.375
X131.491Y-86.45
X136.525Y-82.55
X142.24Y-77.47
X142.24Y-86.995
X142.558Y-84.772
T2
X127.855Y-72.39
X127.855Y-74.93
X127.855Y-77.47
X127.855Y-80.01
X127.855Y-82.55
X127.855Y-85.09
X127.855Y-87.63
X127.855Y-90.17
X150.715Y-72.39
X150.715Y-74.93
X150.715Y-77.47
X150.715Y-80.01
X150.715Y-82.55
X150.715Y-85.09
X150.715Y-87.63
X150.715Y-90.17
T3
X139.065Y-78.11
X139.065Y-80.65
X139.065Y-85.09
X139.065Y-87.63
T4
X155.575Y-65.405
X155.575Y-67.945
X155.575Y-70.485
X155.575Y-74.295
X155.575Y-76.835
X155.575Y-79.375
X155.575Y-81.915
X155.575Y-84.455
X155.575Y-86.995
X155.575Y-89.535
X155.575Y-93.36
X155.575Y-95.9
X155.575Y-98.44
T0
M30
